%TF.GenerationSoftware,KiCad,Pcbnew,8.0.3*%
%TF.CreationDate,2024-07-02T21:23:02+01:00*%
%TF.ProjectId,theremin,74686572-656d-4696-9e2e-6b696361645f,rev?*%
%TF.SameCoordinates,Original*%
%TF.FileFunction,Legend,Top*%
%TF.FilePolarity,Positive*%
%FSLAX46Y46*%
G04 Gerber Fmt 4.6, Leading zero omitted, Abs format (unit mm)*
G04 Created by KiCad (PCBNEW 8.0.3) date 2024-07-02 21:23:02*
%MOMM*%
%LPD*%
G01*
G04 APERTURE LIST*
%ADD10C,0.000000*%
%ADD11C,0.200000*%
%ADD12C,0.187500*%
%ADD13C,0.100000*%
%ADD14C,0.150000*%
%ADD15C,0.500000*%
%ADD16C,0.120000*%
G04 APERTURE END LIST*
D10*
G36*
X96449487Y-163775068D02*
G01*
X96454934Y-163775561D01*
X96459970Y-163776383D01*
X96464565Y-163777533D01*
X96468693Y-163779012D01*
X96472325Y-163780820D01*
X96475434Y-163782956D01*
X96477991Y-163785421D01*
X96479970Y-163788215D01*
X96481342Y-163791337D01*
X96482079Y-163794788D01*
X96482153Y-163798568D01*
X96481538Y-163802676D01*
X96480204Y-163807113D01*
X96478124Y-163811879D01*
X96475271Y-163816973D01*
X96471976Y-163821477D01*
X96467790Y-163825848D01*
X96462776Y-163830062D01*
X96456997Y-163834096D01*
X96450519Y-163837930D01*
X96443403Y-163841539D01*
X96435713Y-163844901D01*
X96427514Y-163847995D01*
X96418868Y-163850797D01*
X96409839Y-163853286D01*
X96400491Y-163855438D01*
X96390888Y-163857231D01*
X96381092Y-163858642D01*
X96371167Y-163859650D01*
X96361178Y-163860232D01*
X96351186Y-163860364D01*
X96337349Y-163860174D01*
X96325191Y-163859780D01*
X96314694Y-163859156D01*
X96310063Y-163858749D01*
X96305840Y-163858273D01*
X96302022Y-163857724D01*
X96298609Y-163857100D01*
X96295596Y-163856397D01*
X96292981Y-163855611D01*
X96290763Y-163854739D01*
X96288939Y-163853776D01*
X96287507Y-163852720D01*
X96286463Y-163851567D01*
X96285807Y-163850313D01*
X96285535Y-163848955D01*
X96285645Y-163847488D01*
X96286134Y-163845911D01*
X96287001Y-163844218D01*
X96288243Y-163842406D01*
X96289857Y-163840472D01*
X96291842Y-163838412D01*
X96294194Y-163836223D01*
X96296912Y-163833901D01*
X96299993Y-163831442D01*
X96303435Y-163828843D01*
X96311390Y-163823210D01*
X96320760Y-163816973D01*
X96328960Y-163811879D01*
X96337221Y-163807113D01*
X96345514Y-163802676D01*
X96353812Y-163798568D01*
X96362088Y-163794788D01*
X96370312Y-163791337D01*
X96378458Y-163788215D01*
X96386498Y-163785421D01*
X96394404Y-163782956D01*
X96402148Y-163780820D01*
X96409702Y-163779012D01*
X96417039Y-163777533D01*
X96424130Y-163776383D01*
X96430949Y-163775561D01*
X96437466Y-163775068D01*
X96443655Y-163774904D01*
X96449487Y-163775068D01*
G37*
G36*
X93945127Y-164794500D02*
G01*
X93947027Y-164795018D01*
X93948336Y-164795735D01*
X93949062Y-164796645D01*
X93949217Y-164797743D01*
X93948811Y-164799024D01*
X93947852Y-164800483D01*
X93944320Y-164803912D01*
X93938700Y-164807990D01*
X93931072Y-164812674D01*
X93921517Y-164817924D01*
X93896943Y-164829955D01*
X93865615Y-164843750D01*
X93828172Y-164858978D01*
X93785253Y-164875306D01*
X93739636Y-164891646D01*
X93694456Y-164906903D01*
X93650894Y-164920741D01*
X93610132Y-164932820D01*
X93573351Y-164942803D01*
X93541732Y-164950353D01*
X93528228Y-164953109D01*
X93516458Y-164955130D01*
X93506569Y-164956374D01*
X93498708Y-164956798D01*
X93493092Y-164956374D01*
X93491191Y-164955852D01*
X93489883Y-164955130D01*
X93489156Y-164954214D01*
X93489000Y-164953109D01*
X93489407Y-164951820D01*
X93490365Y-164950353D01*
X93493897Y-164946904D01*
X93499517Y-164942803D01*
X93507144Y-164938095D01*
X93516700Y-164932820D01*
X93541274Y-164920741D01*
X93572601Y-164906903D01*
X93610043Y-164891646D01*
X93652960Y-164875306D01*
X93698579Y-164858978D01*
X93743761Y-164843750D01*
X93787324Y-164829955D01*
X93828087Y-164817924D01*
X93864869Y-164807990D01*
X93896488Y-164800483D01*
X93909992Y-164797743D01*
X93921763Y-164795735D01*
X93931652Y-164794500D01*
X93939512Y-164794079D01*
X93945127Y-164794500D01*
G37*
D11*
G36*
X210585293Y-85495000D02*
G01*
X210361811Y-85495000D01*
X210264724Y-85166737D01*
X209819592Y-85166737D01*
X209724703Y-85495000D01*
X209501221Y-85495000D01*
X209663128Y-84979159D01*
X209876378Y-84979159D01*
X210207938Y-84979159D01*
X210043074Y-84424483D01*
X209876378Y-84979159D01*
X209663128Y-84979159D01*
X209920708Y-84158503D01*
X210165806Y-84158503D01*
X210585293Y-85495000D01*
G37*
G36*
X211268758Y-84514931D02*
G01*
X211341062Y-84529087D01*
X211402285Y-84550146D01*
X211469587Y-84584871D01*
X211529162Y-84629693D01*
X211564585Y-84665184D01*
X211611245Y-84726528D01*
X211646684Y-84791086D01*
X211670464Y-84849832D01*
X211690557Y-84920822D01*
X211703208Y-84997322D01*
X211708231Y-85070883D01*
X211708566Y-85096395D01*
X210903663Y-85096395D01*
X210924340Y-85167390D01*
X210966740Y-85233370D01*
X210998185Y-85264190D01*
X211064887Y-85304822D01*
X211139426Y-85325594D01*
X211209944Y-85330868D01*
X211284116Y-85326335D01*
X211360882Y-85309585D01*
X211390562Y-85298628D01*
X211458021Y-85263391D01*
X211519684Y-85215512D01*
X211523185Y-85212166D01*
X211632362Y-85362009D01*
X211573357Y-85412792D01*
X211505973Y-85455843D01*
X211435991Y-85485474D01*
X211362502Y-85504247D01*
X211284598Y-85515227D01*
X211209944Y-85518447D01*
X211135192Y-85514074D01*
X211057792Y-85499331D01*
X211002582Y-85481444D01*
X210934421Y-85449347D01*
X210868603Y-85405389D01*
X210836619Y-85377763D01*
X210784782Y-85319415D01*
X210742983Y-85252723D01*
X210727076Y-85219127D01*
X210702965Y-85147274D01*
X210689981Y-85069651D01*
X210687509Y-85014696D01*
X210692609Y-84935183D01*
X210698004Y-84908817D01*
X210913189Y-84908817D01*
X211467498Y-84908817D01*
X211443703Y-84837413D01*
X211399108Y-84778586D01*
X211371511Y-84755676D01*
X211303586Y-84718198D01*
X211228405Y-84699826D01*
X211191259Y-84697791D01*
X211118359Y-84705931D01*
X211046011Y-84733121D01*
X211009909Y-84755676D01*
X210955240Y-84808699D01*
X210921612Y-84874298D01*
X210913189Y-84908817D01*
X210698004Y-84908817D01*
X210707910Y-84860411D01*
X210723779Y-84813196D01*
X210758443Y-84742294D01*
X210802903Y-84679616D01*
X210826727Y-84653461D01*
X210885196Y-84603350D01*
X210952251Y-84563155D01*
X210986095Y-84547948D01*
X211058567Y-84524953D01*
X211136396Y-84512571D01*
X211191259Y-84510212D01*
X211268758Y-84514931D01*
G37*
G36*
X212790806Y-84735893D02*
G01*
X212720242Y-84709611D01*
X212712770Y-84707683D01*
X212637393Y-84698032D01*
X212621546Y-84697791D01*
X212548510Y-84704098D01*
X212488189Y-84720139D01*
X212420170Y-84754250D01*
X212380478Y-84786817D01*
X212333634Y-84847338D01*
X212309770Y-84897826D01*
X212291085Y-84970641D01*
X212284954Y-85044422D01*
X212284857Y-85055729D01*
X212284857Y-85307421D01*
X212499913Y-85307421D01*
X212499913Y-85495000D01*
X211854012Y-85495000D01*
X211854012Y-85307421D01*
X212071266Y-85307421D01*
X212071266Y-84697791D01*
X211854012Y-84697791D01*
X211854012Y-84533660D01*
X212284857Y-84533660D01*
X212284857Y-84774361D01*
X212318296Y-84699860D01*
X212359677Y-84638748D01*
X212414968Y-84586548D01*
X212439829Y-84570296D01*
X212507699Y-84538611D01*
X212583083Y-84518662D01*
X212657352Y-84510740D01*
X212683461Y-84510212D01*
X212758158Y-84515775D01*
X212776151Y-84518639D01*
X212847661Y-84537942D01*
X212871040Y-84547581D01*
X212790806Y-84735893D01*
G37*
G36*
X213609996Y-84417889D02*
G01*
X213350244Y-84417889D01*
X213350244Y-84158503D01*
X213609996Y-84158503D01*
X213609996Y-84417889D01*
G37*
G36*
X213805635Y-85495000D02*
G01*
X213160834Y-85495000D01*
X213160834Y-85307421D01*
X213372959Y-85307421D01*
X213372959Y-84721238D01*
X213160834Y-84721238D01*
X213160834Y-84533660D01*
X213586183Y-84533660D01*
X213586183Y-85307421D01*
X213805635Y-85307421D01*
X213805635Y-85495000D01*
G37*
G36*
X214708906Y-84514609D02*
G01*
X214785293Y-84527798D01*
X214857192Y-84551062D01*
X214921214Y-84585683D01*
X214978515Y-84635326D01*
X215017568Y-84690464D01*
X215044770Y-84762546D01*
X215053696Y-84838090D01*
X215053838Y-84849832D01*
X215053838Y-85495000D01*
X214842446Y-85495000D01*
X214842446Y-85356147D01*
X214793446Y-85413035D01*
X214728605Y-85458676D01*
X214693335Y-85475949D01*
X214624058Y-85500144D01*
X214551231Y-85514297D01*
X214481943Y-85518447D01*
X214405539Y-85512419D01*
X214349319Y-85499396D01*
X214281301Y-85470492D01*
X214241608Y-85442976D01*
X214192149Y-85388479D01*
X214169068Y-85349187D01*
X214146432Y-85277117D01*
X214141957Y-85220959D01*
X214143035Y-85212899D01*
X214352983Y-85212899D01*
X214378795Y-85284787D01*
X214447805Y-85321537D01*
X214525239Y-85330753D01*
X214536532Y-85330868D01*
X214611837Y-85324571D01*
X214654134Y-85314748D01*
X214723967Y-85286365D01*
X214751587Y-85269685D01*
X214806810Y-85217307D01*
X214818266Y-85200076D01*
X214841596Y-85127835D01*
X214842446Y-85109584D01*
X214842446Y-85072948D01*
X214767250Y-85072948D01*
X214747557Y-85072948D01*
X214673454Y-85072948D01*
X214669155Y-85072948D01*
X214595722Y-85075467D01*
X214517390Y-85085699D01*
X214443133Y-85108368D01*
X214432850Y-85113248D01*
X214372950Y-85158311D01*
X214352983Y-85212899D01*
X214143035Y-85212899D01*
X214151859Y-85146894D01*
X214184248Y-85078006D01*
X214187020Y-85074047D01*
X214239502Y-85016345D01*
X214301514Y-84971898D01*
X214306088Y-84969267D01*
X214374911Y-84936469D01*
X214446100Y-84913297D01*
X214475349Y-84906252D01*
X214553348Y-84892731D01*
X214626420Y-84886369D01*
X214669522Y-84885369D01*
X214745201Y-84885369D01*
X214762945Y-84885369D01*
X214837413Y-84885369D01*
X214842446Y-84885369D01*
X214842446Y-84847267D01*
X214824014Y-84774830D01*
X214784194Y-84735160D01*
X214712065Y-84706002D01*
X214637292Y-84697827D01*
X214631420Y-84697791D01*
X214554884Y-84702489D01*
X214477226Y-84716584D01*
X214454832Y-84722337D01*
X214383712Y-84745611D01*
X214315615Y-84776141D01*
X214285206Y-84792679D01*
X214198377Y-84626350D01*
X214265258Y-84592008D01*
X214335429Y-84563035D01*
X214402076Y-84541353D01*
X214478268Y-84523624D01*
X214557231Y-84513253D01*
X214631420Y-84510212D01*
X214708906Y-84514609D01*
G37*
G36*
X216099808Y-85495000D02*
G01*
X215454640Y-85495000D01*
X215454640Y-85307421D01*
X215664934Y-85307421D01*
X215664934Y-84346081D01*
X215454640Y-84346081D01*
X215454640Y-84158503D01*
X215878158Y-84158503D01*
X215878158Y-85307421D01*
X216099808Y-85307421D01*
X216099808Y-85495000D01*
G37*
G36*
X123501536Y-75376761D02*
G01*
X123578533Y-75382791D01*
X123652625Y-75402637D01*
X123666400Y-75408268D01*
X123733078Y-75445454D01*
X123788766Y-75493997D01*
X123833096Y-75553073D01*
X123865702Y-75622591D01*
X123884899Y-75694751D01*
X123892342Y-75771097D01*
X123892447Y-75781593D01*
X123886945Y-75855606D01*
X123868712Y-75928415D01*
X123859108Y-75952685D01*
X123818010Y-76019377D01*
X123762511Y-76073052D01*
X123748466Y-76083477D01*
X123869000Y-76083477D01*
X123869000Y-76275086D01*
X123433026Y-76275086D01*
X123433026Y-76083477D01*
X123505912Y-76075340D01*
X123549530Y-76060396D01*
X123613732Y-76019120D01*
X123634526Y-75998847D01*
X123675514Y-75937830D01*
X123686916Y-75910553D01*
X123703115Y-75838092D01*
X123704868Y-75803209D01*
X123696453Y-75726623D01*
X123666228Y-75656441D01*
X123660905Y-75648969D01*
X123599121Y-75602945D01*
X123526192Y-75590042D01*
X123520221Y-75589985D01*
X123447738Y-75601836D01*
X123433759Y-75607936D01*
X123375002Y-75653413D01*
X123369645Y-75659594D01*
X123328641Y-75723928D01*
X123320552Y-75741659D01*
X123291716Y-75810812D01*
X123275856Y-75851569D01*
X123249752Y-75924842D01*
X123222452Y-75993535D01*
X123220535Y-75998114D01*
X123186188Y-76067266D01*
X123144697Y-76128906D01*
X123090639Y-76184024D01*
X123033323Y-76222696D01*
X122963588Y-76248466D01*
X122890910Y-76258038D01*
X122866260Y-76258599D01*
X122788396Y-76251515D01*
X122716165Y-76228343D01*
X122712021Y-76226359D01*
X122647562Y-76185718D01*
X122600646Y-76139897D01*
X122558685Y-76077427D01*
X122532136Y-76014234D01*
X122514826Y-75940229D01*
X122509078Y-75866856D01*
X122509055Y-75861827D01*
X122516489Y-75785772D01*
X122540950Y-75715490D01*
X122547890Y-75702825D01*
X122593044Y-75643840D01*
X122650838Y-75600243D01*
X122532503Y-75600243D01*
X122532503Y-75408634D01*
X122948326Y-75408634D01*
X122948326Y-75600243D01*
X122872909Y-75607602D01*
X122799742Y-75635276D01*
X122763312Y-75662525D01*
X122717731Y-75725226D01*
X122698262Y-75798141D01*
X122696634Y-75829953D01*
X122704909Y-75905097D01*
X122734630Y-75976377D01*
X122739865Y-75984193D01*
X122799216Y-76033665D01*
X122860765Y-76045375D01*
X122928909Y-76029622D01*
X122980200Y-75983093D01*
X123018347Y-75917818D01*
X123023431Y-75906523D01*
X123052538Y-75835794D01*
X123067028Y-75799179D01*
X123093448Y-75727979D01*
X123123249Y-75657263D01*
X123127478Y-75647870D01*
X123162539Y-75580578D01*
X123204522Y-75520208D01*
X123210643Y-75512682D01*
X123265048Y-75458368D01*
X123330078Y-75414863D01*
X123402603Y-75387514D01*
X123476658Y-75377356D01*
X123501536Y-75376761D01*
G37*
G36*
X123470395Y-74961304D02*
G01*
X123541390Y-74940627D01*
X123607370Y-74898227D01*
X123638190Y-74866782D01*
X123678822Y-74800080D01*
X123699594Y-74725541D01*
X123704868Y-74655023D01*
X123700335Y-74580851D01*
X123683585Y-74504085D01*
X123672628Y-74474405D01*
X123637391Y-74406946D01*
X123589512Y-74345283D01*
X123586166Y-74341782D01*
X123736009Y-74232605D01*
X123786792Y-74291610D01*
X123829843Y-74358994D01*
X123859474Y-74428976D01*
X123878247Y-74502465D01*
X123889227Y-74580369D01*
X123892447Y-74655023D01*
X123888074Y-74729775D01*
X123873331Y-74807175D01*
X123855444Y-74862385D01*
X123823347Y-74930546D01*
X123779389Y-74996364D01*
X123751763Y-75028348D01*
X123693415Y-75080185D01*
X123626723Y-75121984D01*
X123593127Y-75137891D01*
X123521274Y-75162002D01*
X123443651Y-75174986D01*
X123388696Y-75177458D01*
X123309183Y-75172358D01*
X123234411Y-75157057D01*
X123187196Y-75141188D01*
X123116294Y-75106524D01*
X123053616Y-75062064D01*
X123027461Y-75038240D01*
X122977350Y-74979771D01*
X122937155Y-74912716D01*
X122921948Y-74878872D01*
X122898953Y-74806400D01*
X122886571Y-74728571D01*
X122884212Y-74673708D01*
X123071791Y-74673708D01*
X123079931Y-74746608D01*
X123107121Y-74818956D01*
X123129676Y-74855058D01*
X123182699Y-74909727D01*
X123248298Y-74943355D01*
X123282817Y-74951778D01*
X123282817Y-74397469D01*
X123211413Y-74421264D01*
X123152586Y-74465859D01*
X123129676Y-74493456D01*
X123092198Y-74561381D01*
X123073826Y-74636562D01*
X123071791Y-74673708D01*
X122884212Y-74673708D01*
X122888931Y-74596209D01*
X122903087Y-74523905D01*
X122924146Y-74462682D01*
X122958871Y-74395380D01*
X123003693Y-74335805D01*
X123039184Y-74300382D01*
X123100528Y-74253722D01*
X123165086Y-74218283D01*
X123223832Y-74194503D01*
X123294822Y-74174410D01*
X123371322Y-74161759D01*
X123444883Y-74156736D01*
X123470395Y-74156401D01*
X123470395Y-74961304D01*
G37*
G36*
X123869000Y-73101272D02*
G01*
X123869000Y-73314496D01*
X123272192Y-73314496D01*
X123197076Y-73320472D01*
X123127375Y-73347034D01*
X123115388Y-73356994D01*
X123077922Y-73424543D01*
X123071791Y-73479360D01*
X123083220Y-73555564D01*
X123117506Y-73621465D01*
X123168511Y-73672434D01*
X123235959Y-73711847D01*
X123309021Y-73734838D01*
X123383794Y-73745348D01*
X123435224Y-73747172D01*
X123869000Y-73747172D01*
X123869000Y-73960396D01*
X122907660Y-73960396D01*
X122907660Y-73747172D01*
X123148361Y-73747172D01*
X123075682Y-73721920D01*
X123008215Y-73681829D01*
X122953822Y-73628837D01*
X122914191Y-73564467D01*
X122891010Y-73490746D01*
X122884212Y-73415613D01*
X122891805Y-73337811D01*
X122918052Y-73263193D01*
X122963046Y-73201026D01*
X122980200Y-73184803D01*
X123042365Y-73144424D01*
X123111345Y-73119626D01*
X123193238Y-73105269D01*
X123275489Y-73101272D01*
X123869000Y-73101272D01*
G37*
G36*
X123579205Y-71930372D02*
G01*
X123654930Y-71938506D01*
X123725157Y-71967724D01*
X123732712Y-71972870D01*
X123789076Y-72024460D01*
X123828333Y-72081314D01*
X123859016Y-72151564D01*
X123877633Y-72224578D01*
X123878525Y-72229692D01*
X123888518Y-72305743D01*
X123892392Y-72380023D01*
X123892447Y-72389793D01*
X123889520Y-72463453D01*
X123880739Y-72536882D01*
X123866104Y-72610079D01*
X123855444Y-72650644D01*
X123832627Y-72720843D01*
X123803060Y-72792384D01*
X123765413Y-72863228D01*
X123757991Y-72875225D01*
X123584334Y-72786565D01*
X123621794Y-72717672D01*
X123654321Y-72646186D01*
X123677757Y-72579203D01*
X123695311Y-72502343D01*
X123703915Y-72425363D01*
X123704868Y-72389793D01*
X123702185Y-72316255D01*
X123690673Y-72241089D01*
X123677391Y-72202581D01*
X123626726Y-72148262D01*
X123600821Y-72143596D01*
X123561620Y-72160082D01*
X123533043Y-72214671D01*
X123513466Y-72285631D01*
X123507032Y-72315421D01*
X123492708Y-72390177D01*
X123480446Y-72464629D01*
X123479554Y-72470393D01*
X123465632Y-72542567D01*
X123448780Y-72611077D01*
X123423535Y-72680693D01*
X123397489Y-72727947D01*
X123348945Y-72783274D01*
X123313225Y-72808913D01*
X123243582Y-72834303D01*
X123185364Y-72839322D01*
X123112732Y-72829430D01*
X123050175Y-72799754D01*
X122994462Y-72750397D01*
X122954921Y-72695341D01*
X122922772Y-72626922D01*
X122902116Y-72555626D01*
X122901065Y-72550627D01*
X122888969Y-72475327D01*
X122884278Y-72399866D01*
X122884212Y-72389793D01*
X122887632Y-72312742D01*
X122897892Y-72237251D01*
X122913155Y-72169974D01*
X122935745Y-72099752D01*
X122967104Y-72030157D01*
X122995221Y-71982762D01*
X123158253Y-72067392D01*
X123122556Y-72131857D01*
X123094740Y-72204435D01*
X123089743Y-72223463D01*
X123076857Y-72297781D01*
X123071949Y-72372954D01*
X123071791Y-72389793D01*
X123075655Y-72464132D01*
X123076187Y-72469294D01*
X123091559Y-72543294D01*
X123092307Y-72545498D01*
X123124181Y-72603749D01*
X123173640Y-72626830D01*
X123229940Y-72575219D01*
X123236288Y-72559419D01*
X123257446Y-72482132D01*
X123272558Y-72404516D01*
X123284648Y-72328976D01*
X123296810Y-72254414D01*
X123312642Y-72181218D01*
X123316156Y-72167410D01*
X123340327Y-72095451D01*
X123368180Y-72041747D01*
X123416236Y-71984960D01*
X123452077Y-71959681D01*
X123521639Y-71935209D01*
X123579205Y-71930372D01*
G37*
G36*
X122791889Y-71108983D02*
G01*
X122791889Y-71368736D01*
X122532503Y-71368736D01*
X122532503Y-71108983D01*
X122791889Y-71108983D01*
G37*
G36*
X123869000Y-70913345D02*
G01*
X123869000Y-71558146D01*
X123681421Y-71558146D01*
X123681421Y-71346021D01*
X123095238Y-71346021D01*
X123095238Y-71558146D01*
X122907660Y-71558146D01*
X122907660Y-71132797D01*
X123681421Y-71132797D01*
X123681421Y-70913345D01*
X123869000Y-70913345D01*
G37*
G36*
X123567848Y-69602493D02*
G01*
X123647681Y-69618577D01*
X123717372Y-69648282D01*
X123776919Y-69691607D01*
X123805618Y-69721562D01*
X123847591Y-69783115D01*
X123875827Y-69852783D01*
X123890327Y-69930565D01*
X123892447Y-69977284D01*
X123886329Y-70053405D01*
X123866316Y-70127502D01*
X123864603Y-70131890D01*
X123828529Y-70200552D01*
X123786568Y-70251691D01*
X123727941Y-70298037D01*
X123666766Y-70328627D01*
X123593494Y-70348961D01*
X123518811Y-70355712D01*
X123513626Y-70355738D01*
X123095238Y-70355738D01*
X123095238Y-70572992D01*
X122907660Y-70572992D01*
X122907660Y-70355738D01*
X122532503Y-70355738D01*
X122532503Y-70142148D01*
X122907660Y-70142148D01*
X122907660Y-69739514D01*
X123095238Y-69739514D01*
X123095238Y-70142148D01*
X123518023Y-70142148D01*
X123591473Y-70133523D01*
X123658706Y-70097085D01*
X123697250Y-70032935D01*
X123704868Y-69977284D01*
X123693357Y-69902591D01*
X123652478Y-69842462D01*
X123586288Y-69803951D01*
X123525350Y-69789705D01*
X123567848Y-69602493D01*
G37*
G36*
X122791889Y-68817008D02*
G01*
X122791889Y-69076761D01*
X122532503Y-69076761D01*
X122532503Y-68817008D01*
X122791889Y-68817008D01*
G37*
G36*
X123869000Y-68621370D02*
G01*
X123869000Y-69266171D01*
X123681421Y-69266171D01*
X123681421Y-69054046D01*
X123095238Y-69054046D01*
X123095238Y-69266171D01*
X122907660Y-69266171D01*
X122907660Y-68840822D01*
X123681421Y-68840822D01*
X123681421Y-68621370D01*
X123869000Y-68621370D01*
G37*
G36*
X122907660Y-67320777D02*
G01*
X123869000Y-67675051D01*
X123869000Y-67926377D01*
X122907660Y-68281017D01*
X122907660Y-68053139D01*
X123634893Y-67799981D01*
X122907660Y-67548289D01*
X122907660Y-67320777D01*
G37*
G36*
X122791889Y-66525033D02*
G01*
X122791889Y-66784786D01*
X122532503Y-66784786D01*
X122532503Y-66525033D01*
X122791889Y-66525033D01*
G37*
G36*
X123869000Y-66329395D02*
G01*
X123869000Y-66974196D01*
X123681421Y-66974196D01*
X123681421Y-66762071D01*
X123095238Y-66762071D01*
X123095238Y-66974196D01*
X122907660Y-66974196D01*
X122907660Y-66548847D01*
X123681421Y-66548847D01*
X123681421Y-66329395D01*
X123869000Y-66329395D01*
G37*
G36*
X123567848Y-65018544D02*
G01*
X123647681Y-65034627D01*
X123717372Y-65064332D01*
X123776919Y-65107657D01*
X123805618Y-65137612D01*
X123847591Y-65199165D01*
X123875827Y-65268833D01*
X123890327Y-65346616D01*
X123892447Y-65393334D01*
X123886329Y-65469455D01*
X123866316Y-65543552D01*
X123864603Y-65547940D01*
X123828529Y-65616602D01*
X123786568Y-65667741D01*
X123727941Y-65714088D01*
X123666766Y-65744678D01*
X123593494Y-65765011D01*
X123518811Y-65771762D01*
X123513626Y-65771789D01*
X123095238Y-65771789D01*
X123095238Y-65989043D01*
X122907660Y-65989043D01*
X122907660Y-65771789D01*
X122532503Y-65771789D01*
X122532503Y-65558198D01*
X122907660Y-65558198D01*
X122907660Y-65155564D01*
X123095238Y-65155564D01*
X123095238Y-65558198D01*
X123518023Y-65558198D01*
X123591473Y-65549573D01*
X123658706Y-65513135D01*
X123697250Y-65448985D01*
X123704868Y-65393334D01*
X123693357Y-65318641D01*
X123652478Y-65258512D01*
X123586288Y-65220001D01*
X123525350Y-65205756D01*
X123567848Y-65018544D01*
G37*
G36*
X122907660Y-63890874D02*
G01*
X124051083Y-64305232D01*
X124121085Y-64338234D01*
X124180485Y-64384122D01*
X124221442Y-64440054D01*
X124249572Y-64511341D01*
X124263952Y-64585105D01*
X124267604Y-64651447D01*
X124261344Y-64727239D01*
X124258811Y-64742305D01*
X124240452Y-64813904D01*
X124229868Y-64843055D01*
X124026903Y-64798725D01*
X124048180Y-64726757D01*
X124049983Y-64717392D01*
X124056578Y-64651447D01*
X124040590Y-64579168D01*
X123987975Y-64527718D01*
X123973047Y-64520655D01*
X123881456Y-64482553D01*
X122907660Y-64849283D01*
X122907660Y-64627633D01*
X123634160Y-64363851D01*
X122907660Y-64119852D01*
X122907660Y-63890874D01*
G37*
G36*
X96794016Y-90825652D02*
G01*
X96791842Y-90901770D01*
X96785322Y-90975974D01*
X96772978Y-91056181D01*
X96766538Y-91087602D01*
X96746124Y-91162664D01*
X96718768Y-91232145D01*
X96680660Y-91302127D01*
X96676779Y-91308154D01*
X96629674Y-91369556D01*
X96573998Y-91421781D01*
X96515945Y-91461294D01*
X96443378Y-91493833D01*
X96368616Y-91511693D01*
X96294173Y-91518224D01*
X96276709Y-91518447D01*
X96200759Y-91513868D01*
X96124324Y-91498040D01*
X96049914Y-91467571D01*
X96037473Y-91460561D01*
X95974422Y-91416349D01*
X95919769Y-91363306D01*
X95877372Y-91307421D01*
X95838666Y-91238427D01*
X95810616Y-91169619D01*
X95789364Y-91095015D01*
X95787613Y-91087236D01*
X95773316Y-91008067D01*
X95764315Y-90927181D01*
X95760740Y-90852915D01*
X95760502Y-90827850D01*
X95762647Y-90752972D01*
X95769080Y-90679601D01*
X95781259Y-90599846D01*
X95787613Y-90568464D01*
X95808185Y-90493174D01*
X95835555Y-90423464D01*
X95873514Y-90353230D01*
X95877372Y-90347180D01*
X95924390Y-90285483D01*
X95979807Y-90232876D01*
X96037473Y-90192941D01*
X96109876Y-90159985D01*
X96184637Y-90141895D01*
X96259203Y-90135281D01*
X96276709Y-90135055D01*
X96350895Y-90144082D01*
X96358775Y-90146046D01*
X96427361Y-90172940D01*
X96439375Y-90179752D01*
X96497412Y-90225646D01*
X96506786Y-90235806D01*
X96544248Y-90299107D01*
X96548552Y-90312376D01*
X96548552Y-90158503D01*
X96741259Y-90158503D01*
X96741259Y-90630746D01*
X96548552Y-90630746D01*
X96540824Y-90554697D01*
X96528768Y-90511678D01*
X96496025Y-90444103D01*
X96473081Y-90413492D01*
X96416786Y-90363715D01*
X96386619Y-90346814D01*
X96313102Y-90324995D01*
X96276709Y-90322634D01*
X96203520Y-90331329D01*
X96135330Y-90362562D01*
X96127965Y-90368063D01*
X96076033Y-90420178D01*
X96035275Y-90485666D01*
X96007234Y-90557193D01*
X95989343Y-90630924D01*
X95986549Y-90647599D01*
X95977535Y-90720710D01*
X95973116Y-90794183D01*
X95972627Y-90828217D01*
X95974925Y-90901858D01*
X95981818Y-90975136D01*
X95986549Y-91008834D01*
X96002587Y-91083937D01*
X96028331Y-91156779D01*
X96034543Y-91170401D01*
X96074751Y-91235339D01*
X96127233Y-91286538D01*
X96193911Y-91319786D01*
X96271062Y-91330825D01*
X96276709Y-91330868D01*
X96353517Y-91322496D01*
X96426600Y-91293948D01*
X96487735Y-91245139D01*
X96533137Y-91182328D01*
X96565495Y-91110013D01*
X96587494Y-91033179D01*
X96598011Y-90979159D01*
X96314811Y-90979159D01*
X96314811Y-90791580D01*
X96794016Y-90791580D01*
X96794016Y-90825652D01*
G37*
G36*
X97836688Y-91495000D02*
G01*
X97589393Y-91495000D01*
X97190788Y-90526332D01*
X97190788Y-91495000D01*
X96977564Y-91495000D01*
X96977564Y-90158503D01*
X97245376Y-90158503D01*
X97623464Y-91079176D01*
X97623464Y-90158503D01*
X97836688Y-90158503D01*
X97836688Y-91495000D01*
G37*
G36*
X98634260Y-90162850D02*
G01*
X98709279Y-90177876D01*
X98783039Y-90206803D01*
X98795464Y-90213457D01*
X98858932Y-90255316D01*
X98913829Y-90305833D01*
X98956298Y-90359270D01*
X98995429Y-90425494D01*
X99026681Y-90498731D01*
X99048255Y-90571395D01*
X99063711Y-90648088D01*
X99073443Y-90727501D01*
X99077307Y-90801297D01*
X99077564Y-90826385D01*
X99075304Y-90900796D01*
X99067490Y-90981095D01*
X99054095Y-91058890D01*
X99048988Y-91081741D01*
X99028029Y-91154670D01*
X98997289Y-91228281D01*
X98958496Y-91294965D01*
X98911391Y-91353518D01*
X98855715Y-91403240D01*
X98797662Y-91440778D01*
X98725311Y-91471648D01*
X98651122Y-91488592D01*
X98577500Y-91494788D01*
X98560258Y-91495000D01*
X98123552Y-91495000D01*
X98123552Y-91307421D01*
X98336776Y-91307421D01*
X98560258Y-91307421D01*
X98636826Y-91297481D01*
X98709598Y-91263120D01*
X98764019Y-91211210D01*
X98784839Y-91181758D01*
X98819621Y-91112240D01*
X98841903Y-91040744D01*
X98856576Y-90959289D01*
X98863098Y-90881545D01*
X98864340Y-90825652D01*
X98861545Y-90742138D01*
X98853160Y-90666352D01*
X98836313Y-90587703D01*
X98807742Y-90510697D01*
X98784839Y-90469546D01*
X98735081Y-90409863D01*
X98667489Y-90366458D01*
X98595583Y-90348010D01*
X98560258Y-90346081D01*
X98336776Y-90346081D01*
X98336776Y-91307421D01*
X98123552Y-91307421D01*
X98123552Y-90158503D01*
X98560258Y-90158503D01*
X98634260Y-90162850D01*
G37*
G36*
X159832503Y-72062304D02*
G01*
X161169000Y-72481425D01*
X161169000Y-72724691D01*
X159832503Y-73144178D01*
X159832503Y-72920696D01*
X160890563Y-72602325D01*
X159832503Y-72285786D01*
X159832503Y-72062304D01*
G37*
G36*
X160763597Y-70956420D02*
G01*
X160839778Y-70970579D01*
X160893127Y-70987758D01*
X160963671Y-71021771D01*
X161025870Y-71066064D01*
X161051763Y-71089974D01*
X161100865Y-71148205D01*
X161140413Y-71215144D01*
X161155444Y-71248976D01*
X161177993Y-71321533D01*
X161190134Y-71400170D01*
X161192447Y-71455971D01*
X161188074Y-71530959D01*
X161173331Y-71607432D01*
X161155444Y-71661135D01*
X161120305Y-71732153D01*
X161075612Y-71794585D01*
X161051763Y-71820504D01*
X160993415Y-71869303D01*
X160926723Y-71907945D01*
X160893127Y-71922353D01*
X160821274Y-71944009D01*
X160743651Y-71955669D01*
X160688696Y-71957890D01*
X160615499Y-71953691D01*
X160539893Y-71939532D01*
X160486096Y-71922353D01*
X160419687Y-71891372D01*
X160356000Y-71848043D01*
X160325263Y-71820504D01*
X160275333Y-71762035D01*
X160235682Y-71694980D01*
X160220849Y-71661135D01*
X160198523Y-71588836D01*
X160186502Y-71510972D01*
X160184227Y-71456338D01*
X160371791Y-71456338D01*
X160380444Y-71531915D01*
X160396337Y-71577971D01*
X160436128Y-71641075D01*
X160463016Y-71668463D01*
X160525406Y-71709771D01*
X160564132Y-71725616D01*
X160636936Y-71742440D01*
X160689429Y-71745766D01*
X160763386Y-71739390D01*
X160815458Y-71725616D01*
X160883671Y-71691911D01*
X160914743Y-71668463D01*
X160962798Y-71612796D01*
X160981421Y-71577971D01*
X161001571Y-71505213D01*
X161004868Y-71456338D01*
X160996602Y-71381372D01*
X160981421Y-71335438D01*
X160941961Y-71271214D01*
X160914743Y-71243114D01*
X160852645Y-71200836D01*
X160815458Y-71184862D01*
X160743633Y-71168037D01*
X160689429Y-71164712D01*
X160613443Y-71171815D01*
X160564132Y-71184862D01*
X160496813Y-71217062D01*
X160463016Y-71243114D01*
X160415291Y-71300065D01*
X160396337Y-71335438D01*
X160375243Y-71407909D01*
X160371791Y-71456338D01*
X160184227Y-71456338D01*
X160184212Y-71455971D01*
X160188541Y-71379940D01*
X160203139Y-71302824D01*
X160220849Y-71248976D01*
X160255755Y-71178018D01*
X160300941Y-71115768D01*
X160325263Y-71089974D01*
X160384327Y-71040937D01*
X160451977Y-71002179D01*
X160486096Y-70987758D01*
X160558379Y-70966102D01*
X160635092Y-70954442D01*
X160688696Y-70952221D01*
X160763597Y-70956420D01*
G37*
G36*
X161169000Y-69983553D02*
G01*
X161169000Y-70628721D01*
X160981421Y-70628721D01*
X160981421Y-70418428D01*
X160020081Y-70418428D01*
X160020081Y-70628721D01*
X159832503Y-70628721D01*
X159832503Y-70205204D01*
X160981421Y-70205204D01*
X160981421Y-69983553D01*
X161169000Y-69983553D01*
G37*
G36*
X160207660Y-69594841D02*
G01*
X160207660Y-69381617D01*
X160805566Y-69381617D01*
X160880013Y-69375692D01*
X160949301Y-69349360D01*
X160961271Y-69339485D01*
X160997673Y-69275715D01*
X161004868Y-69216753D01*
X160993483Y-69141131D01*
X160959326Y-69075467D01*
X160908515Y-69024412D01*
X160840873Y-68984613D01*
X160767699Y-68961396D01*
X160692874Y-68950783D01*
X160641435Y-68948941D01*
X160207660Y-68948941D01*
X160207660Y-68735717D01*
X161169000Y-68735717D01*
X161169000Y-68948941D01*
X160928298Y-68948941D01*
X161000469Y-68974228D01*
X161067791Y-69014442D01*
X161122471Y-69067643D01*
X161162311Y-69131804D01*
X161185613Y-69205403D01*
X161192447Y-69280500D01*
X161184825Y-69358302D01*
X161158478Y-69432920D01*
X161113312Y-69495088D01*
X161096093Y-69511310D01*
X161033838Y-69551689D01*
X160955469Y-69578853D01*
X160872282Y-69591904D01*
X160801536Y-69594841D01*
X160207660Y-69594841D01*
G37*
G36*
X161169000Y-67539171D02*
G01*
X161169000Y-67752395D01*
X160505880Y-67752395D01*
X160431423Y-67758391D01*
X160404764Y-67766317D01*
X160371791Y-67815410D01*
X160405904Y-67881070D01*
X160443965Y-67896376D01*
X160519739Y-67907897D01*
X160596986Y-67912422D01*
X160654258Y-67913229D01*
X161169000Y-67913229D01*
X161169000Y-68126453D01*
X160505880Y-68126453D01*
X160431423Y-68132764D01*
X160404764Y-68141107D01*
X160371791Y-68191299D01*
X160409076Y-68257657D01*
X160443965Y-68270434D01*
X160519739Y-68281203D01*
X160596986Y-68285434D01*
X160654258Y-68286188D01*
X161169000Y-68286188D01*
X161169000Y-68499412D01*
X160207660Y-68499412D01*
X160207660Y-68283990D01*
X160342482Y-68283990D01*
X160274155Y-68255871D01*
X160224512Y-68216945D01*
X160189880Y-68149940D01*
X160184212Y-68098609D01*
X160200148Y-68026023D01*
X160221215Y-67994928D01*
X160281292Y-67951471D01*
X160322332Y-67937775D01*
X160257647Y-67898904D01*
X160217918Y-67863403D01*
X160188195Y-67794446D01*
X160184212Y-67743969D01*
X160196245Y-67671393D01*
X160240031Y-67606284D01*
X160257119Y-67592294D01*
X160328453Y-67557899D01*
X160408175Y-67542491D01*
X160477304Y-67539171D01*
X161169000Y-67539171D01*
G37*
G36*
X160770395Y-67157786D02*
G01*
X160841390Y-67137109D01*
X160907370Y-67094710D01*
X160938190Y-67063264D01*
X160978822Y-66996563D01*
X160999594Y-66922023D01*
X161004868Y-66851505D01*
X161000335Y-66777334D01*
X160983585Y-66700567D01*
X160972628Y-66670888D01*
X160937391Y-66603429D01*
X160889512Y-66541765D01*
X160886166Y-66538264D01*
X161036009Y-66429087D01*
X161086792Y-66488092D01*
X161129843Y-66555476D01*
X161159474Y-66625458D01*
X161178247Y-66698947D01*
X161189227Y-66776851D01*
X161192447Y-66851505D01*
X161188074Y-66926257D01*
X161173331Y-67003657D01*
X161155444Y-67058867D01*
X161123347Y-67127028D01*
X161079389Y-67192846D01*
X161051763Y-67224830D01*
X160993415Y-67276667D01*
X160926723Y-67318467D01*
X160893127Y-67334373D01*
X160821274Y-67358485D01*
X160743651Y-67371468D01*
X160688696Y-67373941D01*
X160609183Y-67368840D01*
X160534411Y-67353539D01*
X160487196Y-67337671D01*
X160416294Y-67303006D01*
X160353616Y-67258546D01*
X160327461Y-67234722D01*
X160277350Y-67176253D01*
X160237155Y-67109198D01*
X160221948Y-67075354D01*
X160198953Y-67002882D01*
X160186571Y-66925053D01*
X160184212Y-66870190D01*
X160371791Y-66870190D01*
X160379931Y-66943091D01*
X160407121Y-67015439D01*
X160429676Y-67051540D01*
X160482699Y-67106209D01*
X160548298Y-67139837D01*
X160582817Y-67148260D01*
X160582817Y-66593951D01*
X160511413Y-66617746D01*
X160452586Y-66662341D01*
X160429676Y-66689939D01*
X160392198Y-66757863D01*
X160373826Y-66833044D01*
X160371791Y-66870190D01*
X160184212Y-66870190D01*
X160188931Y-66792691D01*
X160203087Y-66720387D01*
X160224146Y-66659164D01*
X160258871Y-66591862D01*
X160303693Y-66532287D01*
X160339184Y-66496865D01*
X160400528Y-66450205D01*
X160465086Y-66414765D01*
X160523832Y-66390985D01*
X160594822Y-66370893D01*
X160671322Y-66358242D01*
X160744883Y-66353218D01*
X160770395Y-66352883D01*
X160770395Y-67157786D01*
G37*
G36*
X170652811Y-90636567D02*
G01*
X170730074Y-90645336D01*
X170745353Y-90647824D01*
X170817900Y-90666189D01*
X170887120Y-90697490D01*
X170891166Y-90699848D01*
X170949510Y-90745186D01*
X170995580Y-90805727D01*
X171024506Y-90878467D01*
X171035250Y-90955834D01*
X171035880Y-90982315D01*
X171028564Y-91056006D01*
X171004127Y-91130372D01*
X170983856Y-91168062D01*
X170932820Y-91228489D01*
X170870146Y-91270529D01*
X170826686Y-91288962D01*
X170900882Y-91317033D01*
X170967704Y-91355102D01*
X171019027Y-91400703D01*
X171060064Y-91468726D01*
X171078447Y-91541868D01*
X171082408Y-91604035D01*
X171076430Y-91679401D01*
X171054958Y-91755016D01*
X171017869Y-91819410D01*
X170965164Y-91872584D01*
X170957478Y-91878442D01*
X170888625Y-91918673D01*
X170817596Y-91944447D01*
X170736505Y-91961419D01*
X170658989Y-91968963D01*
X170603204Y-91970400D01*
X170174558Y-91970400D01*
X170174558Y-91782821D01*
X170387782Y-91782821D01*
X170603204Y-91782821D01*
X170676920Y-91778027D01*
X170750834Y-91759617D01*
X170800308Y-91733728D01*
X170851060Y-91676192D01*
X170870395Y-91601720D01*
X170871016Y-91583152D01*
X170859347Y-91509404D01*
X170816880Y-91445949D01*
X170800308Y-91432943D01*
X170733844Y-91401395D01*
X170655963Y-91386548D01*
X170603204Y-91384217D01*
X170387782Y-91384217D01*
X170387782Y-91782821D01*
X170174558Y-91782821D01*
X170174558Y-91196638D01*
X170387782Y-91196638D01*
X170579390Y-91196638D01*
X170653415Y-91192204D01*
X170666951Y-91190410D01*
X170738750Y-91167688D01*
X170745353Y-91164032D01*
X170798269Y-91113005D01*
X170802506Y-91106146D01*
X170823785Y-91033991D01*
X170824854Y-91009060D01*
X170813309Y-90935098D01*
X170802506Y-90912339D01*
X170751832Y-90858387D01*
X170745353Y-90854454D01*
X170675049Y-90829003D01*
X170666951Y-90827709D01*
X170593217Y-90821633D01*
X170579390Y-90821481D01*
X170387782Y-90821481D01*
X170387782Y-91196638D01*
X170174558Y-91196638D01*
X170174558Y-90633903D01*
X170579390Y-90633903D01*
X170652811Y-90636567D01*
G37*
G36*
X172206780Y-91211293D02*
G01*
X172136216Y-91185011D01*
X172128745Y-91183083D01*
X172053368Y-91173432D01*
X172037520Y-91173191D01*
X171964485Y-91179498D01*
X171904163Y-91195539D01*
X171836145Y-91229650D01*
X171796452Y-91262217D01*
X171749609Y-91322738D01*
X171725744Y-91373226D01*
X171707060Y-91446041D01*
X171700929Y-91519822D01*
X171700831Y-91531129D01*
X171700831Y-91782821D01*
X171915887Y-91782821D01*
X171915887Y-91970400D01*
X171269987Y-91970400D01*
X171269987Y-91782821D01*
X171487241Y-91782821D01*
X171487241Y-91173191D01*
X171269987Y-91173191D01*
X171269987Y-91009060D01*
X171700831Y-91009060D01*
X171700831Y-91249761D01*
X171734271Y-91175260D01*
X171775651Y-91114148D01*
X171830942Y-91061948D01*
X171855803Y-91045696D01*
X171923674Y-91014011D01*
X171999058Y-90994062D01*
X172073327Y-90986140D01*
X172099436Y-90985612D01*
X172174132Y-90991175D01*
X172192126Y-90994039D01*
X172263636Y-91013342D01*
X172287014Y-91022981D01*
X172206780Y-91211293D01*
G37*
G36*
X173025971Y-90893289D02*
G01*
X172766219Y-90893289D01*
X172766219Y-90633903D01*
X173025971Y-90633903D01*
X173025971Y-90893289D01*
G37*
G36*
X173221609Y-91970400D02*
G01*
X172576808Y-91970400D01*
X172576808Y-91782821D01*
X172788933Y-91782821D01*
X172788933Y-91196638D01*
X172576808Y-91196638D01*
X172576808Y-91009060D01*
X173002157Y-91009060D01*
X173002157Y-91782821D01*
X173221609Y-91782821D01*
X173221609Y-91970400D01*
G37*
G36*
X174496557Y-91680605D02*
G01*
X174488423Y-91756330D01*
X174459205Y-91826557D01*
X174454059Y-91834112D01*
X174402469Y-91890476D01*
X174345615Y-91929733D01*
X174275365Y-91960416D01*
X174202351Y-91979033D01*
X174197237Y-91979925D01*
X174121186Y-91989918D01*
X174046906Y-91993792D01*
X174037136Y-91993847D01*
X173963476Y-91990920D01*
X173890047Y-91982139D01*
X173816850Y-91967504D01*
X173776285Y-91956844D01*
X173706086Y-91934027D01*
X173634545Y-91904460D01*
X173563701Y-91866813D01*
X173551704Y-91859391D01*
X173640364Y-91685734D01*
X173709257Y-91723194D01*
X173780743Y-91755721D01*
X173847726Y-91779157D01*
X173924586Y-91796711D01*
X174001566Y-91805315D01*
X174037136Y-91806268D01*
X174110674Y-91803585D01*
X174185840Y-91792073D01*
X174224348Y-91778791D01*
X174278667Y-91728126D01*
X174283333Y-91702221D01*
X174266847Y-91663020D01*
X174212258Y-91634443D01*
X174141298Y-91614866D01*
X174111508Y-91608432D01*
X174036752Y-91594108D01*
X173962300Y-91581846D01*
X173956536Y-91580954D01*
X173884362Y-91567032D01*
X173815852Y-91550180D01*
X173746236Y-91524935D01*
X173698982Y-91498889D01*
X173643655Y-91450345D01*
X173618016Y-91414625D01*
X173592626Y-91344982D01*
X173587607Y-91286764D01*
X173597499Y-91214132D01*
X173627175Y-91151575D01*
X173676532Y-91095862D01*
X173731588Y-91056321D01*
X173800007Y-91024172D01*
X173871303Y-91003516D01*
X173876302Y-91002465D01*
X173951602Y-90990369D01*
X174027063Y-90985678D01*
X174037136Y-90985612D01*
X174114187Y-90989032D01*
X174189678Y-90999292D01*
X174256955Y-91014555D01*
X174327177Y-91037145D01*
X174396772Y-91068504D01*
X174444167Y-91096621D01*
X174359537Y-91259653D01*
X174295072Y-91223956D01*
X174222494Y-91196140D01*
X174203466Y-91191143D01*
X174129148Y-91178257D01*
X174053975Y-91173349D01*
X174037136Y-91173191D01*
X173962797Y-91177055D01*
X173957635Y-91177587D01*
X173883635Y-91192959D01*
X173881431Y-91193707D01*
X173823180Y-91225581D01*
X173800099Y-91275040D01*
X173851710Y-91331340D01*
X173867510Y-91337688D01*
X173944797Y-91358846D01*
X174022413Y-91373958D01*
X174097953Y-91386048D01*
X174172515Y-91398210D01*
X174245711Y-91414042D01*
X174259519Y-91417556D01*
X174331478Y-91441727D01*
X174385182Y-91469580D01*
X174441969Y-91517636D01*
X174467248Y-91553477D01*
X174491720Y-91623039D01*
X174496557Y-91680605D01*
G37*
G36*
X175678448Y-91669248D02*
G01*
X175662364Y-91749081D01*
X175632660Y-91818772D01*
X175589335Y-91878319D01*
X175559380Y-91907018D01*
X175497826Y-91948991D01*
X175428158Y-91977227D01*
X175350376Y-91991727D01*
X175303658Y-91993847D01*
X175227537Y-91987729D01*
X175153440Y-91967716D01*
X175149052Y-91966003D01*
X175080390Y-91929929D01*
X175029251Y-91887968D01*
X174982904Y-91829341D01*
X174952314Y-91768166D01*
X174931981Y-91694894D01*
X174925230Y-91620211D01*
X174925203Y-91615026D01*
X174925203Y-91196638D01*
X174707949Y-91196638D01*
X174707949Y-91009060D01*
X174925203Y-91009060D01*
X174925203Y-90633903D01*
X175138794Y-90633903D01*
X175138794Y-91009060D01*
X175541428Y-91009060D01*
X175541428Y-91196638D01*
X175138794Y-91196638D01*
X175138794Y-91619423D01*
X175147419Y-91692873D01*
X175183856Y-91760106D01*
X175248007Y-91798650D01*
X175303658Y-91806268D01*
X175378351Y-91794757D01*
X175438480Y-91753878D01*
X175476991Y-91687688D01*
X175491236Y-91626750D01*
X175678448Y-91669248D01*
G37*
G36*
X176411370Y-90989941D02*
G01*
X176488487Y-91004539D01*
X176542335Y-91022249D01*
X176613292Y-91057155D01*
X176675543Y-91102341D01*
X176701337Y-91126663D01*
X176750374Y-91185727D01*
X176789132Y-91253377D01*
X176803553Y-91287496D01*
X176825208Y-91359779D01*
X176836869Y-91436492D01*
X176839090Y-91490096D01*
X176834891Y-91564997D01*
X176820732Y-91641178D01*
X176803553Y-91694527D01*
X176769539Y-91765071D01*
X176725247Y-91827270D01*
X176701337Y-91853163D01*
X176643105Y-91902265D01*
X176576167Y-91941813D01*
X176542335Y-91956844D01*
X176469778Y-91979393D01*
X176391141Y-91991534D01*
X176335339Y-91993847D01*
X176260351Y-91989474D01*
X176183878Y-91974731D01*
X176130175Y-91956844D01*
X176059158Y-91921705D01*
X175996726Y-91877012D01*
X175970807Y-91853163D01*
X175922007Y-91794815D01*
X175883366Y-91728123D01*
X175868958Y-91694527D01*
X175847302Y-91622674D01*
X175835641Y-91545051D01*
X175833450Y-91490829D01*
X176045545Y-91490829D01*
X176051921Y-91564786D01*
X176065695Y-91616858D01*
X176099400Y-91685071D01*
X176122848Y-91716143D01*
X176178514Y-91764198D01*
X176213340Y-91782821D01*
X176286098Y-91802971D01*
X176334973Y-91806268D01*
X176409939Y-91798002D01*
X176455873Y-91782821D01*
X176520097Y-91743361D01*
X176548197Y-91716143D01*
X176590474Y-91654045D01*
X176606449Y-91616858D01*
X176623273Y-91545033D01*
X176626599Y-91490829D01*
X176619495Y-91414843D01*
X176606449Y-91365532D01*
X176574249Y-91298213D01*
X176548197Y-91264416D01*
X176491246Y-91216691D01*
X176455873Y-91197737D01*
X176383402Y-91176643D01*
X176334973Y-91173191D01*
X176259395Y-91181844D01*
X176213340Y-91197737D01*
X176150236Y-91237528D01*
X176122848Y-91264416D01*
X176081540Y-91326806D01*
X176065695Y-91365532D01*
X176048871Y-91438336D01*
X176045545Y-91490829D01*
X175833450Y-91490829D01*
X175833420Y-91490096D01*
X175837620Y-91416899D01*
X175851779Y-91341293D01*
X175868958Y-91287496D01*
X175899938Y-91221087D01*
X175943268Y-91157400D01*
X175970807Y-91126663D01*
X176029276Y-91076733D01*
X176096331Y-91037082D01*
X176130175Y-91022249D01*
X176202475Y-90999923D01*
X176280339Y-90987902D01*
X176335339Y-90985612D01*
X176411370Y-90989941D01*
G37*
G36*
X177807757Y-91970400D02*
G01*
X177162590Y-91970400D01*
X177162590Y-91782821D01*
X177372883Y-91782821D01*
X177372883Y-90821481D01*
X177162590Y-90821481D01*
X177162590Y-90633903D01*
X177586107Y-90633903D01*
X177586107Y-91782821D01*
X177807757Y-91782821D01*
X177807757Y-91970400D01*
G37*
G36*
X180273023Y-91564102D02*
G01*
X180252020Y-91635663D01*
X180224034Y-91707257D01*
X180206711Y-91743254D01*
X180167301Y-91808690D01*
X180117294Y-91868217D01*
X180106327Y-91878808D01*
X180046601Y-91924854D01*
X179978021Y-91959952D01*
X179968207Y-91963805D01*
X179894867Y-91984341D01*
X179818854Y-91993113D01*
X179787590Y-91993847D01*
X179711640Y-91989268D01*
X179635204Y-91973440D01*
X179560795Y-91942971D01*
X179548354Y-91935961D01*
X179485302Y-91891576D01*
X179430649Y-91838013D01*
X179388253Y-91781356D01*
X179349547Y-91711405D01*
X179321497Y-91642254D01*
X179300245Y-91567807D01*
X179298494Y-91560072D01*
X179284197Y-91481253D01*
X179275195Y-91400503D01*
X179271621Y-91326175D01*
X179271383Y-91301052D01*
X179273527Y-91226351D01*
X179279961Y-91153099D01*
X179292139Y-91073408D01*
X179298494Y-91042032D01*
X179318958Y-90966656D01*
X179346006Y-90897147D01*
X179383363Y-90827464D01*
X179387154Y-90821481D01*
X179433365Y-90760409D01*
X179487369Y-90708169D01*
X179543225Y-90668341D01*
X179613439Y-90635385D01*
X179685911Y-90617295D01*
X179766611Y-90610512D01*
X179775133Y-90610455D01*
X179850462Y-90618280D01*
X179864526Y-90621446D01*
X179934237Y-90647046D01*
X179949157Y-90655152D01*
X180008266Y-90701046D01*
X180017667Y-90711206D01*
X180055128Y-90774507D01*
X180059432Y-90787776D01*
X180059432Y-90633903D01*
X180252140Y-90633903D01*
X180252140Y-91138020D01*
X180059432Y-91138020D01*
X180054008Y-91063836D01*
X180044045Y-91013822D01*
X180017512Y-90942782D01*
X179994586Y-90905379D01*
X179942293Y-90850599D01*
X179908856Y-90828076D01*
X179837444Y-90802258D01*
X179787590Y-90798034D01*
X179714400Y-90806519D01*
X179646210Y-90836996D01*
X179638846Y-90842364D01*
X179584039Y-90897426D01*
X179546156Y-90959234D01*
X179518115Y-91030761D01*
X179500223Y-91104492D01*
X179497429Y-91121167D01*
X179488416Y-91194278D01*
X179483997Y-91267751D01*
X179483508Y-91301785D01*
X179485805Y-91375370D01*
X179492698Y-91449076D01*
X179497429Y-91483135D01*
X179513468Y-91558990D01*
X179539212Y-91632169D01*
X179545423Y-91645801D01*
X179585632Y-91710739D01*
X179638113Y-91761938D01*
X179704792Y-91795186D01*
X179781943Y-91806225D01*
X179787590Y-91806268D01*
X179863432Y-91798111D01*
X179933221Y-91770294D01*
X179988724Y-91722737D01*
X180034002Y-91658513D01*
X180069379Y-91588331D01*
X180096508Y-91515563D01*
X180101930Y-91498156D01*
X180273023Y-91564102D01*
G37*
G36*
X180995320Y-90989941D02*
G01*
X181072437Y-91004539D01*
X181126285Y-91022249D01*
X181197242Y-91057155D01*
X181259493Y-91102341D01*
X181285287Y-91126663D01*
X181334324Y-91185727D01*
X181373081Y-91253377D01*
X181387503Y-91287496D01*
X181409158Y-91359779D01*
X181420819Y-91436492D01*
X181423040Y-91490096D01*
X181418841Y-91564997D01*
X181404681Y-91641178D01*
X181387503Y-91694527D01*
X181353489Y-91765071D01*
X181309197Y-91827270D01*
X181285287Y-91853163D01*
X181227055Y-91902265D01*
X181160116Y-91941813D01*
X181126285Y-91956844D01*
X181053728Y-91979393D01*
X180975091Y-91991534D01*
X180919289Y-91993847D01*
X180844301Y-91989474D01*
X180767828Y-91974731D01*
X180714125Y-91956844D01*
X180643107Y-91921705D01*
X180580675Y-91877012D01*
X180554757Y-91853163D01*
X180505957Y-91794815D01*
X180467316Y-91728123D01*
X180452907Y-91694527D01*
X180431252Y-91622674D01*
X180419591Y-91545051D01*
X180417400Y-91490829D01*
X180629495Y-91490829D01*
X180635871Y-91564786D01*
X180649645Y-91616858D01*
X180683350Y-91685071D01*
X180706798Y-91716143D01*
X180762464Y-91764198D01*
X180797290Y-91782821D01*
X180870047Y-91802971D01*
X180918923Y-91806268D01*
X180993889Y-91798002D01*
X181039823Y-91782821D01*
X181104047Y-91743361D01*
X181132147Y-91716143D01*
X181174424Y-91654045D01*
X181190399Y-91616858D01*
X181207223Y-91545033D01*
X181210549Y-91490829D01*
X181203445Y-91414843D01*
X181190399Y-91365532D01*
X181158199Y-91298213D01*
X181132147Y-91264416D01*
X181075196Y-91216691D01*
X181039823Y-91197737D01*
X180967352Y-91176643D01*
X180918923Y-91173191D01*
X180843345Y-91181844D01*
X180797290Y-91197737D01*
X180734185Y-91237528D01*
X180706798Y-91264416D01*
X180665490Y-91326806D01*
X180649645Y-91365532D01*
X180632821Y-91438336D01*
X180629495Y-91490829D01*
X180417400Y-91490829D01*
X180417370Y-91490096D01*
X180421569Y-91416899D01*
X180435729Y-91341293D01*
X180452907Y-91287496D01*
X180483888Y-91221087D01*
X180527218Y-91157400D01*
X180554757Y-91126663D01*
X180613226Y-91076733D01*
X180680281Y-91037082D01*
X180714125Y-91022249D01*
X180786425Y-90999923D01*
X180864289Y-90987902D01*
X180919289Y-90985612D01*
X180995320Y-90989941D01*
G37*
G36*
X182544115Y-91970400D02*
G01*
X182330891Y-91970400D01*
X182330891Y-91307280D01*
X182324895Y-91232823D01*
X182316969Y-91206164D01*
X182267876Y-91173191D01*
X182202215Y-91207304D01*
X182186909Y-91245365D01*
X182175389Y-91321139D01*
X182170863Y-91398386D01*
X182170057Y-91455658D01*
X182170057Y-91970400D01*
X181956833Y-91970400D01*
X181956833Y-91307280D01*
X181950522Y-91232823D01*
X181942178Y-91206164D01*
X181891986Y-91173191D01*
X181825629Y-91210476D01*
X181812852Y-91245365D01*
X181802082Y-91321139D01*
X181797852Y-91398386D01*
X181797098Y-91455658D01*
X181797098Y-91970400D01*
X181583874Y-91970400D01*
X181583874Y-91009060D01*
X181799296Y-91009060D01*
X181799296Y-91143882D01*
X181827415Y-91075555D01*
X181866341Y-91025912D01*
X181933345Y-90991280D01*
X181984676Y-90985612D01*
X182057263Y-91001548D01*
X182088357Y-91022615D01*
X182131815Y-91082692D01*
X182145510Y-91123732D01*
X182184382Y-91059047D01*
X182219882Y-91019318D01*
X182288840Y-90989595D01*
X182339317Y-90985612D01*
X182411893Y-90997645D01*
X182477001Y-91041431D01*
X182490992Y-91058519D01*
X182525387Y-91129853D01*
X182540794Y-91209575D01*
X182544115Y-91278704D01*
X182544115Y-91970400D01*
G37*
G36*
X183690102Y-91970400D02*
G01*
X183476878Y-91970400D01*
X183476878Y-91307280D01*
X183470882Y-91232823D01*
X183462956Y-91206164D01*
X183413863Y-91173191D01*
X183348203Y-91207304D01*
X183332897Y-91245365D01*
X183321376Y-91321139D01*
X183316851Y-91398386D01*
X183316044Y-91455658D01*
X183316044Y-91970400D01*
X183102820Y-91970400D01*
X183102820Y-91307280D01*
X183096509Y-91232823D01*
X183088166Y-91206164D01*
X183037974Y-91173191D01*
X182971616Y-91210476D01*
X182958839Y-91245365D01*
X182948070Y-91321139D01*
X182943839Y-91398386D01*
X182943085Y-91455658D01*
X182943085Y-91970400D01*
X182729861Y-91970400D01*
X182729861Y-91009060D01*
X182945284Y-91009060D01*
X182945284Y-91143882D01*
X182973402Y-91075555D01*
X183012328Y-91025912D01*
X183079333Y-90991280D01*
X183130664Y-90985612D01*
X183203250Y-91001548D01*
X183234345Y-91022615D01*
X183277802Y-91082692D01*
X183291498Y-91123732D01*
X183330369Y-91059047D01*
X183365870Y-91019318D01*
X183434827Y-90989595D01*
X183485304Y-90985612D01*
X183557880Y-90997645D01*
X183622989Y-91041431D01*
X183636979Y-91058519D01*
X183671374Y-91129853D01*
X183686782Y-91209575D01*
X183690102Y-91278704D01*
X183690102Y-91970400D01*
G37*
G36*
X183926407Y-91009060D02*
G01*
X184139631Y-91009060D01*
X184139631Y-91606966D01*
X184145556Y-91681413D01*
X184171888Y-91750701D01*
X184181763Y-91762671D01*
X184245533Y-91799073D01*
X184304495Y-91806268D01*
X184380117Y-91794883D01*
X184445781Y-91760726D01*
X184496836Y-91709915D01*
X184536635Y-91642273D01*
X184559852Y-91569099D01*
X184570465Y-91494274D01*
X184572307Y-91442835D01*
X184572307Y-91009060D01*
X184785531Y-91009060D01*
X184785531Y-91970400D01*
X184572307Y-91970400D01*
X184572307Y-91729698D01*
X184547020Y-91801869D01*
X184506806Y-91869191D01*
X184453605Y-91923871D01*
X184389444Y-91963711D01*
X184315845Y-91987013D01*
X184240748Y-91993847D01*
X184162946Y-91986225D01*
X184088328Y-91959878D01*
X184026160Y-91914712D01*
X184009938Y-91897493D01*
X183969559Y-91835238D01*
X183942395Y-91756869D01*
X183929344Y-91673682D01*
X183926407Y-91602936D01*
X183926407Y-91009060D01*
G37*
G36*
X185931519Y-91970400D02*
G01*
X185718295Y-91970400D01*
X185718295Y-91373592D01*
X185712318Y-91298476D01*
X185685757Y-91228775D01*
X185675796Y-91216788D01*
X185608248Y-91179322D01*
X185553431Y-91173191D01*
X185477227Y-91184620D01*
X185411326Y-91218906D01*
X185360357Y-91269911D01*
X185320944Y-91337359D01*
X185297953Y-91410421D01*
X185287443Y-91485194D01*
X185285618Y-91536624D01*
X185285618Y-91970400D01*
X185072394Y-91970400D01*
X185072394Y-91009060D01*
X185285618Y-91009060D01*
X185285618Y-91249761D01*
X185310870Y-91177082D01*
X185350962Y-91109615D01*
X185403954Y-91055222D01*
X185468324Y-91015591D01*
X185542045Y-90992410D01*
X185617178Y-90985612D01*
X185694980Y-90993205D01*
X185769598Y-91019452D01*
X185831765Y-91064446D01*
X185847988Y-91081600D01*
X185888366Y-91143765D01*
X185913165Y-91212745D01*
X185927522Y-91294638D01*
X185931519Y-91376889D01*
X185931519Y-91970400D01*
G37*
G36*
X186730742Y-90990009D02*
G01*
X186807129Y-91003198D01*
X186879028Y-91026462D01*
X186943050Y-91061083D01*
X187000351Y-91110726D01*
X187039404Y-91165864D01*
X187066607Y-91237946D01*
X187075533Y-91313490D01*
X187075674Y-91325232D01*
X187075674Y-91970400D01*
X186864282Y-91970400D01*
X186864282Y-91831547D01*
X186815283Y-91888435D01*
X186750442Y-91934076D01*
X186715172Y-91951349D01*
X186645894Y-91975544D01*
X186573067Y-91989697D01*
X186503780Y-91993847D01*
X186427376Y-91987819D01*
X186371156Y-91974796D01*
X186303137Y-91945892D01*
X186263445Y-91918376D01*
X186213986Y-91863879D01*
X186190905Y-91824587D01*
X186168268Y-91752517D01*
X186163794Y-91696359D01*
X186164871Y-91688299D01*
X186374819Y-91688299D01*
X186400631Y-91760187D01*
X186469641Y-91796937D01*
X186547075Y-91806153D01*
X186558368Y-91806268D01*
X186633673Y-91799971D01*
X186675971Y-91790148D01*
X186745803Y-91761765D01*
X186773424Y-91745085D01*
X186828647Y-91692707D01*
X186840102Y-91675476D01*
X186863432Y-91603235D01*
X186864282Y-91584984D01*
X186864282Y-91548348D01*
X186789086Y-91548348D01*
X186769394Y-91548348D01*
X186695291Y-91548348D01*
X186690992Y-91548348D01*
X186617559Y-91550867D01*
X186539227Y-91561099D01*
X186464969Y-91583768D01*
X186454687Y-91588648D01*
X186394786Y-91633711D01*
X186374819Y-91688299D01*
X186164871Y-91688299D01*
X186173695Y-91622294D01*
X186206084Y-91553406D01*
X186208856Y-91549447D01*
X186261338Y-91491745D01*
X186323350Y-91447298D01*
X186327925Y-91444667D01*
X186396747Y-91411869D01*
X186467937Y-91388697D01*
X186497185Y-91381652D01*
X186575184Y-91368131D01*
X186648257Y-91361769D01*
X186691358Y-91360769D01*
X186767037Y-91360769D01*
X186784781Y-91360769D01*
X186859249Y-91360769D01*
X186864282Y-91360769D01*
X186864282Y-91322667D01*
X186845851Y-91250230D01*
X186806030Y-91210560D01*
X186733901Y-91181402D01*
X186659129Y-91173227D01*
X186653256Y-91173191D01*
X186576721Y-91177889D01*
X186499063Y-91191984D01*
X186476669Y-91197737D01*
X186405549Y-91221011D01*
X186337452Y-91251541D01*
X186307042Y-91268079D01*
X186220214Y-91101750D01*
X186287095Y-91067408D01*
X186357265Y-91038435D01*
X186423912Y-91016753D01*
X186500105Y-90999024D01*
X186579068Y-90988653D01*
X186653256Y-90985612D01*
X186730742Y-90990009D01*
G37*
G36*
X188121644Y-91970400D02*
G01*
X187476477Y-91970400D01*
X187476477Y-91782821D01*
X187686770Y-91782821D01*
X187686770Y-90821481D01*
X187476477Y-90821481D01*
X187476477Y-90633903D01*
X187899994Y-90633903D01*
X187899994Y-91782821D01*
X188121644Y-91782821D01*
X188121644Y-91970400D01*
G37*
G36*
X190515468Y-91970400D02*
G01*
X190302244Y-91970400D01*
X190302244Y-91066212D01*
X190167422Y-91549447D01*
X190002558Y-91549447D01*
X189869568Y-91066212D01*
X189869568Y-91970400D01*
X189656344Y-91970400D01*
X189656344Y-90633903D01*
X189909868Y-90633903D01*
X190084990Y-91238037D01*
X190260113Y-90633903D01*
X190515468Y-90633903D01*
X190515468Y-91970400D01*
G37*
G36*
X191309207Y-90989941D02*
G01*
X191386324Y-91004539D01*
X191440172Y-91022249D01*
X191511129Y-91057155D01*
X191573380Y-91102341D01*
X191599174Y-91126663D01*
X191648211Y-91185727D01*
X191686968Y-91253377D01*
X191701390Y-91287496D01*
X191723045Y-91359779D01*
X191734706Y-91436492D01*
X191736927Y-91490096D01*
X191732728Y-91564997D01*
X191718568Y-91641178D01*
X191701390Y-91694527D01*
X191667376Y-91765071D01*
X191623084Y-91827270D01*
X191599174Y-91853163D01*
X191540942Y-91902265D01*
X191474003Y-91941813D01*
X191440172Y-91956844D01*
X191367615Y-91979393D01*
X191288978Y-91991534D01*
X191233176Y-91993847D01*
X191158188Y-91989474D01*
X191081715Y-91974731D01*
X191028012Y-91956844D01*
X190956994Y-91921705D01*
X190894562Y-91877012D01*
X190868644Y-91853163D01*
X190819844Y-91794815D01*
X190781203Y-91728123D01*
X190766794Y-91694527D01*
X190745139Y-91622674D01*
X190733478Y-91545051D01*
X190731287Y-91490829D01*
X190943382Y-91490829D01*
X190949758Y-91564786D01*
X190963532Y-91616858D01*
X190997237Y-91685071D01*
X191020685Y-91716143D01*
X191076351Y-91764198D01*
X191111177Y-91782821D01*
X191183934Y-91802971D01*
X191232810Y-91806268D01*
X191307776Y-91798002D01*
X191353710Y-91782821D01*
X191417934Y-91743361D01*
X191446034Y-91716143D01*
X191488311Y-91654045D01*
X191504286Y-91616858D01*
X191521110Y-91545033D01*
X191524436Y-91490829D01*
X191517332Y-91414843D01*
X191504286Y-91365532D01*
X191472086Y-91298213D01*
X191446034Y-91264416D01*
X191389083Y-91216691D01*
X191353710Y-91197737D01*
X191281238Y-91176643D01*
X191232810Y-91173191D01*
X191157232Y-91181844D01*
X191111177Y-91197737D01*
X191048072Y-91237528D01*
X191020685Y-91264416D01*
X190979376Y-91326806D01*
X190963532Y-91365532D01*
X190946707Y-91438336D01*
X190943382Y-91490829D01*
X190731287Y-91490829D01*
X190731257Y-91490096D01*
X190735456Y-91416899D01*
X190749616Y-91341293D01*
X190766794Y-91287496D01*
X190797775Y-91221087D01*
X190841105Y-91157400D01*
X190868644Y-91126663D01*
X190927113Y-91076733D01*
X190994168Y-91037082D01*
X191028012Y-91022249D01*
X191100312Y-90999923D01*
X191178176Y-90987902D01*
X191233176Y-90985612D01*
X191309207Y-90989941D01*
G37*
G36*
X192807443Y-91970400D02*
G01*
X192594219Y-91970400D01*
X192594219Y-91884670D01*
X192532029Y-91931565D01*
X192469289Y-91966003D01*
X192397762Y-91987729D01*
X192326407Y-91993847D01*
X192253273Y-91987740D01*
X192179382Y-91967504D01*
X192154216Y-91956844D01*
X192088930Y-91918606D01*
X192032199Y-91869289D01*
X192017562Y-91853163D01*
X191972252Y-91789841D01*
X191938591Y-91722125D01*
X191927803Y-91693794D01*
X191908156Y-91621529D01*
X191897578Y-91544318D01*
X191895590Y-91490829D01*
X192109153Y-91490829D01*
X192115123Y-91566086D01*
X192135760Y-91639646D01*
X192175485Y-91708329D01*
X192184624Y-91719440D01*
X192242044Y-91768874D01*
X192310027Y-91797789D01*
X192380995Y-91806268D01*
X192455009Y-91796644D01*
X192495667Y-91783920D01*
X192562500Y-91747656D01*
X192594219Y-91718341D01*
X192594219Y-91261118D01*
X192534586Y-91213694D01*
X192495667Y-91195905D01*
X192422709Y-91176385D01*
X192380995Y-91173191D01*
X192303410Y-91183624D01*
X192236387Y-91214923D01*
X192184624Y-91261485D01*
X192141656Y-91328255D01*
X192118071Y-91399925D01*
X192109448Y-91473361D01*
X192109153Y-91490829D01*
X191895590Y-91490829D01*
X191895563Y-91490096D01*
X191899372Y-91416899D01*
X191912218Y-91341293D01*
X191927803Y-91287496D01*
X191958347Y-91216065D01*
X191996993Y-91153582D01*
X192017562Y-91127762D01*
X192071848Y-91074958D01*
X192134690Y-91033234D01*
X192154216Y-91023348D01*
X192226304Y-90997552D01*
X192303441Y-90986202D01*
X192326407Y-90985612D01*
X192402244Y-90992482D01*
X192469289Y-91013090D01*
X192535932Y-91049650D01*
X192594219Y-91094789D01*
X192594219Y-90821481D01*
X192408839Y-90821481D01*
X192408839Y-90633903D01*
X192807443Y-90633903D01*
X192807443Y-91970400D01*
G37*
G36*
X193094307Y-91009060D02*
G01*
X193307531Y-91009060D01*
X193307531Y-91606966D01*
X193313455Y-91681413D01*
X193339788Y-91750701D01*
X193349662Y-91762671D01*
X193413432Y-91799073D01*
X193472394Y-91806268D01*
X193548016Y-91794883D01*
X193613681Y-91760726D01*
X193664736Y-91709915D01*
X193704535Y-91642273D01*
X193727751Y-91569099D01*
X193738364Y-91494274D01*
X193740207Y-91442835D01*
X193740207Y-91009060D01*
X193953431Y-91009060D01*
X193953431Y-91970400D01*
X193740207Y-91970400D01*
X193740207Y-91729698D01*
X193714919Y-91801869D01*
X193674706Y-91869191D01*
X193621505Y-91923871D01*
X193557343Y-91963711D01*
X193483745Y-91987013D01*
X193408647Y-91993847D01*
X193330845Y-91986225D01*
X193256227Y-91959878D01*
X193194060Y-91914712D01*
X193177838Y-91897493D01*
X193137459Y-91835238D01*
X193110295Y-91756869D01*
X193097243Y-91673682D01*
X193094307Y-91602936D01*
X193094307Y-91009060D01*
G37*
G36*
X194997569Y-91970400D02*
G01*
X194352401Y-91970400D01*
X194352401Y-91782821D01*
X194562695Y-91782821D01*
X194562695Y-90821481D01*
X194352401Y-90821481D01*
X194352401Y-90633903D01*
X194775919Y-90633903D01*
X194775919Y-91782821D01*
X194997569Y-91782821D01*
X194997569Y-91970400D01*
G37*
G36*
X195898642Y-90990009D02*
G01*
X195975029Y-91003198D01*
X196046928Y-91026462D01*
X196110950Y-91061083D01*
X196168251Y-91110726D01*
X196207304Y-91165864D01*
X196234506Y-91237946D01*
X196243432Y-91313490D01*
X196243574Y-91325232D01*
X196243574Y-91970400D01*
X196032182Y-91970400D01*
X196032182Y-91831547D01*
X195983182Y-91888435D01*
X195918341Y-91934076D01*
X195883071Y-91951349D01*
X195813794Y-91975544D01*
X195740966Y-91989697D01*
X195671679Y-91993847D01*
X195595275Y-91987819D01*
X195539055Y-91974796D01*
X195471037Y-91945892D01*
X195431344Y-91918376D01*
X195381885Y-91863879D01*
X195358804Y-91824587D01*
X195336168Y-91752517D01*
X195331693Y-91696359D01*
X195332771Y-91688299D01*
X195542719Y-91688299D01*
X195568530Y-91760187D01*
X195637540Y-91796937D01*
X195714975Y-91806153D01*
X195726267Y-91806268D01*
X195801573Y-91799971D01*
X195843870Y-91790148D01*
X195913703Y-91761765D01*
X195941323Y-91745085D01*
X195996546Y-91692707D01*
X196008002Y-91675476D01*
X196031332Y-91603235D01*
X196032182Y-91584984D01*
X196032182Y-91548348D01*
X195956986Y-91548348D01*
X195937293Y-91548348D01*
X195863190Y-91548348D01*
X195858891Y-91548348D01*
X195785458Y-91550867D01*
X195707126Y-91561099D01*
X195632869Y-91583768D01*
X195622586Y-91588648D01*
X195562686Y-91633711D01*
X195542719Y-91688299D01*
X195332771Y-91688299D01*
X195341595Y-91622294D01*
X195373984Y-91553406D01*
X195376756Y-91549447D01*
X195429238Y-91491745D01*
X195491249Y-91447298D01*
X195495824Y-91444667D01*
X195564646Y-91411869D01*
X195635836Y-91388697D01*
X195665085Y-91381652D01*
X195743084Y-91368131D01*
X195816156Y-91361769D01*
X195859258Y-91360769D01*
X195934937Y-91360769D01*
X195952681Y-91360769D01*
X196027148Y-91360769D01*
X196032182Y-91360769D01*
X196032182Y-91322667D01*
X196013750Y-91250230D01*
X195973930Y-91210560D01*
X195901801Y-91181402D01*
X195827028Y-91173227D01*
X195821156Y-91173191D01*
X195744620Y-91177889D01*
X195666962Y-91191984D01*
X195644568Y-91197737D01*
X195573448Y-91221011D01*
X195505351Y-91251541D01*
X195474942Y-91268079D01*
X195388113Y-91101750D01*
X195454994Y-91067408D01*
X195525165Y-91038435D01*
X195591812Y-91016753D01*
X195668004Y-90999024D01*
X195746967Y-90988653D01*
X195821156Y-90985612D01*
X195898642Y-90990009D01*
G37*
G36*
X197418504Y-91211293D02*
G01*
X197347940Y-91185011D01*
X197340468Y-91183083D01*
X197265092Y-91173432D01*
X197249244Y-91173191D01*
X197176208Y-91179498D01*
X197115887Y-91195539D01*
X197047869Y-91229650D01*
X197008176Y-91262217D01*
X196961333Y-91322738D01*
X196937468Y-91373226D01*
X196918783Y-91446041D01*
X196912652Y-91519822D01*
X196912555Y-91531129D01*
X196912555Y-91782821D01*
X197127611Y-91782821D01*
X197127611Y-91970400D01*
X196481711Y-91970400D01*
X196481711Y-91782821D01*
X196698965Y-91782821D01*
X196698965Y-91173191D01*
X196481711Y-91173191D01*
X196481711Y-91009060D01*
X196912555Y-91009060D01*
X196912555Y-91249761D01*
X196945995Y-91175260D01*
X196987375Y-91114148D01*
X197042666Y-91061948D01*
X197067527Y-91045696D01*
X197135397Y-91014011D01*
X197210781Y-90994062D01*
X197285050Y-90986140D01*
X197311159Y-90985612D01*
X197385856Y-90991175D01*
X197403849Y-90994039D01*
X197475359Y-91013342D01*
X197498738Y-91022981D01*
X197418504Y-91211293D01*
G37*
G36*
X170697121Y-93157458D02*
G01*
X170769768Y-93168122D01*
X170845700Y-93189550D01*
X170912131Y-93220655D01*
X170961508Y-93255019D01*
X171015203Y-93311439D01*
X171053557Y-93379949D01*
X171076570Y-93460550D01*
X171084120Y-93540992D01*
X171084240Y-93553240D01*
X171078203Y-93631164D01*
X171058453Y-93704345D01*
X171056763Y-93708578D01*
X171021443Y-93774436D01*
X170979460Y-93823617D01*
X170921868Y-93869026D01*
X170863323Y-93899820D01*
X170789764Y-93924727D01*
X170719708Y-93938289D01*
X171102925Y-94490400D01*
X170832914Y-94490400D01*
X170484502Y-93946349D01*
X170387782Y-93946349D01*
X170387782Y-94490400D01*
X170174558Y-94490400D01*
X170174558Y-93756572D01*
X170387782Y-93756572D01*
X170617492Y-93756572D01*
X170693039Y-93750511D01*
X170766694Y-93727721D01*
X170803605Y-93705281D01*
X170851991Y-93644858D01*
X170869963Y-93573086D01*
X170871016Y-93547378D01*
X170859891Y-93472258D01*
X170819405Y-93406768D01*
X170803605Y-93393139D01*
X170734803Y-93357826D01*
X170660202Y-93343297D01*
X170617492Y-93341481D01*
X170387782Y-93341481D01*
X170387782Y-93756572D01*
X170174558Y-93756572D01*
X170174558Y-93153903D01*
X170617492Y-93153903D01*
X170697121Y-93157458D01*
G37*
G36*
X171830720Y-93510331D02*
G01*
X171903024Y-93524487D01*
X171964247Y-93545546D01*
X172031549Y-93580271D01*
X172091124Y-93625093D01*
X172126547Y-93660584D01*
X172173207Y-93721928D01*
X172208646Y-93786486D01*
X172232426Y-93845232D01*
X172252519Y-93916222D01*
X172265170Y-93992722D01*
X172270193Y-94066283D01*
X172270528Y-94091795D01*
X171465625Y-94091795D01*
X171486302Y-94162790D01*
X171528702Y-94228770D01*
X171560147Y-94259590D01*
X171626849Y-94300222D01*
X171701388Y-94320994D01*
X171771906Y-94326268D01*
X171846078Y-94321735D01*
X171922844Y-94304985D01*
X171952524Y-94294028D01*
X172019983Y-94258791D01*
X172081646Y-94210912D01*
X172085147Y-94207566D01*
X172194324Y-94357409D01*
X172135319Y-94408192D01*
X172067935Y-94451243D01*
X171997953Y-94480874D01*
X171924464Y-94499647D01*
X171846560Y-94510627D01*
X171771906Y-94513847D01*
X171697154Y-94509474D01*
X171619754Y-94494731D01*
X171564544Y-94476844D01*
X171496383Y-94444747D01*
X171430565Y-94400789D01*
X171398581Y-94373163D01*
X171346744Y-94314815D01*
X171304945Y-94248123D01*
X171289038Y-94214527D01*
X171264927Y-94142674D01*
X171251943Y-94065051D01*
X171249471Y-94010096D01*
X171254571Y-93930583D01*
X171259966Y-93904217D01*
X171475151Y-93904217D01*
X172029460Y-93904217D01*
X172005665Y-93832813D01*
X171961070Y-93773986D01*
X171933473Y-93751076D01*
X171865548Y-93713598D01*
X171790367Y-93695226D01*
X171753221Y-93693191D01*
X171680321Y-93701331D01*
X171607973Y-93728521D01*
X171571871Y-93751076D01*
X171517202Y-93804099D01*
X171483574Y-93869698D01*
X171475151Y-93904217D01*
X171259966Y-93904217D01*
X171269872Y-93855811D01*
X171285741Y-93808596D01*
X171320405Y-93737694D01*
X171364865Y-93675016D01*
X171388689Y-93648861D01*
X171447158Y-93598750D01*
X171514213Y-93558555D01*
X171548057Y-93543348D01*
X171620529Y-93520353D01*
X171698358Y-93507971D01*
X171753221Y-93505612D01*
X171830720Y-93510331D01*
G37*
G36*
X173376215Y-93529060D02*
G01*
X173021941Y-94490400D01*
X172770615Y-94490400D01*
X172415974Y-93529060D01*
X172643853Y-93529060D01*
X172897011Y-94256293D01*
X173148703Y-93529060D01*
X173376215Y-93529060D01*
G37*
G36*
X175640346Y-93519901D02*
G01*
X175632002Y-93597365D01*
X175609488Y-93670051D01*
X175589788Y-93712975D01*
X175550736Y-93779560D01*
X175502592Y-93843808D01*
X175450936Y-93900187D01*
X175030350Y-94302821D01*
X175425290Y-94302821D01*
X175425290Y-94115242D01*
X175617632Y-94115242D01*
X175617632Y-94490400D01*
X174752279Y-94490400D01*
X174752279Y-94289998D01*
X175294132Y-93773058D01*
X175344638Y-93716166D01*
X175387137Y-93654127D01*
X175395615Y-93638236D01*
X175421092Y-93568440D01*
X175427122Y-93516237D01*
X175414824Y-93443322D01*
X175406972Y-93426111D01*
X175361123Y-93368485D01*
X175355315Y-93363829D01*
X175288876Y-93330406D01*
X175283874Y-93329025D01*
X175211131Y-93318130D01*
X175203640Y-93318034D01*
X175129673Y-93325297D01*
X175060459Y-93350063D01*
X175003972Y-93392406D01*
X174959767Y-93457905D01*
X174937169Y-93535506D01*
X174931431Y-93611492D01*
X174731763Y-93611492D01*
X174736013Y-93529717D01*
X174748765Y-93455025D01*
X174774385Y-93376839D01*
X174811576Y-93308295D01*
X174852663Y-93257217D01*
X174910781Y-93207825D01*
X174979348Y-93170564D01*
X175058363Y-93145434D01*
X175134407Y-93133550D01*
X175203640Y-93130455D01*
X175277892Y-93135294D01*
X175354335Y-93151217D01*
X175369237Y-93155734D01*
X175439502Y-93184242D01*
X175505047Y-93226008D01*
X175508822Y-93229007D01*
X175563043Y-93283779D01*
X175602564Y-93346773D01*
X175604809Y-93351373D01*
X175630317Y-93425261D01*
X175640034Y-93502358D01*
X175640346Y-93519901D01*
G37*
D12*
G36*
X171492946Y-88272169D02*
G01*
X171541794Y-88258491D01*
X171541794Y-88008386D01*
X171718078Y-87913094D01*
X171905777Y-87844805D01*
X172064474Y-87802245D01*
X172273416Y-87759999D01*
X172478924Y-87733399D01*
X172680996Y-87722447D01*
X172720999Y-87722134D01*
X172839022Y-87880308D01*
X172925300Y-88060834D01*
X172963288Y-88166656D01*
X173019603Y-88362804D01*
X173056285Y-88561510D01*
X173066847Y-88700082D01*
X172948833Y-88867359D01*
X172881222Y-88937486D01*
X172727723Y-89065878D01*
X172566637Y-89170005D01*
X172390840Y-89261642D01*
X172205631Y-89334320D01*
X172011012Y-89388038D01*
X171806981Y-89422797D01*
X171593539Y-89438596D01*
X171520301Y-89439649D01*
X171314191Y-89431956D01*
X171119376Y-89408875D01*
X170891744Y-89358385D01*
X170681762Y-89283853D01*
X170489430Y-89185278D01*
X170314749Y-89062660D01*
X170187712Y-88947256D01*
X170042764Y-88782506D01*
X169922384Y-88599057D01*
X169826571Y-88396908D01*
X169755326Y-88176059D01*
X169708648Y-87936510D01*
X169688994Y-87731407D01*
X169684572Y-87569726D01*
X169693151Y-87355556D01*
X169718888Y-87153170D01*
X169775188Y-86916760D01*
X169858297Y-86698764D01*
X169968216Y-86499181D01*
X170104944Y-86318012D01*
X170233630Y-86186335D01*
X170392788Y-86056256D01*
X170567403Y-85948121D01*
X170757473Y-85861930D01*
X170797342Y-85847326D01*
X171001476Y-85787047D01*
X171212097Y-85749094D01*
X171407203Y-85734025D01*
X171473406Y-85733020D01*
X171683737Y-85741201D01*
X171881807Y-85765745D01*
X172103309Y-85816795D01*
X172307156Y-85891408D01*
X172493349Y-85989582D01*
X172607670Y-86068121D01*
X172758074Y-86199314D01*
X172894216Y-86366350D01*
X172988002Y-86548440D01*
X173039433Y-86745583D01*
X173050238Y-86895616D01*
X173027913Y-87108241D01*
X172951783Y-87298711D01*
X172821627Y-87443697D01*
X172645965Y-87544373D01*
X172453013Y-87599633D01*
X172252274Y-87619838D01*
X172204181Y-87620529D01*
X172002738Y-87597345D01*
X171813175Y-87533872D01*
X171772360Y-87515016D01*
X171599436Y-87411945D01*
X171514439Y-87315714D01*
X171516393Y-87114213D01*
X171522255Y-86961073D01*
X171503692Y-86958142D01*
X171484153Y-86958142D01*
X171419673Y-86981589D01*
X171378640Y-87079286D01*
X171363133Y-87286554D01*
X171361055Y-87482776D01*
X171364275Y-87710189D01*
X171376639Y-87932205D01*
X171407551Y-88141888D01*
X171492946Y-88272169D01*
G37*
G36*
X174618277Y-86048582D02*
G01*
X174618277Y-87980054D01*
X174633888Y-88188143D01*
X174695366Y-88380765D01*
X174815625Y-88513480D01*
X174818556Y-88566237D01*
X174818556Y-88615085D01*
X174802791Y-88821088D01*
X174748295Y-89014994D01*
X174643388Y-89185755D01*
X174619254Y-89212015D01*
X174446422Y-89335846D01*
X174246958Y-89399151D01*
X174054565Y-89415225D01*
X173840986Y-89395285D01*
X173640210Y-89327289D01*
X173475221Y-89211038D01*
X173351487Y-89055671D01*
X173268248Y-88861046D01*
X173228253Y-88655088D01*
X173219254Y-88480263D01*
X173219254Y-85625553D01*
X173407588Y-85532817D01*
X173612333Y-85474428D01*
X173810633Y-85451244D01*
X173879687Y-85449698D01*
X174094334Y-85465154D01*
X174287470Y-85517859D01*
X174435584Y-85607968D01*
X174560472Y-85770202D01*
X174613817Y-85963378D01*
X174618277Y-86048582D01*
G37*
G36*
X176504423Y-86303221D02*
G01*
X176734041Y-86331889D01*
X176939686Y-86382058D01*
X177149305Y-86467763D01*
X177326292Y-86582734D01*
X177348912Y-86601547D01*
X177488239Y-86747152D01*
X177593346Y-86917254D01*
X177664232Y-87111853D01*
X177700897Y-87330948D01*
X177706484Y-87467144D01*
X177706484Y-88005455D01*
X177720394Y-88203361D01*
X177750448Y-88323948D01*
X177865745Y-88485980D01*
X177904809Y-88513480D01*
X177907740Y-88566237D01*
X177907740Y-88615085D01*
X177889038Y-88821148D01*
X177824390Y-89017840D01*
X177713565Y-89180567D01*
X177671313Y-89222762D01*
X177500633Y-89340044D01*
X177302201Y-89403196D01*
X177154495Y-89415225D01*
X176954460Y-89390557D01*
X176772499Y-89316551D01*
X176616616Y-89186132D01*
X176525325Y-89030298D01*
X176431536Y-89121157D01*
X176528256Y-89294081D01*
X176337224Y-89376894D01*
X176138589Y-89409428D01*
X175989945Y-89415225D01*
X175777074Y-89401995D01*
X175583838Y-89362304D01*
X175387039Y-89284544D01*
X175215886Y-89172222D01*
X175177105Y-89138742D01*
X175044603Y-88986823D01*
X174949959Y-88807549D01*
X174893173Y-88600919D01*
X174874540Y-88397679D01*
X174874244Y-88366935D01*
X174883418Y-88243836D01*
X176165800Y-88243836D01*
X176299645Y-88343487D01*
X176437398Y-88298547D01*
X176481362Y-88140277D01*
X176281083Y-88140277D01*
X176165800Y-88243836D01*
X174883418Y-88243836D01*
X174889624Y-88160555D01*
X174944869Y-87951025D01*
X175040292Y-87769584D01*
X175175892Y-87616230D01*
X175195667Y-87599035D01*
X175374759Y-87480496D01*
X175556919Y-87407697D01*
X175760694Y-87365550D01*
X175956728Y-87353815D01*
X176161111Y-87363493D01*
X176264474Y-87376286D01*
X176371941Y-87397779D01*
X176379757Y-87350884D01*
X176258612Y-87255141D01*
X176057825Y-87233102D01*
X175943050Y-87230717D01*
X175743016Y-87241158D01*
X175536077Y-87277866D01*
X175348304Y-87341004D01*
X175233769Y-87397779D01*
X175151612Y-87210017D01*
X175109612Y-87007971D01*
X175098947Y-86821366D01*
X175116513Y-86622019D01*
X175148773Y-86527298D01*
X175342690Y-86451724D01*
X175541351Y-86393197D01*
X175651913Y-86366097D01*
X175845666Y-86329003D01*
X176045907Y-86305647D01*
X176252636Y-86296030D01*
X176294760Y-86295755D01*
X176504423Y-86303221D01*
G37*
G36*
X178782129Y-89401547D02*
G01*
X178572821Y-89387579D01*
X178380296Y-89340478D01*
X178260427Y-89283334D01*
X178111496Y-89152328D01*
X178044477Y-88962162D01*
X178042562Y-88917947D01*
X178042562Y-87502315D01*
X177943735Y-87316614D01*
X177893213Y-87120078D01*
X177880385Y-86940557D01*
X177896222Y-86740506D01*
X177950229Y-86540727D01*
X178042562Y-86362189D01*
X178463637Y-86362189D01*
X178664812Y-86386894D01*
X178846304Y-86479792D01*
X178927698Y-86571261D01*
X178819987Y-86736782D01*
X178806554Y-86765679D01*
X178754774Y-86934695D01*
X178780175Y-87010898D01*
X178856379Y-87035323D01*
X178923991Y-86836524D01*
X179031381Y-86653342D01*
X179172737Y-86509850D01*
X179221766Y-86474541D01*
X179403392Y-86382859D01*
X179595468Y-86335989D01*
X179770824Y-86324088D01*
X179985998Y-86337766D01*
X180192268Y-86385050D01*
X180379275Y-86476071D01*
X180408787Y-86497012D01*
X180461921Y-86691738D01*
X180486925Y-86900108D01*
X180490852Y-87034346D01*
X180475960Y-87245155D01*
X180431284Y-87442342D01*
X180364823Y-87609782D01*
X180174748Y-87677760D01*
X180105926Y-87693801D01*
X179909642Y-87722352D01*
X179773755Y-87727995D01*
X179577903Y-87718836D01*
X179472848Y-87704548D01*
X179279408Y-87661561D01*
X179257914Y-87725065D01*
X179310671Y-87786614D01*
X179491411Y-87832531D01*
X179491411Y-89211038D01*
X179314044Y-89303130D01*
X179119368Y-89365083D01*
X178907380Y-89396896D01*
X178782129Y-89401547D01*
G37*
G36*
X182010633Y-86303221D02*
G01*
X182240252Y-86331889D01*
X182445897Y-86382058D01*
X182655516Y-86467763D01*
X182832503Y-86582734D01*
X182855123Y-86601547D01*
X182994450Y-86747152D01*
X183099557Y-86917254D01*
X183170442Y-87111853D01*
X183207107Y-87330948D01*
X183212695Y-87467144D01*
X183212695Y-88005455D01*
X183226605Y-88203361D01*
X183256658Y-88323948D01*
X183371956Y-88485980D01*
X183411020Y-88513480D01*
X183413951Y-88566237D01*
X183413951Y-88615085D01*
X183395249Y-88821148D01*
X183330601Y-89017840D01*
X183219776Y-89180567D01*
X183177524Y-89222762D01*
X183006844Y-89340044D01*
X182808412Y-89403196D01*
X182660706Y-89415225D01*
X182460671Y-89390557D01*
X182278710Y-89316551D01*
X182122827Y-89186132D01*
X182031536Y-89030298D01*
X181937747Y-89121157D01*
X182034467Y-89294081D01*
X181843435Y-89376894D01*
X181644800Y-89409428D01*
X181496156Y-89415225D01*
X181283285Y-89401995D01*
X181090049Y-89362304D01*
X180893250Y-89284544D01*
X180722097Y-89172222D01*
X180683316Y-89138742D01*
X180550814Y-88986823D01*
X180456170Y-88807549D01*
X180399383Y-88600919D01*
X180380750Y-88397679D01*
X180380454Y-88366935D01*
X180389628Y-88243836D01*
X181672011Y-88243836D01*
X181805856Y-88343487D01*
X181943609Y-88298547D01*
X181987572Y-88140277D01*
X181787293Y-88140277D01*
X181672011Y-88243836D01*
X180389628Y-88243836D01*
X180395835Y-88160555D01*
X180451080Y-87951025D01*
X180546502Y-87769584D01*
X180682103Y-87616230D01*
X180701878Y-87599035D01*
X180880970Y-87480496D01*
X181063129Y-87407697D01*
X181266904Y-87365550D01*
X181462939Y-87353815D01*
X181667321Y-87363493D01*
X181770685Y-87376286D01*
X181878152Y-87397779D01*
X181885967Y-87350884D01*
X181764823Y-87255141D01*
X181564036Y-87233102D01*
X181449261Y-87230717D01*
X181249226Y-87241158D01*
X181042288Y-87277866D01*
X180854515Y-87341004D01*
X180739980Y-87397779D01*
X180657823Y-87210017D01*
X180615823Y-87007971D01*
X180605158Y-86821366D01*
X180622723Y-86622019D01*
X180654983Y-86527298D01*
X180848901Y-86451724D01*
X181047562Y-86393197D01*
X181158124Y-86366097D01*
X181351877Y-86329003D01*
X181552118Y-86305647D01*
X181758847Y-86296030D01*
X181800971Y-86295755D01*
X182010633Y-86303221D01*
G37*
D13*
X149917142Y-89407419D02*
X149440952Y-89407419D01*
X149440952Y-89407419D02*
X149440952Y-88407419D01*
X150202857Y-89359800D02*
X150345714Y-89407419D01*
X150345714Y-89407419D02*
X150583809Y-89407419D01*
X150583809Y-89407419D02*
X150679047Y-89359800D01*
X150679047Y-89359800D02*
X150726666Y-89312180D01*
X150726666Y-89312180D02*
X150774285Y-89216942D01*
X150774285Y-89216942D02*
X150774285Y-89121704D01*
X150774285Y-89121704D02*
X150726666Y-89026466D01*
X150726666Y-89026466D02*
X150679047Y-88978847D01*
X150679047Y-88978847D02*
X150583809Y-88931228D01*
X150583809Y-88931228D02*
X150393333Y-88883609D01*
X150393333Y-88883609D02*
X150298095Y-88835990D01*
X150298095Y-88835990D02*
X150250476Y-88788371D01*
X150250476Y-88788371D02*
X150202857Y-88693133D01*
X150202857Y-88693133D02*
X150202857Y-88597895D01*
X150202857Y-88597895D02*
X150250476Y-88502657D01*
X150250476Y-88502657D02*
X150298095Y-88455038D01*
X150298095Y-88455038D02*
X150393333Y-88407419D01*
X150393333Y-88407419D02*
X150631428Y-88407419D01*
X150631428Y-88407419D02*
X150774285Y-88455038D01*
X151726666Y-89407419D02*
X151155238Y-89407419D01*
X151440952Y-89407419D02*
X151440952Y-88407419D01*
X151440952Y-88407419D02*
X151345714Y-88550276D01*
X151345714Y-88550276D02*
X151250476Y-88645514D01*
X151250476Y-88645514D02*
X151155238Y-88693133D01*
D14*
X180954819Y-108578094D02*
X179954819Y-108578094D01*
X179954819Y-108578094D02*
X179954819Y-108339999D01*
X179954819Y-108339999D02*
X180002438Y-108197142D01*
X180002438Y-108197142D02*
X180097676Y-108101904D01*
X180097676Y-108101904D02*
X180192914Y-108054285D01*
X180192914Y-108054285D02*
X180383390Y-108006666D01*
X180383390Y-108006666D02*
X180526247Y-108006666D01*
X180526247Y-108006666D02*
X180716723Y-108054285D01*
X180716723Y-108054285D02*
X180811961Y-108101904D01*
X180811961Y-108101904D02*
X180907200Y-108197142D01*
X180907200Y-108197142D02*
X180954819Y-108339999D01*
X180954819Y-108339999D02*
X180954819Y-108578094D01*
X180954819Y-107054285D02*
X180954819Y-107625713D01*
X180954819Y-107339999D02*
X179954819Y-107339999D01*
X179954819Y-107339999D02*
X180097676Y-107435237D01*
X180097676Y-107435237D02*
X180192914Y-107530475D01*
X180192914Y-107530475D02*
X180240533Y-107625713D01*
X138204819Y-133916666D02*
X137728628Y-134249999D01*
X138204819Y-134488094D02*
X137204819Y-134488094D01*
X137204819Y-134488094D02*
X137204819Y-134107142D01*
X137204819Y-134107142D02*
X137252438Y-134011904D01*
X137252438Y-134011904D02*
X137300057Y-133964285D01*
X137300057Y-133964285D02*
X137395295Y-133916666D01*
X137395295Y-133916666D02*
X137538152Y-133916666D01*
X137538152Y-133916666D02*
X137633390Y-133964285D01*
X137633390Y-133964285D02*
X137681009Y-134011904D01*
X137681009Y-134011904D02*
X137728628Y-134107142D01*
X137728628Y-134107142D02*
X137728628Y-134488094D01*
X138204819Y-133440475D02*
X138204819Y-133249999D01*
X138204819Y-133249999D02*
X138157200Y-133154761D01*
X138157200Y-133154761D02*
X138109580Y-133107142D01*
X138109580Y-133107142D02*
X137966723Y-133011904D01*
X137966723Y-133011904D02*
X137776247Y-132964285D01*
X137776247Y-132964285D02*
X137395295Y-132964285D01*
X137395295Y-132964285D02*
X137300057Y-133011904D01*
X137300057Y-133011904D02*
X137252438Y-133059523D01*
X137252438Y-133059523D02*
X137204819Y-133154761D01*
X137204819Y-133154761D02*
X137204819Y-133345237D01*
X137204819Y-133345237D02*
X137252438Y-133440475D01*
X137252438Y-133440475D02*
X137300057Y-133488094D01*
X137300057Y-133488094D02*
X137395295Y-133535713D01*
X137395295Y-133535713D02*
X137633390Y-133535713D01*
X137633390Y-133535713D02*
X137728628Y-133488094D01*
X137728628Y-133488094D02*
X137776247Y-133440475D01*
X137776247Y-133440475D02*
X137823866Y-133345237D01*
X137823866Y-133345237D02*
X137823866Y-133154761D01*
X137823866Y-133154761D02*
X137776247Y-133059523D01*
X137776247Y-133059523D02*
X137728628Y-133011904D01*
X137728628Y-133011904D02*
X137633390Y-132964285D01*
X97011905Y-63494819D02*
X97011905Y-62494819D01*
X97011905Y-62494819D02*
X97250000Y-62494819D01*
X97250000Y-62494819D02*
X97392857Y-62542438D01*
X97392857Y-62542438D02*
X97488095Y-62637676D01*
X97488095Y-62637676D02*
X97535714Y-62732914D01*
X97535714Y-62732914D02*
X97583333Y-62923390D01*
X97583333Y-62923390D02*
X97583333Y-63066247D01*
X97583333Y-63066247D02*
X97535714Y-63256723D01*
X97535714Y-63256723D02*
X97488095Y-63351961D01*
X97488095Y-63351961D02*
X97392857Y-63447200D01*
X97392857Y-63447200D02*
X97250000Y-63494819D01*
X97250000Y-63494819D02*
X97011905Y-63494819D01*
X97916667Y-62494819D02*
X98535714Y-62494819D01*
X98535714Y-62494819D02*
X98202381Y-62875771D01*
X98202381Y-62875771D02*
X98345238Y-62875771D01*
X98345238Y-62875771D02*
X98440476Y-62923390D01*
X98440476Y-62923390D02*
X98488095Y-62971009D01*
X98488095Y-62971009D02*
X98535714Y-63066247D01*
X98535714Y-63066247D02*
X98535714Y-63304342D01*
X98535714Y-63304342D02*
X98488095Y-63399580D01*
X98488095Y-63399580D02*
X98440476Y-63447200D01*
X98440476Y-63447200D02*
X98345238Y-63494819D01*
X98345238Y-63494819D02*
X98059524Y-63494819D01*
X98059524Y-63494819D02*
X97964286Y-63447200D01*
X97964286Y-63447200D02*
X97916667Y-63399580D01*
X188933333Y-96836819D02*
X188600000Y-96360628D01*
X188361905Y-96836819D02*
X188361905Y-95836819D01*
X188361905Y-95836819D02*
X188742857Y-95836819D01*
X188742857Y-95836819D02*
X188838095Y-95884438D01*
X188838095Y-95884438D02*
X188885714Y-95932057D01*
X188885714Y-95932057D02*
X188933333Y-96027295D01*
X188933333Y-96027295D02*
X188933333Y-96170152D01*
X188933333Y-96170152D02*
X188885714Y-96265390D01*
X188885714Y-96265390D02*
X188838095Y-96313009D01*
X188838095Y-96313009D02*
X188742857Y-96360628D01*
X188742857Y-96360628D02*
X188361905Y-96360628D01*
X189314286Y-95932057D02*
X189361905Y-95884438D01*
X189361905Y-95884438D02*
X189457143Y-95836819D01*
X189457143Y-95836819D02*
X189695238Y-95836819D01*
X189695238Y-95836819D02*
X189790476Y-95884438D01*
X189790476Y-95884438D02*
X189838095Y-95932057D01*
X189838095Y-95932057D02*
X189885714Y-96027295D01*
X189885714Y-96027295D02*
X189885714Y-96122533D01*
X189885714Y-96122533D02*
X189838095Y-96265390D01*
X189838095Y-96265390D02*
X189266667Y-96836819D01*
X189266667Y-96836819D02*
X189885714Y-96836819D01*
X142914819Y-72095238D02*
X142438628Y-72428571D01*
X142914819Y-72666666D02*
X141914819Y-72666666D01*
X141914819Y-72666666D02*
X141914819Y-72285714D01*
X141914819Y-72285714D02*
X141962438Y-72190476D01*
X141962438Y-72190476D02*
X142010057Y-72142857D01*
X142010057Y-72142857D02*
X142105295Y-72095238D01*
X142105295Y-72095238D02*
X142248152Y-72095238D01*
X142248152Y-72095238D02*
X142343390Y-72142857D01*
X142343390Y-72142857D02*
X142391009Y-72190476D01*
X142391009Y-72190476D02*
X142438628Y-72285714D01*
X142438628Y-72285714D02*
X142438628Y-72666666D01*
X141914819Y-71809523D02*
X142914819Y-71476190D01*
X142914819Y-71476190D02*
X141914819Y-71142857D01*
X142914819Y-70285714D02*
X142914819Y-70857142D01*
X142914819Y-70571428D02*
X141914819Y-70571428D01*
X141914819Y-70571428D02*
X142057676Y-70666666D01*
X142057676Y-70666666D02*
X142152914Y-70761904D01*
X142152914Y-70761904D02*
X142200533Y-70857142D01*
X192454819Y-120256666D02*
X191978628Y-120589999D01*
X192454819Y-120828094D02*
X191454819Y-120828094D01*
X191454819Y-120828094D02*
X191454819Y-120447142D01*
X191454819Y-120447142D02*
X191502438Y-120351904D01*
X191502438Y-120351904D02*
X191550057Y-120304285D01*
X191550057Y-120304285D02*
X191645295Y-120256666D01*
X191645295Y-120256666D02*
X191788152Y-120256666D01*
X191788152Y-120256666D02*
X191883390Y-120304285D01*
X191883390Y-120304285D02*
X191931009Y-120351904D01*
X191931009Y-120351904D02*
X191978628Y-120447142D01*
X191978628Y-120447142D02*
X191978628Y-120828094D01*
X191883390Y-119685237D02*
X191835771Y-119780475D01*
X191835771Y-119780475D02*
X191788152Y-119828094D01*
X191788152Y-119828094D02*
X191692914Y-119875713D01*
X191692914Y-119875713D02*
X191645295Y-119875713D01*
X191645295Y-119875713D02*
X191550057Y-119828094D01*
X191550057Y-119828094D02*
X191502438Y-119780475D01*
X191502438Y-119780475D02*
X191454819Y-119685237D01*
X191454819Y-119685237D02*
X191454819Y-119494761D01*
X191454819Y-119494761D02*
X191502438Y-119399523D01*
X191502438Y-119399523D02*
X191550057Y-119351904D01*
X191550057Y-119351904D02*
X191645295Y-119304285D01*
X191645295Y-119304285D02*
X191692914Y-119304285D01*
X191692914Y-119304285D02*
X191788152Y-119351904D01*
X191788152Y-119351904D02*
X191835771Y-119399523D01*
X191835771Y-119399523D02*
X191883390Y-119494761D01*
X191883390Y-119494761D02*
X191883390Y-119685237D01*
X191883390Y-119685237D02*
X191931009Y-119780475D01*
X191931009Y-119780475D02*
X191978628Y-119828094D01*
X191978628Y-119828094D02*
X192073866Y-119875713D01*
X192073866Y-119875713D02*
X192264342Y-119875713D01*
X192264342Y-119875713D02*
X192359580Y-119828094D01*
X192359580Y-119828094D02*
X192407200Y-119780475D01*
X192407200Y-119780475D02*
X192454819Y-119685237D01*
X192454819Y-119685237D02*
X192454819Y-119494761D01*
X192454819Y-119494761D02*
X192407200Y-119399523D01*
X192407200Y-119399523D02*
X192359580Y-119351904D01*
X192359580Y-119351904D02*
X192264342Y-119304285D01*
X192264342Y-119304285D02*
X192073866Y-119304285D01*
X192073866Y-119304285D02*
X191978628Y-119351904D01*
X191978628Y-119351904D02*
X191931009Y-119399523D01*
X191931009Y-119399523D02*
X191883390Y-119494761D01*
X189296819Y-120416666D02*
X188820628Y-120749999D01*
X189296819Y-120988094D02*
X188296819Y-120988094D01*
X188296819Y-120988094D02*
X188296819Y-120607142D01*
X188296819Y-120607142D02*
X188344438Y-120511904D01*
X188344438Y-120511904D02*
X188392057Y-120464285D01*
X188392057Y-120464285D02*
X188487295Y-120416666D01*
X188487295Y-120416666D02*
X188630152Y-120416666D01*
X188630152Y-120416666D02*
X188725390Y-120464285D01*
X188725390Y-120464285D02*
X188773009Y-120511904D01*
X188773009Y-120511904D02*
X188820628Y-120607142D01*
X188820628Y-120607142D02*
X188820628Y-120988094D01*
X188296819Y-120083332D02*
X188296819Y-119416666D01*
X188296819Y-119416666D02*
X189296819Y-119845237D01*
X148688095Y-135204819D02*
X148688095Y-136014342D01*
X148688095Y-136014342D02*
X148735714Y-136109580D01*
X148735714Y-136109580D02*
X148783333Y-136157200D01*
X148783333Y-136157200D02*
X148878571Y-136204819D01*
X148878571Y-136204819D02*
X149069047Y-136204819D01*
X149069047Y-136204819D02*
X149164285Y-136157200D01*
X149164285Y-136157200D02*
X149211904Y-136109580D01*
X149211904Y-136109580D02*
X149259523Y-136014342D01*
X149259523Y-136014342D02*
X149259523Y-135204819D01*
X149640476Y-135204819D02*
X150259523Y-135204819D01*
X150259523Y-135204819D02*
X149926190Y-135585771D01*
X149926190Y-135585771D02*
X150069047Y-135585771D01*
X150069047Y-135585771D02*
X150164285Y-135633390D01*
X150164285Y-135633390D02*
X150211904Y-135681009D01*
X150211904Y-135681009D02*
X150259523Y-135776247D01*
X150259523Y-135776247D02*
X150259523Y-136014342D01*
X150259523Y-136014342D02*
X150211904Y-136109580D01*
X150211904Y-136109580D02*
X150164285Y-136157200D01*
X150164285Y-136157200D02*
X150069047Y-136204819D01*
X150069047Y-136204819D02*
X149783333Y-136204819D01*
X149783333Y-136204819D02*
X149688095Y-136157200D01*
X149688095Y-136157200D02*
X149640476Y-136109580D01*
X165624819Y-83083333D02*
X166339104Y-83083333D01*
X166339104Y-83083333D02*
X166481961Y-83130952D01*
X166481961Y-83130952D02*
X166577200Y-83226190D01*
X166577200Y-83226190D02*
X166624819Y-83369047D01*
X166624819Y-83369047D02*
X166624819Y-83464285D01*
X165624819Y-82702380D02*
X165624819Y-82083333D01*
X165624819Y-82083333D02*
X166005771Y-82416666D01*
X166005771Y-82416666D02*
X166005771Y-82273809D01*
X166005771Y-82273809D02*
X166053390Y-82178571D01*
X166053390Y-82178571D02*
X166101009Y-82130952D01*
X166101009Y-82130952D02*
X166196247Y-82083333D01*
X166196247Y-82083333D02*
X166434342Y-82083333D01*
X166434342Y-82083333D02*
X166529580Y-82130952D01*
X166529580Y-82130952D02*
X166577200Y-82178571D01*
X166577200Y-82178571D02*
X166624819Y-82273809D01*
X166624819Y-82273809D02*
X166624819Y-82559523D01*
X166624819Y-82559523D02*
X166577200Y-82654761D01*
X166577200Y-82654761D02*
X166529580Y-82702380D01*
X113277142Y-67954819D02*
X112943809Y-67478628D01*
X112705714Y-67954819D02*
X112705714Y-66954819D01*
X112705714Y-66954819D02*
X113086666Y-66954819D01*
X113086666Y-66954819D02*
X113181904Y-67002438D01*
X113181904Y-67002438D02*
X113229523Y-67050057D01*
X113229523Y-67050057D02*
X113277142Y-67145295D01*
X113277142Y-67145295D02*
X113277142Y-67288152D01*
X113277142Y-67288152D02*
X113229523Y-67383390D01*
X113229523Y-67383390D02*
X113181904Y-67431009D01*
X113181904Y-67431009D02*
X113086666Y-67478628D01*
X113086666Y-67478628D02*
X112705714Y-67478628D01*
X114229523Y-67954819D02*
X113658095Y-67954819D01*
X113943809Y-67954819D02*
X113943809Y-66954819D01*
X113943809Y-66954819D02*
X113848571Y-67097676D01*
X113848571Y-67097676D02*
X113753333Y-67192914D01*
X113753333Y-67192914D02*
X113658095Y-67240533D01*
X114848571Y-66954819D02*
X114943809Y-66954819D01*
X114943809Y-66954819D02*
X115039047Y-67002438D01*
X115039047Y-67002438D02*
X115086666Y-67050057D01*
X115086666Y-67050057D02*
X115134285Y-67145295D01*
X115134285Y-67145295D02*
X115181904Y-67335771D01*
X115181904Y-67335771D02*
X115181904Y-67573866D01*
X115181904Y-67573866D02*
X115134285Y-67764342D01*
X115134285Y-67764342D02*
X115086666Y-67859580D01*
X115086666Y-67859580D02*
X115039047Y-67907200D01*
X115039047Y-67907200D02*
X114943809Y-67954819D01*
X114943809Y-67954819D02*
X114848571Y-67954819D01*
X114848571Y-67954819D02*
X114753333Y-67907200D01*
X114753333Y-67907200D02*
X114705714Y-67859580D01*
X114705714Y-67859580D02*
X114658095Y-67764342D01*
X114658095Y-67764342D02*
X114610476Y-67573866D01*
X114610476Y-67573866D02*
X114610476Y-67335771D01*
X114610476Y-67335771D02*
X114658095Y-67145295D01*
X114658095Y-67145295D02*
X114705714Y-67050057D01*
X114705714Y-67050057D02*
X114753333Y-67002438D01*
X114753333Y-67002438D02*
X114848571Y-66954819D01*
X204333333Y-108359580D02*
X204285714Y-108407200D01*
X204285714Y-108407200D02*
X204142857Y-108454819D01*
X204142857Y-108454819D02*
X204047619Y-108454819D01*
X204047619Y-108454819D02*
X203904762Y-108407200D01*
X203904762Y-108407200D02*
X203809524Y-108311961D01*
X203809524Y-108311961D02*
X203761905Y-108216723D01*
X203761905Y-108216723D02*
X203714286Y-108026247D01*
X203714286Y-108026247D02*
X203714286Y-107883390D01*
X203714286Y-107883390D02*
X203761905Y-107692914D01*
X203761905Y-107692914D02*
X203809524Y-107597676D01*
X203809524Y-107597676D02*
X203904762Y-107502438D01*
X203904762Y-107502438D02*
X204047619Y-107454819D01*
X204047619Y-107454819D02*
X204142857Y-107454819D01*
X204142857Y-107454819D02*
X204285714Y-107502438D01*
X204285714Y-107502438D02*
X204333333Y-107550057D01*
X204809524Y-108454819D02*
X205000000Y-108454819D01*
X205000000Y-108454819D02*
X205095238Y-108407200D01*
X205095238Y-108407200D02*
X205142857Y-108359580D01*
X205142857Y-108359580D02*
X205238095Y-108216723D01*
X205238095Y-108216723D02*
X205285714Y-108026247D01*
X205285714Y-108026247D02*
X205285714Y-107645295D01*
X205285714Y-107645295D02*
X205238095Y-107550057D01*
X205238095Y-107550057D02*
X205190476Y-107502438D01*
X205190476Y-107502438D02*
X205095238Y-107454819D01*
X205095238Y-107454819D02*
X204904762Y-107454819D01*
X204904762Y-107454819D02*
X204809524Y-107502438D01*
X204809524Y-107502438D02*
X204761905Y-107550057D01*
X204761905Y-107550057D02*
X204714286Y-107645295D01*
X204714286Y-107645295D02*
X204714286Y-107883390D01*
X204714286Y-107883390D02*
X204761905Y-107978628D01*
X204761905Y-107978628D02*
X204809524Y-108026247D01*
X204809524Y-108026247D02*
X204904762Y-108073866D01*
X204904762Y-108073866D02*
X205095238Y-108073866D01*
X205095238Y-108073866D02*
X205190476Y-108026247D01*
X205190476Y-108026247D02*
X205238095Y-107978628D01*
X205238095Y-107978628D02*
X205285714Y-107883390D01*
X130777142Y-80954819D02*
X130443809Y-80478628D01*
X130205714Y-80954819D02*
X130205714Y-79954819D01*
X130205714Y-79954819D02*
X130586666Y-79954819D01*
X130586666Y-79954819D02*
X130681904Y-80002438D01*
X130681904Y-80002438D02*
X130729523Y-80050057D01*
X130729523Y-80050057D02*
X130777142Y-80145295D01*
X130777142Y-80145295D02*
X130777142Y-80288152D01*
X130777142Y-80288152D02*
X130729523Y-80383390D01*
X130729523Y-80383390D02*
X130681904Y-80431009D01*
X130681904Y-80431009D02*
X130586666Y-80478628D01*
X130586666Y-80478628D02*
X130205714Y-80478628D01*
X131729523Y-80954819D02*
X131158095Y-80954819D01*
X131443809Y-80954819D02*
X131443809Y-79954819D01*
X131443809Y-79954819D02*
X131348571Y-80097676D01*
X131348571Y-80097676D02*
X131253333Y-80192914D01*
X131253333Y-80192914D02*
X131158095Y-80240533D01*
X132681904Y-80954819D02*
X132110476Y-80954819D01*
X132396190Y-80954819D02*
X132396190Y-79954819D01*
X132396190Y-79954819D02*
X132300952Y-80097676D01*
X132300952Y-80097676D02*
X132205714Y-80192914D01*
X132205714Y-80192914D02*
X132110476Y-80240533D01*
X185924819Y-120532666D02*
X185448628Y-120865999D01*
X185924819Y-121104094D02*
X184924819Y-121104094D01*
X184924819Y-121104094D02*
X184924819Y-120723142D01*
X184924819Y-120723142D02*
X184972438Y-120627904D01*
X184972438Y-120627904D02*
X185020057Y-120580285D01*
X185020057Y-120580285D02*
X185115295Y-120532666D01*
X185115295Y-120532666D02*
X185258152Y-120532666D01*
X185258152Y-120532666D02*
X185353390Y-120580285D01*
X185353390Y-120580285D02*
X185401009Y-120627904D01*
X185401009Y-120627904D02*
X185448628Y-120723142D01*
X185448628Y-120723142D02*
X185448628Y-121104094D01*
X184924819Y-119627904D02*
X184924819Y-120104094D01*
X184924819Y-120104094D02*
X185401009Y-120151713D01*
X185401009Y-120151713D02*
X185353390Y-120104094D01*
X185353390Y-120104094D02*
X185305771Y-120008856D01*
X185305771Y-120008856D02*
X185305771Y-119770761D01*
X185305771Y-119770761D02*
X185353390Y-119675523D01*
X185353390Y-119675523D02*
X185401009Y-119627904D01*
X185401009Y-119627904D02*
X185496247Y-119580285D01*
X185496247Y-119580285D02*
X185734342Y-119580285D01*
X185734342Y-119580285D02*
X185829580Y-119627904D01*
X185829580Y-119627904D02*
X185877200Y-119675523D01*
X185877200Y-119675523D02*
X185924819Y-119770761D01*
X185924819Y-119770761D02*
X185924819Y-120008856D01*
X185924819Y-120008856D02*
X185877200Y-120104094D01*
X185877200Y-120104094D02*
X185829580Y-120151713D01*
X151954819Y-69246666D02*
X151478628Y-69579999D01*
X151954819Y-69818094D02*
X150954819Y-69818094D01*
X150954819Y-69818094D02*
X150954819Y-69437142D01*
X150954819Y-69437142D02*
X151002438Y-69341904D01*
X151002438Y-69341904D02*
X151050057Y-69294285D01*
X151050057Y-69294285D02*
X151145295Y-69246666D01*
X151145295Y-69246666D02*
X151288152Y-69246666D01*
X151288152Y-69246666D02*
X151383390Y-69294285D01*
X151383390Y-69294285D02*
X151431009Y-69341904D01*
X151431009Y-69341904D02*
X151478628Y-69437142D01*
X151478628Y-69437142D02*
X151478628Y-69818094D01*
X151288152Y-68389523D02*
X151954819Y-68389523D01*
X150907200Y-68627618D02*
X151621485Y-68865713D01*
X151621485Y-68865713D02*
X151621485Y-68246666D01*
X112571905Y-56454819D02*
X112571905Y-55454819D01*
X112571905Y-55454819D02*
X112810000Y-55454819D01*
X112810000Y-55454819D02*
X112952857Y-55502438D01*
X112952857Y-55502438D02*
X113048095Y-55597676D01*
X113048095Y-55597676D02*
X113095714Y-55692914D01*
X113095714Y-55692914D02*
X113143333Y-55883390D01*
X113143333Y-55883390D02*
X113143333Y-56026247D01*
X113143333Y-56026247D02*
X113095714Y-56216723D01*
X113095714Y-56216723D02*
X113048095Y-56311961D01*
X113048095Y-56311961D02*
X112952857Y-56407200D01*
X112952857Y-56407200D02*
X112810000Y-56454819D01*
X112810000Y-56454819D02*
X112571905Y-56454819D01*
X114000476Y-55788152D02*
X114000476Y-56454819D01*
X113762381Y-55407200D02*
X113524286Y-56121485D01*
X113524286Y-56121485D02*
X114143333Y-56121485D01*
X183773333Y-100627580D02*
X183725714Y-100675200D01*
X183725714Y-100675200D02*
X183582857Y-100722819D01*
X183582857Y-100722819D02*
X183487619Y-100722819D01*
X183487619Y-100722819D02*
X183344762Y-100675200D01*
X183344762Y-100675200D02*
X183249524Y-100579961D01*
X183249524Y-100579961D02*
X183201905Y-100484723D01*
X183201905Y-100484723D02*
X183154286Y-100294247D01*
X183154286Y-100294247D02*
X183154286Y-100151390D01*
X183154286Y-100151390D02*
X183201905Y-99960914D01*
X183201905Y-99960914D02*
X183249524Y-99865676D01*
X183249524Y-99865676D02*
X183344762Y-99770438D01*
X183344762Y-99770438D02*
X183487619Y-99722819D01*
X183487619Y-99722819D02*
X183582857Y-99722819D01*
X183582857Y-99722819D02*
X183725714Y-99770438D01*
X183725714Y-99770438D02*
X183773333Y-99818057D01*
X184725714Y-100722819D02*
X184154286Y-100722819D01*
X184440000Y-100722819D02*
X184440000Y-99722819D01*
X184440000Y-99722819D02*
X184344762Y-99865676D01*
X184344762Y-99865676D02*
X184249524Y-99960914D01*
X184249524Y-99960914D02*
X184154286Y-100008533D01*
X182249580Y-119166666D02*
X182297200Y-119214285D01*
X182297200Y-119214285D02*
X182344819Y-119357142D01*
X182344819Y-119357142D02*
X182344819Y-119452380D01*
X182344819Y-119452380D02*
X182297200Y-119595237D01*
X182297200Y-119595237D02*
X182201961Y-119690475D01*
X182201961Y-119690475D02*
X182106723Y-119738094D01*
X182106723Y-119738094D02*
X181916247Y-119785713D01*
X181916247Y-119785713D02*
X181773390Y-119785713D01*
X181773390Y-119785713D02*
X181582914Y-119738094D01*
X181582914Y-119738094D02*
X181487676Y-119690475D01*
X181487676Y-119690475D02*
X181392438Y-119595237D01*
X181392438Y-119595237D02*
X181344819Y-119452380D01*
X181344819Y-119452380D02*
X181344819Y-119357142D01*
X181344819Y-119357142D02*
X181392438Y-119214285D01*
X181392438Y-119214285D02*
X181440057Y-119166666D01*
X181344819Y-118833332D02*
X181344819Y-118214285D01*
X181344819Y-118214285D02*
X181725771Y-118547618D01*
X181725771Y-118547618D02*
X181725771Y-118404761D01*
X181725771Y-118404761D02*
X181773390Y-118309523D01*
X181773390Y-118309523D02*
X181821009Y-118261904D01*
X181821009Y-118261904D02*
X181916247Y-118214285D01*
X181916247Y-118214285D02*
X182154342Y-118214285D01*
X182154342Y-118214285D02*
X182249580Y-118261904D01*
X182249580Y-118261904D02*
X182297200Y-118309523D01*
X182297200Y-118309523D02*
X182344819Y-118404761D01*
X182344819Y-118404761D02*
X182344819Y-118690475D01*
X182344819Y-118690475D02*
X182297200Y-118785713D01*
X182297200Y-118785713D02*
X182249580Y-118833332D01*
X118424819Y-62079904D02*
X119234342Y-62079904D01*
X119234342Y-62079904D02*
X119329580Y-62032285D01*
X119329580Y-62032285D02*
X119377200Y-61984666D01*
X119377200Y-61984666D02*
X119424819Y-61889428D01*
X119424819Y-61889428D02*
X119424819Y-61698952D01*
X119424819Y-61698952D02*
X119377200Y-61603714D01*
X119377200Y-61603714D02*
X119329580Y-61556095D01*
X119329580Y-61556095D02*
X119234342Y-61508476D01*
X119234342Y-61508476D02*
X118424819Y-61508476D01*
X118758152Y-60603714D02*
X119424819Y-60603714D01*
X118377200Y-60841809D02*
X119091485Y-61079904D01*
X119091485Y-61079904D02*
X119091485Y-60460857D01*
X194083333Y-100686819D02*
X193750000Y-100210628D01*
X193511905Y-100686819D02*
X193511905Y-99686819D01*
X193511905Y-99686819D02*
X193892857Y-99686819D01*
X193892857Y-99686819D02*
X193988095Y-99734438D01*
X193988095Y-99734438D02*
X194035714Y-99782057D01*
X194035714Y-99782057D02*
X194083333Y-99877295D01*
X194083333Y-99877295D02*
X194083333Y-100020152D01*
X194083333Y-100020152D02*
X194035714Y-100115390D01*
X194035714Y-100115390D02*
X193988095Y-100163009D01*
X193988095Y-100163009D02*
X193892857Y-100210628D01*
X193892857Y-100210628D02*
X193511905Y-100210628D01*
X195035714Y-100686819D02*
X194464286Y-100686819D01*
X194750000Y-100686819D02*
X194750000Y-99686819D01*
X194750000Y-99686819D02*
X194654762Y-99829676D01*
X194654762Y-99829676D02*
X194559524Y-99924914D01*
X194559524Y-99924914D02*
X194464286Y-99972533D01*
X169903333Y-57327580D02*
X169855714Y-57375200D01*
X169855714Y-57375200D02*
X169712857Y-57422819D01*
X169712857Y-57422819D02*
X169617619Y-57422819D01*
X169617619Y-57422819D02*
X169474762Y-57375200D01*
X169474762Y-57375200D02*
X169379524Y-57279961D01*
X169379524Y-57279961D02*
X169331905Y-57184723D01*
X169331905Y-57184723D02*
X169284286Y-56994247D01*
X169284286Y-56994247D02*
X169284286Y-56851390D01*
X169284286Y-56851390D02*
X169331905Y-56660914D01*
X169331905Y-56660914D02*
X169379524Y-56565676D01*
X169379524Y-56565676D02*
X169474762Y-56470438D01*
X169474762Y-56470438D02*
X169617619Y-56422819D01*
X169617619Y-56422819D02*
X169712857Y-56422819D01*
X169712857Y-56422819D02*
X169855714Y-56470438D01*
X169855714Y-56470438D02*
X169903333Y-56518057D01*
X170760476Y-56422819D02*
X170570000Y-56422819D01*
X170570000Y-56422819D02*
X170474762Y-56470438D01*
X170474762Y-56470438D02*
X170427143Y-56518057D01*
X170427143Y-56518057D02*
X170331905Y-56660914D01*
X170331905Y-56660914D02*
X170284286Y-56851390D01*
X170284286Y-56851390D02*
X170284286Y-57232342D01*
X170284286Y-57232342D02*
X170331905Y-57327580D01*
X170331905Y-57327580D02*
X170379524Y-57375200D01*
X170379524Y-57375200D02*
X170474762Y-57422819D01*
X170474762Y-57422819D02*
X170665238Y-57422819D01*
X170665238Y-57422819D02*
X170760476Y-57375200D01*
X170760476Y-57375200D02*
X170808095Y-57327580D01*
X170808095Y-57327580D02*
X170855714Y-57232342D01*
X170855714Y-57232342D02*
X170855714Y-56994247D01*
X170855714Y-56994247D02*
X170808095Y-56899009D01*
X170808095Y-56899009D02*
X170760476Y-56851390D01*
X170760476Y-56851390D02*
X170665238Y-56803771D01*
X170665238Y-56803771D02*
X170474762Y-56803771D01*
X170474762Y-56803771D02*
X170379524Y-56851390D01*
X170379524Y-56851390D02*
X170331905Y-56899009D01*
X170331905Y-56899009D02*
X170284286Y-56994247D01*
X155454819Y-69246666D02*
X154978628Y-69579999D01*
X155454819Y-69818094D02*
X154454819Y-69818094D01*
X154454819Y-69818094D02*
X154454819Y-69437142D01*
X154454819Y-69437142D02*
X154502438Y-69341904D01*
X154502438Y-69341904D02*
X154550057Y-69294285D01*
X154550057Y-69294285D02*
X154645295Y-69246666D01*
X154645295Y-69246666D02*
X154788152Y-69246666D01*
X154788152Y-69246666D02*
X154883390Y-69294285D01*
X154883390Y-69294285D02*
X154931009Y-69341904D01*
X154931009Y-69341904D02*
X154978628Y-69437142D01*
X154978628Y-69437142D02*
X154978628Y-69818094D01*
X154454819Y-68913332D02*
X154454819Y-68294285D01*
X154454819Y-68294285D02*
X154835771Y-68627618D01*
X154835771Y-68627618D02*
X154835771Y-68484761D01*
X154835771Y-68484761D02*
X154883390Y-68389523D01*
X154883390Y-68389523D02*
X154931009Y-68341904D01*
X154931009Y-68341904D02*
X155026247Y-68294285D01*
X155026247Y-68294285D02*
X155264342Y-68294285D01*
X155264342Y-68294285D02*
X155359580Y-68341904D01*
X155359580Y-68341904D02*
X155407200Y-68389523D01*
X155407200Y-68389523D02*
X155454819Y-68484761D01*
X155454819Y-68484761D02*
X155454819Y-68770475D01*
X155454819Y-68770475D02*
X155407200Y-68865713D01*
X155407200Y-68865713D02*
X155359580Y-68913332D01*
X176197905Y-96954819D02*
X176197905Y-95954819D01*
X176197905Y-95954819D02*
X176436000Y-95954819D01*
X176436000Y-95954819D02*
X176578857Y-96002438D01*
X176578857Y-96002438D02*
X176674095Y-96097676D01*
X176674095Y-96097676D02*
X176721714Y-96192914D01*
X176721714Y-96192914D02*
X176769333Y-96383390D01*
X176769333Y-96383390D02*
X176769333Y-96526247D01*
X176769333Y-96526247D02*
X176721714Y-96716723D01*
X176721714Y-96716723D02*
X176674095Y-96811961D01*
X176674095Y-96811961D02*
X176578857Y-96907200D01*
X176578857Y-96907200D02*
X176436000Y-96954819D01*
X176436000Y-96954819D02*
X176197905Y-96954819D01*
X177150286Y-96050057D02*
X177197905Y-96002438D01*
X177197905Y-96002438D02*
X177293143Y-95954819D01*
X177293143Y-95954819D02*
X177531238Y-95954819D01*
X177531238Y-95954819D02*
X177626476Y-96002438D01*
X177626476Y-96002438D02*
X177674095Y-96050057D01*
X177674095Y-96050057D02*
X177721714Y-96145295D01*
X177721714Y-96145295D02*
X177721714Y-96240533D01*
X177721714Y-96240533D02*
X177674095Y-96383390D01*
X177674095Y-96383390D02*
X177102667Y-96954819D01*
X177102667Y-96954819D02*
X177721714Y-96954819D01*
X157704819Y-133312857D02*
X157228628Y-133646190D01*
X157704819Y-133884285D02*
X156704819Y-133884285D01*
X156704819Y-133884285D02*
X156704819Y-133503333D01*
X156704819Y-133503333D02*
X156752438Y-133408095D01*
X156752438Y-133408095D02*
X156800057Y-133360476D01*
X156800057Y-133360476D02*
X156895295Y-133312857D01*
X156895295Y-133312857D02*
X157038152Y-133312857D01*
X157038152Y-133312857D02*
X157133390Y-133360476D01*
X157133390Y-133360476D02*
X157181009Y-133408095D01*
X157181009Y-133408095D02*
X157228628Y-133503333D01*
X157228628Y-133503333D02*
X157228628Y-133884285D01*
X157704819Y-132360476D02*
X157704819Y-132931904D01*
X157704819Y-132646190D02*
X156704819Y-132646190D01*
X156704819Y-132646190D02*
X156847676Y-132741428D01*
X156847676Y-132741428D02*
X156942914Y-132836666D01*
X156942914Y-132836666D02*
X156990533Y-132931904D01*
X156800057Y-131979523D02*
X156752438Y-131931904D01*
X156752438Y-131931904D02*
X156704819Y-131836666D01*
X156704819Y-131836666D02*
X156704819Y-131598571D01*
X156704819Y-131598571D02*
X156752438Y-131503333D01*
X156752438Y-131503333D02*
X156800057Y-131455714D01*
X156800057Y-131455714D02*
X156895295Y-131408095D01*
X156895295Y-131408095D02*
X156990533Y-131408095D01*
X156990533Y-131408095D02*
X157133390Y-131455714D01*
X157133390Y-131455714D02*
X157704819Y-132027142D01*
X157704819Y-132027142D02*
X157704819Y-131408095D01*
X154454819Y-57949904D02*
X155264342Y-57949904D01*
X155264342Y-57949904D02*
X155359580Y-57902285D01*
X155359580Y-57902285D02*
X155407200Y-57854666D01*
X155407200Y-57854666D02*
X155454819Y-57759428D01*
X155454819Y-57759428D02*
X155454819Y-57568952D01*
X155454819Y-57568952D02*
X155407200Y-57473714D01*
X155407200Y-57473714D02*
X155359580Y-57426095D01*
X155359580Y-57426095D02*
X155264342Y-57378476D01*
X155264342Y-57378476D02*
X154454819Y-57378476D01*
X154550057Y-56949904D02*
X154502438Y-56902285D01*
X154502438Y-56902285D02*
X154454819Y-56807047D01*
X154454819Y-56807047D02*
X154454819Y-56568952D01*
X154454819Y-56568952D02*
X154502438Y-56473714D01*
X154502438Y-56473714D02*
X154550057Y-56426095D01*
X154550057Y-56426095D02*
X154645295Y-56378476D01*
X154645295Y-56378476D02*
X154740533Y-56378476D01*
X154740533Y-56378476D02*
X154883390Y-56426095D01*
X154883390Y-56426095D02*
X155454819Y-56997523D01*
X155454819Y-56997523D02*
X155454819Y-56378476D01*
X136583333Y-122904467D02*
X136535714Y-122952087D01*
X136535714Y-122952087D02*
X136392857Y-122999706D01*
X136392857Y-122999706D02*
X136297619Y-122999706D01*
X136297619Y-122999706D02*
X136154762Y-122952087D01*
X136154762Y-122952087D02*
X136059524Y-122856848D01*
X136059524Y-122856848D02*
X136011905Y-122761610D01*
X136011905Y-122761610D02*
X135964286Y-122571134D01*
X135964286Y-122571134D02*
X135964286Y-122428277D01*
X135964286Y-122428277D02*
X136011905Y-122237801D01*
X136011905Y-122237801D02*
X136059524Y-122142563D01*
X136059524Y-122142563D02*
X136154762Y-122047325D01*
X136154762Y-122047325D02*
X136297619Y-121999706D01*
X136297619Y-121999706D02*
X136392857Y-121999706D01*
X136392857Y-121999706D02*
X136535714Y-122047325D01*
X136535714Y-122047325D02*
X136583333Y-122094944D01*
X137154762Y-122428277D02*
X137059524Y-122380658D01*
X137059524Y-122380658D02*
X137011905Y-122333039D01*
X137011905Y-122333039D02*
X136964286Y-122237801D01*
X136964286Y-122237801D02*
X136964286Y-122190182D01*
X136964286Y-122190182D02*
X137011905Y-122094944D01*
X137011905Y-122094944D02*
X137059524Y-122047325D01*
X137059524Y-122047325D02*
X137154762Y-121999706D01*
X137154762Y-121999706D02*
X137345238Y-121999706D01*
X137345238Y-121999706D02*
X137440476Y-122047325D01*
X137440476Y-122047325D02*
X137488095Y-122094944D01*
X137488095Y-122094944D02*
X137535714Y-122190182D01*
X137535714Y-122190182D02*
X137535714Y-122237801D01*
X137535714Y-122237801D02*
X137488095Y-122333039D01*
X137488095Y-122333039D02*
X137440476Y-122380658D01*
X137440476Y-122380658D02*
X137345238Y-122428277D01*
X137345238Y-122428277D02*
X137154762Y-122428277D01*
X137154762Y-122428277D02*
X137059524Y-122475896D01*
X137059524Y-122475896D02*
X137011905Y-122523515D01*
X137011905Y-122523515D02*
X136964286Y-122618753D01*
X136964286Y-122618753D02*
X136964286Y-122809229D01*
X136964286Y-122809229D02*
X137011905Y-122904467D01*
X137011905Y-122904467D02*
X137059524Y-122952087D01*
X137059524Y-122952087D02*
X137154762Y-122999706D01*
X137154762Y-122999706D02*
X137345238Y-122999706D01*
X137345238Y-122999706D02*
X137440476Y-122952087D01*
X137440476Y-122952087D02*
X137488095Y-122904467D01*
X137488095Y-122904467D02*
X137535714Y-122809229D01*
X137535714Y-122809229D02*
X137535714Y-122618753D01*
X137535714Y-122618753D02*
X137488095Y-122523515D01*
X137488095Y-122523515D02*
X137440476Y-122475896D01*
X137440476Y-122475896D02*
X137345238Y-122428277D01*
X197109580Y-117916666D02*
X197157200Y-117964285D01*
X197157200Y-117964285D02*
X197204819Y-118107142D01*
X197204819Y-118107142D02*
X197204819Y-118202380D01*
X197204819Y-118202380D02*
X197157200Y-118345237D01*
X197157200Y-118345237D02*
X197061961Y-118440475D01*
X197061961Y-118440475D02*
X196966723Y-118488094D01*
X196966723Y-118488094D02*
X196776247Y-118535713D01*
X196776247Y-118535713D02*
X196633390Y-118535713D01*
X196633390Y-118535713D02*
X196442914Y-118488094D01*
X196442914Y-118488094D02*
X196347676Y-118440475D01*
X196347676Y-118440475D02*
X196252438Y-118345237D01*
X196252438Y-118345237D02*
X196204819Y-118202380D01*
X196204819Y-118202380D02*
X196204819Y-118107142D01*
X196204819Y-118107142D02*
X196252438Y-117964285D01*
X196252438Y-117964285D02*
X196300057Y-117916666D01*
X196204819Y-117011904D02*
X196204819Y-117488094D01*
X196204819Y-117488094D02*
X196681009Y-117535713D01*
X196681009Y-117535713D02*
X196633390Y-117488094D01*
X196633390Y-117488094D02*
X196585771Y-117392856D01*
X196585771Y-117392856D02*
X196585771Y-117154761D01*
X196585771Y-117154761D02*
X196633390Y-117059523D01*
X196633390Y-117059523D02*
X196681009Y-117011904D01*
X196681009Y-117011904D02*
X196776247Y-116964285D01*
X196776247Y-116964285D02*
X197014342Y-116964285D01*
X197014342Y-116964285D02*
X197109580Y-117011904D01*
X197109580Y-117011904D02*
X197157200Y-117059523D01*
X197157200Y-117059523D02*
X197204819Y-117154761D01*
X197204819Y-117154761D02*
X197204819Y-117392856D01*
X197204819Y-117392856D02*
X197157200Y-117488094D01*
X197157200Y-117488094D02*
X197109580Y-117535713D01*
X126766667Y-62257200D02*
X126909524Y-62304819D01*
X126909524Y-62304819D02*
X127147619Y-62304819D01*
X127147619Y-62304819D02*
X127242857Y-62257200D01*
X127242857Y-62257200D02*
X127290476Y-62209580D01*
X127290476Y-62209580D02*
X127338095Y-62114342D01*
X127338095Y-62114342D02*
X127338095Y-62019104D01*
X127338095Y-62019104D02*
X127290476Y-61923866D01*
X127290476Y-61923866D02*
X127242857Y-61876247D01*
X127242857Y-61876247D02*
X127147619Y-61828628D01*
X127147619Y-61828628D02*
X126957143Y-61781009D01*
X126957143Y-61781009D02*
X126861905Y-61733390D01*
X126861905Y-61733390D02*
X126814286Y-61685771D01*
X126814286Y-61685771D02*
X126766667Y-61590533D01*
X126766667Y-61590533D02*
X126766667Y-61495295D01*
X126766667Y-61495295D02*
X126814286Y-61400057D01*
X126814286Y-61400057D02*
X126861905Y-61352438D01*
X126861905Y-61352438D02*
X126957143Y-61304819D01*
X126957143Y-61304819D02*
X127195238Y-61304819D01*
X127195238Y-61304819D02*
X127338095Y-61352438D01*
X127671429Y-61304819D02*
X127909524Y-62304819D01*
X127909524Y-62304819D02*
X128100000Y-61590533D01*
X128100000Y-61590533D02*
X128290476Y-62304819D01*
X128290476Y-62304819D02*
X128528572Y-61304819D01*
X129433333Y-62304819D02*
X128861905Y-62304819D01*
X129147619Y-62304819D02*
X129147619Y-61304819D01*
X129147619Y-61304819D02*
X129052381Y-61447676D01*
X129052381Y-61447676D02*
X128957143Y-61542914D01*
X128957143Y-61542914D02*
X128861905Y-61590533D01*
X148107142Y-125359580D02*
X148059523Y-125407200D01*
X148059523Y-125407200D02*
X147916666Y-125454819D01*
X147916666Y-125454819D02*
X147821428Y-125454819D01*
X147821428Y-125454819D02*
X147678571Y-125407200D01*
X147678571Y-125407200D02*
X147583333Y-125311961D01*
X147583333Y-125311961D02*
X147535714Y-125216723D01*
X147535714Y-125216723D02*
X147488095Y-125026247D01*
X147488095Y-125026247D02*
X147488095Y-124883390D01*
X147488095Y-124883390D02*
X147535714Y-124692914D01*
X147535714Y-124692914D02*
X147583333Y-124597676D01*
X147583333Y-124597676D02*
X147678571Y-124502438D01*
X147678571Y-124502438D02*
X147821428Y-124454819D01*
X147821428Y-124454819D02*
X147916666Y-124454819D01*
X147916666Y-124454819D02*
X148059523Y-124502438D01*
X148059523Y-124502438D02*
X148107142Y-124550057D01*
X149059523Y-125454819D02*
X148488095Y-125454819D01*
X148773809Y-125454819D02*
X148773809Y-124454819D01*
X148773809Y-124454819D02*
X148678571Y-124597676D01*
X148678571Y-124597676D02*
X148583333Y-124692914D01*
X148583333Y-124692914D02*
X148488095Y-124740533D01*
X149440476Y-124550057D02*
X149488095Y-124502438D01*
X149488095Y-124502438D02*
X149583333Y-124454819D01*
X149583333Y-124454819D02*
X149821428Y-124454819D01*
X149821428Y-124454819D02*
X149916666Y-124502438D01*
X149916666Y-124502438D02*
X149964285Y-124550057D01*
X149964285Y-124550057D02*
X150011904Y-124645295D01*
X150011904Y-124645295D02*
X150011904Y-124740533D01*
X150011904Y-124740533D02*
X149964285Y-124883390D01*
X149964285Y-124883390D02*
X149392857Y-125454819D01*
X149392857Y-125454819D02*
X150011904Y-125454819D01*
X107107142Y-58859580D02*
X107059523Y-58907200D01*
X107059523Y-58907200D02*
X106916666Y-58954819D01*
X106916666Y-58954819D02*
X106821428Y-58954819D01*
X106821428Y-58954819D02*
X106678571Y-58907200D01*
X106678571Y-58907200D02*
X106583333Y-58811961D01*
X106583333Y-58811961D02*
X106535714Y-58716723D01*
X106535714Y-58716723D02*
X106488095Y-58526247D01*
X106488095Y-58526247D02*
X106488095Y-58383390D01*
X106488095Y-58383390D02*
X106535714Y-58192914D01*
X106535714Y-58192914D02*
X106583333Y-58097676D01*
X106583333Y-58097676D02*
X106678571Y-58002438D01*
X106678571Y-58002438D02*
X106821428Y-57954819D01*
X106821428Y-57954819D02*
X106916666Y-57954819D01*
X106916666Y-57954819D02*
X107059523Y-58002438D01*
X107059523Y-58002438D02*
X107107142Y-58050057D01*
X108059523Y-58954819D02*
X107488095Y-58954819D01*
X107773809Y-58954819D02*
X107773809Y-57954819D01*
X107773809Y-57954819D02*
X107678571Y-58097676D01*
X107678571Y-58097676D02*
X107583333Y-58192914D01*
X107583333Y-58192914D02*
X107488095Y-58240533D01*
X109011904Y-58954819D02*
X108440476Y-58954819D01*
X108726190Y-58954819D02*
X108726190Y-57954819D01*
X108726190Y-57954819D02*
X108630952Y-58097676D01*
X108630952Y-58097676D02*
X108535714Y-58192914D01*
X108535714Y-58192914D02*
X108440476Y-58240533D01*
X197109580Y-125916666D02*
X197157200Y-125964285D01*
X197157200Y-125964285D02*
X197204819Y-126107142D01*
X197204819Y-126107142D02*
X197204819Y-126202380D01*
X197204819Y-126202380D02*
X197157200Y-126345237D01*
X197157200Y-126345237D02*
X197061961Y-126440475D01*
X197061961Y-126440475D02*
X196966723Y-126488094D01*
X196966723Y-126488094D02*
X196776247Y-126535713D01*
X196776247Y-126535713D02*
X196633390Y-126535713D01*
X196633390Y-126535713D02*
X196442914Y-126488094D01*
X196442914Y-126488094D02*
X196347676Y-126440475D01*
X196347676Y-126440475D02*
X196252438Y-126345237D01*
X196252438Y-126345237D02*
X196204819Y-126202380D01*
X196204819Y-126202380D02*
X196204819Y-126107142D01*
X196204819Y-126107142D02*
X196252438Y-125964285D01*
X196252438Y-125964285D02*
X196300057Y-125916666D01*
X196538152Y-125059523D02*
X197204819Y-125059523D01*
X196157200Y-125297618D02*
X196871485Y-125535713D01*
X196871485Y-125535713D02*
X196871485Y-124916666D01*
X130904761Y-71954819D02*
X130571428Y-71478628D01*
X130333333Y-71954819D02*
X130333333Y-70954819D01*
X130333333Y-70954819D02*
X130714285Y-70954819D01*
X130714285Y-70954819D02*
X130809523Y-71002438D01*
X130809523Y-71002438D02*
X130857142Y-71050057D01*
X130857142Y-71050057D02*
X130904761Y-71145295D01*
X130904761Y-71145295D02*
X130904761Y-71288152D01*
X130904761Y-71288152D02*
X130857142Y-71383390D01*
X130857142Y-71383390D02*
X130809523Y-71431009D01*
X130809523Y-71431009D02*
X130714285Y-71478628D01*
X130714285Y-71478628D02*
X130333333Y-71478628D01*
X131190476Y-70954819D02*
X131523809Y-71954819D01*
X131523809Y-71954819D02*
X131857142Y-70954819D01*
X132095238Y-70954819D02*
X132714285Y-70954819D01*
X132714285Y-70954819D02*
X132380952Y-71335771D01*
X132380952Y-71335771D02*
X132523809Y-71335771D01*
X132523809Y-71335771D02*
X132619047Y-71383390D01*
X132619047Y-71383390D02*
X132666666Y-71431009D01*
X132666666Y-71431009D02*
X132714285Y-71526247D01*
X132714285Y-71526247D02*
X132714285Y-71764342D01*
X132714285Y-71764342D02*
X132666666Y-71859580D01*
X132666666Y-71859580D02*
X132619047Y-71907200D01*
X132619047Y-71907200D02*
X132523809Y-71954819D01*
X132523809Y-71954819D02*
X132238095Y-71954819D01*
X132238095Y-71954819D02*
X132142857Y-71907200D01*
X132142857Y-71907200D02*
X132095238Y-71859580D01*
X187583333Y-128704819D02*
X187250000Y-128228628D01*
X187011905Y-128704819D02*
X187011905Y-127704819D01*
X187011905Y-127704819D02*
X187392857Y-127704819D01*
X187392857Y-127704819D02*
X187488095Y-127752438D01*
X187488095Y-127752438D02*
X187535714Y-127800057D01*
X187535714Y-127800057D02*
X187583333Y-127895295D01*
X187583333Y-127895295D02*
X187583333Y-128038152D01*
X187583333Y-128038152D02*
X187535714Y-128133390D01*
X187535714Y-128133390D02*
X187488095Y-128181009D01*
X187488095Y-128181009D02*
X187392857Y-128228628D01*
X187392857Y-128228628D02*
X187011905Y-128228628D01*
X188440476Y-127704819D02*
X188250000Y-127704819D01*
X188250000Y-127704819D02*
X188154762Y-127752438D01*
X188154762Y-127752438D02*
X188107143Y-127800057D01*
X188107143Y-127800057D02*
X188011905Y-127942914D01*
X188011905Y-127942914D02*
X187964286Y-128133390D01*
X187964286Y-128133390D02*
X187964286Y-128514342D01*
X187964286Y-128514342D02*
X188011905Y-128609580D01*
X188011905Y-128609580D02*
X188059524Y-128657200D01*
X188059524Y-128657200D02*
X188154762Y-128704819D01*
X188154762Y-128704819D02*
X188345238Y-128704819D01*
X188345238Y-128704819D02*
X188440476Y-128657200D01*
X188440476Y-128657200D02*
X188488095Y-128609580D01*
X188488095Y-128609580D02*
X188535714Y-128514342D01*
X188535714Y-128514342D02*
X188535714Y-128276247D01*
X188535714Y-128276247D02*
X188488095Y-128181009D01*
X188488095Y-128181009D02*
X188440476Y-128133390D01*
X188440476Y-128133390D02*
X188345238Y-128085771D01*
X188345238Y-128085771D02*
X188154762Y-128085771D01*
X188154762Y-128085771D02*
X188059524Y-128133390D01*
X188059524Y-128133390D02*
X188011905Y-128181009D01*
X188011905Y-128181009D02*
X187964286Y-128276247D01*
X167904761Y-70454819D02*
X167571428Y-69978628D01*
X167333333Y-70454819D02*
X167333333Y-69454819D01*
X167333333Y-69454819D02*
X167714285Y-69454819D01*
X167714285Y-69454819D02*
X167809523Y-69502438D01*
X167809523Y-69502438D02*
X167857142Y-69550057D01*
X167857142Y-69550057D02*
X167904761Y-69645295D01*
X167904761Y-69645295D02*
X167904761Y-69788152D01*
X167904761Y-69788152D02*
X167857142Y-69883390D01*
X167857142Y-69883390D02*
X167809523Y-69931009D01*
X167809523Y-69931009D02*
X167714285Y-69978628D01*
X167714285Y-69978628D02*
X167333333Y-69978628D01*
X168190476Y-69454819D02*
X168523809Y-70454819D01*
X168523809Y-70454819D02*
X168857142Y-69454819D01*
X169142857Y-69550057D02*
X169190476Y-69502438D01*
X169190476Y-69502438D02*
X169285714Y-69454819D01*
X169285714Y-69454819D02*
X169523809Y-69454819D01*
X169523809Y-69454819D02*
X169619047Y-69502438D01*
X169619047Y-69502438D02*
X169666666Y-69550057D01*
X169666666Y-69550057D02*
X169714285Y-69645295D01*
X169714285Y-69645295D02*
X169714285Y-69740533D01*
X169714285Y-69740533D02*
X169666666Y-69883390D01*
X169666666Y-69883390D02*
X169095238Y-70454819D01*
X169095238Y-70454819D02*
X169714285Y-70454819D01*
X145833333Y-65109580D02*
X145785714Y-65157200D01*
X145785714Y-65157200D02*
X145642857Y-65204819D01*
X145642857Y-65204819D02*
X145547619Y-65204819D01*
X145547619Y-65204819D02*
X145404762Y-65157200D01*
X145404762Y-65157200D02*
X145309524Y-65061961D01*
X145309524Y-65061961D02*
X145261905Y-64966723D01*
X145261905Y-64966723D02*
X145214286Y-64776247D01*
X145214286Y-64776247D02*
X145214286Y-64633390D01*
X145214286Y-64633390D02*
X145261905Y-64442914D01*
X145261905Y-64442914D02*
X145309524Y-64347676D01*
X145309524Y-64347676D02*
X145404762Y-64252438D01*
X145404762Y-64252438D02*
X145547619Y-64204819D01*
X145547619Y-64204819D02*
X145642857Y-64204819D01*
X145642857Y-64204819D02*
X145785714Y-64252438D01*
X145785714Y-64252438D02*
X145833333Y-64300057D01*
X146214286Y-64300057D02*
X146261905Y-64252438D01*
X146261905Y-64252438D02*
X146357143Y-64204819D01*
X146357143Y-64204819D02*
X146595238Y-64204819D01*
X146595238Y-64204819D02*
X146690476Y-64252438D01*
X146690476Y-64252438D02*
X146738095Y-64300057D01*
X146738095Y-64300057D02*
X146785714Y-64395295D01*
X146785714Y-64395295D02*
X146785714Y-64490533D01*
X146785714Y-64490533D02*
X146738095Y-64633390D01*
X146738095Y-64633390D02*
X146166667Y-65204819D01*
X146166667Y-65204819D02*
X146785714Y-65204819D01*
X197304819Y-108863904D02*
X198114342Y-108863904D01*
X198114342Y-108863904D02*
X198209580Y-108816285D01*
X198209580Y-108816285D02*
X198257200Y-108768666D01*
X198257200Y-108768666D02*
X198304819Y-108673428D01*
X198304819Y-108673428D02*
X198304819Y-108482952D01*
X198304819Y-108482952D02*
X198257200Y-108387714D01*
X198257200Y-108387714D02*
X198209580Y-108340095D01*
X198209580Y-108340095D02*
X198114342Y-108292476D01*
X198114342Y-108292476D02*
X197304819Y-108292476D01*
X198304819Y-107292476D02*
X198304819Y-107863904D01*
X198304819Y-107578190D02*
X197304819Y-107578190D01*
X197304819Y-107578190D02*
X197447676Y-107673428D01*
X197447676Y-107673428D02*
X197542914Y-107768666D01*
X197542914Y-107768666D02*
X197590533Y-107863904D01*
X160857142Y-57359580D02*
X160809523Y-57407200D01*
X160809523Y-57407200D02*
X160666666Y-57454819D01*
X160666666Y-57454819D02*
X160571428Y-57454819D01*
X160571428Y-57454819D02*
X160428571Y-57407200D01*
X160428571Y-57407200D02*
X160333333Y-57311961D01*
X160333333Y-57311961D02*
X160285714Y-57216723D01*
X160285714Y-57216723D02*
X160238095Y-57026247D01*
X160238095Y-57026247D02*
X160238095Y-56883390D01*
X160238095Y-56883390D02*
X160285714Y-56692914D01*
X160285714Y-56692914D02*
X160333333Y-56597676D01*
X160333333Y-56597676D02*
X160428571Y-56502438D01*
X160428571Y-56502438D02*
X160571428Y-56454819D01*
X160571428Y-56454819D02*
X160666666Y-56454819D01*
X160666666Y-56454819D02*
X160809523Y-56502438D01*
X160809523Y-56502438D02*
X160857142Y-56550057D01*
X161809523Y-57454819D02*
X161238095Y-57454819D01*
X161523809Y-57454819D02*
X161523809Y-56454819D01*
X161523809Y-56454819D02*
X161428571Y-56597676D01*
X161428571Y-56597676D02*
X161333333Y-56692914D01*
X161333333Y-56692914D02*
X161238095Y-56740533D01*
X162428571Y-56454819D02*
X162523809Y-56454819D01*
X162523809Y-56454819D02*
X162619047Y-56502438D01*
X162619047Y-56502438D02*
X162666666Y-56550057D01*
X162666666Y-56550057D02*
X162714285Y-56645295D01*
X162714285Y-56645295D02*
X162761904Y-56835771D01*
X162761904Y-56835771D02*
X162761904Y-57073866D01*
X162761904Y-57073866D02*
X162714285Y-57264342D01*
X162714285Y-57264342D02*
X162666666Y-57359580D01*
X162666666Y-57359580D02*
X162619047Y-57407200D01*
X162619047Y-57407200D02*
X162523809Y-57454819D01*
X162523809Y-57454819D02*
X162428571Y-57454819D01*
X162428571Y-57454819D02*
X162333333Y-57407200D01*
X162333333Y-57407200D02*
X162285714Y-57359580D01*
X162285714Y-57359580D02*
X162238095Y-57264342D01*
X162238095Y-57264342D02*
X162190476Y-57073866D01*
X162190476Y-57073866D02*
X162190476Y-56835771D01*
X162190476Y-56835771D02*
X162238095Y-56645295D01*
X162238095Y-56645295D02*
X162285714Y-56550057D01*
X162285714Y-56550057D02*
X162333333Y-56502438D01*
X162333333Y-56502438D02*
X162428571Y-56454819D01*
X99937142Y-67204819D02*
X99603809Y-66728628D01*
X99365714Y-67204819D02*
X99365714Y-66204819D01*
X99365714Y-66204819D02*
X99746666Y-66204819D01*
X99746666Y-66204819D02*
X99841904Y-66252438D01*
X99841904Y-66252438D02*
X99889523Y-66300057D01*
X99889523Y-66300057D02*
X99937142Y-66395295D01*
X99937142Y-66395295D02*
X99937142Y-66538152D01*
X99937142Y-66538152D02*
X99889523Y-66633390D01*
X99889523Y-66633390D02*
X99841904Y-66681009D01*
X99841904Y-66681009D02*
X99746666Y-66728628D01*
X99746666Y-66728628D02*
X99365714Y-66728628D01*
X100889523Y-67204819D02*
X100318095Y-67204819D01*
X100603809Y-67204819D02*
X100603809Y-66204819D01*
X100603809Y-66204819D02*
X100508571Y-66347676D01*
X100508571Y-66347676D02*
X100413333Y-66442914D01*
X100413333Y-66442914D02*
X100318095Y-66490533D01*
X101222857Y-66204819D02*
X101841904Y-66204819D01*
X101841904Y-66204819D02*
X101508571Y-66585771D01*
X101508571Y-66585771D02*
X101651428Y-66585771D01*
X101651428Y-66585771D02*
X101746666Y-66633390D01*
X101746666Y-66633390D02*
X101794285Y-66681009D01*
X101794285Y-66681009D02*
X101841904Y-66776247D01*
X101841904Y-66776247D02*
X101841904Y-67014342D01*
X101841904Y-67014342D02*
X101794285Y-67109580D01*
X101794285Y-67109580D02*
X101746666Y-67157200D01*
X101746666Y-67157200D02*
X101651428Y-67204819D01*
X101651428Y-67204819D02*
X101365714Y-67204819D01*
X101365714Y-67204819D02*
X101270476Y-67157200D01*
X101270476Y-67157200D02*
X101222857Y-67109580D01*
X186166666Y-63654819D02*
X186166666Y-64369104D01*
X186166666Y-64369104D02*
X186119047Y-64511961D01*
X186119047Y-64511961D02*
X186023809Y-64607200D01*
X186023809Y-64607200D02*
X185880952Y-64654819D01*
X185880952Y-64654819D02*
X185785714Y-64654819D01*
X187166666Y-64654819D02*
X186595238Y-64654819D01*
X186880952Y-64654819D02*
X186880952Y-63654819D01*
X186880952Y-63654819D02*
X186785714Y-63797676D01*
X186785714Y-63797676D02*
X186690476Y-63892914D01*
X186690476Y-63892914D02*
X186595238Y-63940533D01*
X142109580Y-131916666D02*
X142157200Y-131964285D01*
X142157200Y-131964285D02*
X142204819Y-132107142D01*
X142204819Y-132107142D02*
X142204819Y-132202380D01*
X142204819Y-132202380D02*
X142157200Y-132345237D01*
X142157200Y-132345237D02*
X142061961Y-132440475D01*
X142061961Y-132440475D02*
X141966723Y-132488094D01*
X141966723Y-132488094D02*
X141776247Y-132535713D01*
X141776247Y-132535713D02*
X141633390Y-132535713D01*
X141633390Y-132535713D02*
X141442914Y-132488094D01*
X141442914Y-132488094D02*
X141347676Y-132440475D01*
X141347676Y-132440475D02*
X141252438Y-132345237D01*
X141252438Y-132345237D02*
X141204819Y-132202380D01*
X141204819Y-132202380D02*
X141204819Y-132107142D01*
X141204819Y-132107142D02*
X141252438Y-131964285D01*
X141252438Y-131964285D02*
X141300057Y-131916666D01*
X141204819Y-131583332D02*
X141204819Y-130916666D01*
X141204819Y-130916666D02*
X142204819Y-131345237D01*
D15*
%TO.C,LS1*%
X168970000Y-100010000D02*
X168970000Y-100010000D01*
X168864834Y-102006308D02*
X168864834Y-102006308D01*
X168550500Y-103980517D02*
X168550500Y-103980517D01*
X168030478Y-105910773D02*
X168030478Y-105910773D01*
X167310525Y-107775706D02*
X167310525Y-107775706D01*
X166398610Y-109554671D02*
X166398610Y-109554671D01*
X165304829Y-111227977D02*
X165304829Y-111227977D01*
X164041289Y-112777098D02*
X164041289Y-112777098D01*
X162621979Y-114184886D02*
X162621979Y-114184886D01*
X161062611Y-115435756D02*
X161062611Y-115435756D01*
X159380446Y-116515862D02*
X159380446Y-116515862D01*
X157594106Y-117413246D02*
X157594106Y-117413246D01*
X155723366Y-118117975D02*
X155723366Y-118117975D01*
X153788937Y-118622246D02*
X153788937Y-118622246D01*
X151812231Y-118920478D02*
X151812231Y-118920478D01*
X149815131Y-119009368D02*
X149815131Y-119009368D01*
X147819746Y-118887934D02*
X147819746Y-118887934D01*
X145848165Y-118557519D02*
X145848165Y-118557519D01*
X143922212Y-118021781D02*
X143922212Y-118021781D01*
X142063210Y-117286651D02*
X142063210Y-117286651D01*
X140291736Y-116360266D02*
X140291736Y-116360266D01*
X138627401Y-115252882D02*
X138627401Y-115252882D01*
X137088631Y-113976758D02*
X137088631Y-113976758D01*
X135692458Y-112546020D02*
X135692458Y-112546020D01*
X134454340Y-110976508D02*
X134454340Y-110976508D01*
X133387981Y-109285594D02*
X133387981Y-109285594D01*
X132505187Y-107492000D02*
X132505187Y-107492000D01*
X131815730Y-105615578D02*
X131815730Y-105615578D01*
X131327243Y-103677102D02*
X131327243Y-103677102D01*
X131045134Y-101698031D02*
X131045134Y-101698031D01*
X130972524Y-99700274D02*
X130972524Y-99700274D01*
X131110219Y-97705945D02*
X131110219Y-97705945D01*
X131456693Y-95737122D02*
X131456693Y-95737122D01*
X132008112Y-93815600D02*
X132008112Y-93815600D01*
X132758370Y-91962651D02*
X132758370Y-91962651D01*
X133699163Y-90198787D02*
X133699163Y-90198787D01*
X134820076Y-88543534D02*
X134820076Y-88543534D01*
X136108700Y-87015216D02*
X136108700Y-87015216D01*
X137550771Y-85630752D02*
X137550771Y-85630752D01*
X139130323Y-84405468D02*
X139130323Y-84405468D01*
X140829872Y-83352927D02*
X140829872Y-83352927D01*
X142630603Y-82484782D02*
X142630603Y-82484782D01*
X144512582Y-81810643D02*
X144512582Y-81810643D01*
X146454975Y-81337972D02*
X146454975Y-81337972D01*
X148436279Y-81072003D02*
X148436279Y-81072003D01*
X150434563Y-81015680D02*
X150434563Y-81015680D01*
X152427703Y-81169625D02*
X152427703Y-81169625D01*
X154393636Y-81532136D02*
X154393636Y-81532136D01*
X156310600Y-82099199D02*
X156310600Y-82099199D01*
X158157372Y-82864535D02*
X158157372Y-82864535D01*
X159913509Y-83819675D02*
X159913509Y-83819675D01*
X161559570Y-84954042D02*
X161559570Y-84954042D01*
X163077334Y-86255081D02*
X163077334Y-86255081D01*
X164449998Y-87708388D02*
X164449998Y-87708388D01*
X165662367Y-89297875D02*
X165662367Y-89297875D01*
X166701019Y-91005947D02*
X166701019Y-91005947D01*
X167554458Y-92813694D02*
X167554458Y-92813694D01*
X168213235Y-94701105D02*
X168213235Y-94701105D01*
X168670057Y-96647286D02*
X168670057Y-96647286D01*
X168919868Y-98630693D02*
X168919868Y-98630693D01*
D16*
%TO.C,D1*%
X179380000Y-105820000D02*
X179380000Y-110060000D01*
X179380000Y-109220000D02*
X181620000Y-109220000D01*
X179380000Y-109340000D02*
X181620000Y-109340000D01*
X179380000Y-109460000D02*
X181620000Y-109460000D01*
X179380000Y-110060000D02*
X181620000Y-110060000D01*
X180500000Y-105170000D02*
X180500000Y-105820000D01*
X180500000Y-110710000D02*
X180500000Y-110060000D01*
X181620000Y-105820000D02*
X179380000Y-105820000D01*
X181620000Y-110060000D02*
X181620000Y-105820000D01*
%TO.C,R9*%
X136380000Y-130480000D02*
X136380000Y-137020000D01*
X136380000Y-137020000D02*
X139120000Y-137020000D01*
X137750000Y-129710000D02*
X137750000Y-130480000D01*
X137750000Y-137790000D02*
X137750000Y-137020000D01*
X139120000Y-130480000D02*
X136380000Y-130480000D01*
X139120000Y-137020000D02*
X139120000Y-130480000D01*
%TO.C,D3*%
X104295000Y-58710000D02*
X101205000Y-58710000D01*
X102750462Y-64260000D02*
G75*
G02*
X101205170Y-58710000I-462J2990000D01*
G01*
X104294830Y-58710000D02*
G75*
G02*
X102749538Y-64260000I-1544830J-2560000D01*
G01*
X105250000Y-61270000D02*
G75*
G02*
X100250000Y-61270000I-2500000J0D01*
G01*
X100250000Y-61270000D02*
G75*
G02*
X105250000Y-61270000I2500000J0D01*
G01*
%TO.C,R2*%
X184880000Y-96500000D02*
X185650000Y-96500000D01*
X185650000Y-95130000D02*
X185650000Y-97870000D01*
X185650000Y-97870000D02*
X192190000Y-97870000D01*
X192190000Y-95130000D02*
X185650000Y-95130000D01*
X192190000Y-97870000D02*
X192190000Y-95130000D01*
X192960000Y-96500000D02*
X192190000Y-96500000D01*
%TO.C,RV1*%
X139250000Y-68750000D02*
X139250000Y-74250000D01*
X140250000Y-75250000D02*
X146250000Y-75250000D01*
X144800000Y-71500000D02*
X145150000Y-71500000D01*
X145000000Y-72500000D02*
X145000000Y-70500000D01*
X146250000Y-67750000D02*
X140250000Y-67750000D01*
X148250000Y-69750000D02*
X148250000Y-73250000D01*
X145000000Y-72500000D02*
G75*
G02*
X145000000Y-70500000I0J1000000D01*
G01*
%TO.C,R8*%
X190630000Y-116900000D02*
X190630000Y-123440000D01*
X190630000Y-123440000D02*
X193370000Y-123440000D01*
X192000000Y-116130000D02*
X192000000Y-116900000D01*
X192000000Y-124210000D02*
X192000000Y-123440000D01*
X193370000Y-116900000D02*
X190630000Y-116900000D01*
X193370000Y-123440000D02*
X193370000Y-116900000D01*
%TO.C,R7*%
X187380000Y-116900000D02*
X187380000Y-123440000D01*
X187380000Y-123440000D02*
X190120000Y-123440000D01*
X188750000Y-116130000D02*
X188750000Y-116900000D01*
X188750000Y-124210000D02*
X188750000Y-123440000D01*
X190120000Y-116900000D02*
X187380000Y-116900000D01*
X190120000Y-123440000D02*
X190120000Y-116900000D01*
%TO.C,U3*%
X144440000Y-127790000D02*
X144440000Y-138190000D01*
X144440000Y-138190000D02*
X154940000Y-138190000D01*
X147440000Y-127850000D02*
X147440000Y-138130000D01*
X147440000Y-138130000D02*
X148690000Y-138130000D01*
X150690000Y-138130000D02*
X151940000Y-138130000D01*
X151940000Y-127850000D02*
X147440000Y-127850000D01*
X151940000Y-138130000D02*
X151940000Y-127850000D01*
X154940000Y-127790000D02*
X144440000Y-127790000D01*
X154940000Y-138190000D02*
X154940000Y-127790000D01*
X148690000Y-138130000D02*
G75*
G02*
X150690000Y-138130000I1000000J0D01*
G01*
%TO.C,J3*%
X167170000Y-84080000D02*
X167170000Y-82750000D01*
X168500000Y-84080000D02*
X167170000Y-84080000D01*
X169770000Y-81420000D02*
X172370000Y-81420000D01*
X169770000Y-84080000D02*
X169770000Y-81420000D01*
X169770000Y-84080000D02*
X172370000Y-84080000D01*
X172370000Y-84080000D02*
X172370000Y-81420000D01*
%TO.C,R10*%
X109880000Y-67500000D02*
X110650000Y-67500000D01*
X110650000Y-66130000D02*
X110650000Y-68870000D01*
X110650000Y-68870000D02*
X117190000Y-68870000D01*
X117190000Y-66130000D02*
X110650000Y-66130000D01*
X117190000Y-68870000D02*
X117190000Y-66130000D01*
X117960000Y-67500000D02*
X117190000Y-67500000D01*
%TO.C,C9*%
X201695225Y-110275000D02*
X202195225Y-110275000D01*
X201945225Y-110025000D02*
X201945225Y-110525000D01*
X204500000Y-109170000D02*
X204500000Y-114330000D01*
X204540000Y-109170000D02*
X204540000Y-114330000D01*
X204580000Y-109171000D02*
X204580000Y-114329000D01*
X204620000Y-109172000D02*
X204620000Y-114328000D01*
X204660000Y-109174000D02*
X204660000Y-114326000D01*
X204700000Y-109177000D02*
X204700000Y-114323000D01*
X204740000Y-109181000D02*
X204740000Y-110710000D01*
X204740000Y-112790000D02*
X204740000Y-114319000D01*
X204780000Y-109185000D02*
X204780000Y-110710000D01*
X204780000Y-112790000D02*
X204780000Y-114315000D01*
X204820000Y-109189000D02*
X204820000Y-110710000D01*
X204820000Y-112790000D02*
X204820000Y-114311000D01*
X204860000Y-109194000D02*
X204860000Y-110710000D01*
X204860000Y-112790000D02*
X204860000Y-114306000D01*
X204900000Y-109200000D02*
X204900000Y-110710000D01*
X204900000Y-112790000D02*
X204900000Y-114300000D01*
X204940000Y-109207000D02*
X204940000Y-110710000D01*
X204940000Y-112790000D02*
X204940000Y-114293000D01*
X204980000Y-109214000D02*
X204980000Y-110710000D01*
X204980000Y-112790000D02*
X204980000Y-114286000D01*
X205020000Y-109222000D02*
X205020000Y-110710000D01*
X205020000Y-112790000D02*
X205020000Y-114278000D01*
X205060000Y-109230000D02*
X205060000Y-110710000D01*
X205060000Y-112790000D02*
X205060000Y-114270000D01*
X205100000Y-109239000D02*
X205100000Y-110710000D01*
X205100000Y-112790000D02*
X205100000Y-114261000D01*
X205140000Y-109249000D02*
X205140000Y-110710000D01*
X205140000Y-112790000D02*
X205140000Y-114251000D01*
X205180000Y-109259000D02*
X205180000Y-110710000D01*
X205180000Y-112790000D02*
X205180000Y-114241000D01*
X205221000Y-109270000D02*
X205221000Y-110710000D01*
X205221000Y-112790000D02*
X205221000Y-114230000D01*
X205261000Y-109282000D02*
X205261000Y-110710000D01*
X205261000Y-112790000D02*
X205261000Y-114218000D01*
X205301000Y-109295000D02*
X205301000Y-110710000D01*
X205301000Y-112790000D02*
X205301000Y-114205000D01*
X205341000Y-109308000D02*
X205341000Y-110710000D01*
X205341000Y-112790000D02*
X205341000Y-114192000D01*
X205381000Y-109322000D02*
X205381000Y-110710000D01*
X205381000Y-112790000D02*
X205381000Y-114178000D01*
X205421000Y-109336000D02*
X205421000Y-110710000D01*
X205421000Y-112790000D02*
X205421000Y-114164000D01*
X205461000Y-109352000D02*
X205461000Y-110710000D01*
X205461000Y-112790000D02*
X205461000Y-114148000D01*
X205501000Y-109368000D02*
X205501000Y-110710000D01*
X205501000Y-112790000D02*
X205501000Y-114132000D01*
X205541000Y-109385000D02*
X205541000Y-110710000D01*
X205541000Y-112790000D02*
X205541000Y-114115000D01*
X205581000Y-109402000D02*
X205581000Y-110710000D01*
X205581000Y-112790000D02*
X205581000Y-114098000D01*
X205621000Y-109421000D02*
X205621000Y-110710000D01*
X205621000Y-112790000D02*
X205621000Y-114079000D01*
X205661000Y-109440000D02*
X205661000Y-110710000D01*
X205661000Y-112790000D02*
X205661000Y-114060000D01*
X205701000Y-109460000D02*
X205701000Y-110710000D01*
X205701000Y-112790000D02*
X205701000Y-114040000D01*
X205741000Y-109482000D02*
X205741000Y-110710000D01*
X205741000Y-112790000D02*
X205741000Y-114018000D01*
X205781000Y-109503000D02*
X205781000Y-110710000D01*
X205781000Y-112790000D02*
X205781000Y-113997000D01*
X205821000Y-109526000D02*
X205821000Y-110710000D01*
X205821000Y-112790000D02*
X205821000Y-113974000D01*
X205861000Y-109550000D02*
X205861000Y-110710000D01*
X205861000Y-112790000D02*
X205861000Y-113950000D01*
X205901000Y-109575000D02*
X205901000Y-110710000D01*
X205901000Y-112790000D02*
X205901000Y-113925000D01*
X205941000Y-109601000D02*
X205941000Y-110710000D01*
X205941000Y-112790000D02*
X205941000Y-113899000D01*
X205981000Y-109628000D02*
X205981000Y-110710000D01*
X205981000Y-112790000D02*
X205981000Y-113872000D01*
X206021000Y-109655000D02*
X206021000Y-110710000D01*
X206021000Y-112790000D02*
X206021000Y-113845000D01*
X206061000Y-109685000D02*
X206061000Y-110710000D01*
X206061000Y-112790000D02*
X206061000Y-113815000D01*
X206101000Y-109715000D02*
X206101000Y-110710000D01*
X206101000Y-112790000D02*
X206101000Y-113785000D01*
X206141000Y-109746000D02*
X206141000Y-110710000D01*
X206141000Y-112790000D02*
X206141000Y-113754000D01*
X206181000Y-109779000D02*
X206181000Y-110710000D01*
X206181000Y-112790000D02*
X206181000Y-113721000D01*
X206221000Y-109813000D02*
X206221000Y-110710000D01*
X206221000Y-112790000D02*
X206221000Y-113687000D01*
X206261000Y-109849000D02*
X206261000Y-110710000D01*
X206261000Y-112790000D02*
X206261000Y-113651000D01*
X206301000Y-109886000D02*
X206301000Y-110710000D01*
X206301000Y-112790000D02*
X206301000Y-113614000D01*
X206341000Y-109924000D02*
X206341000Y-110710000D01*
X206341000Y-112790000D02*
X206341000Y-113576000D01*
X206381000Y-109965000D02*
X206381000Y-110710000D01*
X206381000Y-112790000D02*
X206381000Y-113535000D01*
X206421000Y-110007000D02*
X206421000Y-110710000D01*
X206421000Y-112790000D02*
X206421000Y-113493000D01*
X206461000Y-110051000D02*
X206461000Y-110710000D01*
X206461000Y-112790000D02*
X206461000Y-113449000D01*
X206501000Y-110097000D02*
X206501000Y-110710000D01*
X206501000Y-112790000D02*
X206501000Y-113403000D01*
X206541000Y-110145000D02*
X206541000Y-110710000D01*
X206541000Y-112790000D02*
X206541000Y-113355000D01*
X206581000Y-110196000D02*
X206581000Y-110710000D01*
X206581000Y-112790000D02*
X206581000Y-113304000D01*
X206621000Y-110250000D02*
X206621000Y-110710000D01*
X206621000Y-112790000D02*
X206621000Y-113250000D01*
X206661000Y-110307000D02*
X206661000Y-110710000D01*
X206661000Y-112790000D02*
X206661000Y-113193000D01*
X206701000Y-110367000D02*
X206701000Y-110710000D01*
X206701000Y-112790000D02*
X206701000Y-113133000D01*
X206741000Y-110431000D02*
X206741000Y-110710000D01*
X206741000Y-112790000D02*
X206741000Y-113069000D01*
X206781000Y-110499000D02*
X206781000Y-110710000D01*
X206781000Y-112790000D02*
X206781000Y-113001000D01*
X206821000Y-110572000D02*
X206821000Y-112928000D01*
X206861000Y-110652000D02*
X206861000Y-112848000D01*
X206901000Y-110739000D02*
X206901000Y-112761000D01*
X206941000Y-110835000D02*
X206941000Y-112665000D01*
X206981000Y-110945000D02*
X206981000Y-112555000D01*
X207021000Y-111073000D02*
X207021000Y-112427000D01*
X207061000Y-111232000D02*
X207061000Y-112268000D01*
X207101000Y-111466000D02*
X207101000Y-112034000D01*
X207120000Y-111750000D02*
G75*
G02*
X201880000Y-111750000I-2620000J0D01*
G01*
X201880000Y-111750000D02*
G75*
G02*
X207120000Y-111750000I2620000J0D01*
G01*
%TO.C,R11*%
X127380000Y-80500000D02*
X128150000Y-80500000D01*
X128150000Y-79130000D02*
X128150000Y-81870000D01*
X128150000Y-81870000D02*
X134690000Y-81870000D01*
X134690000Y-79130000D02*
X128150000Y-79130000D01*
X134690000Y-81870000D02*
X134690000Y-79130000D01*
X135460000Y-80500000D02*
X134690000Y-80500000D01*
%TO.C,R5*%
X184130000Y-116900000D02*
X184130000Y-123440000D01*
X184130000Y-123440000D02*
X186870000Y-123440000D01*
X185500000Y-116130000D02*
X185500000Y-116900000D01*
X185500000Y-124210000D02*
X185500000Y-123440000D01*
X186870000Y-116900000D02*
X184130000Y-116900000D01*
X186870000Y-123440000D02*
X186870000Y-116900000D01*
%TO.C,R4*%
X150130000Y-65810000D02*
X150130000Y-72350000D01*
X150130000Y-72350000D02*
X152870000Y-72350000D01*
X151500000Y-65040000D02*
X151500000Y-65810000D01*
X151500000Y-73120000D02*
X151500000Y-72350000D01*
X152870000Y-65810000D02*
X150130000Y-65810000D01*
X152870000Y-72350000D02*
X152870000Y-65810000D01*
%TO.C,D4*%
X110540000Y-56000000D02*
X111190000Y-56000000D01*
X111190000Y-54880000D02*
X111190000Y-57120000D01*
X111190000Y-57120000D02*
X115430000Y-57120000D01*
X111790000Y-54880000D02*
X111790000Y-57120000D01*
X111910000Y-54880000D02*
X111910000Y-57120000D01*
X112030000Y-54880000D02*
X112030000Y-57120000D01*
X115430000Y-54880000D02*
X111190000Y-54880000D01*
X115430000Y-57120000D02*
X115430000Y-54880000D01*
X116080000Y-56000000D02*
X115430000Y-56000000D01*
%TO.C,C1*%
X180380000Y-98380000D02*
X180380000Y-102120000D01*
X180380000Y-98380000D02*
X187620000Y-98380000D01*
X180380000Y-102120000D02*
X187620000Y-102120000D01*
X187620000Y-98380000D02*
X187620000Y-102120000D01*
%TO.C,C3*%
X179880000Y-115380000D02*
X179880000Y-122620000D01*
X183620000Y-115380000D02*
X179880000Y-115380000D01*
X183620000Y-115380000D02*
X183620000Y-122620000D01*
X183620000Y-122620000D02*
X179880000Y-122620000D01*
%TO.C,U4*%
X115400000Y-59490000D02*
X115400000Y-63090000D01*
X115400000Y-59490000D02*
G75*
G02*
X116127205Y-58965816I1850000J-1800000D01*
G01*
X116127205Y-63614184D02*
G75*
G02*
X115400000Y-63090000I1122795J2324184D01*
G01*
X118348807Y-58933600D02*
G75*
G02*
X119850000Y-61290000I-1098807J-2356400D01*
G01*
X119850000Y-61290000D02*
G75*
G02*
X118348807Y-63646400I-2600000J0D01*
G01*
%TO.C,R1*%
X190130000Y-100250000D02*
X190900000Y-100250000D01*
X190900000Y-98880000D02*
X190900000Y-101620000D01*
X190900000Y-101620000D02*
X197440000Y-101620000D01*
X197440000Y-98880000D02*
X190900000Y-98880000D01*
X197440000Y-101620000D02*
X197440000Y-98880000D01*
X198210000Y-100250000D02*
X197440000Y-100250000D01*
%TO.C,C6*%
X165649000Y-61034000D02*
X165649000Y-60466000D01*
X165689000Y-61268000D02*
X165689000Y-60232000D01*
X165729000Y-61427000D02*
X165729000Y-60073000D01*
X165769000Y-61555000D02*
X165769000Y-59945000D01*
X165809000Y-61665000D02*
X165809000Y-59835000D01*
X165849000Y-61761000D02*
X165849000Y-59739000D01*
X165889000Y-61848000D02*
X165889000Y-59652000D01*
X165929000Y-61928000D02*
X165929000Y-59572000D01*
X165969000Y-59710000D02*
X165969000Y-59499000D01*
X165969000Y-62001000D02*
X165969000Y-61790000D01*
X166009000Y-59710000D02*
X166009000Y-59431000D01*
X166009000Y-62069000D02*
X166009000Y-61790000D01*
X166049000Y-59710000D02*
X166049000Y-59367000D01*
X166049000Y-62133000D02*
X166049000Y-61790000D01*
X166089000Y-59710000D02*
X166089000Y-59307000D01*
X166089000Y-62193000D02*
X166089000Y-61790000D01*
X166129000Y-59710000D02*
X166129000Y-59250000D01*
X166129000Y-62250000D02*
X166129000Y-61790000D01*
X166169000Y-59710000D02*
X166169000Y-59196000D01*
X166169000Y-62304000D02*
X166169000Y-61790000D01*
X166209000Y-59710000D02*
X166209000Y-59145000D01*
X166209000Y-62355000D02*
X166209000Y-61790000D01*
X166249000Y-59710000D02*
X166249000Y-59097000D01*
X166249000Y-62403000D02*
X166249000Y-61790000D01*
X166289000Y-59710000D02*
X166289000Y-59051000D01*
X166289000Y-62449000D02*
X166289000Y-61790000D01*
X166329000Y-59710000D02*
X166329000Y-59007000D01*
X166329000Y-62493000D02*
X166329000Y-61790000D01*
X166369000Y-59710000D02*
X166369000Y-58965000D01*
X166369000Y-62535000D02*
X166369000Y-61790000D01*
X166409000Y-59710000D02*
X166409000Y-58924000D01*
X166409000Y-62576000D02*
X166409000Y-61790000D01*
X166449000Y-59710000D02*
X166449000Y-58886000D01*
X166449000Y-62614000D02*
X166449000Y-61790000D01*
X166489000Y-59710000D02*
X166489000Y-58849000D01*
X166489000Y-62651000D02*
X166489000Y-61790000D01*
X166529000Y-59710000D02*
X166529000Y-58813000D01*
X166529000Y-62687000D02*
X166529000Y-61790000D01*
X166569000Y-59710000D02*
X166569000Y-58779000D01*
X166569000Y-62721000D02*
X166569000Y-61790000D01*
X166609000Y-59710000D02*
X166609000Y-58746000D01*
X166609000Y-62754000D02*
X166609000Y-61790000D01*
X166649000Y-59710000D02*
X166649000Y-58715000D01*
X166649000Y-62785000D02*
X166649000Y-61790000D01*
X166689000Y-59710000D02*
X166689000Y-58685000D01*
X166689000Y-62815000D02*
X166689000Y-61790000D01*
X166729000Y-59710000D02*
X166729000Y-58655000D01*
X166729000Y-62845000D02*
X166729000Y-61790000D01*
X166769000Y-59710000D02*
X166769000Y-58628000D01*
X166769000Y-62872000D02*
X166769000Y-61790000D01*
X166809000Y-59710000D02*
X166809000Y-58601000D01*
X166809000Y-62899000D02*
X166809000Y-61790000D01*
X166849000Y-59710000D02*
X166849000Y-58575000D01*
X166849000Y-62925000D02*
X166849000Y-61790000D01*
X166889000Y-59710000D02*
X166889000Y-58550000D01*
X166889000Y-62950000D02*
X166889000Y-61790000D01*
X166929000Y-59710000D02*
X166929000Y-58526000D01*
X166929000Y-62974000D02*
X166929000Y-61790000D01*
X166969000Y-59710000D02*
X166969000Y-58503000D01*
X166969000Y-62997000D02*
X166969000Y-61790000D01*
X167009000Y-59710000D02*
X167009000Y-58482000D01*
X167009000Y-63018000D02*
X167009000Y-61790000D01*
X167049000Y-59710000D02*
X167049000Y-58460000D01*
X167049000Y-63040000D02*
X167049000Y-61790000D01*
X167089000Y-59710000D02*
X167089000Y-58440000D01*
X167089000Y-63060000D02*
X167089000Y-61790000D01*
X167129000Y-59710000D02*
X167129000Y-58421000D01*
X167129000Y-63079000D02*
X167129000Y-61790000D01*
X167169000Y-59710000D02*
X167169000Y-58402000D01*
X167169000Y-63098000D02*
X167169000Y-61790000D01*
X167209000Y-59710000D02*
X167209000Y-58385000D01*
X167209000Y-63115000D02*
X167209000Y-61790000D01*
X167249000Y-59710000D02*
X167249000Y-58368000D01*
X167249000Y-63132000D02*
X167249000Y-61790000D01*
X167289000Y-59710000D02*
X167289000Y-58352000D01*
X167289000Y-63148000D02*
X167289000Y-61790000D01*
X167329000Y-59710000D02*
X167329000Y-58336000D01*
X167329000Y-63164000D02*
X167329000Y-61790000D01*
X167369000Y-59710000D02*
X167369000Y-58322000D01*
X167369000Y-63178000D02*
X167369000Y-61790000D01*
X167409000Y-59710000D02*
X167409000Y-58308000D01*
X167409000Y-63192000D02*
X167409000Y-61790000D01*
X167449000Y-59710000D02*
X167449000Y-58295000D01*
X167449000Y-63205000D02*
X167449000Y-61790000D01*
X167489000Y-59710000D02*
X167489000Y-58282000D01*
X167489000Y-63218000D02*
X167489000Y-61790000D01*
X167529000Y-59710000D02*
X167529000Y-58270000D01*
X167529000Y-63230000D02*
X167529000Y-61790000D01*
X167570000Y-59710000D02*
X167570000Y-58259000D01*
X167570000Y-63241000D02*
X167570000Y-61790000D01*
X167610000Y-59710000D02*
X167610000Y-58249000D01*
X167610000Y-63251000D02*
X167610000Y-61790000D01*
X167650000Y-59710000D02*
X167650000Y-58239000D01*
X167650000Y-63261000D02*
X167650000Y-61790000D01*
X167690000Y-59710000D02*
X167690000Y-58230000D01*
X167690000Y-63270000D02*
X167690000Y-61790000D01*
X167730000Y-59710000D02*
X167730000Y-58222000D01*
X167730000Y-63278000D02*
X167730000Y-61790000D01*
X167770000Y-59710000D02*
X167770000Y-58214000D01*
X167770000Y-63286000D02*
X167770000Y-61790000D01*
X167810000Y-59710000D02*
X167810000Y-58207000D01*
X167810000Y-63293000D02*
X167810000Y-61790000D01*
X167850000Y-59710000D02*
X167850000Y-58200000D01*
X167850000Y-63300000D02*
X167850000Y-61790000D01*
X167890000Y-59710000D02*
X167890000Y-58194000D01*
X167890000Y-63306000D02*
X167890000Y-61790000D01*
X167930000Y-59710000D02*
X167930000Y-58189000D01*
X167930000Y-63311000D02*
X167930000Y-61790000D01*
X167970000Y-59710000D02*
X167970000Y-58185000D01*
X167970000Y-63315000D02*
X167970000Y-61790000D01*
X168010000Y-59710000D02*
X168010000Y-58181000D01*
X168010000Y-63319000D02*
X168010000Y-61790000D01*
X168050000Y-63323000D02*
X168050000Y-58177000D01*
X168090000Y-63326000D02*
X168090000Y-58174000D01*
X168130000Y-63328000D02*
X168130000Y-58172000D01*
X168170000Y-63329000D02*
X168170000Y-58171000D01*
X168210000Y-63330000D02*
X168210000Y-58170000D01*
X168250000Y-63330000D02*
X168250000Y-58170000D01*
X170804775Y-62475000D02*
X170804775Y-61975000D01*
X171054775Y-62225000D02*
X170554775Y-62225000D01*
X170870000Y-60750000D02*
G75*
G02*
X165630000Y-60750000I-2620000J0D01*
G01*
X165630000Y-60750000D02*
G75*
G02*
X170870000Y-60750000I2620000J0D01*
G01*
%TO.C,R3*%
X153630000Y-65810000D02*
X153630000Y-72350000D01*
X153630000Y-72350000D02*
X156370000Y-72350000D01*
X155000000Y-65040000D02*
X155000000Y-65810000D01*
X155000000Y-73120000D02*
X155000000Y-72350000D01*
X156370000Y-65810000D02*
X153630000Y-65810000D01*
X156370000Y-72350000D02*
X156370000Y-65810000D01*
%TO.C,D2*%
X174420000Y-96500000D02*
X175070000Y-96500000D01*
X175070000Y-95380000D02*
X175070000Y-97620000D01*
X175070000Y-97620000D02*
X179310000Y-97620000D01*
X178470000Y-97620000D02*
X178470000Y-95380000D01*
X178590000Y-97620000D02*
X178590000Y-95380000D01*
X178710000Y-97620000D02*
X178710000Y-95380000D01*
X179310000Y-95380000D02*
X175070000Y-95380000D01*
X179310000Y-97620000D02*
X179310000Y-95380000D01*
X179960000Y-96500000D02*
X179310000Y-96500000D01*
%TO.C,R12*%
X158620000Y-135940000D02*
X158620000Y-129400000D01*
X158620000Y-129400000D02*
X155880000Y-129400000D01*
X157250000Y-136710000D02*
X157250000Y-135940000D01*
X157250000Y-128630000D02*
X157250000Y-129400000D01*
X155880000Y-135940000D02*
X158620000Y-135940000D01*
X155880000Y-129400000D02*
X155880000Y-135940000D01*
%TO.C,U2*%
X139620000Y-51810000D02*
X139620000Y-62310000D01*
X139620000Y-62310000D02*
X157640000Y-62310000D01*
X139680000Y-54810000D02*
X139680000Y-59310000D01*
X139680000Y-59310000D02*
X157580000Y-59310000D01*
X157580000Y-54810000D02*
X139680000Y-54810000D01*
X157580000Y-56060000D02*
X157580000Y-54810000D01*
X157580000Y-59310000D02*
X157580000Y-58060000D01*
X157640000Y-51810000D02*
X139620000Y-51810000D01*
X157640000Y-62310000D02*
X157640000Y-51810000D01*
X157580000Y-58060000D02*
G75*
G02*
X157580000Y-56060000I0J1000000D01*
G01*
%TO.C,C8*%
X137920000Y-123710000D02*
X143080000Y-123710000D01*
X137920000Y-123750000D02*
X143080000Y-123750000D01*
X137921000Y-123670000D02*
X143079000Y-123670000D01*
X137922000Y-123630000D02*
X143078000Y-123630000D01*
X137924000Y-123590000D02*
X143076000Y-123590000D01*
X137927000Y-123550000D02*
X143073000Y-123550000D01*
X137931000Y-123510000D02*
X139460000Y-123510000D01*
X137935000Y-123470000D02*
X139460000Y-123470000D01*
X137939000Y-123430000D02*
X139460000Y-123430000D01*
X137944000Y-123390000D02*
X139460000Y-123390000D01*
X137950000Y-123350000D02*
X139460000Y-123350000D01*
X137957000Y-123310000D02*
X139460000Y-123310000D01*
X137964000Y-123270000D02*
X139460000Y-123270000D01*
X137972000Y-123230000D02*
X139460000Y-123230000D01*
X137980000Y-123190000D02*
X139460000Y-123190000D01*
X137989000Y-123150000D02*
X139460000Y-123150000D01*
X137999000Y-123110000D02*
X139460000Y-123110000D01*
X138009000Y-123070000D02*
X139460000Y-123070000D01*
X138020000Y-123029000D02*
X139460000Y-123029000D01*
X138032000Y-122989000D02*
X139460000Y-122989000D01*
X138045000Y-122949000D02*
X139460000Y-122949000D01*
X138058000Y-122909000D02*
X139460000Y-122909000D01*
X138072000Y-122869000D02*
X139460000Y-122869000D01*
X138086000Y-122829000D02*
X139460000Y-122829000D01*
X138102000Y-122789000D02*
X139460000Y-122789000D01*
X138118000Y-122749000D02*
X139460000Y-122749000D01*
X138135000Y-122709000D02*
X139460000Y-122709000D01*
X138152000Y-122669000D02*
X139460000Y-122669000D01*
X138171000Y-122629000D02*
X139460000Y-122629000D01*
X138190000Y-122589000D02*
X139460000Y-122589000D01*
X138210000Y-122549000D02*
X139460000Y-122549000D01*
X138232000Y-122509000D02*
X139460000Y-122509000D01*
X138253000Y-122469000D02*
X139460000Y-122469000D01*
X138276000Y-122429000D02*
X139460000Y-122429000D01*
X138300000Y-122389000D02*
X139460000Y-122389000D01*
X138325000Y-122349000D02*
X139460000Y-122349000D01*
X138351000Y-122309000D02*
X139460000Y-122309000D01*
X138378000Y-122269000D02*
X139460000Y-122269000D01*
X138405000Y-122229000D02*
X139460000Y-122229000D01*
X138435000Y-122189000D02*
X139460000Y-122189000D01*
X138465000Y-122149000D02*
X139460000Y-122149000D01*
X138496000Y-122109000D02*
X139460000Y-122109000D01*
X138529000Y-122069000D02*
X139460000Y-122069000D01*
X138563000Y-122029000D02*
X139460000Y-122029000D01*
X138599000Y-121989000D02*
X139460000Y-121989000D01*
X138636000Y-121949000D02*
X139460000Y-121949000D01*
X138674000Y-121909000D02*
X139460000Y-121909000D01*
X138715000Y-121869000D02*
X139460000Y-121869000D01*
X138757000Y-121829000D02*
X139460000Y-121829000D01*
X138775000Y-126304775D02*
X139275000Y-126304775D01*
X138801000Y-121789000D02*
X139460000Y-121789000D01*
X138847000Y-121749000D02*
X139460000Y-121749000D01*
X138895000Y-121709000D02*
X139460000Y-121709000D01*
X138946000Y-121669000D02*
X139460000Y-121669000D01*
X139000000Y-121629000D02*
X139460000Y-121629000D01*
X139025000Y-126554775D02*
X139025000Y-126054775D01*
X139057000Y-121589000D02*
X139460000Y-121589000D01*
X139117000Y-121549000D02*
X139460000Y-121549000D01*
X139181000Y-121509000D02*
X139460000Y-121509000D01*
X139249000Y-121469000D02*
X139460000Y-121469000D01*
X139322000Y-121429000D02*
X141678000Y-121429000D01*
X139402000Y-121389000D02*
X141598000Y-121389000D01*
X139489000Y-121349000D02*
X141511000Y-121349000D01*
X139585000Y-121309000D02*
X141415000Y-121309000D01*
X139695000Y-121269000D02*
X141305000Y-121269000D01*
X139823000Y-121229000D02*
X141177000Y-121229000D01*
X139982000Y-121189000D02*
X141018000Y-121189000D01*
X140216000Y-121149000D02*
X140784000Y-121149000D01*
X141540000Y-121469000D02*
X141751000Y-121469000D01*
X141540000Y-121509000D02*
X141819000Y-121509000D01*
X141540000Y-121549000D02*
X141883000Y-121549000D01*
X141540000Y-121589000D02*
X141943000Y-121589000D01*
X141540000Y-121629000D02*
X142000000Y-121629000D01*
X141540000Y-121669000D02*
X142054000Y-121669000D01*
X141540000Y-121709000D02*
X142105000Y-121709000D01*
X141540000Y-121749000D02*
X142153000Y-121749000D01*
X141540000Y-121789000D02*
X142199000Y-121789000D01*
X141540000Y-121829000D02*
X142243000Y-121829000D01*
X141540000Y-121869000D02*
X142285000Y-121869000D01*
X141540000Y-121909000D02*
X142326000Y-121909000D01*
X141540000Y-121949000D02*
X142364000Y-121949000D01*
X141540000Y-121989000D02*
X142401000Y-121989000D01*
X141540000Y-122029000D02*
X142437000Y-122029000D01*
X141540000Y-122069000D02*
X142471000Y-122069000D01*
X141540000Y-122109000D02*
X142504000Y-122109000D01*
X141540000Y-122149000D02*
X142535000Y-122149000D01*
X141540000Y-122189000D02*
X142565000Y-122189000D01*
X141540000Y-122229000D02*
X142595000Y-122229000D01*
X141540000Y-122269000D02*
X142622000Y-122269000D01*
X141540000Y-122309000D02*
X142649000Y-122309000D01*
X141540000Y-122349000D02*
X142675000Y-122349000D01*
X141540000Y-122389000D02*
X142700000Y-122389000D01*
X141540000Y-122429000D02*
X142724000Y-122429000D01*
X141540000Y-122469000D02*
X142747000Y-122469000D01*
X141540000Y-122509000D02*
X142768000Y-122509000D01*
X141540000Y-122549000D02*
X142790000Y-122549000D01*
X141540000Y-122589000D02*
X142810000Y-122589000D01*
X141540000Y-122629000D02*
X142829000Y-122629000D01*
X141540000Y-122669000D02*
X142848000Y-122669000D01*
X141540000Y-122709000D02*
X142865000Y-122709000D01*
X141540000Y-122749000D02*
X142882000Y-122749000D01*
X141540000Y-122789000D02*
X142898000Y-122789000D01*
X141540000Y-122829000D02*
X142914000Y-122829000D01*
X141540000Y-122869000D02*
X142928000Y-122869000D01*
X141540000Y-122909000D02*
X142942000Y-122909000D01*
X141540000Y-122949000D02*
X142955000Y-122949000D01*
X141540000Y-122989000D02*
X142968000Y-122989000D01*
X141540000Y-123029000D02*
X142980000Y-123029000D01*
X141540000Y-123070000D02*
X142991000Y-123070000D01*
X141540000Y-123110000D02*
X143001000Y-123110000D01*
X141540000Y-123150000D02*
X143011000Y-123150000D01*
X141540000Y-123190000D02*
X143020000Y-123190000D01*
X141540000Y-123230000D02*
X143028000Y-123230000D01*
X141540000Y-123270000D02*
X143036000Y-123270000D01*
X141540000Y-123310000D02*
X143043000Y-123310000D01*
X141540000Y-123350000D02*
X143050000Y-123350000D01*
X141540000Y-123390000D02*
X143056000Y-123390000D01*
X141540000Y-123430000D02*
X143061000Y-123430000D01*
X141540000Y-123470000D02*
X143065000Y-123470000D01*
X141540000Y-123510000D02*
X143069000Y-123510000D01*
X143120000Y-123750000D02*
G75*
G02*
X137880000Y-123750000I-2620000J0D01*
G01*
X137880000Y-123750000D02*
G75*
G02*
X143120000Y-123750000I2620000J0D01*
G01*
%TO.C,C5*%
X194880000Y-114130000D02*
X198620000Y-114130000D01*
X194880000Y-121370000D02*
X194880000Y-114130000D01*
X194880000Y-121370000D02*
X198620000Y-121370000D01*
X198620000Y-121370000D02*
X198620000Y-114130000D01*
D14*
%TO.C,SW1*%
X125500000Y-55950000D02*
X123200000Y-55950000D01*
X131800000Y-55950000D02*
X129600000Y-55950000D01*
X131800000Y-60550000D02*
X123200000Y-60550000D01*
D16*
%TO.C,C12*%
X145130000Y-126870000D02*
X145130000Y-123130000D01*
X152370000Y-123130000D02*
X145130000Y-123130000D01*
X152370000Y-126870000D02*
X145130000Y-126870000D01*
X152370000Y-126870000D02*
X152370000Y-123130000D01*
%TO.C,C11*%
X107149000Y-62284000D02*
X107149000Y-61716000D01*
X107189000Y-62518000D02*
X107189000Y-61482000D01*
X107229000Y-62677000D02*
X107229000Y-61323000D01*
X107269000Y-62805000D02*
X107269000Y-61195000D01*
X107309000Y-62915000D02*
X107309000Y-61085000D01*
X107349000Y-63011000D02*
X107349000Y-60989000D01*
X107389000Y-63098000D02*
X107389000Y-60902000D01*
X107429000Y-63178000D02*
X107429000Y-60822000D01*
X107469000Y-60960000D02*
X107469000Y-60749000D01*
X107469000Y-63251000D02*
X107469000Y-63040000D01*
X107509000Y-60960000D02*
X107509000Y-60681000D01*
X107509000Y-63319000D02*
X107509000Y-63040000D01*
X107549000Y-60960000D02*
X107549000Y-60617000D01*
X107549000Y-63383000D02*
X107549000Y-63040000D01*
X107589000Y-60960000D02*
X107589000Y-60557000D01*
X107589000Y-63443000D02*
X107589000Y-63040000D01*
X107629000Y-60960000D02*
X107629000Y-60500000D01*
X107629000Y-63500000D02*
X107629000Y-63040000D01*
X107669000Y-60960000D02*
X107669000Y-60446000D01*
X107669000Y-63554000D02*
X107669000Y-63040000D01*
X107709000Y-60960000D02*
X107709000Y-60395000D01*
X107709000Y-63605000D02*
X107709000Y-63040000D01*
X107749000Y-60960000D02*
X107749000Y-60347000D01*
X107749000Y-63653000D02*
X107749000Y-63040000D01*
X107789000Y-60960000D02*
X107789000Y-60301000D01*
X107789000Y-63699000D02*
X107789000Y-63040000D01*
X107829000Y-60960000D02*
X107829000Y-60257000D01*
X107829000Y-63743000D02*
X107829000Y-63040000D01*
X107869000Y-60960000D02*
X107869000Y-60215000D01*
X107869000Y-63785000D02*
X107869000Y-63040000D01*
X107909000Y-60960000D02*
X107909000Y-60174000D01*
X107909000Y-63826000D02*
X107909000Y-63040000D01*
X107949000Y-60960000D02*
X107949000Y-60136000D01*
X107949000Y-63864000D02*
X107949000Y-63040000D01*
X107989000Y-60960000D02*
X107989000Y-60099000D01*
X107989000Y-63901000D02*
X107989000Y-63040000D01*
X108029000Y-60960000D02*
X108029000Y-60063000D01*
X108029000Y-63937000D02*
X108029000Y-63040000D01*
X108069000Y-60960000D02*
X108069000Y-60029000D01*
X108069000Y-63971000D02*
X108069000Y-63040000D01*
X108109000Y-60960000D02*
X108109000Y-59996000D01*
X108109000Y-64004000D02*
X108109000Y-63040000D01*
X108149000Y-60960000D02*
X108149000Y-59965000D01*
X108149000Y-64035000D02*
X108149000Y-63040000D01*
X108189000Y-60960000D02*
X108189000Y-59935000D01*
X108189000Y-64065000D02*
X108189000Y-63040000D01*
X108229000Y-60960000D02*
X108229000Y-59905000D01*
X108229000Y-64095000D02*
X108229000Y-63040000D01*
X108269000Y-60960000D02*
X108269000Y-59878000D01*
X108269000Y-64122000D02*
X108269000Y-63040000D01*
X108309000Y-60960000D02*
X108309000Y-59851000D01*
X108309000Y-64149000D02*
X108309000Y-63040000D01*
X108349000Y-60960000D02*
X108349000Y-59825000D01*
X108349000Y-64175000D02*
X108349000Y-63040000D01*
X108389000Y-60960000D02*
X108389000Y-59800000D01*
X108389000Y-64200000D02*
X108389000Y-63040000D01*
X108429000Y-60960000D02*
X108429000Y-59776000D01*
X108429000Y-64224000D02*
X108429000Y-63040000D01*
X108469000Y-60960000D02*
X108469000Y-59753000D01*
X108469000Y-64247000D02*
X108469000Y-63040000D01*
X108509000Y-60960000D02*
X108509000Y-59732000D01*
X108509000Y-64268000D02*
X108509000Y-63040000D01*
X108549000Y-60960000D02*
X108549000Y-59710000D01*
X108549000Y-64290000D02*
X108549000Y-63040000D01*
X108589000Y-60960000D02*
X108589000Y-59690000D01*
X108589000Y-64310000D02*
X108589000Y-63040000D01*
X108629000Y-60960000D02*
X108629000Y-59671000D01*
X108629000Y-64329000D02*
X108629000Y-63040000D01*
X108669000Y-60960000D02*
X108669000Y-59652000D01*
X108669000Y-64348000D02*
X108669000Y-63040000D01*
X108709000Y-60960000D02*
X108709000Y-59635000D01*
X108709000Y-64365000D02*
X108709000Y-63040000D01*
X108749000Y-60960000D02*
X108749000Y-59618000D01*
X108749000Y-64382000D02*
X108749000Y-63040000D01*
X108789000Y-60960000D02*
X108789000Y-59602000D01*
X108789000Y-64398000D02*
X108789000Y-63040000D01*
X108829000Y-60960000D02*
X108829000Y-59586000D01*
X108829000Y-64414000D02*
X108829000Y-63040000D01*
X108869000Y-60960000D02*
X108869000Y-59572000D01*
X108869000Y-64428000D02*
X108869000Y-63040000D01*
X108909000Y-60960000D02*
X108909000Y-59558000D01*
X108909000Y-64442000D02*
X108909000Y-63040000D01*
X108949000Y-60960000D02*
X108949000Y-59545000D01*
X108949000Y-64455000D02*
X108949000Y-63040000D01*
X108989000Y-60960000D02*
X108989000Y-59532000D01*
X108989000Y-64468000D02*
X108989000Y-63040000D01*
X109029000Y-60960000D02*
X109029000Y-59520000D01*
X109029000Y-64480000D02*
X109029000Y-63040000D01*
X109070000Y-60960000D02*
X109070000Y-59509000D01*
X109070000Y-64491000D02*
X109070000Y-63040000D01*
X109110000Y-60960000D02*
X109110000Y-59499000D01*
X109110000Y-64501000D02*
X109110000Y-63040000D01*
X109150000Y-60960000D02*
X109150000Y-59489000D01*
X109150000Y-64511000D02*
X109150000Y-63040000D01*
X109190000Y-60960000D02*
X109190000Y-59480000D01*
X109190000Y-64520000D02*
X109190000Y-63040000D01*
X109230000Y-60960000D02*
X109230000Y-59472000D01*
X109230000Y-64528000D02*
X109230000Y-63040000D01*
X109270000Y-60960000D02*
X109270000Y-59464000D01*
X109270000Y-64536000D02*
X109270000Y-63040000D01*
X109310000Y-60960000D02*
X109310000Y-59457000D01*
X109310000Y-64543000D02*
X109310000Y-63040000D01*
X109350000Y-60960000D02*
X109350000Y-59450000D01*
X109350000Y-64550000D02*
X109350000Y-63040000D01*
X109390000Y-60960000D02*
X109390000Y-59444000D01*
X109390000Y-64556000D02*
X109390000Y-63040000D01*
X109430000Y-60960000D02*
X109430000Y-59439000D01*
X109430000Y-64561000D02*
X109430000Y-63040000D01*
X109470000Y-60960000D02*
X109470000Y-59435000D01*
X109470000Y-64565000D02*
X109470000Y-63040000D01*
X109510000Y-60960000D02*
X109510000Y-59431000D01*
X109510000Y-64569000D02*
X109510000Y-63040000D01*
X109550000Y-64573000D02*
X109550000Y-59427000D01*
X109590000Y-64576000D02*
X109590000Y-59424000D01*
X109630000Y-64578000D02*
X109630000Y-59422000D01*
X109670000Y-64579000D02*
X109670000Y-59421000D01*
X109710000Y-64580000D02*
X109710000Y-59420000D01*
X109750000Y-64580000D02*
X109750000Y-59420000D01*
X112304775Y-63725000D02*
X112304775Y-63225000D01*
X112554775Y-63475000D02*
X112054775Y-63475000D01*
X112370000Y-62000000D02*
G75*
G02*
X107130000Y-62000000I-2620000J0D01*
G01*
X107130000Y-62000000D02*
G75*
G02*
X112370000Y-62000000I2620000J0D01*
G01*
%TO.C,C4*%
X194880000Y-122130000D02*
X194880000Y-129370000D01*
X198620000Y-122130000D02*
X194880000Y-122130000D01*
X198620000Y-122130000D02*
X198620000Y-129370000D01*
X198620000Y-129370000D02*
X194880000Y-129370000D01*
%TO.C,RV3*%
X126620000Y-76345000D02*
X126620000Y-71625000D01*
X126630000Y-67815000D02*
X126630000Y-64755000D01*
X127810000Y-76345000D02*
X126630000Y-76345000D01*
X130710000Y-76345000D02*
X130180000Y-76345000D01*
X133160000Y-76345000D02*
X132330000Y-76345000D01*
X136370000Y-64755000D02*
X126630000Y-64755000D01*
X136370000Y-67815000D02*
X136370000Y-64755000D01*
X136370000Y-76345000D02*
X134880000Y-76345000D01*
X136370000Y-76345000D02*
X136370000Y-71625000D01*
%TO.C,R6*%
X183790000Y-128250000D02*
X184560000Y-128250000D01*
X184560000Y-126880000D02*
X184560000Y-129620000D01*
X184560000Y-129620000D02*
X191100000Y-129620000D01*
X191100000Y-126880000D02*
X184560000Y-126880000D01*
X191100000Y-129620000D02*
X191100000Y-126880000D01*
X191870000Y-128250000D02*
X191100000Y-128250000D01*
%TO.C,RV2*%
X163620000Y-76120000D02*
X163620000Y-71400000D01*
X163630000Y-67590000D02*
X163630000Y-64530000D01*
X164810000Y-76120000D02*
X163630000Y-76120000D01*
X167710000Y-76120000D02*
X167180000Y-76120000D01*
X170160000Y-76120000D02*
X169330000Y-76120000D01*
X173370000Y-64530000D02*
X163630000Y-64530000D01*
X173370000Y-67590000D02*
X173370000Y-64530000D01*
X173370000Y-76120000D02*
X171880000Y-76120000D01*
X173370000Y-76120000D02*
X173370000Y-71400000D01*
%TO.C,C2*%
X142380000Y-62880000D02*
X142380000Y-66620000D01*
X142380000Y-62880000D02*
X149620000Y-62880000D01*
X142380000Y-66620000D02*
X149620000Y-66620000D01*
X149620000Y-62880000D02*
X149620000Y-66620000D01*
%TO.C,U1*%
X182620000Y-102810000D02*
X182620000Y-113310000D01*
X182620000Y-113310000D02*
X200640000Y-113310000D01*
X182680000Y-105810000D02*
X182680000Y-110310000D01*
X182680000Y-110310000D02*
X200580000Y-110310000D01*
X200580000Y-105810000D02*
X182680000Y-105810000D01*
X200580000Y-107060000D02*
X200580000Y-105810000D01*
X200580000Y-110310000D02*
X200580000Y-109060000D01*
X200640000Y-102810000D02*
X182620000Y-102810000D01*
X200640000Y-113310000D02*
X200640000Y-102810000D01*
X200580000Y-109060000D02*
G75*
G02*
X200580000Y-107060000I0J1000000D01*
G01*
%TO.C,C10*%
X158695225Y-59275000D02*
X159195225Y-59275000D01*
X158945225Y-59025000D02*
X158945225Y-59525000D01*
X161500000Y-58170000D02*
X161500000Y-63330000D01*
X161540000Y-58170000D02*
X161540000Y-63330000D01*
X161580000Y-58171000D02*
X161580000Y-63329000D01*
X161620000Y-58172000D02*
X161620000Y-63328000D01*
X161660000Y-58174000D02*
X161660000Y-63326000D01*
X161700000Y-58177000D02*
X161700000Y-63323000D01*
X161740000Y-58181000D02*
X161740000Y-59710000D01*
X161740000Y-61790000D02*
X161740000Y-63319000D01*
X161780000Y-58185000D02*
X161780000Y-59710000D01*
X161780000Y-61790000D02*
X161780000Y-63315000D01*
X161820000Y-58189000D02*
X161820000Y-59710000D01*
X161820000Y-61790000D02*
X161820000Y-63311000D01*
X161860000Y-58194000D02*
X161860000Y-59710000D01*
X161860000Y-61790000D02*
X161860000Y-63306000D01*
X161900000Y-58200000D02*
X161900000Y-59710000D01*
X161900000Y-61790000D02*
X161900000Y-63300000D01*
X161940000Y-58207000D02*
X161940000Y-59710000D01*
X161940000Y-61790000D02*
X161940000Y-63293000D01*
X161980000Y-58214000D02*
X161980000Y-59710000D01*
X161980000Y-61790000D02*
X161980000Y-63286000D01*
X162020000Y-58222000D02*
X162020000Y-59710000D01*
X162020000Y-61790000D02*
X162020000Y-63278000D01*
X162060000Y-58230000D02*
X162060000Y-59710000D01*
X162060000Y-61790000D02*
X162060000Y-63270000D01*
X162100000Y-58239000D02*
X162100000Y-59710000D01*
X162100000Y-61790000D02*
X162100000Y-63261000D01*
X162140000Y-58249000D02*
X162140000Y-59710000D01*
X162140000Y-61790000D02*
X162140000Y-63251000D01*
X162180000Y-58259000D02*
X162180000Y-59710000D01*
X162180000Y-61790000D02*
X162180000Y-63241000D01*
X162221000Y-58270000D02*
X162221000Y-59710000D01*
X162221000Y-61790000D02*
X162221000Y-63230000D01*
X162261000Y-58282000D02*
X162261000Y-59710000D01*
X162261000Y-61790000D02*
X162261000Y-63218000D01*
X162301000Y-58295000D02*
X162301000Y-59710000D01*
X162301000Y-61790000D02*
X162301000Y-63205000D01*
X162341000Y-58308000D02*
X162341000Y-59710000D01*
X162341000Y-61790000D02*
X162341000Y-63192000D01*
X162381000Y-58322000D02*
X162381000Y-59710000D01*
X162381000Y-61790000D02*
X162381000Y-63178000D01*
X162421000Y-58336000D02*
X162421000Y-59710000D01*
X162421000Y-61790000D02*
X162421000Y-63164000D01*
X162461000Y-58352000D02*
X162461000Y-59710000D01*
X162461000Y-61790000D02*
X162461000Y-63148000D01*
X162501000Y-58368000D02*
X162501000Y-59710000D01*
X162501000Y-61790000D02*
X162501000Y-63132000D01*
X162541000Y-58385000D02*
X162541000Y-59710000D01*
X162541000Y-61790000D02*
X162541000Y-63115000D01*
X162581000Y-58402000D02*
X162581000Y-59710000D01*
X162581000Y-61790000D02*
X162581000Y-63098000D01*
X162621000Y-58421000D02*
X162621000Y-59710000D01*
X162621000Y-61790000D02*
X162621000Y-63079000D01*
X162661000Y-58440000D02*
X162661000Y-59710000D01*
X162661000Y-61790000D02*
X162661000Y-63060000D01*
X162701000Y-58460000D02*
X162701000Y-59710000D01*
X162701000Y-61790000D02*
X162701000Y-63040000D01*
X162741000Y-58482000D02*
X162741000Y-59710000D01*
X162741000Y-61790000D02*
X162741000Y-63018000D01*
X162781000Y-58503000D02*
X162781000Y-59710000D01*
X162781000Y-61790000D02*
X162781000Y-62997000D01*
X162821000Y-58526000D02*
X162821000Y-59710000D01*
X162821000Y-61790000D02*
X162821000Y-62974000D01*
X162861000Y-58550000D02*
X162861000Y-59710000D01*
X162861000Y-61790000D02*
X162861000Y-62950000D01*
X162901000Y-58575000D02*
X162901000Y-59710000D01*
X162901000Y-61790000D02*
X162901000Y-62925000D01*
X162941000Y-58601000D02*
X162941000Y-59710000D01*
X162941000Y-61790000D02*
X162941000Y-62899000D01*
X162981000Y-58628000D02*
X162981000Y-59710000D01*
X162981000Y-61790000D02*
X162981000Y-62872000D01*
X163021000Y-58655000D02*
X163021000Y-59710000D01*
X163021000Y-61790000D02*
X163021000Y-62845000D01*
X163061000Y-58685000D02*
X163061000Y-59710000D01*
X163061000Y-61790000D02*
X163061000Y-62815000D01*
X163101000Y-58715000D02*
X163101000Y-59710000D01*
X163101000Y-61790000D02*
X163101000Y-62785000D01*
X163141000Y-58746000D02*
X163141000Y-59710000D01*
X163141000Y-61790000D02*
X163141000Y-62754000D01*
X163181000Y-58779000D02*
X163181000Y-59710000D01*
X163181000Y-61790000D02*
X163181000Y-62721000D01*
X163221000Y-58813000D02*
X163221000Y-59710000D01*
X163221000Y-61790000D02*
X163221000Y-62687000D01*
X163261000Y-58849000D02*
X163261000Y-59710000D01*
X163261000Y-61790000D02*
X163261000Y-62651000D01*
X163301000Y-58886000D02*
X163301000Y-59710000D01*
X163301000Y-61790000D02*
X163301000Y-62614000D01*
X163341000Y-58924000D02*
X163341000Y-59710000D01*
X163341000Y-61790000D02*
X163341000Y-62576000D01*
X163381000Y-58965000D02*
X163381000Y-59710000D01*
X163381000Y-61790000D02*
X163381000Y-62535000D01*
X163421000Y-59007000D02*
X163421000Y-59710000D01*
X163421000Y-61790000D02*
X163421000Y-62493000D01*
X163461000Y-59051000D02*
X163461000Y-59710000D01*
X163461000Y-61790000D02*
X163461000Y-62449000D01*
X163501000Y-59097000D02*
X163501000Y-59710000D01*
X163501000Y-61790000D02*
X163501000Y-62403000D01*
X163541000Y-59145000D02*
X163541000Y-59710000D01*
X163541000Y-61790000D02*
X163541000Y-62355000D01*
X163581000Y-59196000D02*
X163581000Y-59710000D01*
X163581000Y-61790000D02*
X163581000Y-62304000D01*
X163621000Y-59250000D02*
X163621000Y-59710000D01*
X163621000Y-61790000D02*
X163621000Y-62250000D01*
X163661000Y-59307000D02*
X163661000Y-59710000D01*
X163661000Y-61790000D02*
X163661000Y-62193000D01*
X163701000Y-59367000D02*
X163701000Y-59710000D01*
X163701000Y-61790000D02*
X163701000Y-62133000D01*
X163741000Y-59431000D02*
X163741000Y-59710000D01*
X163741000Y-61790000D02*
X163741000Y-62069000D01*
X163781000Y-59499000D02*
X163781000Y-59710000D01*
X163781000Y-61790000D02*
X163781000Y-62001000D01*
X163821000Y-59572000D02*
X163821000Y-61928000D01*
X163861000Y-59652000D02*
X163861000Y-61848000D01*
X163901000Y-59739000D02*
X163901000Y-61761000D01*
X163941000Y-59835000D02*
X163941000Y-61665000D01*
X163981000Y-59945000D02*
X163981000Y-61555000D01*
X164021000Y-60073000D02*
X164021000Y-61427000D01*
X164061000Y-60232000D02*
X164061000Y-61268000D01*
X164101000Y-60466000D02*
X164101000Y-61034000D01*
X164120000Y-60750000D02*
G75*
G02*
X158880000Y-60750000I-2620000J0D01*
G01*
X158880000Y-60750000D02*
G75*
G02*
X164120000Y-60750000I2620000J0D01*
G01*
%TO.C,R13*%
X96540000Y-66750000D02*
X97310000Y-66750000D01*
X97310000Y-65380000D02*
X97310000Y-68120000D01*
X97310000Y-68120000D02*
X103850000Y-68120000D01*
X103850000Y-65380000D02*
X97310000Y-65380000D01*
X103850000Y-68120000D02*
X103850000Y-65380000D01*
X104620000Y-66750000D02*
X103850000Y-66750000D01*
D11*
%TO.C,J1*%
X184500000Y-65000000D02*
X187400000Y-65000000D01*
X184500000Y-75500000D02*
X184500000Y-65000000D01*
X184500000Y-75500000D02*
X187500000Y-75500000D01*
X190500000Y-75500000D02*
X193500000Y-75500000D01*
X190600000Y-65000000D02*
X193500000Y-65000000D01*
X193500000Y-75500000D02*
X193500000Y-65000000D01*
D16*
X187603000Y-73539999D02*
G75*
G02*
X190397000Y-73539999I1397000J2539999D01*
G01*
X190800000Y-71000000D02*
G75*
G02*
X187200000Y-71000000I-1800000J0D01*
G01*
X187200000Y-71000000D02*
G75*
G02*
X190800000Y-71000000I1800000J0D01*
G01*
%TO.C,C7*%
X143620000Y-135370000D02*
X143620000Y-128130000D01*
X139880000Y-135370000D02*
X143620000Y-135370000D01*
X139880000Y-135370000D02*
X139880000Y-128130000D01*
X139880000Y-128130000D02*
X143620000Y-128130000D01*
%TD*%
M02*
