M48
; DRILL file {KiCad 8.0.3} date 2024-06-30T20:16:38+0100
; FORMAT={-:-/ absolute / metric / decimal}
; #@! TF.CreationDate,2024-06-30T20:16:38+01:00
; #@! TF.GenerationSoftware,Kicad,Pcbnew,8.0.3
; #@! TF.FileFunction,Plated,1,2,PTH
FMAT,2
METRIC
; #@! TA.AperFunction,Plated,PTH,ViaDrill
T1C0.305
; #@! TA.AperFunction,Plated,PTH,ComponentDrill
T2C0.600
; #@! TA.AperFunction,Plated,PTH,ComponentDrill
T3C0.800
; #@! TA.AperFunction,Plated,PTH,ComponentDrill
T4C0.900
; #@! TA.AperFunction,Plated,PTH,ComponentDrill
T5C1.000
; #@! TA.AperFunction,Plated,PTH,ComponentDrill
T6C1.100
; #@! TA.AperFunction,Plated,PTH,ComponentDrill
T7C1.500
; #@! TA.AperFunction,Plated,PTH,ComponentDrill
T8C2.400
; #@! TA.AperFunction,Plated,PTH,ComponentDrill
T9C5.000
%
G90
G05
T1
X165.362Y-106.286
X173.143Y-105.588
T3
X99.736Y-55.202
X109.896Y-55.202
X112.96Y-56.024
X114.072Y-44.484
X114.992Y-49.481
X114.992Y-51.981
X121.596Y-47.134
X121.596Y-49.674
X121.596Y-52.214
X121.692Y-44.484
X123.12Y-56.024
X130.858Y-69.052
X141.018Y-69.052
X142.128Y-117.066
X142.128Y-127.226
X144.046Y-110.889
X144.046Y-113.389
X145.226Y-41.764
X145.226Y-49.384
X146.192Y-117.066
X146.192Y-122.066
X147.592Y-53.448
X147.766Y-41.764
X147.766Y-49.384
X150.082Y-113.51
X150.246Y-117.564
X150.246Y-120.104
X150.246Y-122.644
X150.246Y-125.184
X150.306Y-41.764
X150.306Y-49.384
X152.592Y-53.448
X152.846Y-41.764
X152.846Y-49.384
X155.082Y-113.51
X155.386Y-41.764
X155.386Y-49.384
X155.894Y-52.432
X155.894Y-62.592
X157.866Y-117.564
X157.866Y-120.104
X157.866Y-122.644
X157.866Y-125.184
X157.926Y-41.764
X157.926Y-49.384
X158.942Y-52.432
X158.942Y-62.592
X160.466Y-41.764
X160.466Y-49.384
X161.484Y-116.386
X161.484Y-126.546
X164.53Y-49.384
X167.03Y-49.384
X170.946Y-49.484
X173.446Y-49.484
X180.816Y-88.692
X180.816Y-96.312
X180.858Y-98.634
X180.858Y-106.254
X184.116Y-84.884
X184.176Y-93.15
X184.176Y-100.77
X184.176Y-104.326
X184.176Y-109.326
X184.176Y-117.534
X184.276Y-88.884
X186.716Y-93.15
X186.716Y-100.77
X187.986Y-103.818
X187.986Y-113.978
X189.256Y-93.15
X189.256Y-100.77
X189.276Y-88.884
X191.034Y-103.818
X191.034Y-113.978
X191.796Y-93.15
X191.796Y-100.77
X192.316Y-88.884
X194.082Y-103.818
X194.082Y-113.978
X194.276Y-84.884
X194.336Y-93.15
X194.336Y-100.77
X194.336Y-117.534
X196.876Y-93.15
X196.876Y-100.77
X197.638Y-104.072
X197.638Y-109.072
X197.638Y-112.454
X197.638Y-117.454
X199.416Y-93.15
X199.416Y-100.77
X202.476Y-88.884
X203.273Y-100.368
X205.773Y-100.368
T4
X106.616Y-47.802
X106.616Y-50.342
X129.716Y-46.202
X131.716Y-46.202
X133.716Y-46.202
T5
X133.246Y-65.509
X135.746Y-65.509
X138.246Y-65.509
X170.446Y-65.609
X172.941Y-71.602
X172.946Y-65.609
X175.446Y-65.609
X175.481Y-71.602
T6
X147.806Y-57.512
X147.806Y-62.512
X150.306Y-60.012
T7
X127.616Y-46.202
X135.816Y-46.202
T8
X104.146Y-60.734
X116.846Y-60.734
T9
X90.941Y-82.371
X90.941Y-88.371
X217.441Y-82.331
X217.441Y-88.331
T2
G00X192.746Y-54.386
M15
G01X193.746Y-54.386
M16
G05
G00X192.746Y-62.686
M15
G01X193.746Y-62.686
M16
G05
G00X192.746Y-65.787
M15
G01X193.746Y-65.787
M16
G05
T6
G00X130.946Y-58.359
M15
G01X130.946Y-57.659
M16
G05
G00X140.546Y-58.359
M15
G01X140.546Y-57.659
M16
G05
G00X168.146Y-58.459
M15
G01X168.146Y-57.759
M16
G05
G00X177.746Y-58.459
M15
G01X177.746Y-57.759
M16
G05
M30
