%TF.GenerationSoftware,KiCad,Pcbnew,8.0.3*%
%TF.CreationDate,2024-07-04T10:28:45+01:00*%
%TF.ProjectId,theremin,74686572-656d-4696-9e2e-6b696361645f,rev?*%
%TF.SameCoordinates,Original*%
%TF.FileFunction,Legend,Top*%
%TF.FilePolarity,Positive*%
%FSLAX46Y46*%
G04 Gerber Fmt 4.6, Leading zero omitted, Abs format (unit mm)*
G04 Created by KiCad (PCBNEW 8.0.3) date 2024-07-04 10:28:45*
%MOMM*%
%LPD*%
G01*
G04 APERTURE LIST*
%ADD10C,0.200000*%
%ADD11C,0.150000*%
%ADD12C,0.187500*%
%ADD13C,0.120000*%
%ADD14C,0.500000*%
G04 APERTURE END LIST*
D10*
G36*
X210900391Y-85350000D02*
G01*
X210602415Y-85350000D01*
X210472966Y-84912316D01*
X209879456Y-84912316D01*
X209752938Y-85350000D01*
X209454962Y-85350000D01*
X209670838Y-84662212D01*
X209955171Y-84662212D01*
X210397251Y-84662212D01*
X210177432Y-83922644D01*
X209955171Y-84662212D01*
X209670838Y-84662212D01*
X210014278Y-83568004D01*
X210341075Y-83568004D01*
X210900391Y-85350000D01*
G37*
G36*
X211811678Y-84043242D02*
G01*
X211908084Y-84062117D01*
X211989714Y-84090195D01*
X212079450Y-84136494D01*
X212158883Y-84196257D01*
X212206113Y-84243579D01*
X212268327Y-84325370D01*
X212315579Y-84411449D01*
X212347286Y-84489776D01*
X212374076Y-84584430D01*
X212390944Y-84686430D01*
X212397642Y-84784511D01*
X212398088Y-84818527D01*
X211324885Y-84818527D01*
X211352454Y-84913186D01*
X211408987Y-85001161D01*
X211450914Y-85042254D01*
X211539849Y-85096430D01*
X211639235Y-85124125D01*
X211733259Y-85131158D01*
X211832155Y-85125113D01*
X211934510Y-85102780D01*
X211974083Y-85088171D01*
X212064028Y-85041188D01*
X212146246Y-84977349D01*
X212150914Y-84972889D01*
X212296483Y-85172679D01*
X212217810Y-85240390D01*
X212127964Y-85297791D01*
X212034655Y-85337299D01*
X211936670Y-85362329D01*
X211832798Y-85376969D01*
X211733259Y-85381263D01*
X211633590Y-85375433D01*
X211530390Y-85355775D01*
X211456776Y-85331926D01*
X211365895Y-85289130D01*
X211278138Y-85230519D01*
X211235492Y-85193684D01*
X211166377Y-85115887D01*
X211110644Y-85026964D01*
X211089435Y-84982170D01*
X211057287Y-84886366D01*
X211039976Y-84782868D01*
X211036679Y-84709595D01*
X211043479Y-84603578D01*
X211050673Y-84568422D01*
X211337586Y-84568422D01*
X212076665Y-84568422D01*
X212044938Y-84473217D01*
X211985478Y-84394781D01*
X211948681Y-84364235D01*
X211858115Y-84314264D01*
X211757874Y-84289768D01*
X211708346Y-84287055D01*
X211611145Y-84297908D01*
X211514681Y-84334162D01*
X211466546Y-84364235D01*
X211393654Y-84434932D01*
X211348817Y-84522398D01*
X211337586Y-84568422D01*
X211050673Y-84568422D01*
X211063881Y-84503881D01*
X211085039Y-84440928D01*
X211131258Y-84346392D01*
X211190538Y-84262821D01*
X211222303Y-84227948D01*
X211300262Y-84161133D01*
X211389669Y-84107540D01*
X211434794Y-84087264D01*
X211531423Y-84056604D01*
X211635196Y-84040095D01*
X211708346Y-84036950D01*
X211811678Y-84043242D01*
G37*
G36*
X213841075Y-84337857D02*
G01*
X213746989Y-84302815D01*
X213737027Y-84300244D01*
X213636525Y-84287377D01*
X213615395Y-84287055D01*
X213518014Y-84295464D01*
X213437586Y-84316852D01*
X213346894Y-84362334D01*
X213293971Y-84405757D01*
X213231513Y-84486451D01*
X213199693Y-84553768D01*
X213174780Y-84650854D01*
X213166606Y-84749229D01*
X213166476Y-84764305D01*
X213166476Y-85099895D01*
X213453217Y-85099895D01*
X213453217Y-85350000D01*
X212592017Y-85350000D01*
X212592017Y-85099895D01*
X212881689Y-85099895D01*
X212881689Y-84287055D01*
X212592017Y-84287055D01*
X212592017Y-84068213D01*
X213166476Y-84068213D01*
X213166476Y-84389148D01*
X213211062Y-84289813D01*
X213266236Y-84208330D01*
X213339957Y-84138731D01*
X213373106Y-84117062D01*
X213463600Y-84074815D01*
X213564111Y-84048216D01*
X213663137Y-84037654D01*
X213697949Y-84036950D01*
X213797544Y-84044367D01*
X213821535Y-84048185D01*
X213916882Y-84073922D01*
X213948053Y-84086775D01*
X213841075Y-84337857D01*
G37*
G36*
X214933329Y-83913852D02*
G01*
X214586993Y-83913852D01*
X214586993Y-83568004D01*
X214933329Y-83568004D01*
X214933329Y-83913852D01*
G37*
G36*
X215194180Y-85350000D02*
G01*
X214334445Y-85350000D01*
X214334445Y-85099895D01*
X214617279Y-85099895D01*
X214617279Y-84318318D01*
X214334445Y-84318318D01*
X214334445Y-84068213D01*
X214901577Y-84068213D01*
X214901577Y-85099895D01*
X215194180Y-85099895D01*
X215194180Y-85350000D01*
G37*
G36*
X216398542Y-84042812D02*
G01*
X216500391Y-84060397D01*
X216596256Y-84091416D01*
X216681619Y-84137578D01*
X216758020Y-84203769D01*
X216810091Y-84277285D01*
X216846361Y-84373394D01*
X216858262Y-84474120D01*
X216858451Y-84489776D01*
X216858451Y-85350000D01*
X216576595Y-85350000D01*
X216576595Y-85164863D01*
X216511262Y-85240714D01*
X216424807Y-85301569D01*
X216377781Y-85324598D01*
X216285411Y-85356859D01*
X216188308Y-85375729D01*
X216095925Y-85381263D01*
X215994053Y-85373225D01*
X215919093Y-85355861D01*
X215828402Y-85317322D01*
X215775478Y-85280635D01*
X215709533Y-85207972D01*
X215678758Y-85155582D01*
X215648576Y-85059489D01*
X215642610Y-84984612D01*
X215644047Y-84973866D01*
X215923978Y-84973866D01*
X215958393Y-85069716D01*
X216050407Y-85118716D01*
X216153653Y-85131004D01*
X216168709Y-85131158D01*
X216269116Y-85122762D01*
X216325513Y-85109665D01*
X216418623Y-85071820D01*
X216455450Y-85049581D01*
X216529081Y-84979743D01*
X216544355Y-84956769D01*
X216575461Y-84860447D01*
X216576595Y-84836113D01*
X216576595Y-84787264D01*
X216476334Y-84787264D01*
X216450077Y-84787264D01*
X216351273Y-84787264D01*
X216345541Y-84787264D01*
X216247630Y-84790622D01*
X216143188Y-84804266D01*
X216044178Y-84834491D01*
X216030468Y-84840997D01*
X215950600Y-84901081D01*
X215923978Y-84973866D01*
X215644047Y-84973866D01*
X215655812Y-84885858D01*
X215698997Y-84794008D01*
X215702694Y-84788729D01*
X215772669Y-84711793D01*
X215855352Y-84652531D01*
X215861452Y-84649023D01*
X215953215Y-84605292D01*
X216048134Y-84574396D01*
X216087132Y-84565003D01*
X216191131Y-84546975D01*
X216288561Y-84538492D01*
X216346030Y-84537159D01*
X216446935Y-84537159D01*
X216470593Y-84537159D01*
X216569884Y-84537159D01*
X216576595Y-84537159D01*
X216576595Y-84486357D01*
X216552020Y-84389774D01*
X216498926Y-84336880D01*
X216402754Y-84298003D01*
X216303057Y-84287103D01*
X216295227Y-84287055D01*
X216193179Y-84293319D01*
X216089636Y-84312112D01*
X216059777Y-84319783D01*
X215964950Y-84350815D01*
X215874154Y-84391522D01*
X215833608Y-84413572D01*
X215717837Y-84191800D01*
X215807011Y-84146011D01*
X215900573Y-84107380D01*
X215989435Y-84078471D01*
X216091025Y-84054832D01*
X216196309Y-84041005D01*
X216295227Y-84036950D01*
X216398542Y-84042812D01*
G37*
G36*
X218253078Y-85350000D02*
G01*
X217392854Y-85350000D01*
X217392854Y-85099895D01*
X217673245Y-85099895D01*
X217673245Y-83818108D01*
X217392854Y-83818108D01*
X217392854Y-83568004D01*
X217957544Y-83568004D01*
X217957544Y-85099895D01*
X218253078Y-85099895D01*
X218253078Y-85350000D01*
G37*
G36*
X123294048Y-77169015D02*
G01*
X123396710Y-77177056D01*
X123495500Y-77203517D01*
X123513867Y-77211024D01*
X123602771Y-77260606D01*
X123677021Y-77325330D01*
X123736128Y-77404098D01*
X123779603Y-77496789D01*
X123805199Y-77593002D01*
X123815123Y-77694797D01*
X123815263Y-77708791D01*
X123807926Y-77807475D01*
X123783616Y-77904554D01*
X123770810Y-77936914D01*
X123716013Y-78025836D01*
X123642015Y-78097403D01*
X123623288Y-78111304D01*
X123784000Y-78111304D01*
X123784000Y-78366782D01*
X123202702Y-78366782D01*
X123202702Y-78111304D01*
X123299883Y-78100454D01*
X123358040Y-78080529D01*
X123443642Y-78025494D01*
X123471369Y-77998463D01*
X123526019Y-77917107D01*
X123541222Y-77880738D01*
X123562820Y-77784123D01*
X123565158Y-77737612D01*
X123553938Y-77635498D01*
X123513638Y-77541922D01*
X123506540Y-77531960D01*
X123424162Y-77470594D01*
X123326923Y-77453390D01*
X123318961Y-77453313D01*
X123222317Y-77469115D01*
X123203678Y-77477249D01*
X123125336Y-77537884D01*
X123118193Y-77546126D01*
X123063521Y-77631904D01*
X123052736Y-77655546D01*
X123014288Y-77747750D01*
X122993141Y-77802092D01*
X122958337Y-77899789D01*
X122921936Y-77991380D01*
X122919380Y-77997486D01*
X122873584Y-78089688D01*
X122818263Y-78171876D01*
X122746185Y-78245365D01*
X122669764Y-78296928D01*
X122576784Y-78331289D01*
X122479880Y-78344052D01*
X122447014Y-78344800D01*
X122343194Y-78335354D01*
X122246886Y-78304458D01*
X122241362Y-78301813D01*
X122155416Y-78247624D01*
X122092862Y-78186530D01*
X122036914Y-78103236D01*
X122001515Y-78018980D01*
X121978434Y-77920306D01*
X121970771Y-77822475D01*
X121970741Y-77815770D01*
X121980652Y-77714363D01*
X122013267Y-77620654D01*
X122022520Y-77603767D01*
X122082726Y-77525121D01*
X122159785Y-77466991D01*
X122002004Y-77466991D01*
X122002004Y-77211513D01*
X122556435Y-77211513D01*
X122556435Y-77466991D01*
X122455879Y-77476804D01*
X122358323Y-77513702D01*
X122309750Y-77550034D01*
X122248975Y-77633635D01*
X122223016Y-77730856D01*
X122220845Y-77773271D01*
X122231878Y-77873463D01*
X122271507Y-77968504D01*
X122278487Y-77978924D01*
X122357621Y-78044887D01*
X122439687Y-78060501D01*
X122530545Y-78039496D01*
X122598933Y-77977458D01*
X122649797Y-77890424D01*
X122656575Y-77875365D01*
X122695384Y-77781059D01*
X122714704Y-77732239D01*
X122749931Y-77637306D01*
X122789666Y-77543017D01*
X122795304Y-77530494D01*
X122842052Y-77440771D01*
X122898030Y-77360278D01*
X122906191Y-77350243D01*
X122978731Y-77277825D01*
X123065437Y-77219817D01*
X123162137Y-77183352D01*
X123260877Y-77169808D01*
X123294048Y-77169015D01*
G37*
G36*
X123252527Y-76615072D02*
G01*
X123347186Y-76587503D01*
X123435161Y-76530970D01*
X123476254Y-76489043D01*
X123530430Y-76400108D01*
X123558125Y-76300722D01*
X123565158Y-76206698D01*
X123559113Y-76107802D01*
X123536780Y-76005447D01*
X123522171Y-75965874D01*
X123475188Y-75875929D01*
X123411349Y-75793711D01*
X123406889Y-75789043D01*
X123606679Y-75643474D01*
X123674390Y-75722147D01*
X123731791Y-75811993D01*
X123771299Y-75905302D01*
X123796329Y-76003287D01*
X123810969Y-76107159D01*
X123815263Y-76206698D01*
X123809433Y-76306367D01*
X123789775Y-76409567D01*
X123765926Y-76483181D01*
X123723130Y-76574062D01*
X123664519Y-76661819D01*
X123627684Y-76704465D01*
X123549887Y-76773580D01*
X123460964Y-76829313D01*
X123416170Y-76850522D01*
X123320366Y-76882670D01*
X123216868Y-76899981D01*
X123143595Y-76903278D01*
X123037578Y-76896478D01*
X122937881Y-76876076D01*
X122874928Y-76854918D01*
X122780392Y-76808699D01*
X122696821Y-76749419D01*
X122661948Y-76717654D01*
X122595133Y-76639695D01*
X122541540Y-76550288D01*
X122521264Y-76505163D01*
X122490604Y-76408534D01*
X122474095Y-76304761D01*
X122470950Y-76231611D01*
X122721055Y-76231611D01*
X122731908Y-76328812D01*
X122768162Y-76425276D01*
X122798235Y-76473411D01*
X122868932Y-76546303D01*
X122956398Y-76591140D01*
X123002422Y-76602371D01*
X123002422Y-75863292D01*
X122907217Y-75895019D01*
X122828781Y-75954479D01*
X122798235Y-75991276D01*
X122748264Y-76081842D01*
X122723768Y-76182083D01*
X122721055Y-76231611D01*
X122470950Y-76231611D01*
X122477242Y-76128279D01*
X122496117Y-76031873D01*
X122524195Y-75950243D01*
X122570494Y-75860507D01*
X122630257Y-75781074D01*
X122677579Y-75733844D01*
X122759370Y-75671630D01*
X122845449Y-75624378D01*
X122923776Y-75592671D01*
X123018430Y-75565881D01*
X123120430Y-75549013D01*
X123218511Y-75542315D01*
X123252527Y-75541869D01*
X123252527Y-76615072D01*
G37*
G36*
X123784000Y-74135030D02*
G01*
X123784000Y-74419329D01*
X122988256Y-74419329D01*
X122888101Y-74427297D01*
X122795167Y-74462712D01*
X122779184Y-74475993D01*
X122729229Y-74566058D01*
X122721055Y-74639147D01*
X122736293Y-74740753D01*
X122782008Y-74828621D01*
X122850015Y-74896579D01*
X122939946Y-74949130D01*
X123037362Y-74979784D01*
X123137058Y-74993797D01*
X123205632Y-74996230D01*
X123784000Y-74996230D01*
X123784000Y-75280529D01*
X122502213Y-75280529D01*
X122502213Y-74996230D01*
X122823148Y-74996230D01*
X122726243Y-74962561D01*
X122636287Y-74909106D01*
X122563762Y-74838449D01*
X122510921Y-74752623D01*
X122480014Y-74654328D01*
X122470950Y-74554151D01*
X122481074Y-74450415D01*
X122516069Y-74350924D01*
X122576061Y-74268035D01*
X122598933Y-74246405D01*
X122681820Y-74192566D01*
X122773793Y-74159502D01*
X122882985Y-74140359D01*
X122992653Y-74135030D01*
X123784000Y-74135030D01*
G37*
G36*
X123397607Y-72573830D02*
G01*
X123498573Y-72584676D01*
X123592210Y-72623632D01*
X123602283Y-72630494D01*
X123677435Y-72699280D01*
X123729778Y-72775086D01*
X123770688Y-72868753D01*
X123795511Y-72966104D01*
X123796700Y-72972923D01*
X123810024Y-73074324D01*
X123815190Y-73173364D01*
X123815263Y-73186391D01*
X123811360Y-73284605D01*
X123799652Y-73382510D01*
X123780139Y-73480106D01*
X123765926Y-73534193D01*
X123735503Y-73627792D01*
X123696081Y-73723180D01*
X123645884Y-73817638D01*
X123635988Y-73833634D01*
X123404446Y-73715421D01*
X123454392Y-73623563D01*
X123497762Y-73528249D01*
X123529010Y-73438938D01*
X123552414Y-73336458D01*
X123563887Y-73233818D01*
X123565158Y-73186391D01*
X123561580Y-73088341D01*
X123546231Y-72988119D01*
X123528521Y-72936775D01*
X123460968Y-72864349D01*
X123426428Y-72858128D01*
X123374160Y-72880110D01*
X123336058Y-72952895D01*
X123309955Y-73047508D01*
X123301376Y-73087228D01*
X123282277Y-73186904D01*
X123265928Y-73286173D01*
X123264739Y-73293858D01*
X123246177Y-73390089D01*
X123223706Y-73481436D01*
X123190047Y-73574258D01*
X123155318Y-73637263D01*
X123090594Y-73711032D01*
X123042967Y-73745218D01*
X122950109Y-73779071D01*
X122872485Y-73785763D01*
X122775643Y-73772574D01*
X122692234Y-73733006D01*
X122617950Y-73667197D01*
X122565228Y-73593788D01*
X122522363Y-73502563D01*
X122494821Y-73407502D01*
X122493420Y-73400836D01*
X122477292Y-73300436D01*
X122471038Y-73199822D01*
X122470950Y-73186391D01*
X122475510Y-73083657D01*
X122489190Y-72983001D01*
X122509540Y-72893299D01*
X122539660Y-72799670D01*
X122581472Y-72706877D01*
X122618961Y-72643683D01*
X122836337Y-72756523D01*
X122788741Y-72842476D01*
X122751654Y-72939248D01*
X122744990Y-72964618D01*
X122727810Y-73063708D01*
X122721265Y-73163940D01*
X122721055Y-73186391D01*
X122726207Y-73285510D01*
X122726916Y-73292392D01*
X122747413Y-73391059D01*
X122748410Y-73393997D01*
X122790908Y-73471666D01*
X122856854Y-73502441D01*
X122931920Y-73433626D01*
X122940385Y-73412560D01*
X122968595Y-73309510D01*
X122988745Y-73206022D01*
X123004865Y-73105302D01*
X123021080Y-73005886D01*
X123042189Y-72908291D01*
X123046875Y-72889880D01*
X123079102Y-72793935D01*
X123116240Y-72722329D01*
X123180315Y-72646614D01*
X123228103Y-72612909D01*
X123320852Y-72580279D01*
X123397607Y-72573830D01*
G37*
G36*
X122347852Y-71478645D02*
G01*
X122347852Y-71824981D01*
X122002004Y-71824981D01*
X122002004Y-71478645D01*
X122347852Y-71478645D01*
G37*
G36*
X123784000Y-71217793D02*
G01*
X123784000Y-72077528D01*
X123533895Y-72077528D01*
X123533895Y-71794695D01*
X122752318Y-71794695D01*
X122752318Y-72077528D01*
X122502213Y-72077528D01*
X122502213Y-71510396D01*
X123533895Y-71510396D01*
X123533895Y-71217793D01*
X123784000Y-71217793D01*
G37*
G36*
X123382464Y-69469992D02*
G01*
X123488909Y-69491437D01*
X123581829Y-69531043D01*
X123661226Y-69588810D01*
X123699491Y-69628749D01*
X123755455Y-69710821D01*
X123793103Y-69803711D01*
X123812436Y-69907421D01*
X123815263Y-69969713D01*
X123807105Y-70071207D01*
X123780422Y-70170003D01*
X123778138Y-70175853D01*
X123730039Y-70267403D01*
X123674090Y-70335588D01*
X123595922Y-70397384D01*
X123514355Y-70438170D01*
X123416658Y-70465281D01*
X123317082Y-70474283D01*
X123310168Y-70474318D01*
X122752318Y-70474318D01*
X122752318Y-70763990D01*
X122502213Y-70763990D01*
X122502213Y-70474318D01*
X122002004Y-70474318D01*
X122002004Y-70189531D01*
X122502213Y-70189531D01*
X122502213Y-69652685D01*
X122752318Y-69652685D01*
X122752318Y-70189531D01*
X123316030Y-70189531D01*
X123413964Y-70178031D01*
X123503609Y-70129447D01*
X123555000Y-70043913D01*
X123565158Y-69969713D01*
X123549809Y-69870122D01*
X123495304Y-69789950D01*
X123407051Y-69738602D01*
X123325800Y-69719608D01*
X123382464Y-69469992D01*
G37*
G36*
X122347852Y-68422678D02*
G01*
X122347852Y-68769015D01*
X122002004Y-68769015D01*
X122002004Y-68422678D01*
X122347852Y-68422678D01*
G37*
G36*
X123784000Y-68161827D02*
G01*
X123784000Y-69021562D01*
X123533895Y-69021562D01*
X123533895Y-68738729D01*
X122752318Y-68738729D01*
X122752318Y-69021562D01*
X122502213Y-69021562D01*
X122502213Y-68454430D01*
X123533895Y-68454430D01*
X123533895Y-68161827D01*
X123784000Y-68161827D01*
G37*
G36*
X122502213Y-66427703D02*
G01*
X123784000Y-66900068D01*
X123784000Y-67235170D01*
X122502213Y-67708024D01*
X122502213Y-67404186D01*
X123471857Y-67066642D01*
X122502213Y-66731052D01*
X122502213Y-66427703D01*
G37*
G36*
X122347852Y-65366712D02*
G01*
X122347852Y-65713048D01*
X122002004Y-65713048D01*
X122002004Y-65366712D01*
X122347852Y-65366712D01*
G37*
G36*
X123784000Y-65105860D02*
G01*
X123784000Y-65965595D01*
X123533895Y-65965595D01*
X123533895Y-65682762D01*
X122752318Y-65682762D01*
X122752318Y-65965595D01*
X122502213Y-65965595D01*
X122502213Y-65398463D01*
X123533895Y-65398463D01*
X123533895Y-65105860D01*
X123784000Y-65105860D01*
G37*
G36*
X123382464Y-63358059D02*
G01*
X123488909Y-63379504D01*
X123581829Y-63419110D01*
X123661226Y-63476877D01*
X123699491Y-63516816D01*
X123755455Y-63598888D01*
X123793103Y-63691778D01*
X123812436Y-63795488D01*
X123815263Y-63857779D01*
X123807105Y-63959274D01*
X123780422Y-64058070D01*
X123778138Y-64063920D01*
X123730039Y-64155470D01*
X123674090Y-64223655D01*
X123595922Y-64285451D01*
X123514355Y-64326237D01*
X123416658Y-64353348D01*
X123317082Y-64362350D01*
X123310168Y-64362385D01*
X122752318Y-64362385D01*
X122752318Y-64652057D01*
X122502213Y-64652057D01*
X122502213Y-64362385D01*
X122002004Y-64362385D01*
X122002004Y-64077598D01*
X122502213Y-64077598D01*
X122502213Y-63540752D01*
X122752318Y-63540752D01*
X122752318Y-64077598D01*
X123316030Y-64077598D01*
X123413964Y-64066098D01*
X123503609Y-64017514D01*
X123555000Y-63931980D01*
X123565158Y-63857779D01*
X123549809Y-63758189D01*
X123495304Y-63678017D01*
X123407051Y-63626669D01*
X123325800Y-63607675D01*
X123382464Y-63358059D01*
G37*
G36*
X122502213Y-61854500D02*
G01*
X124026777Y-62406977D01*
X124120114Y-62450979D01*
X124199313Y-62512164D01*
X124253923Y-62586740D01*
X124291429Y-62681788D01*
X124310603Y-62780140D01*
X124315472Y-62868596D01*
X124307126Y-62969652D01*
X124303748Y-62989740D01*
X124279270Y-63085206D01*
X124265158Y-63124074D01*
X123994537Y-63064967D01*
X124022907Y-62969010D01*
X124025311Y-62956523D01*
X124034104Y-62868596D01*
X124012786Y-62772225D01*
X123942633Y-62703625D01*
X123922729Y-62694207D01*
X123800608Y-62643404D01*
X122502213Y-63132378D01*
X122502213Y-62836844D01*
X123470880Y-62485135D01*
X122502213Y-62159803D01*
X122502213Y-61854500D01*
G37*
G36*
X93586713Y-85697536D02*
G01*
X93583815Y-85799026D01*
X93575121Y-85897966D01*
X93558664Y-86004908D01*
X93550077Y-86046803D01*
X93522857Y-86146886D01*
X93486383Y-86239526D01*
X93435572Y-86332836D01*
X93430398Y-86340872D01*
X93367592Y-86422742D01*
X93293357Y-86492375D01*
X93215953Y-86545059D01*
X93119196Y-86588444D01*
X93019514Y-86612258D01*
X92920257Y-86620965D01*
X92896972Y-86621263D01*
X92795705Y-86615157D01*
X92693791Y-86594053D01*
X92594578Y-86553428D01*
X92577990Y-86544082D01*
X92493922Y-86485132D01*
X92421051Y-86414408D01*
X92364522Y-86339895D01*
X92312914Y-86247903D01*
X92275514Y-86156159D01*
X92247178Y-86056687D01*
X92244843Y-86046315D01*
X92225781Y-85940756D01*
X92213779Y-85832908D01*
X92209013Y-85733886D01*
X92208695Y-85700467D01*
X92211555Y-85600630D01*
X92220133Y-85502802D01*
X92236371Y-85396461D01*
X92244843Y-85354619D01*
X92272273Y-85254232D01*
X92308766Y-85161286D01*
X92359377Y-85067641D01*
X92364522Y-85059574D01*
X92427213Y-84977310D01*
X92501102Y-84907168D01*
X92577990Y-84853921D01*
X92674527Y-84809980D01*
X92774209Y-84785861D01*
X92873629Y-84777042D01*
X92896972Y-84776741D01*
X92995885Y-84788776D01*
X93006392Y-84791395D01*
X93097840Y-84827253D01*
X93113859Y-84836336D01*
X93191242Y-84897529D01*
X93203741Y-84911074D01*
X93253689Y-84995477D01*
X93259428Y-85013168D01*
X93259428Y-84808004D01*
X93516372Y-84808004D01*
X93516372Y-85437662D01*
X93259428Y-85437662D01*
X93249124Y-85336263D01*
X93233050Y-85278904D01*
X93189392Y-85188804D01*
X93158800Y-85147990D01*
X93083741Y-85081621D01*
X93043517Y-85059085D01*
X92945496Y-85029994D01*
X92896972Y-85026845D01*
X92799385Y-85038439D01*
X92708466Y-85080083D01*
X92698646Y-85087418D01*
X92629404Y-85156905D01*
X92575060Y-85244221D01*
X92537672Y-85339591D01*
X92513816Y-85437898D01*
X92510091Y-85460132D01*
X92498073Y-85557613D01*
X92492181Y-85655578D01*
X92491529Y-85700956D01*
X92494592Y-85799144D01*
X92503783Y-85896848D01*
X92510091Y-85941779D01*
X92531476Y-86041917D01*
X92565801Y-86139039D01*
X92574083Y-86157201D01*
X92627694Y-86243785D01*
X92697669Y-86312051D01*
X92786574Y-86356381D01*
X92889442Y-86371100D01*
X92896972Y-86371158D01*
X92999382Y-86359995D01*
X93096826Y-86321931D01*
X93178339Y-86256852D01*
X93238875Y-86173104D01*
X93282019Y-86076684D01*
X93311351Y-85974239D01*
X93325374Y-85902212D01*
X92947774Y-85902212D01*
X92947774Y-85652107D01*
X93586713Y-85652107D01*
X93586713Y-85697536D01*
G37*
G36*
X94528195Y-84812744D02*
G01*
X94625058Y-84826963D01*
X94726301Y-84855534D01*
X94814875Y-84897007D01*
X94880712Y-84942826D01*
X94952306Y-85018053D01*
X95003444Y-85109399D01*
X95034127Y-85216866D01*
X95044195Y-85324123D01*
X95044355Y-85340453D01*
X95036305Y-85444352D01*
X95009972Y-85541927D01*
X95007718Y-85547571D01*
X94960626Y-85635382D01*
X94904648Y-85700956D01*
X94827858Y-85761502D01*
X94749798Y-85802561D01*
X94651720Y-85835769D01*
X94558311Y-85853852D01*
X95069268Y-86590000D01*
X94709254Y-86590000D01*
X94244704Y-85864598D01*
X94115743Y-85864598D01*
X94115743Y-86590000D01*
X93831445Y-86590000D01*
X93831445Y-85611563D01*
X94115743Y-85611563D01*
X94422024Y-85611563D01*
X94522753Y-85603482D01*
X94620960Y-85573094D01*
X94670175Y-85543175D01*
X94734689Y-85462610D01*
X94758652Y-85366915D01*
X94760056Y-85332637D01*
X94745222Y-85232477D01*
X94691241Y-85145158D01*
X94670175Y-85126985D01*
X94578439Y-85079901D01*
X94478971Y-85060530D01*
X94422024Y-85058108D01*
X94115743Y-85058108D01*
X94115743Y-85611563D01*
X93831445Y-85611563D01*
X93831445Y-84808004D01*
X94422024Y-84808004D01*
X94528195Y-84812744D01*
G37*
G36*
X96033776Y-84782846D02*
G01*
X96134793Y-84803950D01*
X96233791Y-84844575D01*
X96250426Y-84853921D01*
X96334935Y-84912871D01*
X96407785Y-84983595D01*
X96463894Y-85058108D01*
X96515282Y-85150158D01*
X96552682Y-85242055D01*
X96581209Y-85341774D01*
X96583573Y-85352177D01*
X96603151Y-85457478D01*
X96615477Y-85565164D01*
X96620372Y-85664121D01*
X96620698Y-85697536D01*
X96617761Y-85797335D01*
X96608952Y-85895047D01*
X96592274Y-86001168D01*
X96583573Y-86042896D01*
X96556077Y-86142863D01*
X96519994Y-86235771D01*
X96470385Y-86329815D01*
X96465360Y-86337941D01*
X96403666Y-86420483D01*
X96330082Y-86490787D01*
X96252868Y-86544082D01*
X96156111Y-86588024D01*
X96056430Y-86612143D01*
X95957172Y-86620961D01*
X95933887Y-86621263D01*
X95832346Y-86615157D01*
X95730126Y-86594053D01*
X95639069Y-86557875D01*
X95613929Y-86544082D01*
X95529698Y-86484902D01*
X95457011Y-86413484D01*
X95400949Y-86337941D01*
X95350233Y-86244674D01*
X95313444Y-86152472D01*
X95285528Y-86053210D01*
X95283224Y-86042896D01*
X95263904Y-85937804D01*
X95251740Y-85830137D01*
X95246910Y-85731034D01*
X95246597Y-85698513D01*
X95530887Y-85698513D01*
X95533950Y-85796627D01*
X95543141Y-85894902D01*
X95549449Y-85940314D01*
X95570647Y-86041453D01*
X95604356Y-86139026D01*
X95612464Y-86157201D01*
X95665586Y-86243785D01*
X95735074Y-86312051D01*
X95823612Y-86356381D01*
X95926358Y-86371100D01*
X95933887Y-86371158D01*
X96031233Y-86359845D01*
X96122336Y-86319209D01*
X96132212Y-86312051D01*
X96205361Y-86238910D01*
X96254334Y-86157201D01*
X96290670Y-86061861D01*
X96314125Y-85962805D01*
X96317837Y-85940314D01*
X96329855Y-85841964D01*
X96335747Y-85743776D01*
X96336399Y-85698513D01*
X96333336Y-85600325D01*
X96324145Y-85502621D01*
X96317837Y-85457690D01*
X96296546Y-85357459D01*
X96262528Y-85260029D01*
X96254334Y-85241779D01*
X96201211Y-85154462D01*
X96130747Y-85085952D01*
X96042209Y-85041622D01*
X95941237Y-85026903D01*
X95933887Y-85026845D01*
X95830572Y-85040910D01*
X95742096Y-85083105D01*
X95668456Y-85153430D01*
X95633957Y-85204654D01*
X95588864Y-85302015D01*
X95559976Y-85401482D01*
X95540952Y-85514272D01*
X95532497Y-85621554D01*
X95530887Y-85698513D01*
X95246597Y-85698513D01*
X95246588Y-85697536D01*
X95249640Y-85597935D01*
X95258798Y-85500266D01*
X95276134Y-85394011D01*
X95285178Y-85352177D01*
X95313400Y-85251675D01*
X95349826Y-85158996D01*
X95399372Y-85066085D01*
X95404369Y-85058108D01*
X95466062Y-84976679D01*
X95539647Y-84907025D01*
X95616860Y-84853921D01*
X95713606Y-84809980D01*
X95812677Y-84785861D01*
X95910896Y-84777042D01*
X95933887Y-84776741D01*
X96033776Y-84782846D01*
G37*
G36*
X98032910Y-85954968D02*
G01*
X98028927Y-86055729D01*
X98015498Y-86158013D01*
X97999205Y-86229497D01*
X97965692Y-86323232D01*
X97915897Y-86411015D01*
X97894669Y-86439057D01*
X97820244Y-86511636D01*
X97735480Y-86564076D01*
X97715395Y-86573391D01*
X97620754Y-86604386D01*
X97521801Y-86618972D01*
X97458940Y-86621263D01*
X97360976Y-86615606D01*
X97258447Y-86594335D01*
X97202485Y-86573391D01*
X97116131Y-86524117D01*
X97038758Y-86454930D01*
X97025164Y-86439057D01*
X96970627Y-86355870D01*
X96932544Y-86265899D01*
X96921117Y-86228032D01*
X96900577Y-86131060D01*
X96889518Y-86026256D01*
X96887411Y-85952037D01*
X96887411Y-84808004D01*
X97171710Y-84808004D01*
X97171710Y-85958876D01*
X97176505Y-86057853D01*
X97180991Y-86098094D01*
X97205129Y-86196018D01*
X97220070Y-86231451D01*
X97280429Y-86311135D01*
X97307509Y-86332079D01*
X97403851Y-86367342D01*
X97458940Y-86371158D01*
X97555939Y-86357381D01*
X97608416Y-86332079D01*
X97680315Y-86261646D01*
X97697809Y-86232916D01*
X97731844Y-86139283D01*
X97738842Y-86099071D01*
X97747657Y-86001323D01*
X97748612Y-85958876D01*
X97748612Y-84808004D01*
X98032910Y-84808004D01*
X98032910Y-85954968D01*
G37*
G36*
X99560893Y-86590000D02*
G01*
X99231166Y-86590000D01*
X98699693Y-85298443D01*
X98699693Y-86590000D01*
X98415395Y-86590000D01*
X98415395Y-84808004D01*
X98772478Y-84808004D01*
X99276595Y-86035568D01*
X99276595Y-84808004D01*
X99560893Y-84808004D01*
X99560893Y-86590000D01*
G37*
G36*
X100624322Y-84813800D02*
G01*
X100724347Y-84833835D01*
X100822694Y-84872404D01*
X100839261Y-84881277D01*
X100923885Y-84937088D01*
X100997081Y-85004444D01*
X101053706Y-85075694D01*
X101105881Y-85163992D01*
X101147550Y-85261641D01*
X101176316Y-85358527D01*
X101196924Y-85460785D01*
X101209899Y-85566668D01*
X101215051Y-85665062D01*
X101215395Y-85698513D01*
X101212381Y-85797728D01*
X101201962Y-85904794D01*
X101184102Y-86008521D01*
X101177293Y-86038988D01*
X101149348Y-86136227D01*
X101108360Y-86234374D01*
X101056637Y-86323286D01*
X100993830Y-86401357D01*
X100919595Y-86467653D01*
X100842191Y-86517704D01*
X100745723Y-86558864D01*
X100646805Y-86581457D01*
X100548642Y-86589717D01*
X100525653Y-86590000D01*
X99943378Y-86590000D01*
X99943378Y-86339895D01*
X100227676Y-86339895D01*
X100525653Y-86339895D01*
X100627744Y-86326641D01*
X100724773Y-86280827D01*
X100797335Y-86211614D01*
X100825094Y-86172344D01*
X100871470Y-86079654D01*
X100901179Y-85984325D01*
X100920744Y-85875719D01*
X100929440Y-85772061D01*
X100931096Y-85697536D01*
X100927369Y-85586184D01*
X100916189Y-85485136D01*
X100893726Y-85380270D01*
X100855632Y-85277597D01*
X100825094Y-85222728D01*
X100758750Y-85143151D01*
X100668628Y-85085277D01*
X100572753Y-85060681D01*
X100525653Y-85058108D01*
X100227676Y-85058108D01*
X100227676Y-86339895D01*
X99943378Y-86339895D01*
X99943378Y-84808004D01*
X100525653Y-84808004D01*
X100624322Y-84813800D01*
G37*
G36*
X159302004Y-72867939D02*
G01*
X161084000Y-73426767D01*
X161084000Y-73751121D01*
X159302004Y-74310437D01*
X159302004Y-74012461D01*
X160712750Y-73587967D01*
X159302004Y-73165915D01*
X159302004Y-72867939D01*
G37*
G36*
X160543463Y-71393426D02*
G01*
X160645038Y-71412305D01*
X160716170Y-71435210D01*
X160810228Y-71480562D01*
X160893160Y-71539618D01*
X160927684Y-71571498D01*
X160993153Y-71649140D01*
X161045884Y-71738392D01*
X161065926Y-71783501D01*
X161095990Y-71880244D01*
X161112179Y-71985093D01*
X161115263Y-72059495D01*
X161109433Y-72159479D01*
X161089775Y-72261443D01*
X161065926Y-72333047D01*
X161019073Y-72427737D01*
X160959483Y-72510980D01*
X160927684Y-72545538D01*
X160849887Y-72610604D01*
X160760964Y-72662126D01*
X160716170Y-72681337D01*
X160620366Y-72710211D01*
X160516868Y-72725759D01*
X160443595Y-72728720D01*
X160345998Y-72723121D01*
X160245191Y-72704242D01*
X160173462Y-72681337D01*
X160084917Y-72640030D01*
X160000000Y-72582257D01*
X159959017Y-72545538D01*
X159892444Y-72467580D01*
X159839576Y-72378173D01*
X159819799Y-72333047D01*
X159790031Y-72236647D01*
X159774003Y-72132829D01*
X159770970Y-72059984D01*
X160021055Y-72059984D01*
X160032593Y-72160754D01*
X160053783Y-72222161D01*
X160106837Y-72306300D01*
X160142688Y-72342817D01*
X160225875Y-72397894D01*
X160277510Y-72419021D01*
X160374582Y-72441453D01*
X160444572Y-72445887D01*
X160543181Y-72437386D01*
X160612611Y-72419021D01*
X160703562Y-72374081D01*
X160744990Y-72342817D01*
X160809064Y-72268595D01*
X160833895Y-72222161D01*
X160860762Y-72125151D01*
X160865158Y-72059984D01*
X160854136Y-71960029D01*
X160833895Y-71898783D01*
X160781281Y-71813151D01*
X160744990Y-71775685D01*
X160662194Y-71719315D01*
X160612611Y-71698016D01*
X160516844Y-71675583D01*
X160444572Y-71671149D01*
X160343258Y-71680620D01*
X160277510Y-71698016D01*
X160187750Y-71740949D01*
X160142688Y-71775685D01*
X160079055Y-71851620D01*
X160053783Y-71898783D01*
X160025657Y-71995412D01*
X160021055Y-72059984D01*
X159770970Y-72059984D01*
X159770950Y-72059495D01*
X159776722Y-71958120D01*
X159796185Y-71855298D01*
X159819799Y-71783501D01*
X159866341Y-71688891D01*
X159926588Y-71605890D01*
X159959017Y-71571498D01*
X160037770Y-71506116D01*
X160127970Y-71454439D01*
X160173462Y-71435210D01*
X160269839Y-71406336D01*
X160372123Y-71390789D01*
X160443595Y-71387827D01*
X160543463Y-71393426D01*
G37*
G36*
X161084000Y-70096271D02*
G01*
X161084000Y-70956494D01*
X160833895Y-70956494D01*
X160833895Y-70676104D01*
X159552108Y-70676104D01*
X159552108Y-70956494D01*
X159302004Y-70956494D01*
X159302004Y-70391805D01*
X160833895Y-70391805D01*
X160833895Y-70096271D01*
X161084000Y-70096271D01*
G37*
G36*
X159802213Y-69577988D02*
G01*
X159802213Y-69293689D01*
X160599422Y-69293689D01*
X160698684Y-69285789D01*
X160791068Y-69250679D01*
X160807028Y-69237513D01*
X160855564Y-69152487D01*
X160865158Y-69073870D01*
X160849977Y-68973042D01*
X160804435Y-68885489D01*
X160736686Y-68817415D01*
X160646498Y-68764350D01*
X160548932Y-68733395D01*
X160449166Y-68719244D01*
X160380580Y-68716787D01*
X159802213Y-68716787D01*
X159802213Y-68432489D01*
X161084000Y-68432489D01*
X161084000Y-68716787D01*
X160763064Y-68716787D01*
X160859292Y-68750504D01*
X160949054Y-68804122D01*
X161021962Y-68875057D01*
X161075081Y-68960605D01*
X161106151Y-69058737D01*
X161115263Y-69158867D01*
X161105100Y-69262602D01*
X161069971Y-69362093D01*
X161009750Y-69444983D01*
X160986791Y-69466613D01*
X160903784Y-69520451D01*
X160799292Y-69556670D01*
X160688376Y-69574072D01*
X160594048Y-69577988D01*
X159802213Y-69577988D01*
G37*
G36*
X161084000Y-66837094D02*
G01*
X161084000Y-67121393D01*
X160199840Y-67121393D01*
X160100564Y-67129387D01*
X160065018Y-67139956D01*
X160021055Y-67205413D01*
X160066539Y-67292960D01*
X160117286Y-67313368D01*
X160218319Y-67328729D01*
X160321315Y-67334763D01*
X160397677Y-67335838D01*
X161084000Y-67335838D01*
X161084000Y-67620137D01*
X160199840Y-67620137D01*
X160100564Y-67628552D01*
X160065018Y-67639676D01*
X160021055Y-67706599D01*
X160070768Y-67795076D01*
X160117286Y-67812112D01*
X160218319Y-67826471D01*
X160321315Y-67832112D01*
X160397677Y-67833117D01*
X161084000Y-67833117D01*
X161084000Y-68117415D01*
X159802213Y-68117415D01*
X159802213Y-67830186D01*
X159981976Y-67830186D01*
X159890873Y-67792695D01*
X159824683Y-67740793D01*
X159778506Y-67651454D01*
X159770950Y-67583012D01*
X159792198Y-67486230D01*
X159820287Y-67444771D01*
X159900389Y-67386828D01*
X159955109Y-67368567D01*
X159868863Y-67316738D01*
X159815891Y-67269404D01*
X159776260Y-67177461D01*
X159770950Y-67110158D01*
X159786993Y-67013390D01*
X159845375Y-66926579D01*
X159868159Y-66907925D01*
X159963271Y-66862065D01*
X160069567Y-66841521D01*
X160161739Y-66837094D01*
X161084000Y-66837094D01*
G37*
G36*
X160552527Y-66328581D02*
G01*
X160647186Y-66301012D01*
X160735161Y-66244479D01*
X160776254Y-66202552D01*
X160830430Y-66113617D01*
X160858125Y-66014231D01*
X160865158Y-65920207D01*
X160859113Y-65821311D01*
X160836780Y-65718956D01*
X160822171Y-65679383D01*
X160775188Y-65589438D01*
X160711349Y-65507220D01*
X160706889Y-65502552D01*
X160906679Y-65356983D01*
X160974390Y-65435656D01*
X161031791Y-65525502D01*
X161071299Y-65618811D01*
X161096329Y-65716796D01*
X161110969Y-65820668D01*
X161115263Y-65920207D01*
X161109433Y-66019876D01*
X161089775Y-66123076D01*
X161065926Y-66196690D01*
X161023130Y-66287571D01*
X160964519Y-66375328D01*
X160927684Y-66417974D01*
X160849887Y-66487089D01*
X160760964Y-66542822D01*
X160716170Y-66564031D01*
X160620366Y-66596179D01*
X160516868Y-66613490D01*
X160443595Y-66616787D01*
X160337578Y-66609987D01*
X160237881Y-66589585D01*
X160174928Y-66568427D01*
X160080392Y-66522208D01*
X159996821Y-66462928D01*
X159961948Y-66431163D01*
X159895133Y-66353204D01*
X159841540Y-66263797D01*
X159821264Y-66218672D01*
X159790604Y-66122043D01*
X159774095Y-66018270D01*
X159770950Y-65945120D01*
X160021055Y-65945120D01*
X160031908Y-66042321D01*
X160068162Y-66138785D01*
X160098235Y-66186920D01*
X160168932Y-66259812D01*
X160256398Y-66304649D01*
X160302422Y-66315880D01*
X160302422Y-65576801D01*
X160207217Y-65608528D01*
X160128781Y-65667988D01*
X160098235Y-65704785D01*
X160048264Y-65795351D01*
X160023768Y-65895592D01*
X160021055Y-65945120D01*
X159770950Y-65945120D01*
X159777242Y-65841788D01*
X159796117Y-65745382D01*
X159824195Y-65663752D01*
X159870494Y-65574016D01*
X159930257Y-65494583D01*
X159977579Y-65447353D01*
X160059370Y-65385139D01*
X160145449Y-65337887D01*
X160223776Y-65306180D01*
X160318430Y-65279390D01*
X160420430Y-65262522D01*
X160518511Y-65255824D01*
X160552527Y-65255378D01*
X160552527Y-66328581D01*
G37*
G36*
X175745081Y-82001557D02*
G01*
X175848099Y-82013249D01*
X175868471Y-82016566D01*
X175965200Y-82041052D01*
X176057493Y-82082787D01*
X176062889Y-82085931D01*
X176140680Y-82146381D01*
X176202107Y-82227103D01*
X176240675Y-82324090D01*
X176255001Y-82427245D01*
X176255840Y-82462554D01*
X176246086Y-82560808D01*
X176213503Y-82659963D01*
X176186475Y-82710216D01*
X176118427Y-82790785D01*
X176034861Y-82846839D01*
X175976915Y-82871416D01*
X176075843Y-82908844D01*
X176164939Y-82959603D01*
X176233370Y-83020404D01*
X176288086Y-83111101D01*
X176312596Y-83208624D01*
X176317878Y-83291514D01*
X176309907Y-83392002D01*
X176281277Y-83492821D01*
X176231826Y-83578680D01*
X176161553Y-83649579D01*
X176151304Y-83657390D01*
X176059500Y-83711031D01*
X175964795Y-83745396D01*
X175856673Y-83768026D01*
X175753318Y-83778084D01*
X175678939Y-83780000D01*
X175107411Y-83780000D01*
X175107411Y-83529895D01*
X175391709Y-83529895D01*
X175678939Y-83529895D01*
X175777227Y-83523503D01*
X175875779Y-83498956D01*
X175941744Y-83464438D01*
X176009414Y-83387723D01*
X176035193Y-83288427D01*
X176036022Y-83263670D01*
X176020462Y-83165339D01*
X175963840Y-83080732D01*
X175941744Y-83063391D01*
X175853125Y-83021326D01*
X175749284Y-83001531D01*
X175678939Y-82998422D01*
X175391709Y-82998422D01*
X175391709Y-83529895D01*
X175107411Y-83529895D01*
X175107411Y-82748318D01*
X175391709Y-82748318D01*
X175647187Y-82748318D01*
X175745887Y-82742406D01*
X175763935Y-82740013D01*
X175859667Y-82709717D01*
X175868471Y-82704842D01*
X175939025Y-82636807D01*
X175944675Y-82627662D01*
X175973047Y-82531455D01*
X175974473Y-82498213D01*
X175959079Y-82399598D01*
X175944675Y-82369253D01*
X175877109Y-82297316D01*
X175868471Y-82292072D01*
X175774732Y-82258137D01*
X175763935Y-82256413D01*
X175665622Y-82248311D01*
X175647187Y-82248108D01*
X175391709Y-82248108D01*
X175391709Y-82748318D01*
X175107411Y-82748318D01*
X175107411Y-81998004D01*
X175647187Y-81998004D01*
X175745081Y-82001557D01*
G37*
G36*
X177817041Y-82767857D02*
G01*
X177722955Y-82732815D01*
X177712993Y-82730244D01*
X177612491Y-82717377D01*
X177591360Y-82717055D01*
X177493980Y-82725464D01*
X177413551Y-82746852D01*
X177322860Y-82792334D01*
X177269937Y-82835757D01*
X177207479Y-82916451D01*
X177175659Y-82983768D01*
X177150746Y-83080854D01*
X177142572Y-83179229D01*
X177142442Y-83194305D01*
X177142442Y-83529895D01*
X177429183Y-83529895D01*
X177429183Y-83780000D01*
X176567983Y-83780000D01*
X176567983Y-83529895D01*
X176857655Y-83529895D01*
X176857655Y-82717055D01*
X176567983Y-82717055D01*
X176567983Y-82498213D01*
X177142442Y-82498213D01*
X177142442Y-82819148D01*
X177187028Y-82719813D01*
X177242202Y-82638330D01*
X177315923Y-82568731D01*
X177349071Y-82547062D01*
X177439565Y-82504815D01*
X177540077Y-82478216D01*
X177639103Y-82467654D01*
X177673914Y-82466950D01*
X177773510Y-82474367D01*
X177797501Y-82478185D01*
X177892848Y-82503922D01*
X177924019Y-82516775D01*
X177817041Y-82767857D01*
G37*
G36*
X178909295Y-82343852D02*
G01*
X178562958Y-82343852D01*
X178562958Y-81998004D01*
X178909295Y-81998004D01*
X178909295Y-82343852D01*
G37*
G36*
X179170146Y-83780000D02*
G01*
X178310411Y-83780000D01*
X178310411Y-83529895D01*
X178593244Y-83529895D01*
X178593244Y-82748318D01*
X178310411Y-82748318D01*
X178310411Y-82498213D01*
X178877543Y-82498213D01*
X178877543Y-83529895D01*
X179170146Y-83529895D01*
X179170146Y-83780000D01*
G37*
G36*
X180870076Y-83393607D02*
G01*
X180859230Y-83494573D01*
X180820274Y-83588210D01*
X180813412Y-83598283D01*
X180744626Y-83673435D01*
X180668820Y-83725778D01*
X180575153Y-83766688D01*
X180477802Y-83791511D01*
X180470983Y-83792700D01*
X180369582Y-83806024D01*
X180270542Y-83811190D01*
X180257515Y-83811263D01*
X180159301Y-83807360D01*
X180061396Y-83795652D01*
X179963800Y-83776139D01*
X179909713Y-83761926D01*
X179816114Y-83731503D01*
X179720726Y-83692081D01*
X179626268Y-83641884D01*
X179610272Y-83631988D01*
X179728485Y-83400446D01*
X179820343Y-83450392D01*
X179915657Y-83493762D01*
X180004968Y-83525010D01*
X180107448Y-83548414D01*
X180210088Y-83559887D01*
X180257515Y-83561158D01*
X180355565Y-83557580D01*
X180455787Y-83542231D01*
X180507131Y-83524521D01*
X180579557Y-83456968D01*
X180585778Y-83422428D01*
X180563796Y-83370160D01*
X180491011Y-83332058D01*
X180396398Y-83305955D01*
X180356678Y-83297376D01*
X180257002Y-83278277D01*
X180157733Y-83261928D01*
X180150048Y-83260739D01*
X180053817Y-83242177D01*
X179962470Y-83219706D01*
X179869648Y-83186047D01*
X179806643Y-83151318D01*
X179732874Y-83086594D01*
X179698688Y-83038967D01*
X179664835Y-82946109D01*
X179658143Y-82868485D01*
X179671332Y-82771643D01*
X179710900Y-82688234D01*
X179776709Y-82613950D01*
X179850118Y-82561228D01*
X179941343Y-82518363D01*
X180036404Y-82490821D01*
X180043070Y-82489420D01*
X180143470Y-82473292D01*
X180244084Y-82467038D01*
X180257515Y-82466950D01*
X180360249Y-82471510D01*
X180460905Y-82485190D01*
X180550607Y-82505540D01*
X180644236Y-82535660D01*
X180737029Y-82577472D01*
X180800223Y-82614961D01*
X180687383Y-82832337D01*
X180601430Y-82784741D01*
X180504658Y-82747654D01*
X180479288Y-82740990D01*
X180380198Y-82723810D01*
X180279966Y-82717265D01*
X180257515Y-82717055D01*
X180158396Y-82722207D01*
X180151514Y-82722916D01*
X180052847Y-82743413D01*
X180049909Y-82744410D01*
X179972240Y-82786908D01*
X179941465Y-82852854D01*
X180010280Y-82927920D01*
X180031346Y-82936385D01*
X180134396Y-82964595D01*
X180237884Y-82984745D01*
X180338604Y-83000865D01*
X180438020Y-83017080D01*
X180535615Y-83038189D01*
X180554026Y-83042875D01*
X180649971Y-83075102D01*
X180721577Y-83112240D01*
X180797292Y-83176315D01*
X180830997Y-83224103D01*
X180863627Y-83316852D01*
X180870076Y-83393607D01*
G37*
G36*
X182445931Y-83378464D02*
G01*
X182424486Y-83484909D01*
X182384880Y-83577829D01*
X182327113Y-83657226D01*
X182287173Y-83695491D01*
X182205102Y-83751455D01*
X182112211Y-83789103D01*
X182008502Y-83808436D01*
X181946210Y-83811263D01*
X181844716Y-83803105D01*
X181745920Y-83776422D01*
X181740069Y-83774138D01*
X181648520Y-83726039D01*
X181580334Y-83670090D01*
X181518539Y-83591922D01*
X181477752Y-83510355D01*
X181450642Y-83412658D01*
X181441640Y-83313082D01*
X181441605Y-83306168D01*
X181441605Y-82748318D01*
X181151933Y-82748318D01*
X181151933Y-82498213D01*
X181441605Y-82498213D01*
X181441605Y-81998004D01*
X181726392Y-81998004D01*
X181726392Y-82498213D01*
X182263237Y-82498213D01*
X182263237Y-82748318D01*
X181726392Y-82748318D01*
X181726392Y-83312030D01*
X181737892Y-83409964D01*
X181786475Y-83499609D01*
X181872010Y-83551000D01*
X181946210Y-83561158D01*
X182045801Y-83545809D01*
X182125973Y-83491304D01*
X182177321Y-83403051D01*
X182196315Y-83321800D01*
X182445931Y-83378464D01*
G37*
G36*
X183423161Y-82472722D02*
G01*
X183525983Y-82492185D01*
X183597780Y-82515799D01*
X183692390Y-82562341D01*
X183775391Y-82622588D01*
X183809783Y-82655017D01*
X183875165Y-82733770D01*
X183926842Y-82823970D01*
X183946071Y-82869462D01*
X183974945Y-82965839D01*
X183990492Y-83068123D01*
X183993454Y-83139595D01*
X183987855Y-83239463D01*
X183968976Y-83341038D01*
X183946071Y-83412170D01*
X183900719Y-83506228D01*
X183841663Y-83589160D01*
X183809783Y-83623684D01*
X183732141Y-83689153D01*
X183642889Y-83741884D01*
X183597780Y-83761926D01*
X183501037Y-83791990D01*
X183396188Y-83808179D01*
X183321786Y-83811263D01*
X183221802Y-83805433D01*
X183119838Y-83785775D01*
X183048234Y-83761926D01*
X182953544Y-83715073D01*
X182870301Y-83655483D01*
X182835743Y-83623684D01*
X182770677Y-83545887D01*
X182719155Y-83456964D01*
X182699944Y-83412170D01*
X182671070Y-83316366D01*
X182655522Y-83212868D01*
X182652600Y-83140572D01*
X182935394Y-83140572D01*
X182943895Y-83239181D01*
X182962260Y-83308611D01*
X183007200Y-83399562D01*
X183038464Y-83440990D01*
X183112686Y-83505064D01*
X183159120Y-83529895D01*
X183256130Y-83556762D01*
X183321297Y-83561158D01*
X183421252Y-83550136D01*
X183482498Y-83529895D01*
X183568130Y-83477281D01*
X183605596Y-83440990D01*
X183661966Y-83358194D01*
X183683265Y-83308611D01*
X183705698Y-83212844D01*
X183710132Y-83140572D01*
X183700661Y-83039258D01*
X183683265Y-82973510D01*
X183640332Y-82883750D01*
X183605596Y-82838688D01*
X183529661Y-82775055D01*
X183482498Y-82749783D01*
X183385869Y-82721657D01*
X183321297Y-82717055D01*
X183220527Y-82728593D01*
X183159120Y-82749783D01*
X183074981Y-82802837D01*
X183038464Y-82838688D01*
X182983387Y-82921875D01*
X182962260Y-82973510D01*
X182939828Y-83070582D01*
X182935394Y-83140572D01*
X182652600Y-83140572D01*
X182652561Y-83139595D01*
X182658160Y-83041998D01*
X182677039Y-82941191D01*
X182699944Y-82869462D01*
X182741251Y-82780917D01*
X182799024Y-82696000D01*
X182835743Y-82655017D01*
X182913701Y-82588444D01*
X183003108Y-82535576D01*
X183048234Y-82515799D01*
X183144634Y-82486031D01*
X183248452Y-82470003D01*
X183321786Y-82466950D01*
X183423161Y-82472722D01*
G37*
G36*
X185285010Y-83780000D02*
G01*
X184424787Y-83780000D01*
X184424787Y-83529895D01*
X184705177Y-83529895D01*
X184705177Y-82248108D01*
X184424787Y-82248108D01*
X184424787Y-81998004D01*
X184989476Y-81998004D01*
X184989476Y-83529895D01*
X185285010Y-83529895D01*
X185285010Y-83780000D01*
G37*
G36*
X176348164Y-86598269D02*
G01*
X176320160Y-86693684D01*
X176282846Y-86789143D01*
X176259748Y-86837138D01*
X176207202Y-86924386D01*
X176140526Y-87003756D01*
X176125903Y-87017878D01*
X176046269Y-87079273D01*
X175954828Y-87126070D01*
X175941744Y-87131207D01*
X175843957Y-87158589D01*
X175742607Y-87170285D01*
X175700921Y-87171263D01*
X175599654Y-87165157D01*
X175497740Y-87144053D01*
X175398527Y-87103428D01*
X175381939Y-87094082D01*
X175297871Y-87034902D01*
X175225000Y-86963484D01*
X175168471Y-86887941D01*
X175116863Y-86794674D01*
X175079463Y-86702472D01*
X175051127Y-86603210D01*
X175048792Y-86592896D01*
X175029730Y-86487804D01*
X175017728Y-86380137D01*
X175012962Y-86281034D01*
X175012644Y-86247536D01*
X175015504Y-86147935D01*
X175024082Y-86050266D01*
X175040320Y-85944011D01*
X175048792Y-85902177D01*
X175076079Y-85801675D01*
X175112143Y-85708996D01*
X175161951Y-85616085D01*
X175167006Y-85608108D01*
X175228621Y-85526679D01*
X175300626Y-85457025D01*
X175375101Y-85403921D01*
X175468720Y-85359980D01*
X175565348Y-85335861D01*
X175672949Y-85326816D01*
X175684312Y-85326741D01*
X175784750Y-85337173D01*
X175803503Y-85341395D01*
X175896450Y-85375528D01*
X175916343Y-85386336D01*
X175995156Y-85447529D01*
X176007690Y-85461074D01*
X176057638Y-85545477D01*
X176063377Y-85563168D01*
X176063377Y-85358004D01*
X176320321Y-85358004D01*
X176320321Y-86030160D01*
X176063377Y-86030160D01*
X176056144Y-85931248D01*
X176042861Y-85864563D01*
X176007484Y-85769843D01*
X175976915Y-85719972D01*
X175907191Y-85646932D01*
X175862609Y-85616901D01*
X175767393Y-85582478D01*
X175700921Y-85576845D01*
X175603334Y-85588159D01*
X175512415Y-85628795D01*
X175502595Y-85635952D01*
X175429520Y-85709368D01*
X175379009Y-85791779D01*
X175341621Y-85887148D01*
X175317765Y-85985456D01*
X175314040Y-86007690D01*
X175302022Y-86105171D01*
X175296130Y-86203135D01*
X175295478Y-86248513D01*
X175298541Y-86346627D01*
X175307732Y-86444902D01*
X175314040Y-86490314D01*
X175335425Y-86591453D01*
X175369750Y-86689026D01*
X175378032Y-86707201D01*
X175431643Y-86793785D01*
X175501618Y-86862051D01*
X175590523Y-86906381D01*
X175693391Y-86921100D01*
X175700921Y-86921158D01*
X175802043Y-86910281D01*
X175895095Y-86873193D01*
X175969099Y-86809783D01*
X176029471Y-86724151D01*
X176076640Y-86630575D01*
X176112811Y-86533550D01*
X176120041Y-86510341D01*
X176348164Y-86598269D01*
G37*
G36*
X177311228Y-85832722D02*
G01*
X177414050Y-85852185D01*
X177485847Y-85875799D01*
X177580457Y-85922341D01*
X177663458Y-85982588D01*
X177697850Y-86015017D01*
X177763232Y-86093770D01*
X177814909Y-86183970D01*
X177834138Y-86229462D01*
X177863012Y-86325839D01*
X177878559Y-86428123D01*
X177881521Y-86499595D01*
X177875922Y-86599463D01*
X177857043Y-86701038D01*
X177834138Y-86772170D01*
X177788786Y-86866228D01*
X177729730Y-86949160D01*
X177697850Y-86983684D01*
X177620208Y-87049153D01*
X177530956Y-87101884D01*
X177485847Y-87121926D01*
X177389104Y-87151990D01*
X177284255Y-87168179D01*
X177209853Y-87171263D01*
X177109869Y-87165433D01*
X177007905Y-87145775D01*
X176936301Y-87121926D01*
X176841611Y-87075073D01*
X176758368Y-87015483D01*
X176723810Y-86983684D01*
X176658744Y-86905887D01*
X176607222Y-86816964D01*
X176588011Y-86772170D01*
X176559137Y-86676366D01*
X176543589Y-86572868D01*
X176540667Y-86500572D01*
X176823461Y-86500572D01*
X176831962Y-86599181D01*
X176850327Y-86668611D01*
X176895267Y-86759562D01*
X176926531Y-86800990D01*
X177000753Y-86865064D01*
X177047187Y-86889895D01*
X177144197Y-86916762D01*
X177209364Y-86921158D01*
X177309319Y-86910136D01*
X177370565Y-86889895D01*
X177456197Y-86837281D01*
X177493663Y-86800990D01*
X177550033Y-86718194D01*
X177571332Y-86668611D01*
X177593765Y-86572844D01*
X177598199Y-86500572D01*
X177588728Y-86399258D01*
X177571332Y-86333510D01*
X177528399Y-86243750D01*
X177493663Y-86198688D01*
X177417728Y-86135055D01*
X177370565Y-86109783D01*
X177273936Y-86081657D01*
X177209364Y-86077055D01*
X177108594Y-86088593D01*
X177047187Y-86109783D01*
X176963048Y-86162837D01*
X176926531Y-86198688D01*
X176871454Y-86281875D01*
X176850327Y-86333510D01*
X176827895Y-86430582D01*
X176823461Y-86500572D01*
X176540667Y-86500572D01*
X176540628Y-86499595D01*
X176546227Y-86401998D01*
X176565106Y-86301191D01*
X176588011Y-86229462D01*
X176629318Y-86140917D01*
X176687091Y-86056000D01*
X176723810Y-86015017D01*
X176801768Y-85948444D01*
X176891175Y-85895576D01*
X176936301Y-85875799D01*
X177032701Y-85846031D01*
X177136519Y-85830003D01*
X177209853Y-85826950D01*
X177311228Y-85832722D01*
G37*
G36*
X179376287Y-87140000D02*
G01*
X179091988Y-87140000D01*
X179091988Y-86255840D01*
X179083994Y-86156564D01*
X179073426Y-86121018D01*
X179007969Y-86077055D01*
X178920421Y-86122539D01*
X178900013Y-86173286D01*
X178884653Y-86274319D01*
X178878618Y-86377315D01*
X178877543Y-86453677D01*
X178877543Y-87140000D01*
X178593244Y-87140000D01*
X178593244Y-86255840D01*
X178584830Y-86156564D01*
X178573705Y-86121018D01*
X178506782Y-86077055D01*
X178418306Y-86126768D01*
X178401270Y-86173286D01*
X178386911Y-86274319D01*
X178381270Y-86377315D01*
X178380265Y-86453677D01*
X178380265Y-87140000D01*
X178095966Y-87140000D01*
X178095966Y-85858213D01*
X178383196Y-85858213D01*
X178383196Y-86037976D01*
X178420687Y-85946873D01*
X178472588Y-85880683D01*
X178561928Y-85834506D01*
X178630369Y-85826950D01*
X178727151Y-85848198D01*
X178768611Y-85876287D01*
X178826554Y-85956389D01*
X178844815Y-86011109D01*
X178896643Y-85924863D01*
X178943977Y-85871891D01*
X179035920Y-85832260D01*
X179103224Y-85826950D01*
X179199991Y-85842993D01*
X179286803Y-85901375D01*
X179305457Y-85924159D01*
X179351317Y-86019271D01*
X179371860Y-86125567D01*
X179376287Y-86217739D01*
X179376287Y-87140000D01*
G37*
G36*
X180904270Y-87140000D02*
G01*
X180619972Y-87140000D01*
X180619972Y-86255840D01*
X180611977Y-86156564D01*
X180601409Y-86121018D01*
X180535952Y-86077055D01*
X180448404Y-86122539D01*
X180427997Y-86173286D01*
X180412636Y-86274319D01*
X180406602Y-86377315D01*
X180405526Y-86453677D01*
X180405526Y-87140000D01*
X180121228Y-87140000D01*
X180121228Y-86255840D01*
X180112813Y-86156564D01*
X180101688Y-86121018D01*
X180034766Y-86077055D01*
X179946289Y-86126768D01*
X179929253Y-86173286D01*
X179914894Y-86274319D01*
X179909253Y-86377315D01*
X179908248Y-86453677D01*
X179908248Y-87140000D01*
X179623949Y-87140000D01*
X179623949Y-85858213D01*
X179911179Y-85858213D01*
X179911179Y-86037976D01*
X179948670Y-85946873D01*
X180000572Y-85880683D01*
X180089911Y-85834506D01*
X180158353Y-85826950D01*
X180255134Y-85848198D01*
X180296594Y-85876287D01*
X180354537Y-85956389D01*
X180372798Y-86011109D01*
X180424626Y-85924863D01*
X180471960Y-85871891D01*
X180563904Y-85832260D01*
X180631207Y-85826950D01*
X180727975Y-85842993D01*
X180814786Y-85901375D01*
X180833440Y-85924159D01*
X180879300Y-86019271D01*
X180899843Y-86125567D01*
X180904270Y-86217739D01*
X180904270Y-87140000D01*
G37*
G36*
X181219344Y-85858213D02*
G01*
X181503642Y-85858213D01*
X181503642Y-86655422D01*
X181511542Y-86754684D01*
X181546652Y-86847068D01*
X181559818Y-86863028D01*
X181644845Y-86911564D01*
X181723461Y-86921158D01*
X181824290Y-86905977D01*
X181911843Y-86860435D01*
X181979916Y-86792686D01*
X182032981Y-86702498D01*
X182063936Y-86604932D01*
X182078087Y-86505166D01*
X182080544Y-86436580D01*
X182080544Y-85858213D01*
X182364842Y-85858213D01*
X182364842Y-87140000D01*
X182080544Y-87140000D01*
X182080544Y-86819064D01*
X182046827Y-86915292D01*
X181993209Y-87005054D01*
X181922274Y-87077962D01*
X181836726Y-87131081D01*
X181738594Y-87162151D01*
X181638464Y-87171263D01*
X181534729Y-87161100D01*
X181435238Y-87125971D01*
X181352348Y-87065750D01*
X181330718Y-87042791D01*
X181276880Y-86959784D01*
X181240661Y-86855292D01*
X181223259Y-86744376D01*
X181219344Y-86650048D01*
X181219344Y-85858213D01*
G37*
G36*
X183892826Y-87140000D02*
G01*
X183608527Y-87140000D01*
X183608527Y-86344256D01*
X183600559Y-86244101D01*
X183565143Y-86151167D01*
X183551863Y-86135184D01*
X183461798Y-86085229D01*
X183388709Y-86077055D01*
X183287103Y-86092293D01*
X183199235Y-86138008D01*
X183131277Y-86206015D01*
X183078726Y-86295946D01*
X183048072Y-86393362D01*
X183034058Y-86493058D01*
X183031625Y-86561632D01*
X183031625Y-87140000D01*
X182747327Y-87140000D01*
X182747327Y-85858213D01*
X183031625Y-85858213D01*
X183031625Y-86179148D01*
X183065295Y-86082243D01*
X183118750Y-85992287D01*
X183189406Y-85919762D01*
X183275233Y-85866921D01*
X183373527Y-85836014D01*
X183473705Y-85826950D01*
X183577440Y-85837074D01*
X183676931Y-85872069D01*
X183759821Y-85932061D01*
X183781451Y-85954933D01*
X183835289Y-86037820D01*
X183868354Y-86129793D01*
X183887496Y-86238985D01*
X183892826Y-86348653D01*
X183892826Y-87140000D01*
G37*
G36*
X184958457Y-85832812D02*
G01*
X185060307Y-85850397D01*
X185156172Y-85881416D01*
X185241535Y-85927578D01*
X185317936Y-85993769D01*
X185370006Y-86067285D01*
X185406277Y-86163394D01*
X185418178Y-86264120D01*
X185418367Y-86279776D01*
X185418367Y-87140000D01*
X185136510Y-87140000D01*
X185136510Y-86954863D01*
X185071178Y-87030714D01*
X184984723Y-87091569D01*
X184937697Y-87114598D01*
X184845327Y-87146859D01*
X184748223Y-87165729D01*
X184655840Y-87171263D01*
X184553968Y-87163225D01*
X184479009Y-87145861D01*
X184388317Y-87107322D01*
X184335394Y-87070635D01*
X184269448Y-86997972D01*
X184238674Y-86945582D01*
X184208491Y-86849489D01*
X184202526Y-86774612D01*
X184203963Y-86763866D01*
X184483893Y-86763866D01*
X184518309Y-86859716D01*
X184610322Y-86908716D01*
X184713568Y-86921004D01*
X184728625Y-86921158D01*
X184829031Y-86912762D01*
X184885429Y-86899665D01*
X184978539Y-86861820D01*
X185015366Y-86839581D01*
X185088996Y-86769743D01*
X185104270Y-86746769D01*
X185135377Y-86650447D01*
X185136510Y-86626113D01*
X185136510Y-86577264D01*
X185036249Y-86577264D01*
X185009993Y-86577264D01*
X184911189Y-86577264D01*
X184905457Y-86577264D01*
X184807546Y-86580622D01*
X184703103Y-86594266D01*
X184604093Y-86624491D01*
X184590383Y-86630997D01*
X184510516Y-86691081D01*
X184483893Y-86763866D01*
X184203963Y-86763866D01*
X184215728Y-86675858D01*
X184258913Y-86584008D01*
X184262609Y-86578729D01*
X184332585Y-86501793D01*
X184415267Y-86442531D01*
X184421367Y-86439023D01*
X184513130Y-86395292D01*
X184608050Y-86364396D01*
X184647048Y-86355003D01*
X184751046Y-86336975D01*
X184848476Y-86328492D01*
X184905945Y-86327159D01*
X185006850Y-86327159D01*
X185030509Y-86327159D01*
X185129799Y-86327159D01*
X185136510Y-86327159D01*
X185136510Y-86276357D01*
X185111935Y-86179774D01*
X185058841Y-86126880D01*
X184962669Y-86088003D01*
X184862972Y-86077103D01*
X184855143Y-86077055D01*
X184753095Y-86083319D01*
X184649551Y-86102112D01*
X184619692Y-86109783D01*
X184524866Y-86140815D01*
X184434070Y-86181522D01*
X184393524Y-86203572D01*
X184277752Y-85981800D01*
X184366927Y-85936011D01*
X184460488Y-85897380D01*
X184549351Y-85868471D01*
X184650940Y-85844832D01*
X184756224Y-85831005D01*
X184855143Y-85826950D01*
X184958457Y-85832812D01*
G37*
G36*
X186812993Y-87140000D02*
G01*
X185952770Y-87140000D01*
X185952770Y-86889895D01*
X186233161Y-86889895D01*
X186233161Y-85608108D01*
X185952770Y-85608108D01*
X185952770Y-85358004D01*
X186517459Y-85358004D01*
X186517459Y-86889895D01*
X186812993Y-86889895D01*
X186812993Y-87140000D01*
G37*
G36*
X176252909Y-90500000D02*
G01*
X175968611Y-90500000D01*
X175968611Y-89294417D01*
X175788848Y-89938729D01*
X175569030Y-89938729D01*
X175391709Y-89294417D01*
X175391709Y-90500000D01*
X175107411Y-90500000D01*
X175107411Y-88718004D01*
X175445443Y-88718004D01*
X175678939Y-89523517D01*
X175912435Y-88718004D01*
X176252909Y-88718004D01*
X176252909Y-90500000D01*
G37*
G36*
X177311228Y-89192722D02*
G01*
X177414050Y-89212185D01*
X177485847Y-89235799D01*
X177580457Y-89282341D01*
X177663458Y-89342588D01*
X177697850Y-89375017D01*
X177763232Y-89453770D01*
X177814909Y-89543970D01*
X177834138Y-89589462D01*
X177863012Y-89685839D01*
X177878559Y-89788123D01*
X177881521Y-89859595D01*
X177875922Y-89959463D01*
X177857043Y-90061038D01*
X177834138Y-90132170D01*
X177788786Y-90226228D01*
X177729730Y-90309160D01*
X177697850Y-90343684D01*
X177620208Y-90409153D01*
X177530956Y-90461884D01*
X177485847Y-90481926D01*
X177389104Y-90511990D01*
X177284255Y-90528179D01*
X177209853Y-90531263D01*
X177109869Y-90525433D01*
X177007905Y-90505775D01*
X176936301Y-90481926D01*
X176841611Y-90435073D01*
X176758368Y-90375483D01*
X176723810Y-90343684D01*
X176658744Y-90265887D01*
X176607222Y-90176964D01*
X176588011Y-90132170D01*
X176559137Y-90036366D01*
X176543589Y-89932868D01*
X176540667Y-89860572D01*
X176823461Y-89860572D01*
X176831962Y-89959181D01*
X176850327Y-90028611D01*
X176895267Y-90119562D01*
X176926531Y-90160990D01*
X177000753Y-90225064D01*
X177047187Y-90249895D01*
X177144197Y-90276762D01*
X177209364Y-90281158D01*
X177309319Y-90270136D01*
X177370565Y-90249895D01*
X177456197Y-90197281D01*
X177493663Y-90160990D01*
X177550033Y-90078194D01*
X177571332Y-90028611D01*
X177593765Y-89932844D01*
X177598199Y-89860572D01*
X177588728Y-89759258D01*
X177571332Y-89693510D01*
X177528399Y-89603750D01*
X177493663Y-89558688D01*
X177417728Y-89495055D01*
X177370565Y-89469783D01*
X177273936Y-89441657D01*
X177209364Y-89437055D01*
X177108594Y-89448593D01*
X177047187Y-89469783D01*
X176963048Y-89522837D01*
X176926531Y-89558688D01*
X176871454Y-89641875D01*
X176850327Y-89693510D01*
X176827895Y-89790582D01*
X176823461Y-89860572D01*
X176540667Y-89860572D01*
X176540628Y-89859595D01*
X176546227Y-89761998D01*
X176565106Y-89661191D01*
X176588011Y-89589462D01*
X176629318Y-89500917D01*
X176687091Y-89416000D01*
X176723810Y-89375017D01*
X176801768Y-89308444D01*
X176891175Y-89255576D01*
X176936301Y-89235799D01*
X177032701Y-89206031D01*
X177136519Y-89190003D01*
X177209853Y-89186950D01*
X177311228Y-89192722D01*
G37*
G36*
X179308876Y-90500000D02*
G01*
X179024577Y-90500000D01*
X179024577Y-90385694D01*
X178941657Y-90448220D01*
X178858004Y-90494138D01*
X178762634Y-90523105D01*
X178667494Y-90531263D01*
X178569982Y-90523120D01*
X178471461Y-90496139D01*
X178437906Y-90481926D01*
X178350858Y-90430942D01*
X178275217Y-90365185D01*
X178255701Y-90343684D01*
X178195287Y-90259254D01*
X178150407Y-90168967D01*
X178136022Y-90131193D01*
X178109827Y-90034839D01*
X178095722Y-89931891D01*
X178093071Y-89860572D01*
X178377822Y-89860572D01*
X178385782Y-89960915D01*
X178413298Y-90058994D01*
X178466265Y-90150572D01*
X178478450Y-90165387D01*
X178555010Y-90231299D01*
X178645654Y-90269852D01*
X178740279Y-90281158D01*
X178838964Y-90268325D01*
X178893175Y-90251360D01*
X178982285Y-90203008D01*
X179024577Y-90163921D01*
X179024577Y-89554291D01*
X178945066Y-89491059D01*
X178893175Y-89467341D01*
X178795897Y-89441314D01*
X178740279Y-89437055D01*
X178636831Y-89450965D01*
X178547468Y-89492698D01*
X178478450Y-89554780D01*
X178421159Y-89643807D01*
X178389713Y-89739367D01*
X178378215Y-89837281D01*
X178377822Y-89860572D01*
X178093071Y-89860572D01*
X178093035Y-89859595D01*
X178098115Y-89761998D01*
X178115242Y-89661191D01*
X178136022Y-89589462D01*
X178176747Y-89494220D01*
X178228275Y-89410909D01*
X178255701Y-89376482D01*
X178328083Y-89306077D01*
X178411871Y-89250445D01*
X178437906Y-89237264D01*
X178534023Y-89202870D01*
X178636872Y-89187736D01*
X178667494Y-89186950D01*
X178768611Y-89196109D01*
X178858004Y-89223586D01*
X178946861Y-89272333D01*
X179024577Y-89332519D01*
X179024577Y-88968108D01*
X178777404Y-88968108D01*
X178777404Y-88718004D01*
X179308876Y-88718004D01*
X179308876Y-90500000D01*
G37*
G36*
X179691360Y-89218213D02*
G01*
X179975659Y-89218213D01*
X179975659Y-90015422D01*
X179983559Y-90114684D01*
X180018669Y-90207068D01*
X180031835Y-90223028D01*
X180116861Y-90271564D01*
X180195478Y-90281158D01*
X180296306Y-90265977D01*
X180383859Y-90220435D01*
X180451933Y-90152686D01*
X180504998Y-90062498D01*
X180535953Y-89964932D01*
X180550104Y-89865166D01*
X180552561Y-89796580D01*
X180552561Y-89218213D01*
X180836859Y-89218213D01*
X180836859Y-90500000D01*
X180552561Y-90500000D01*
X180552561Y-90179064D01*
X180518844Y-90275292D01*
X180465226Y-90365054D01*
X180394291Y-90437962D01*
X180308743Y-90491081D01*
X180210611Y-90522151D01*
X180110481Y-90531263D01*
X180006746Y-90521100D01*
X179907255Y-90485971D01*
X179824365Y-90425750D01*
X179802735Y-90402791D01*
X179748897Y-90319784D01*
X179712678Y-90215292D01*
X179695276Y-90104376D01*
X179691360Y-90010048D01*
X179691360Y-89218213D01*
G37*
G36*
X182229043Y-90500000D02*
G01*
X181368820Y-90500000D01*
X181368820Y-90249895D01*
X181649211Y-90249895D01*
X181649211Y-88968108D01*
X181368820Y-88968108D01*
X181368820Y-88718004D01*
X181933510Y-88718004D01*
X181933510Y-90249895D01*
X182229043Y-90249895D01*
X182229043Y-90500000D01*
G37*
G36*
X183430474Y-89192812D02*
G01*
X183532323Y-89210397D01*
X183628189Y-89241416D01*
X183713551Y-89287578D01*
X183789952Y-89353769D01*
X183842023Y-89427285D01*
X183878293Y-89523394D01*
X183890194Y-89624120D01*
X183890383Y-89639776D01*
X183890383Y-90500000D01*
X183608527Y-90500000D01*
X183608527Y-90314863D01*
X183543194Y-90390714D01*
X183456740Y-90451569D01*
X183409713Y-90474598D01*
X183317343Y-90506859D01*
X183220240Y-90525729D01*
X183127857Y-90531263D01*
X183025985Y-90523225D01*
X182951025Y-90505861D01*
X182860334Y-90467322D01*
X182807411Y-90430635D01*
X182741465Y-90357972D01*
X182710690Y-90305582D01*
X182680508Y-90209489D01*
X182674542Y-90134612D01*
X182675979Y-90123866D01*
X182955910Y-90123866D01*
X182990326Y-90219716D01*
X183082339Y-90268716D01*
X183185585Y-90281004D01*
X183200642Y-90281158D01*
X183301048Y-90272762D01*
X183357445Y-90259665D01*
X183450555Y-90221820D01*
X183487383Y-90199581D01*
X183561013Y-90129743D01*
X183576287Y-90106769D01*
X183607394Y-90010447D01*
X183608527Y-89986113D01*
X183608527Y-89937264D01*
X183508266Y-89937264D01*
X183482009Y-89937264D01*
X183383205Y-89937264D01*
X183377473Y-89937264D01*
X183279562Y-89940622D01*
X183175120Y-89954266D01*
X183076110Y-89984491D01*
X183062400Y-89990997D01*
X182982533Y-90051081D01*
X182955910Y-90123866D01*
X182675979Y-90123866D01*
X182687744Y-90035858D01*
X182730930Y-89944008D01*
X182734626Y-89938729D01*
X182804602Y-89861793D01*
X182887284Y-89802531D01*
X182893384Y-89799023D01*
X182985147Y-89755292D01*
X183080067Y-89724396D01*
X183119064Y-89715003D01*
X183223063Y-89696975D01*
X183320493Y-89688492D01*
X183377962Y-89687159D01*
X183478867Y-89687159D01*
X183502526Y-89687159D01*
X183601816Y-89687159D01*
X183608527Y-89687159D01*
X183608527Y-89636357D01*
X183583952Y-89539774D01*
X183530858Y-89486880D01*
X183434686Y-89448003D01*
X183334989Y-89437103D01*
X183327159Y-89437055D01*
X183225112Y-89443319D01*
X183121568Y-89462112D01*
X183091709Y-89469783D01*
X182996882Y-89500815D01*
X182906087Y-89541522D01*
X182865540Y-89563572D01*
X182749769Y-89341800D01*
X182838944Y-89296011D01*
X182932505Y-89257380D01*
X183021367Y-89228471D01*
X183122957Y-89204832D01*
X183228241Y-89191005D01*
X183327159Y-89186950D01*
X183430474Y-89192812D01*
G37*
G36*
X185456957Y-89487857D02*
G01*
X185362871Y-89452815D01*
X185352909Y-89450244D01*
X185252407Y-89437377D01*
X185231277Y-89437055D01*
X185133896Y-89445464D01*
X185053468Y-89466852D01*
X184962776Y-89512334D01*
X184909853Y-89555757D01*
X184847395Y-89636451D01*
X184815575Y-89703768D01*
X184790662Y-89800854D01*
X184782488Y-89899229D01*
X184782358Y-89914305D01*
X184782358Y-90249895D01*
X185069099Y-90249895D01*
X185069099Y-90500000D01*
X184207899Y-90500000D01*
X184207899Y-90249895D01*
X184497571Y-90249895D01*
X184497571Y-89437055D01*
X184207899Y-89437055D01*
X184207899Y-89218213D01*
X184782358Y-89218213D01*
X184782358Y-89539148D01*
X184826944Y-89439813D01*
X184882118Y-89358330D01*
X184955839Y-89288731D01*
X184988988Y-89267062D01*
X185079482Y-89224815D01*
X185179993Y-89198216D01*
X185279019Y-89187654D01*
X185313831Y-89186950D01*
X185413426Y-89194367D01*
X185437418Y-89198185D01*
X185532764Y-89223922D01*
X185563935Y-89236775D01*
X185456957Y-89487857D01*
G37*
G36*
X175804161Y-92082744D02*
G01*
X175901024Y-92096963D01*
X176002267Y-92125534D01*
X176090841Y-92167007D01*
X176156678Y-92212826D01*
X176228271Y-92288053D01*
X176279410Y-92379399D01*
X176310093Y-92486866D01*
X176320161Y-92594123D01*
X176320321Y-92610453D01*
X176312271Y-92714352D01*
X176285938Y-92811927D01*
X176283684Y-92817571D01*
X176236591Y-92905382D01*
X176180614Y-92970956D01*
X176103824Y-93031502D01*
X176025764Y-93072561D01*
X175927686Y-93105769D01*
X175834277Y-93123852D01*
X176345233Y-93860000D01*
X175985219Y-93860000D01*
X175520669Y-93134598D01*
X175391709Y-93134598D01*
X175391709Y-93860000D01*
X175107411Y-93860000D01*
X175107411Y-92881563D01*
X175391709Y-92881563D01*
X175697990Y-92881563D01*
X175798719Y-92873482D01*
X175896926Y-92843094D01*
X175946140Y-92813175D01*
X176010655Y-92732610D01*
X176034617Y-92636915D01*
X176036022Y-92602637D01*
X176021188Y-92502477D01*
X175967206Y-92415158D01*
X175946140Y-92396985D01*
X175854404Y-92349901D01*
X175754936Y-92330530D01*
X175697990Y-92328108D01*
X175391709Y-92328108D01*
X175391709Y-92881563D01*
X175107411Y-92881563D01*
X175107411Y-92078004D01*
X175697990Y-92078004D01*
X175804161Y-92082744D01*
G37*
G36*
X177315627Y-92553242D02*
G01*
X177412033Y-92572117D01*
X177493663Y-92600195D01*
X177583399Y-92646494D01*
X177662832Y-92706257D01*
X177710062Y-92753579D01*
X177772276Y-92835370D01*
X177819528Y-92921449D01*
X177851235Y-92999776D01*
X177878025Y-93094430D01*
X177894893Y-93196430D01*
X177901591Y-93294511D01*
X177902037Y-93328527D01*
X176828834Y-93328527D01*
X176856403Y-93423186D01*
X176912936Y-93511161D01*
X176954863Y-93552254D01*
X177043798Y-93606430D01*
X177143184Y-93634125D01*
X177237208Y-93641158D01*
X177336104Y-93635113D01*
X177438459Y-93612780D01*
X177478032Y-93598171D01*
X177567977Y-93551188D01*
X177650195Y-93487349D01*
X177654863Y-93482889D01*
X177800432Y-93682679D01*
X177721759Y-93750390D01*
X177631913Y-93807791D01*
X177538604Y-93847299D01*
X177440619Y-93872329D01*
X177336747Y-93886969D01*
X177237208Y-93891263D01*
X177137539Y-93885433D01*
X177034339Y-93865775D01*
X176960725Y-93841926D01*
X176869844Y-93799130D01*
X176782087Y-93740519D01*
X176739441Y-93703684D01*
X176670326Y-93625887D01*
X176614593Y-93536964D01*
X176593384Y-93492170D01*
X176561236Y-93396366D01*
X176543925Y-93292868D01*
X176540628Y-93219595D01*
X176547428Y-93113578D01*
X176554622Y-93078422D01*
X176841535Y-93078422D01*
X177580614Y-93078422D01*
X177548887Y-92983217D01*
X177489427Y-92904781D01*
X177452630Y-92874235D01*
X177362064Y-92824264D01*
X177261823Y-92799768D01*
X177212295Y-92797055D01*
X177115094Y-92807908D01*
X177018630Y-92844162D01*
X176970495Y-92874235D01*
X176897603Y-92944932D01*
X176852766Y-93032398D01*
X176841535Y-93078422D01*
X176554622Y-93078422D01*
X176567830Y-93013881D01*
X176588988Y-92950928D01*
X176635207Y-92856392D01*
X176694487Y-92772821D01*
X176726252Y-92737948D01*
X176804211Y-92671133D01*
X176893618Y-92617540D01*
X176938743Y-92597264D01*
X177035372Y-92566604D01*
X177139145Y-92550095D01*
X177212295Y-92546950D01*
X177315627Y-92553242D01*
G37*
G36*
X179376287Y-92578213D02*
G01*
X178903921Y-93860000D01*
X178568820Y-93860000D01*
X178095966Y-92578213D01*
X178399804Y-92578213D01*
X178737348Y-93547857D01*
X179072937Y-92578213D01*
X179376287Y-92578213D01*
G37*
G36*
X182395129Y-92566001D02*
G01*
X182384003Y-92669287D01*
X182353984Y-92766201D01*
X182327718Y-92823433D01*
X182275648Y-92912214D01*
X182211456Y-92997878D01*
X182142581Y-93073049D01*
X181581800Y-93609895D01*
X182108387Y-93609895D01*
X182108387Y-93359790D01*
X182364842Y-93359790D01*
X182364842Y-93860000D01*
X181211039Y-93860000D01*
X181211039Y-93592798D01*
X181933510Y-92903545D01*
X182000851Y-92827688D01*
X182057516Y-92744970D01*
X182068820Y-92723782D01*
X182102789Y-92630720D01*
X182110830Y-92561116D01*
X182094432Y-92463896D01*
X182083963Y-92440949D01*
X182022830Y-92364114D01*
X182015087Y-92357906D01*
X181926501Y-92313341D01*
X181919832Y-92311500D01*
X181822841Y-92296974D01*
X181812854Y-92296845D01*
X181714231Y-92306529D01*
X181621945Y-92339551D01*
X181546629Y-92396008D01*
X181487690Y-92483340D01*
X181457559Y-92586808D01*
X181449909Y-92688122D01*
X181183684Y-92688122D01*
X181189351Y-92579089D01*
X181206353Y-92479501D01*
X181240513Y-92375252D01*
X181290101Y-92283860D01*
X181344884Y-92215757D01*
X181422375Y-92149900D01*
X181513797Y-92100218D01*
X181619151Y-92066712D01*
X181720542Y-92050867D01*
X181812854Y-92046741D01*
X181911856Y-92053192D01*
X182013780Y-92074423D01*
X182033649Y-92080446D01*
X182127337Y-92118456D01*
X182214730Y-92174144D01*
X182219762Y-92178143D01*
X182292058Y-92251172D01*
X182344752Y-92335164D01*
X182347745Y-92341297D01*
X182381756Y-92439815D01*
X182394712Y-92542611D01*
X182395129Y-92566001D01*
G37*
D11*
X133454819Y-54619047D02*
X133454819Y-54428571D01*
X133454819Y-54428571D02*
X133502438Y-54333333D01*
X133502438Y-54333333D02*
X133597676Y-54238095D01*
X133597676Y-54238095D02*
X133788152Y-54190476D01*
X133788152Y-54190476D02*
X134121485Y-54190476D01*
X134121485Y-54190476D02*
X134311961Y-54238095D01*
X134311961Y-54238095D02*
X134407200Y-54333333D01*
X134407200Y-54333333D02*
X134454819Y-54428571D01*
X134454819Y-54428571D02*
X134454819Y-54619047D01*
X134454819Y-54619047D02*
X134407200Y-54714285D01*
X134407200Y-54714285D02*
X134311961Y-54809523D01*
X134311961Y-54809523D02*
X134121485Y-54857142D01*
X134121485Y-54857142D02*
X133788152Y-54857142D01*
X133788152Y-54857142D02*
X133597676Y-54809523D01*
X133597676Y-54809523D02*
X133502438Y-54714285D01*
X133502438Y-54714285D02*
X133454819Y-54619047D01*
X134454819Y-53761904D02*
X133454819Y-53761904D01*
X133454819Y-53761904D02*
X134454819Y-53190476D01*
X134454819Y-53190476D02*
X133454819Y-53190476D01*
X119869819Y-54472744D02*
X119869819Y-54282268D01*
X119869819Y-54282268D02*
X119917438Y-54187030D01*
X119917438Y-54187030D02*
X120012676Y-54091792D01*
X120012676Y-54091792D02*
X120203152Y-54044173D01*
X120203152Y-54044173D02*
X120536485Y-54044173D01*
X120536485Y-54044173D02*
X120726961Y-54091792D01*
X120726961Y-54091792D02*
X120822200Y-54187030D01*
X120822200Y-54187030D02*
X120869819Y-54282268D01*
X120869819Y-54282268D02*
X120869819Y-54472744D01*
X120869819Y-54472744D02*
X120822200Y-54567982D01*
X120822200Y-54567982D02*
X120726961Y-54663220D01*
X120726961Y-54663220D02*
X120536485Y-54710839D01*
X120536485Y-54710839D02*
X120203152Y-54710839D01*
X120203152Y-54710839D02*
X120012676Y-54663220D01*
X120012676Y-54663220D02*
X119917438Y-54567982D01*
X119917438Y-54567982D02*
X119869819Y-54472744D01*
X120346009Y-53282268D02*
X120346009Y-53615601D01*
X120869819Y-53615601D02*
X119869819Y-53615601D01*
X119869819Y-53615601D02*
X119869819Y-53139411D01*
X120346009Y-52425125D02*
X120346009Y-52758458D01*
X120869819Y-52758458D02*
X119869819Y-52758458D01*
X119869819Y-52758458D02*
X119869819Y-52282268D01*
D12*
G36*
X190808946Y-89366769D02*
G01*
X190857794Y-89353091D01*
X190857794Y-89102986D01*
X191034078Y-89007694D01*
X191221777Y-88939405D01*
X191380474Y-88896845D01*
X191589416Y-88854599D01*
X191794924Y-88827999D01*
X191996996Y-88817047D01*
X192036999Y-88816734D01*
X192155022Y-88974908D01*
X192241300Y-89155434D01*
X192279288Y-89261256D01*
X192335603Y-89457404D01*
X192372285Y-89656110D01*
X192382847Y-89794682D01*
X192264833Y-89961959D01*
X192197222Y-90032086D01*
X192043723Y-90160478D01*
X191882637Y-90264605D01*
X191706840Y-90356242D01*
X191521631Y-90428920D01*
X191327012Y-90482638D01*
X191122981Y-90517397D01*
X190909539Y-90533196D01*
X190836301Y-90534249D01*
X190630191Y-90526556D01*
X190435376Y-90503475D01*
X190207744Y-90452985D01*
X189997762Y-90378453D01*
X189805430Y-90279878D01*
X189630749Y-90157260D01*
X189503712Y-90041856D01*
X189358764Y-89877106D01*
X189238384Y-89693657D01*
X189142571Y-89491508D01*
X189071326Y-89270659D01*
X189024648Y-89031110D01*
X189004994Y-88826007D01*
X189000572Y-88664326D01*
X189009151Y-88450156D01*
X189034888Y-88247770D01*
X189091188Y-88011360D01*
X189174297Y-87793364D01*
X189284216Y-87593781D01*
X189420944Y-87412612D01*
X189549630Y-87280935D01*
X189708788Y-87150856D01*
X189883403Y-87042721D01*
X190073473Y-86956530D01*
X190113342Y-86941926D01*
X190317476Y-86881647D01*
X190528097Y-86843694D01*
X190723203Y-86828625D01*
X190789406Y-86827620D01*
X190999737Y-86835801D01*
X191197807Y-86860345D01*
X191419309Y-86911395D01*
X191623156Y-86986008D01*
X191809349Y-87084182D01*
X191923670Y-87162721D01*
X192074074Y-87293914D01*
X192210216Y-87460950D01*
X192304002Y-87643040D01*
X192355433Y-87840183D01*
X192366238Y-87990216D01*
X192343913Y-88202841D01*
X192267783Y-88393311D01*
X192137627Y-88538297D01*
X191961965Y-88638973D01*
X191769013Y-88694233D01*
X191568274Y-88714438D01*
X191520181Y-88715129D01*
X191318738Y-88691945D01*
X191129175Y-88628472D01*
X191088360Y-88609616D01*
X190915436Y-88506545D01*
X190830439Y-88410314D01*
X190832393Y-88208813D01*
X190838255Y-88055673D01*
X190819692Y-88052742D01*
X190800153Y-88052742D01*
X190735673Y-88076189D01*
X190694640Y-88173886D01*
X190679133Y-88381154D01*
X190677055Y-88577376D01*
X190680275Y-88804789D01*
X190692639Y-89026805D01*
X190723551Y-89236488D01*
X190808946Y-89366769D01*
G37*
G36*
X193934277Y-87143182D02*
G01*
X193934277Y-89074654D01*
X193949888Y-89282743D01*
X194011366Y-89475365D01*
X194131625Y-89608080D01*
X194134556Y-89660837D01*
X194134556Y-89709685D01*
X194118791Y-89915688D01*
X194064295Y-90109594D01*
X193959388Y-90280355D01*
X193935254Y-90306615D01*
X193762422Y-90430446D01*
X193562958Y-90493751D01*
X193370565Y-90509825D01*
X193156986Y-90489885D01*
X192956210Y-90421889D01*
X192791221Y-90305638D01*
X192667487Y-90150271D01*
X192584248Y-89955646D01*
X192544253Y-89749688D01*
X192535254Y-89574863D01*
X192535254Y-86720153D01*
X192723588Y-86627417D01*
X192928333Y-86569028D01*
X193126633Y-86545844D01*
X193195687Y-86544298D01*
X193410334Y-86559754D01*
X193603470Y-86612459D01*
X193751584Y-86702568D01*
X193876472Y-86864802D01*
X193929817Y-87057978D01*
X193934277Y-87143182D01*
G37*
G36*
X195820423Y-87397821D02*
G01*
X196050041Y-87426489D01*
X196255686Y-87476658D01*
X196465305Y-87562363D01*
X196642292Y-87677334D01*
X196664912Y-87696147D01*
X196804239Y-87841752D01*
X196909346Y-88011854D01*
X196980232Y-88206453D01*
X197016897Y-88425548D01*
X197022484Y-88561744D01*
X197022484Y-89100055D01*
X197036394Y-89297961D01*
X197066448Y-89418548D01*
X197181745Y-89580580D01*
X197220809Y-89608080D01*
X197223740Y-89660837D01*
X197223740Y-89709685D01*
X197205038Y-89915748D01*
X197140390Y-90112440D01*
X197029565Y-90275167D01*
X196987313Y-90317362D01*
X196816633Y-90434644D01*
X196618201Y-90497796D01*
X196470495Y-90509825D01*
X196270460Y-90485157D01*
X196088499Y-90411151D01*
X195932616Y-90280732D01*
X195841325Y-90124898D01*
X195747536Y-90215757D01*
X195844256Y-90388681D01*
X195653224Y-90471494D01*
X195454589Y-90504028D01*
X195305945Y-90509825D01*
X195093074Y-90496595D01*
X194899838Y-90456904D01*
X194703039Y-90379144D01*
X194531886Y-90266822D01*
X194493105Y-90233342D01*
X194360603Y-90081423D01*
X194265959Y-89902149D01*
X194209173Y-89695519D01*
X194190540Y-89492279D01*
X194190244Y-89461535D01*
X194199418Y-89338436D01*
X195481800Y-89338436D01*
X195615645Y-89438087D01*
X195753398Y-89393147D01*
X195797362Y-89234877D01*
X195597083Y-89234877D01*
X195481800Y-89338436D01*
X194199418Y-89338436D01*
X194205624Y-89255155D01*
X194260869Y-89045625D01*
X194356292Y-88864184D01*
X194491892Y-88710830D01*
X194511667Y-88693635D01*
X194690759Y-88575096D01*
X194872919Y-88502297D01*
X195076694Y-88460150D01*
X195272728Y-88448415D01*
X195477111Y-88458093D01*
X195580474Y-88470886D01*
X195687941Y-88492379D01*
X195695757Y-88445484D01*
X195574612Y-88349741D01*
X195373825Y-88327702D01*
X195259050Y-88325317D01*
X195059016Y-88335758D01*
X194852077Y-88372466D01*
X194664304Y-88435604D01*
X194549769Y-88492379D01*
X194467612Y-88304617D01*
X194425612Y-88102571D01*
X194414947Y-87915966D01*
X194432513Y-87716619D01*
X194464773Y-87621898D01*
X194658690Y-87546324D01*
X194857351Y-87487797D01*
X194967913Y-87460697D01*
X195161666Y-87423603D01*
X195361907Y-87400247D01*
X195568636Y-87390630D01*
X195610760Y-87390355D01*
X195820423Y-87397821D01*
G37*
G36*
X198098129Y-90496147D02*
G01*
X197888821Y-90482179D01*
X197696296Y-90435078D01*
X197576427Y-90377934D01*
X197427496Y-90246928D01*
X197360477Y-90056762D01*
X197358562Y-90012547D01*
X197358562Y-88596915D01*
X197259735Y-88411214D01*
X197209213Y-88214678D01*
X197196385Y-88035157D01*
X197212222Y-87835106D01*
X197266229Y-87635327D01*
X197358562Y-87456789D01*
X197779637Y-87456789D01*
X197980812Y-87481494D01*
X198162304Y-87574392D01*
X198243698Y-87665861D01*
X198135987Y-87831382D01*
X198122554Y-87860279D01*
X198070774Y-88029295D01*
X198096175Y-88105498D01*
X198172379Y-88129923D01*
X198239991Y-87931124D01*
X198347381Y-87747942D01*
X198488737Y-87604450D01*
X198537766Y-87569141D01*
X198719392Y-87477459D01*
X198911468Y-87430589D01*
X199086824Y-87418688D01*
X199301998Y-87432366D01*
X199508268Y-87479650D01*
X199695275Y-87570671D01*
X199724787Y-87591612D01*
X199777921Y-87786338D01*
X199802925Y-87994708D01*
X199806852Y-88128946D01*
X199791960Y-88339755D01*
X199747284Y-88536942D01*
X199680823Y-88704382D01*
X199490748Y-88772360D01*
X199421926Y-88788401D01*
X199225642Y-88816952D01*
X199089755Y-88822595D01*
X198893903Y-88813436D01*
X198788848Y-88799148D01*
X198595408Y-88756161D01*
X198573914Y-88819665D01*
X198626671Y-88881214D01*
X198807411Y-88927131D01*
X198807411Y-90305638D01*
X198630044Y-90397730D01*
X198435368Y-90459683D01*
X198223380Y-90491496D01*
X198098129Y-90496147D01*
G37*
G36*
X201326633Y-87397821D02*
G01*
X201556252Y-87426489D01*
X201761897Y-87476658D01*
X201971516Y-87562363D01*
X202148503Y-87677334D01*
X202171123Y-87696147D01*
X202310450Y-87841752D01*
X202415557Y-88011854D01*
X202486442Y-88206453D01*
X202523107Y-88425548D01*
X202528695Y-88561744D01*
X202528695Y-89100055D01*
X202542605Y-89297961D01*
X202572658Y-89418548D01*
X202687956Y-89580580D01*
X202727020Y-89608080D01*
X202729951Y-89660837D01*
X202729951Y-89709685D01*
X202711249Y-89915748D01*
X202646601Y-90112440D01*
X202535776Y-90275167D01*
X202493524Y-90317362D01*
X202322844Y-90434644D01*
X202124412Y-90497796D01*
X201976706Y-90509825D01*
X201776671Y-90485157D01*
X201594710Y-90411151D01*
X201438827Y-90280732D01*
X201347536Y-90124898D01*
X201253747Y-90215757D01*
X201350467Y-90388681D01*
X201159435Y-90471494D01*
X200960800Y-90504028D01*
X200812156Y-90509825D01*
X200599285Y-90496595D01*
X200406049Y-90456904D01*
X200209250Y-90379144D01*
X200038097Y-90266822D01*
X199999316Y-90233342D01*
X199866814Y-90081423D01*
X199772170Y-89902149D01*
X199715383Y-89695519D01*
X199696750Y-89492279D01*
X199696454Y-89461535D01*
X199705628Y-89338436D01*
X200988011Y-89338436D01*
X201121856Y-89438087D01*
X201259609Y-89393147D01*
X201303572Y-89234877D01*
X201103293Y-89234877D01*
X200988011Y-89338436D01*
X199705628Y-89338436D01*
X199711835Y-89255155D01*
X199767080Y-89045625D01*
X199862502Y-88864184D01*
X199998103Y-88710830D01*
X200017878Y-88693635D01*
X200196970Y-88575096D01*
X200379129Y-88502297D01*
X200582904Y-88460150D01*
X200778939Y-88448415D01*
X200983321Y-88458093D01*
X201086685Y-88470886D01*
X201194152Y-88492379D01*
X201201967Y-88445484D01*
X201080823Y-88349741D01*
X200880036Y-88327702D01*
X200765261Y-88325317D01*
X200565226Y-88335758D01*
X200358288Y-88372466D01*
X200170515Y-88435604D01*
X200055980Y-88492379D01*
X199973823Y-88304617D01*
X199931823Y-88102571D01*
X199921158Y-87915966D01*
X199938723Y-87716619D01*
X199970983Y-87621898D01*
X200164901Y-87546324D01*
X200363562Y-87487797D01*
X200474124Y-87460697D01*
X200667877Y-87423603D01*
X200868118Y-87400247D01*
X201074847Y-87390630D01*
X201116971Y-87390355D01*
X201326633Y-87397821D01*
G37*
D11*
X180954819Y-108578094D02*
X179954819Y-108578094D01*
X179954819Y-108578094D02*
X179954819Y-108339999D01*
X179954819Y-108339999D02*
X180002438Y-108197142D01*
X180002438Y-108197142D02*
X180097676Y-108101904D01*
X180097676Y-108101904D02*
X180192914Y-108054285D01*
X180192914Y-108054285D02*
X180383390Y-108006666D01*
X180383390Y-108006666D02*
X180526247Y-108006666D01*
X180526247Y-108006666D02*
X180716723Y-108054285D01*
X180716723Y-108054285D02*
X180811961Y-108101904D01*
X180811961Y-108101904D02*
X180907200Y-108197142D01*
X180907200Y-108197142D02*
X180954819Y-108339999D01*
X180954819Y-108339999D02*
X180954819Y-108578094D01*
X180954819Y-107054285D02*
X180954819Y-107625713D01*
X180954819Y-107339999D02*
X179954819Y-107339999D01*
X179954819Y-107339999D02*
X180097676Y-107435237D01*
X180097676Y-107435237D02*
X180192914Y-107530475D01*
X180192914Y-107530475D02*
X180240533Y-107625713D01*
X138204819Y-133916666D02*
X137728628Y-134249999D01*
X138204819Y-134488094D02*
X137204819Y-134488094D01*
X137204819Y-134488094D02*
X137204819Y-134107142D01*
X137204819Y-134107142D02*
X137252438Y-134011904D01*
X137252438Y-134011904D02*
X137300057Y-133964285D01*
X137300057Y-133964285D02*
X137395295Y-133916666D01*
X137395295Y-133916666D02*
X137538152Y-133916666D01*
X137538152Y-133916666D02*
X137633390Y-133964285D01*
X137633390Y-133964285D02*
X137681009Y-134011904D01*
X137681009Y-134011904D02*
X137728628Y-134107142D01*
X137728628Y-134107142D02*
X137728628Y-134488094D01*
X138204819Y-133440475D02*
X138204819Y-133249999D01*
X138204819Y-133249999D02*
X138157200Y-133154761D01*
X138157200Y-133154761D02*
X138109580Y-133107142D01*
X138109580Y-133107142D02*
X137966723Y-133011904D01*
X137966723Y-133011904D02*
X137776247Y-132964285D01*
X137776247Y-132964285D02*
X137395295Y-132964285D01*
X137395295Y-132964285D02*
X137300057Y-133011904D01*
X137300057Y-133011904D02*
X137252438Y-133059523D01*
X137252438Y-133059523D02*
X137204819Y-133154761D01*
X137204819Y-133154761D02*
X137204819Y-133345237D01*
X137204819Y-133345237D02*
X137252438Y-133440475D01*
X137252438Y-133440475D02*
X137300057Y-133488094D01*
X137300057Y-133488094D02*
X137395295Y-133535713D01*
X137395295Y-133535713D02*
X137633390Y-133535713D01*
X137633390Y-133535713D02*
X137728628Y-133488094D01*
X137728628Y-133488094D02*
X137776247Y-133440475D01*
X137776247Y-133440475D02*
X137823866Y-133345237D01*
X137823866Y-133345237D02*
X137823866Y-133154761D01*
X137823866Y-133154761D02*
X137776247Y-133059523D01*
X137776247Y-133059523D02*
X137728628Y-133011904D01*
X137728628Y-133011904D02*
X137633390Y-132964285D01*
X97011905Y-63494819D02*
X97011905Y-62494819D01*
X97011905Y-62494819D02*
X97250000Y-62494819D01*
X97250000Y-62494819D02*
X97392857Y-62542438D01*
X97392857Y-62542438D02*
X97488095Y-62637676D01*
X97488095Y-62637676D02*
X97535714Y-62732914D01*
X97535714Y-62732914D02*
X97583333Y-62923390D01*
X97583333Y-62923390D02*
X97583333Y-63066247D01*
X97583333Y-63066247D02*
X97535714Y-63256723D01*
X97535714Y-63256723D02*
X97488095Y-63351961D01*
X97488095Y-63351961D02*
X97392857Y-63447200D01*
X97392857Y-63447200D02*
X97250000Y-63494819D01*
X97250000Y-63494819D02*
X97011905Y-63494819D01*
X97916667Y-62494819D02*
X98535714Y-62494819D01*
X98535714Y-62494819D02*
X98202381Y-62875771D01*
X98202381Y-62875771D02*
X98345238Y-62875771D01*
X98345238Y-62875771D02*
X98440476Y-62923390D01*
X98440476Y-62923390D02*
X98488095Y-62971009D01*
X98488095Y-62971009D02*
X98535714Y-63066247D01*
X98535714Y-63066247D02*
X98535714Y-63304342D01*
X98535714Y-63304342D02*
X98488095Y-63399580D01*
X98488095Y-63399580D02*
X98440476Y-63447200D01*
X98440476Y-63447200D02*
X98345238Y-63494819D01*
X98345238Y-63494819D02*
X98059524Y-63494819D01*
X98059524Y-63494819D02*
X97964286Y-63447200D01*
X97964286Y-63447200D02*
X97916667Y-63399580D01*
X188933333Y-96836819D02*
X188600000Y-96360628D01*
X188361905Y-96836819D02*
X188361905Y-95836819D01*
X188361905Y-95836819D02*
X188742857Y-95836819D01*
X188742857Y-95836819D02*
X188838095Y-95884438D01*
X188838095Y-95884438D02*
X188885714Y-95932057D01*
X188885714Y-95932057D02*
X188933333Y-96027295D01*
X188933333Y-96027295D02*
X188933333Y-96170152D01*
X188933333Y-96170152D02*
X188885714Y-96265390D01*
X188885714Y-96265390D02*
X188838095Y-96313009D01*
X188838095Y-96313009D02*
X188742857Y-96360628D01*
X188742857Y-96360628D02*
X188361905Y-96360628D01*
X189314286Y-95932057D02*
X189361905Y-95884438D01*
X189361905Y-95884438D02*
X189457143Y-95836819D01*
X189457143Y-95836819D02*
X189695238Y-95836819D01*
X189695238Y-95836819D02*
X189790476Y-95884438D01*
X189790476Y-95884438D02*
X189838095Y-95932057D01*
X189838095Y-95932057D02*
X189885714Y-96027295D01*
X189885714Y-96027295D02*
X189885714Y-96122533D01*
X189885714Y-96122533D02*
X189838095Y-96265390D01*
X189838095Y-96265390D02*
X189266667Y-96836819D01*
X189266667Y-96836819D02*
X189885714Y-96836819D01*
X149654819Y-72095238D02*
X149178628Y-72428571D01*
X149654819Y-72666666D02*
X148654819Y-72666666D01*
X148654819Y-72666666D02*
X148654819Y-72285714D01*
X148654819Y-72285714D02*
X148702438Y-72190476D01*
X148702438Y-72190476D02*
X148750057Y-72142857D01*
X148750057Y-72142857D02*
X148845295Y-72095238D01*
X148845295Y-72095238D02*
X148988152Y-72095238D01*
X148988152Y-72095238D02*
X149083390Y-72142857D01*
X149083390Y-72142857D02*
X149131009Y-72190476D01*
X149131009Y-72190476D02*
X149178628Y-72285714D01*
X149178628Y-72285714D02*
X149178628Y-72666666D01*
X148654819Y-71809523D02*
X149654819Y-71476190D01*
X149654819Y-71476190D02*
X148654819Y-71142857D01*
X149654819Y-70285714D02*
X149654819Y-70857142D01*
X149654819Y-70571428D02*
X148654819Y-70571428D01*
X148654819Y-70571428D02*
X148797676Y-70666666D01*
X148797676Y-70666666D02*
X148892914Y-70761904D01*
X148892914Y-70761904D02*
X148940533Y-70857142D01*
X192454819Y-120256666D02*
X191978628Y-120589999D01*
X192454819Y-120828094D02*
X191454819Y-120828094D01*
X191454819Y-120828094D02*
X191454819Y-120447142D01*
X191454819Y-120447142D02*
X191502438Y-120351904D01*
X191502438Y-120351904D02*
X191550057Y-120304285D01*
X191550057Y-120304285D02*
X191645295Y-120256666D01*
X191645295Y-120256666D02*
X191788152Y-120256666D01*
X191788152Y-120256666D02*
X191883390Y-120304285D01*
X191883390Y-120304285D02*
X191931009Y-120351904D01*
X191931009Y-120351904D02*
X191978628Y-120447142D01*
X191978628Y-120447142D02*
X191978628Y-120828094D01*
X191883390Y-119685237D02*
X191835771Y-119780475D01*
X191835771Y-119780475D02*
X191788152Y-119828094D01*
X191788152Y-119828094D02*
X191692914Y-119875713D01*
X191692914Y-119875713D02*
X191645295Y-119875713D01*
X191645295Y-119875713D02*
X191550057Y-119828094D01*
X191550057Y-119828094D02*
X191502438Y-119780475D01*
X191502438Y-119780475D02*
X191454819Y-119685237D01*
X191454819Y-119685237D02*
X191454819Y-119494761D01*
X191454819Y-119494761D02*
X191502438Y-119399523D01*
X191502438Y-119399523D02*
X191550057Y-119351904D01*
X191550057Y-119351904D02*
X191645295Y-119304285D01*
X191645295Y-119304285D02*
X191692914Y-119304285D01*
X191692914Y-119304285D02*
X191788152Y-119351904D01*
X191788152Y-119351904D02*
X191835771Y-119399523D01*
X191835771Y-119399523D02*
X191883390Y-119494761D01*
X191883390Y-119494761D02*
X191883390Y-119685237D01*
X191883390Y-119685237D02*
X191931009Y-119780475D01*
X191931009Y-119780475D02*
X191978628Y-119828094D01*
X191978628Y-119828094D02*
X192073866Y-119875713D01*
X192073866Y-119875713D02*
X192264342Y-119875713D01*
X192264342Y-119875713D02*
X192359580Y-119828094D01*
X192359580Y-119828094D02*
X192407200Y-119780475D01*
X192407200Y-119780475D02*
X192454819Y-119685237D01*
X192454819Y-119685237D02*
X192454819Y-119494761D01*
X192454819Y-119494761D02*
X192407200Y-119399523D01*
X192407200Y-119399523D02*
X192359580Y-119351904D01*
X192359580Y-119351904D02*
X192264342Y-119304285D01*
X192264342Y-119304285D02*
X192073866Y-119304285D01*
X192073866Y-119304285D02*
X191978628Y-119351904D01*
X191978628Y-119351904D02*
X191931009Y-119399523D01*
X191931009Y-119399523D02*
X191883390Y-119494761D01*
X189296819Y-120416666D02*
X188820628Y-120749999D01*
X189296819Y-120988094D02*
X188296819Y-120988094D01*
X188296819Y-120988094D02*
X188296819Y-120607142D01*
X188296819Y-120607142D02*
X188344438Y-120511904D01*
X188344438Y-120511904D02*
X188392057Y-120464285D01*
X188392057Y-120464285D02*
X188487295Y-120416666D01*
X188487295Y-120416666D02*
X188630152Y-120416666D01*
X188630152Y-120416666D02*
X188725390Y-120464285D01*
X188725390Y-120464285D02*
X188773009Y-120511904D01*
X188773009Y-120511904D02*
X188820628Y-120607142D01*
X188820628Y-120607142D02*
X188820628Y-120988094D01*
X188296819Y-120083332D02*
X188296819Y-119416666D01*
X188296819Y-119416666D02*
X189296819Y-119845237D01*
X148688095Y-135204819D02*
X148688095Y-136014342D01*
X148688095Y-136014342D02*
X148735714Y-136109580D01*
X148735714Y-136109580D02*
X148783333Y-136157200D01*
X148783333Y-136157200D02*
X148878571Y-136204819D01*
X148878571Y-136204819D02*
X149069047Y-136204819D01*
X149069047Y-136204819D02*
X149164285Y-136157200D01*
X149164285Y-136157200D02*
X149211904Y-136109580D01*
X149211904Y-136109580D02*
X149259523Y-136014342D01*
X149259523Y-136014342D02*
X149259523Y-135204819D01*
X149640476Y-135204819D02*
X150259523Y-135204819D01*
X150259523Y-135204819D02*
X149926190Y-135585771D01*
X149926190Y-135585771D02*
X150069047Y-135585771D01*
X150069047Y-135585771D02*
X150164285Y-135633390D01*
X150164285Y-135633390D02*
X150211904Y-135681009D01*
X150211904Y-135681009D02*
X150259523Y-135776247D01*
X150259523Y-135776247D02*
X150259523Y-136014342D01*
X150259523Y-136014342D02*
X150211904Y-136109580D01*
X150211904Y-136109580D02*
X150164285Y-136157200D01*
X150164285Y-136157200D02*
X150069047Y-136204819D01*
X150069047Y-136204819D02*
X149783333Y-136204819D01*
X149783333Y-136204819D02*
X149688095Y-136157200D01*
X149688095Y-136157200D02*
X149640476Y-136109580D01*
X165624819Y-83083333D02*
X166339104Y-83083333D01*
X166339104Y-83083333D02*
X166481961Y-83130952D01*
X166481961Y-83130952D02*
X166577200Y-83226190D01*
X166577200Y-83226190D02*
X166624819Y-83369047D01*
X166624819Y-83369047D02*
X166624819Y-83464285D01*
X165624819Y-82702380D02*
X165624819Y-82083333D01*
X165624819Y-82083333D02*
X166005771Y-82416666D01*
X166005771Y-82416666D02*
X166005771Y-82273809D01*
X166005771Y-82273809D02*
X166053390Y-82178571D01*
X166053390Y-82178571D02*
X166101009Y-82130952D01*
X166101009Y-82130952D02*
X166196247Y-82083333D01*
X166196247Y-82083333D02*
X166434342Y-82083333D01*
X166434342Y-82083333D02*
X166529580Y-82130952D01*
X166529580Y-82130952D02*
X166577200Y-82178571D01*
X166577200Y-82178571D02*
X166624819Y-82273809D01*
X166624819Y-82273809D02*
X166624819Y-82559523D01*
X166624819Y-82559523D02*
X166577200Y-82654761D01*
X166577200Y-82654761D02*
X166529580Y-82702380D01*
X113277142Y-67954819D02*
X112943809Y-67478628D01*
X112705714Y-67954819D02*
X112705714Y-66954819D01*
X112705714Y-66954819D02*
X113086666Y-66954819D01*
X113086666Y-66954819D02*
X113181904Y-67002438D01*
X113181904Y-67002438D02*
X113229523Y-67050057D01*
X113229523Y-67050057D02*
X113277142Y-67145295D01*
X113277142Y-67145295D02*
X113277142Y-67288152D01*
X113277142Y-67288152D02*
X113229523Y-67383390D01*
X113229523Y-67383390D02*
X113181904Y-67431009D01*
X113181904Y-67431009D02*
X113086666Y-67478628D01*
X113086666Y-67478628D02*
X112705714Y-67478628D01*
X114229523Y-67954819D02*
X113658095Y-67954819D01*
X113943809Y-67954819D02*
X113943809Y-66954819D01*
X113943809Y-66954819D02*
X113848571Y-67097676D01*
X113848571Y-67097676D02*
X113753333Y-67192914D01*
X113753333Y-67192914D02*
X113658095Y-67240533D01*
X114848571Y-66954819D02*
X114943809Y-66954819D01*
X114943809Y-66954819D02*
X115039047Y-67002438D01*
X115039047Y-67002438D02*
X115086666Y-67050057D01*
X115086666Y-67050057D02*
X115134285Y-67145295D01*
X115134285Y-67145295D02*
X115181904Y-67335771D01*
X115181904Y-67335771D02*
X115181904Y-67573866D01*
X115181904Y-67573866D02*
X115134285Y-67764342D01*
X115134285Y-67764342D02*
X115086666Y-67859580D01*
X115086666Y-67859580D02*
X115039047Y-67907200D01*
X115039047Y-67907200D02*
X114943809Y-67954819D01*
X114943809Y-67954819D02*
X114848571Y-67954819D01*
X114848571Y-67954819D02*
X114753333Y-67907200D01*
X114753333Y-67907200D02*
X114705714Y-67859580D01*
X114705714Y-67859580D02*
X114658095Y-67764342D01*
X114658095Y-67764342D02*
X114610476Y-67573866D01*
X114610476Y-67573866D02*
X114610476Y-67335771D01*
X114610476Y-67335771D02*
X114658095Y-67145295D01*
X114658095Y-67145295D02*
X114705714Y-67050057D01*
X114705714Y-67050057D02*
X114753333Y-67002438D01*
X114753333Y-67002438D02*
X114848571Y-66954819D01*
X204333333Y-108359580D02*
X204285714Y-108407200D01*
X204285714Y-108407200D02*
X204142857Y-108454819D01*
X204142857Y-108454819D02*
X204047619Y-108454819D01*
X204047619Y-108454819D02*
X203904762Y-108407200D01*
X203904762Y-108407200D02*
X203809524Y-108311961D01*
X203809524Y-108311961D02*
X203761905Y-108216723D01*
X203761905Y-108216723D02*
X203714286Y-108026247D01*
X203714286Y-108026247D02*
X203714286Y-107883390D01*
X203714286Y-107883390D02*
X203761905Y-107692914D01*
X203761905Y-107692914D02*
X203809524Y-107597676D01*
X203809524Y-107597676D02*
X203904762Y-107502438D01*
X203904762Y-107502438D02*
X204047619Y-107454819D01*
X204047619Y-107454819D02*
X204142857Y-107454819D01*
X204142857Y-107454819D02*
X204285714Y-107502438D01*
X204285714Y-107502438D02*
X204333333Y-107550057D01*
X204809524Y-108454819D02*
X205000000Y-108454819D01*
X205000000Y-108454819D02*
X205095238Y-108407200D01*
X205095238Y-108407200D02*
X205142857Y-108359580D01*
X205142857Y-108359580D02*
X205238095Y-108216723D01*
X205238095Y-108216723D02*
X205285714Y-108026247D01*
X205285714Y-108026247D02*
X205285714Y-107645295D01*
X205285714Y-107645295D02*
X205238095Y-107550057D01*
X205238095Y-107550057D02*
X205190476Y-107502438D01*
X205190476Y-107502438D02*
X205095238Y-107454819D01*
X205095238Y-107454819D02*
X204904762Y-107454819D01*
X204904762Y-107454819D02*
X204809524Y-107502438D01*
X204809524Y-107502438D02*
X204761905Y-107550057D01*
X204761905Y-107550057D02*
X204714286Y-107645295D01*
X204714286Y-107645295D02*
X204714286Y-107883390D01*
X204714286Y-107883390D02*
X204761905Y-107978628D01*
X204761905Y-107978628D02*
X204809524Y-108026247D01*
X204809524Y-108026247D02*
X204904762Y-108073866D01*
X204904762Y-108073866D02*
X205095238Y-108073866D01*
X205095238Y-108073866D02*
X205190476Y-108026247D01*
X205190476Y-108026247D02*
X205238095Y-107978628D01*
X205238095Y-107978628D02*
X205285714Y-107883390D01*
X130777142Y-80954819D02*
X130443809Y-80478628D01*
X130205714Y-80954819D02*
X130205714Y-79954819D01*
X130205714Y-79954819D02*
X130586666Y-79954819D01*
X130586666Y-79954819D02*
X130681904Y-80002438D01*
X130681904Y-80002438D02*
X130729523Y-80050057D01*
X130729523Y-80050057D02*
X130777142Y-80145295D01*
X130777142Y-80145295D02*
X130777142Y-80288152D01*
X130777142Y-80288152D02*
X130729523Y-80383390D01*
X130729523Y-80383390D02*
X130681904Y-80431009D01*
X130681904Y-80431009D02*
X130586666Y-80478628D01*
X130586666Y-80478628D02*
X130205714Y-80478628D01*
X131729523Y-80954819D02*
X131158095Y-80954819D01*
X131443809Y-80954819D02*
X131443809Y-79954819D01*
X131443809Y-79954819D02*
X131348571Y-80097676D01*
X131348571Y-80097676D02*
X131253333Y-80192914D01*
X131253333Y-80192914D02*
X131158095Y-80240533D01*
X132681904Y-80954819D02*
X132110476Y-80954819D01*
X132396190Y-80954819D02*
X132396190Y-79954819D01*
X132396190Y-79954819D02*
X132300952Y-80097676D01*
X132300952Y-80097676D02*
X132205714Y-80192914D01*
X132205714Y-80192914D02*
X132110476Y-80240533D01*
X185924819Y-120532666D02*
X185448628Y-120865999D01*
X185924819Y-121104094D02*
X184924819Y-121104094D01*
X184924819Y-121104094D02*
X184924819Y-120723142D01*
X184924819Y-120723142D02*
X184972438Y-120627904D01*
X184972438Y-120627904D02*
X185020057Y-120580285D01*
X185020057Y-120580285D02*
X185115295Y-120532666D01*
X185115295Y-120532666D02*
X185258152Y-120532666D01*
X185258152Y-120532666D02*
X185353390Y-120580285D01*
X185353390Y-120580285D02*
X185401009Y-120627904D01*
X185401009Y-120627904D02*
X185448628Y-120723142D01*
X185448628Y-120723142D02*
X185448628Y-121104094D01*
X184924819Y-119627904D02*
X184924819Y-120104094D01*
X184924819Y-120104094D02*
X185401009Y-120151713D01*
X185401009Y-120151713D02*
X185353390Y-120104094D01*
X185353390Y-120104094D02*
X185305771Y-120008856D01*
X185305771Y-120008856D02*
X185305771Y-119770761D01*
X185305771Y-119770761D02*
X185353390Y-119675523D01*
X185353390Y-119675523D02*
X185401009Y-119627904D01*
X185401009Y-119627904D02*
X185496247Y-119580285D01*
X185496247Y-119580285D02*
X185734342Y-119580285D01*
X185734342Y-119580285D02*
X185829580Y-119627904D01*
X185829580Y-119627904D02*
X185877200Y-119675523D01*
X185877200Y-119675523D02*
X185924819Y-119770761D01*
X185924819Y-119770761D02*
X185924819Y-120008856D01*
X185924819Y-120008856D02*
X185877200Y-120104094D01*
X185877200Y-120104094D02*
X185829580Y-120151713D01*
X151954819Y-69246666D02*
X151478628Y-69579999D01*
X151954819Y-69818094D02*
X150954819Y-69818094D01*
X150954819Y-69818094D02*
X150954819Y-69437142D01*
X150954819Y-69437142D02*
X151002438Y-69341904D01*
X151002438Y-69341904D02*
X151050057Y-69294285D01*
X151050057Y-69294285D02*
X151145295Y-69246666D01*
X151145295Y-69246666D02*
X151288152Y-69246666D01*
X151288152Y-69246666D02*
X151383390Y-69294285D01*
X151383390Y-69294285D02*
X151431009Y-69341904D01*
X151431009Y-69341904D02*
X151478628Y-69437142D01*
X151478628Y-69437142D02*
X151478628Y-69818094D01*
X151288152Y-68389523D02*
X151954819Y-68389523D01*
X150907200Y-68627618D02*
X151621485Y-68865713D01*
X151621485Y-68865713D02*
X151621485Y-68246666D01*
X112571905Y-56454819D02*
X112571905Y-55454819D01*
X112571905Y-55454819D02*
X112810000Y-55454819D01*
X112810000Y-55454819D02*
X112952857Y-55502438D01*
X112952857Y-55502438D02*
X113048095Y-55597676D01*
X113048095Y-55597676D02*
X113095714Y-55692914D01*
X113095714Y-55692914D02*
X113143333Y-55883390D01*
X113143333Y-55883390D02*
X113143333Y-56026247D01*
X113143333Y-56026247D02*
X113095714Y-56216723D01*
X113095714Y-56216723D02*
X113048095Y-56311961D01*
X113048095Y-56311961D02*
X112952857Y-56407200D01*
X112952857Y-56407200D02*
X112810000Y-56454819D01*
X112810000Y-56454819D02*
X112571905Y-56454819D01*
X114000476Y-55788152D02*
X114000476Y-56454819D01*
X113762381Y-55407200D02*
X113524286Y-56121485D01*
X113524286Y-56121485D02*
X114143333Y-56121485D01*
X183773333Y-100627580D02*
X183725714Y-100675200D01*
X183725714Y-100675200D02*
X183582857Y-100722819D01*
X183582857Y-100722819D02*
X183487619Y-100722819D01*
X183487619Y-100722819D02*
X183344762Y-100675200D01*
X183344762Y-100675200D02*
X183249524Y-100579961D01*
X183249524Y-100579961D02*
X183201905Y-100484723D01*
X183201905Y-100484723D02*
X183154286Y-100294247D01*
X183154286Y-100294247D02*
X183154286Y-100151390D01*
X183154286Y-100151390D02*
X183201905Y-99960914D01*
X183201905Y-99960914D02*
X183249524Y-99865676D01*
X183249524Y-99865676D02*
X183344762Y-99770438D01*
X183344762Y-99770438D02*
X183487619Y-99722819D01*
X183487619Y-99722819D02*
X183582857Y-99722819D01*
X183582857Y-99722819D02*
X183725714Y-99770438D01*
X183725714Y-99770438D02*
X183773333Y-99818057D01*
X184725714Y-100722819D02*
X184154286Y-100722819D01*
X184440000Y-100722819D02*
X184440000Y-99722819D01*
X184440000Y-99722819D02*
X184344762Y-99865676D01*
X184344762Y-99865676D02*
X184249524Y-99960914D01*
X184249524Y-99960914D02*
X184154286Y-100008533D01*
X182249580Y-119166666D02*
X182297200Y-119214285D01*
X182297200Y-119214285D02*
X182344819Y-119357142D01*
X182344819Y-119357142D02*
X182344819Y-119452380D01*
X182344819Y-119452380D02*
X182297200Y-119595237D01*
X182297200Y-119595237D02*
X182201961Y-119690475D01*
X182201961Y-119690475D02*
X182106723Y-119738094D01*
X182106723Y-119738094D02*
X181916247Y-119785713D01*
X181916247Y-119785713D02*
X181773390Y-119785713D01*
X181773390Y-119785713D02*
X181582914Y-119738094D01*
X181582914Y-119738094D02*
X181487676Y-119690475D01*
X181487676Y-119690475D02*
X181392438Y-119595237D01*
X181392438Y-119595237D02*
X181344819Y-119452380D01*
X181344819Y-119452380D02*
X181344819Y-119357142D01*
X181344819Y-119357142D02*
X181392438Y-119214285D01*
X181392438Y-119214285D02*
X181440057Y-119166666D01*
X181344819Y-118833332D02*
X181344819Y-118214285D01*
X181344819Y-118214285D02*
X181725771Y-118547618D01*
X181725771Y-118547618D02*
X181725771Y-118404761D01*
X181725771Y-118404761D02*
X181773390Y-118309523D01*
X181773390Y-118309523D02*
X181821009Y-118261904D01*
X181821009Y-118261904D02*
X181916247Y-118214285D01*
X181916247Y-118214285D02*
X182154342Y-118214285D01*
X182154342Y-118214285D02*
X182249580Y-118261904D01*
X182249580Y-118261904D02*
X182297200Y-118309523D01*
X182297200Y-118309523D02*
X182344819Y-118404761D01*
X182344819Y-118404761D02*
X182344819Y-118690475D01*
X182344819Y-118690475D02*
X182297200Y-118785713D01*
X182297200Y-118785713D02*
X182249580Y-118833332D01*
X114984819Y-61983904D02*
X115794342Y-61983904D01*
X115794342Y-61983904D02*
X115889580Y-61936285D01*
X115889580Y-61936285D02*
X115937200Y-61888666D01*
X115937200Y-61888666D02*
X115984819Y-61793428D01*
X115984819Y-61793428D02*
X115984819Y-61602952D01*
X115984819Y-61602952D02*
X115937200Y-61507714D01*
X115937200Y-61507714D02*
X115889580Y-61460095D01*
X115889580Y-61460095D02*
X115794342Y-61412476D01*
X115794342Y-61412476D02*
X114984819Y-61412476D01*
X115318152Y-60507714D02*
X115984819Y-60507714D01*
X114937200Y-60745809D02*
X115651485Y-60983904D01*
X115651485Y-60983904D02*
X115651485Y-60364857D01*
X194083333Y-100686819D02*
X193750000Y-100210628D01*
X193511905Y-100686819D02*
X193511905Y-99686819D01*
X193511905Y-99686819D02*
X193892857Y-99686819D01*
X193892857Y-99686819D02*
X193988095Y-99734438D01*
X193988095Y-99734438D02*
X194035714Y-99782057D01*
X194035714Y-99782057D02*
X194083333Y-99877295D01*
X194083333Y-99877295D02*
X194083333Y-100020152D01*
X194083333Y-100020152D02*
X194035714Y-100115390D01*
X194035714Y-100115390D02*
X193988095Y-100163009D01*
X193988095Y-100163009D02*
X193892857Y-100210628D01*
X193892857Y-100210628D02*
X193511905Y-100210628D01*
X195035714Y-100686819D02*
X194464286Y-100686819D01*
X194750000Y-100686819D02*
X194750000Y-99686819D01*
X194750000Y-99686819D02*
X194654762Y-99829676D01*
X194654762Y-99829676D02*
X194559524Y-99924914D01*
X194559524Y-99924914D02*
X194464286Y-99972533D01*
X169903333Y-57327580D02*
X169855714Y-57375200D01*
X169855714Y-57375200D02*
X169712857Y-57422819D01*
X169712857Y-57422819D02*
X169617619Y-57422819D01*
X169617619Y-57422819D02*
X169474762Y-57375200D01*
X169474762Y-57375200D02*
X169379524Y-57279961D01*
X169379524Y-57279961D02*
X169331905Y-57184723D01*
X169331905Y-57184723D02*
X169284286Y-56994247D01*
X169284286Y-56994247D02*
X169284286Y-56851390D01*
X169284286Y-56851390D02*
X169331905Y-56660914D01*
X169331905Y-56660914D02*
X169379524Y-56565676D01*
X169379524Y-56565676D02*
X169474762Y-56470438D01*
X169474762Y-56470438D02*
X169617619Y-56422819D01*
X169617619Y-56422819D02*
X169712857Y-56422819D01*
X169712857Y-56422819D02*
X169855714Y-56470438D01*
X169855714Y-56470438D02*
X169903333Y-56518057D01*
X170760476Y-56422819D02*
X170570000Y-56422819D01*
X170570000Y-56422819D02*
X170474762Y-56470438D01*
X170474762Y-56470438D02*
X170427143Y-56518057D01*
X170427143Y-56518057D02*
X170331905Y-56660914D01*
X170331905Y-56660914D02*
X170284286Y-56851390D01*
X170284286Y-56851390D02*
X170284286Y-57232342D01*
X170284286Y-57232342D02*
X170331905Y-57327580D01*
X170331905Y-57327580D02*
X170379524Y-57375200D01*
X170379524Y-57375200D02*
X170474762Y-57422819D01*
X170474762Y-57422819D02*
X170665238Y-57422819D01*
X170665238Y-57422819D02*
X170760476Y-57375200D01*
X170760476Y-57375200D02*
X170808095Y-57327580D01*
X170808095Y-57327580D02*
X170855714Y-57232342D01*
X170855714Y-57232342D02*
X170855714Y-56994247D01*
X170855714Y-56994247D02*
X170808095Y-56899009D01*
X170808095Y-56899009D02*
X170760476Y-56851390D01*
X170760476Y-56851390D02*
X170665238Y-56803771D01*
X170665238Y-56803771D02*
X170474762Y-56803771D01*
X170474762Y-56803771D02*
X170379524Y-56851390D01*
X170379524Y-56851390D02*
X170331905Y-56899009D01*
X170331905Y-56899009D02*
X170284286Y-56994247D01*
X155454819Y-69246666D02*
X154978628Y-69579999D01*
X155454819Y-69818094D02*
X154454819Y-69818094D01*
X154454819Y-69818094D02*
X154454819Y-69437142D01*
X154454819Y-69437142D02*
X154502438Y-69341904D01*
X154502438Y-69341904D02*
X154550057Y-69294285D01*
X154550057Y-69294285D02*
X154645295Y-69246666D01*
X154645295Y-69246666D02*
X154788152Y-69246666D01*
X154788152Y-69246666D02*
X154883390Y-69294285D01*
X154883390Y-69294285D02*
X154931009Y-69341904D01*
X154931009Y-69341904D02*
X154978628Y-69437142D01*
X154978628Y-69437142D02*
X154978628Y-69818094D01*
X154454819Y-68913332D02*
X154454819Y-68294285D01*
X154454819Y-68294285D02*
X154835771Y-68627618D01*
X154835771Y-68627618D02*
X154835771Y-68484761D01*
X154835771Y-68484761D02*
X154883390Y-68389523D01*
X154883390Y-68389523D02*
X154931009Y-68341904D01*
X154931009Y-68341904D02*
X155026247Y-68294285D01*
X155026247Y-68294285D02*
X155264342Y-68294285D01*
X155264342Y-68294285D02*
X155359580Y-68341904D01*
X155359580Y-68341904D02*
X155407200Y-68389523D01*
X155407200Y-68389523D02*
X155454819Y-68484761D01*
X155454819Y-68484761D02*
X155454819Y-68770475D01*
X155454819Y-68770475D02*
X155407200Y-68865713D01*
X155407200Y-68865713D02*
X155359580Y-68913332D01*
X176197905Y-96954819D02*
X176197905Y-95954819D01*
X176197905Y-95954819D02*
X176436000Y-95954819D01*
X176436000Y-95954819D02*
X176578857Y-96002438D01*
X176578857Y-96002438D02*
X176674095Y-96097676D01*
X176674095Y-96097676D02*
X176721714Y-96192914D01*
X176721714Y-96192914D02*
X176769333Y-96383390D01*
X176769333Y-96383390D02*
X176769333Y-96526247D01*
X176769333Y-96526247D02*
X176721714Y-96716723D01*
X176721714Y-96716723D02*
X176674095Y-96811961D01*
X176674095Y-96811961D02*
X176578857Y-96907200D01*
X176578857Y-96907200D02*
X176436000Y-96954819D01*
X176436000Y-96954819D02*
X176197905Y-96954819D01*
X177150286Y-96050057D02*
X177197905Y-96002438D01*
X177197905Y-96002438D02*
X177293143Y-95954819D01*
X177293143Y-95954819D02*
X177531238Y-95954819D01*
X177531238Y-95954819D02*
X177626476Y-96002438D01*
X177626476Y-96002438D02*
X177674095Y-96050057D01*
X177674095Y-96050057D02*
X177721714Y-96145295D01*
X177721714Y-96145295D02*
X177721714Y-96240533D01*
X177721714Y-96240533D02*
X177674095Y-96383390D01*
X177674095Y-96383390D02*
X177102667Y-96954819D01*
X177102667Y-96954819D02*
X177721714Y-96954819D01*
X157704819Y-133312857D02*
X157228628Y-133646190D01*
X157704819Y-133884285D02*
X156704819Y-133884285D01*
X156704819Y-133884285D02*
X156704819Y-133503333D01*
X156704819Y-133503333D02*
X156752438Y-133408095D01*
X156752438Y-133408095D02*
X156800057Y-133360476D01*
X156800057Y-133360476D02*
X156895295Y-133312857D01*
X156895295Y-133312857D02*
X157038152Y-133312857D01*
X157038152Y-133312857D02*
X157133390Y-133360476D01*
X157133390Y-133360476D02*
X157181009Y-133408095D01*
X157181009Y-133408095D02*
X157228628Y-133503333D01*
X157228628Y-133503333D02*
X157228628Y-133884285D01*
X157704819Y-132360476D02*
X157704819Y-132931904D01*
X157704819Y-132646190D02*
X156704819Y-132646190D01*
X156704819Y-132646190D02*
X156847676Y-132741428D01*
X156847676Y-132741428D02*
X156942914Y-132836666D01*
X156942914Y-132836666D02*
X156990533Y-132931904D01*
X156800057Y-131979523D02*
X156752438Y-131931904D01*
X156752438Y-131931904D02*
X156704819Y-131836666D01*
X156704819Y-131836666D02*
X156704819Y-131598571D01*
X156704819Y-131598571D02*
X156752438Y-131503333D01*
X156752438Y-131503333D02*
X156800057Y-131455714D01*
X156800057Y-131455714D02*
X156895295Y-131408095D01*
X156895295Y-131408095D02*
X156990533Y-131408095D01*
X156990533Y-131408095D02*
X157133390Y-131455714D01*
X157133390Y-131455714D02*
X157704819Y-132027142D01*
X157704819Y-132027142D02*
X157704819Y-131408095D01*
X154454819Y-57949904D02*
X155264342Y-57949904D01*
X155264342Y-57949904D02*
X155359580Y-57902285D01*
X155359580Y-57902285D02*
X155407200Y-57854666D01*
X155407200Y-57854666D02*
X155454819Y-57759428D01*
X155454819Y-57759428D02*
X155454819Y-57568952D01*
X155454819Y-57568952D02*
X155407200Y-57473714D01*
X155407200Y-57473714D02*
X155359580Y-57426095D01*
X155359580Y-57426095D02*
X155264342Y-57378476D01*
X155264342Y-57378476D02*
X154454819Y-57378476D01*
X154550057Y-56949904D02*
X154502438Y-56902285D01*
X154502438Y-56902285D02*
X154454819Y-56807047D01*
X154454819Y-56807047D02*
X154454819Y-56568952D01*
X154454819Y-56568952D02*
X154502438Y-56473714D01*
X154502438Y-56473714D02*
X154550057Y-56426095D01*
X154550057Y-56426095D02*
X154645295Y-56378476D01*
X154645295Y-56378476D02*
X154740533Y-56378476D01*
X154740533Y-56378476D02*
X154883390Y-56426095D01*
X154883390Y-56426095D02*
X155454819Y-56997523D01*
X155454819Y-56997523D02*
X155454819Y-56378476D01*
X136583333Y-122904467D02*
X136535714Y-122952087D01*
X136535714Y-122952087D02*
X136392857Y-122999706D01*
X136392857Y-122999706D02*
X136297619Y-122999706D01*
X136297619Y-122999706D02*
X136154762Y-122952087D01*
X136154762Y-122952087D02*
X136059524Y-122856848D01*
X136059524Y-122856848D02*
X136011905Y-122761610D01*
X136011905Y-122761610D02*
X135964286Y-122571134D01*
X135964286Y-122571134D02*
X135964286Y-122428277D01*
X135964286Y-122428277D02*
X136011905Y-122237801D01*
X136011905Y-122237801D02*
X136059524Y-122142563D01*
X136059524Y-122142563D02*
X136154762Y-122047325D01*
X136154762Y-122047325D02*
X136297619Y-121999706D01*
X136297619Y-121999706D02*
X136392857Y-121999706D01*
X136392857Y-121999706D02*
X136535714Y-122047325D01*
X136535714Y-122047325D02*
X136583333Y-122094944D01*
X137154762Y-122428277D02*
X137059524Y-122380658D01*
X137059524Y-122380658D02*
X137011905Y-122333039D01*
X137011905Y-122333039D02*
X136964286Y-122237801D01*
X136964286Y-122237801D02*
X136964286Y-122190182D01*
X136964286Y-122190182D02*
X137011905Y-122094944D01*
X137011905Y-122094944D02*
X137059524Y-122047325D01*
X137059524Y-122047325D02*
X137154762Y-121999706D01*
X137154762Y-121999706D02*
X137345238Y-121999706D01*
X137345238Y-121999706D02*
X137440476Y-122047325D01*
X137440476Y-122047325D02*
X137488095Y-122094944D01*
X137488095Y-122094944D02*
X137535714Y-122190182D01*
X137535714Y-122190182D02*
X137535714Y-122237801D01*
X137535714Y-122237801D02*
X137488095Y-122333039D01*
X137488095Y-122333039D02*
X137440476Y-122380658D01*
X137440476Y-122380658D02*
X137345238Y-122428277D01*
X137345238Y-122428277D02*
X137154762Y-122428277D01*
X137154762Y-122428277D02*
X137059524Y-122475896D01*
X137059524Y-122475896D02*
X137011905Y-122523515D01*
X137011905Y-122523515D02*
X136964286Y-122618753D01*
X136964286Y-122618753D02*
X136964286Y-122809229D01*
X136964286Y-122809229D02*
X137011905Y-122904467D01*
X137011905Y-122904467D02*
X137059524Y-122952087D01*
X137059524Y-122952087D02*
X137154762Y-122999706D01*
X137154762Y-122999706D02*
X137345238Y-122999706D01*
X137345238Y-122999706D02*
X137440476Y-122952087D01*
X137440476Y-122952087D02*
X137488095Y-122904467D01*
X137488095Y-122904467D02*
X137535714Y-122809229D01*
X137535714Y-122809229D02*
X137535714Y-122618753D01*
X137535714Y-122618753D02*
X137488095Y-122523515D01*
X137488095Y-122523515D02*
X137440476Y-122475896D01*
X137440476Y-122475896D02*
X137345238Y-122428277D01*
X197109580Y-117916666D02*
X197157200Y-117964285D01*
X197157200Y-117964285D02*
X197204819Y-118107142D01*
X197204819Y-118107142D02*
X197204819Y-118202380D01*
X197204819Y-118202380D02*
X197157200Y-118345237D01*
X197157200Y-118345237D02*
X197061961Y-118440475D01*
X197061961Y-118440475D02*
X196966723Y-118488094D01*
X196966723Y-118488094D02*
X196776247Y-118535713D01*
X196776247Y-118535713D02*
X196633390Y-118535713D01*
X196633390Y-118535713D02*
X196442914Y-118488094D01*
X196442914Y-118488094D02*
X196347676Y-118440475D01*
X196347676Y-118440475D02*
X196252438Y-118345237D01*
X196252438Y-118345237D02*
X196204819Y-118202380D01*
X196204819Y-118202380D02*
X196204819Y-118107142D01*
X196204819Y-118107142D02*
X196252438Y-117964285D01*
X196252438Y-117964285D02*
X196300057Y-117916666D01*
X196204819Y-117011904D02*
X196204819Y-117488094D01*
X196204819Y-117488094D02*
X196681009Y-117535713D01*
X196681009Y-117535713D02*
X196633390Y-117488094D01*
X196633390Y-117488094D02*
X196585771Y-117392856D01*
X196585771Y-117392856D02*
X196585771Y-117154761D01*
X196585771Y-117154761D02*
X196633390Y-117059523D01*
X196633390Y-117059523D02*
X196681009Y-117011904D01*
X196681009Y-117011904D02*
X196776247Y-116964285D01*
X196776247Y-116964285D02*
X197014342Y-116964285D01*
X197014342Y-116964285D02*
X197109580Y-117011904D01*
X197109580Y-117011904D02*
X197157200Y-117059523D01*
X197157200Y-117059523D02*
X197204819Y-117154761D01*
X197204819Y-117154761D02*
X197204819Y-117392856D01*
X197204819Y-117392856D02*
X197157200Y-117488094D01*
X197157200Y-117488094D02*
X197109580Y-117535713D01*
X126766667Y-62257200D02*
X126909524Y-62304819D01*
X126909524Y-62304819D02*
X127147619Y-62304819D01*
X127147619Y-62304819D02*
X127242857Y-62257200D01*
X127242857Y-62257200D02*
X127290476Y-62209580D01*
X127290476Y-62209580D02*
X127338095Y-62114342D01*
X127338095Y-62114342D02*
X127338095Y-62019104D01*
X127338095Y-62019104D02*
X127290476Y-61923866D01*
X127290476Y-61923866D02*
X127242857Y-61876247D01*
X127242857Y-61876247D02*
X127147619Y-61828628D01*
X127147619Y-61828628D02*
X126957143Y-61781009D01*
X126957143Y-61781009D02*
X126861905Y-61733390D01*
X126861905Y-61733390D02*
X126814286Y-61685771D01*
X126814286Y-61685771D02*
X126766667Y-61590533D01*
X126766667Y-61590533D02*
X126766667Y-61495295D01*
X126766667Y-61495295D02*
X126814286Y-61400057D01*
X126814286Y-61400057D02*
X126861905Y-61352438D01*
X126861905Y-61352438D02*
X126957143Y-61304819D01*
X126957143Y-61304819D02*
X127195238Y-61304819D01*
X127195238Y-61304819D02*
X127338095Y-61352438D01*
X127671429Y-61304819D02*
X127909524Y-62304819D01*
X127909524Y-62304819D02*
X128100000Y-61590533D01*
X128100000Y-61590533D02*
X128290476Y-62304819D01*
X128290476Y-62304819D02*
X128528572Y-61304819D01*
X129433333Y-62304819D02*
X128861905Y-62304819D01*
X129147619Y-62304819D02*
X129147619Y-61304819D01*
X129147619Y-61304819D02*
X129052381Y-61447676D01*
X129052381Y-61447676D02*
X128957143Y-61542914D01*
X128957143Y-61542914D02*
X128861905Y-61590533D01*
X148107142Y-125359580D02*
X148059523Y-125407200D01*
X148059523Y-125407200D02*
X147916666Y-125454819D01*
X147916666Y-125454819D02*
X147821428Y-125454819D01*
X147821428Y-125454819D02*
X147678571Y-125407200D01*
X147678571Y-125407200D02*
X147583333Y-125311961D01*
X147583333Y-125311961D02*
X147535714Y-125216723D01*
X147535714Y-125216723D02*
X147488095Y-125026247D01*
X147488095Y-125026247D02*
X147488095Y-124883390D01*
X147488095Y-124883390D02*
X147535714Y-124692914D01*
X147535714Y-124692914D02*
X147583333Y-124597676D01*
X147583333Y-124597676D02*
X147678571Y-124502438D01*
X147678571Y-124502438D02*
X147821428Y-124454819D01*
X147821428Y-124454819D02*
X147916666Y-124454819D01*
X147916666Y-124454819D02*
X148059523Y-124502438D01*
X148059523Y-124502438D02*
X148107142Y-124550057D01*
X149059523Y-125454819D02*
X148488095Y-125454819D01*
X148773809Y-125454819D02*
X148773809Y-124454819D01*
X148773809Y-124454819D02*
X148678571Y-124597676D01*
X148678571Y-124597676D02*
X148583333Y-124692914D01*
X148583333Y-124692914D02*
X148488095Y-124740533D01*
X149440476Y-124550057D02*
X149488095Y-124502438D01*
X149488095Y-124502438D02*
X149583333Y-124454819D01*
X149583333Y-124454819D02*
X149821428Y-124454819D01*
X149821428Y-124454819D02*
X149916666Y-124502438D01*
X149916666Y-124502438D02*
X149964285Y-124550057D01*
X149964285Y-124550057D02*
X150011904Y-124645295D01*
X150011904Y-124645295D02*
X150011904Y-124740533D01*
X150011904Y-124740533D02*
X149964285Y-124883390D01*
X149964285Y-124883390D02*
X149392857Y-125454819D01*
X149392857Y-125454819D02*
X150011904Y-125454819D01*
X107107142Y-58859580D02*
X107059523Y-58907200D01*
X107059523Y-58907200D02*
X106916666Y-58954819D01*
X106916666Y-58954819D02*
X106821428Y-58954819D01*
X106821428Y-58954819D02*
X106678571Y-58907200D01*
X106678571Y-58907200D02*
X106583333Y-58811961D01*
X106583333Y-58811961D02*
X106535714Y-58716723D01*
X106535714Y-58716723D02*
X106488095Y-58526247D01*
X106488095Y-58526247D02*
X106488095Y-58383390D01*
X106488095Y-58383390D02*
X106535714Y-58192914D01*
X106535714Y-58192914D02*
X106583333Y-58097676D01*
X106583333Y-58097676D02*
X106678571Y-58002438D01*
X106678571Y-58002438D02*
X106821428Y-57954819D01*
X106821428Y-57954819D02*
X106916666Y-57954819D01*
X106916666Y-57954819D02*
X107059523Y-58002438D01*
X107059523Y-58002438D02*
X107107142Y-58050057D01*
X108059523Y-58954819D02*
X107488095Y-58954819D01*
X107773809Y-58954819D02*
X107773809Y-57954819D01*
X107773809Y-57954819D02*
X107678571Y-58097676D01*
X107678571Y-58097676D02*
X107583333Y-58192914D01*
X107583333Y-58192914D02*
X107488095Y-58240533D01*
X109011904Y-58954819D02*
X108440476Y-58954819D01*
X108726190Y-58954819D02*
X108726190Y-57954819D01*
X108726190Y-57954819D02*
X108630952Y-58097676D01*
X108630952Y-58097676D02*
X108535714Y-58192914D01*
X108535714Y-58192914D02*
X108440476Y-58240533D01*
X197109580Y-125916666D02*
X197157200Y-125964285D01*
X197157200Y-125964285D02*
X197204819Y-126107142D01*
X197204819Y-126107142D02*
X197204819Y-126202380D01*
X197204819Y-126202380D02*
X197157200Y-126345237D01*
X197157200Y-126345237D02*
X197061961Y-126440475D01*
X197061961Y-126440475D02*
X196966723Y-126488094D01*
X196966723Y-126488094D02*
X196776247Y-126535713D01*
X196776247Y-126535713D02*
X196633390Y-126535713D01*
X196633390Y-126535713D02*
X196442914Y-126488094D01*
X196442914Y-126488094D02*
X196347676Y-126440475D01*
X196347676Y-126440475D02*
X196252438Y-126345237D01*
X196252438Y-126345237D02*
X196204819Y-126202380D01*
X196204819Y-126202380D02*
X196204819Y-126107142D01*
X196204819Y-126107142D02*
X196252438Y-125964285D01*
X196252438Y-125964285D02*
X196300057Y-125916666D01*
X196538152Y-125059523D02*
X197204819Y-125059523D01*
X196157200Y-125297618D02*
X196871485Y-125535713D01*
X196871485Y-125535713D02*
X196871485Y-124916666D01*
X130904761Y-71954819D02*
X130571428Y-71478628D01*
X130333333Y-71954819D02*
X130333333Y-70954819D01*
X130333333Y-70954819D02*
X130714285Y-70954819D01*
X130714285Y-70954819D02*
X130809523Y-71002438D01*
X130809523Y-71002438D02*
X130857142Y-71050057D01*
X130857142Y-71050057D02*
X130904761Y-71145295D01*
X130904761Y-71145295D02*
X130904761Y-71288152D01*
X130904761Y-71288152D02*
X130857142Y-71383390D01*
X130857142Y-71383390D02*
X130809523Y-71431009D01*
X130809523Y-71431009D02*
X130714285Y-71478628D01*
X130714285Y-71478628D02*
X130333333Y-71478628D01*
X131190476Y-70954819D02*
X131523809Y-71954819D01*
X131523809Y-71954819D02*
X131857142Y-70954819D01*
X132095238Y-70954819D02*
X132714285Y-70954819D01*
X132714285Y-70954819D02*
X132380952Y-71335771D01*
X132380952Y-71335771D02*
X132523809Y-71335771D01*
X132523809Y-71335771D02*
X132619047Y-71383390D01*
X132619047Y-71383390D02*
X132666666Y-71431009D01*
X132666666Y-71431009D02*
X132714285Y-71526247D01*
X132714285Y-71526247D02*
X132714285Y-71764342D01*
X132714285Y-71764342D02*
X132666666Y-71859580D01*
X132666666Y-71859580D02*
X132619047Y-71907200D01*
X132619047Y-71907200D02*
X132523809Y-71954819D01*
X132523809Y-71954819D02*
X132238095Y-71954819D01*
X132238095Y-71954819D02*
X132142857Y-71907200D01*
X132142857Y-71907200D02*
X132095238Y-71859580D01*
X187583333Y-128704819D02*
X187250000Y-128228628D01*
X187011905Y-128704819D02*
X187011905Y-127704819D01*
X187011905Y-127704819D02*
X187392857Y-127704819D01*
X187392857Y-127704819D02*
X187488095Y-127752438D01*
X187488095Y-127752438D02*
X187535714Y-127800057D01*
X187535714Y-127800057D02*
X187583333Y-127895295D01*
X187583333Y-127895295D02*
X187583333Y-128038152D01*
X187583333Y-128038152D02*
X187535714Y-128133390D01*
X187535714Y-128133390D02*
X187488095Y-128181009D01*
X187488095Y-128181009D02*
X187392857Y-128228628D01*
X187392857Y-128228628D02*
X187011905Y-128228628D01*
X188440476Y-127704819D02*
X188250000Y-127704819D01*
X188250000Y-127704819D02*
X188154762Y-127752438D01*
X188154762Y-127752438D02*
X188107143Y-127800057D01*
X188107143Y-127800057D02*
X188011905Y-127942914D01*
X188011905Y-127942914D02*
X187964286Y-128133390D01*
X187964286Y-128133390D02*
X187964286Y-128514342D01*
X187964286Y-128514342D02*
X188011905Y-128609580D01*
X188011905Y-128609580D02*
X188059524Y-128657200D01*
X188059524Y-128657200D02*
X188154762Y-128704819D01*
X188154762Y-128704819D02*
X188345238Y-128704819D01*
X188345238Y-128704819D02*
X188440476Y-128657200D01*
X188440476Y-128657200D02*
X188488095Y-128609580D01*
X188488095Y-128609580D02*
X188535714Y-128514342D01*
X188535714Y-128514342D02*
X188535714Y-128276247D01*
X188535714Y-128276247D02*
X188488095Y-128181009D01*
X188488095Y-128181009D02*
X188440476Y-128133390D01*
X188440476Y-128133390D02*
X188345238Y-128085771D01*
X188345238Y-128085771D02*
X188154762Y-128085771D01*
X188154762Y-128085771D02*
X188059524Y-128133390D01*
X188059524Y-128133390D02*
X188011905Y-128181009D01*
X188011905Y-128181009D02*
X187964286Y-128276247D01*
X167904761Y-70454819D02*
X167571428Y-69978628D01*
X167333333Y-70454819D02*
X167333333Y-69454819D01*
X167333333Y-69454819D02*
X167714285Y-69454819D01*
X167714285Y-69454819D02*
X167809523Y-69502438D01*
X167809523Y-69502438D02*
X167857142Y-69550057D01*
X167857142Y-69550057D02*
X167904761Y-69645295D01*
X167904761Y-69645295D02*
X167904761Y-69788152D01*
X167904761Y-69788152D02*
X167857142Y-69883390D01*
X167857142Y-69883390D02*
X167809523Y-69931009D01*
X167809523Y-69931009D02*
X167714285Y-69978628D01*
X167714285Y-69978628D02*
X167333333Y-69978628D01*
X168190476Y-69454819D02*
X168523809Y-70454819D01*
X168523809Y-70454819D02*
X168857142Y-69454819D01*
X169142857Y-69550057D02*
X169190476Y-69502438D01*
X169190476Y-69502438D02*
X169285714Y-69454819D01*
X169285714Y-69454819D02*
X169523809Y-69454819D01*
X169523809Y-69454819D02*
X169619047Y-69502438D01*
X169619047Y-69502438D02*
X169666666Y-69550057D01*
X169666666Y-69550057D02*
X169714285Y-69645295D01*
X169714285Y-69645295D02*
X169714285Y-69740533D01*
X169714285Y-69740533D02*
X169666666Y-69883390D01*
X169666666Y-69883390D02*
X169095238Y-70454819D01*
X169095238Y-70454819D02*
X169714285Y-70454819D01*
X145833333Y-65109580D02*
X145785714Y-65157200D01*
X145785714Y-65157200D02*
X145642857Y-65204819D01*
X145642857Y-65204819D02*
X145547619Y-65204819D01*
X145547619Y-65204819D02*
X145404762Y-65157200D01*
X145404762Y-65157200D02*
X145309524Y-65061961D01*
X145309524Y-65061961D02*
X145261905Y-64966723D01*
X145261905Y-64966723D02*
X145214286Y-64776247D01*
X145214286Y-64776247D02*
X145214286Y-64633390D01*
X145214286Y-64633390D02*
X145261905Y-64442914D01*
X145261905Y-64442914D02*
X145309524Y-64347676D01*
X145309524Y-64347676D02*
X145404762Y-64252438D01*
X145404762Y-64252438D02*
X145547619Y-64204819D01*
X145547619Y-64204819D02*
X145642857Y-64204819D01*
X145642857Y-64204819D02*
X145785714Y-64252438D01*
X145785714Y-64252438D02*
X145833333Y-64300057D01*
X146214286Y-64300057D02*
X146261905Y-64252438D01*
X146261905Y-64252438D02*
X146357143Y-64204819D01*
X146357143Y-64204819D02*
X146595238Y-64204819D01*
X146595238Y-64204819D02*
X146690476Y-64252438D01*
X146690476Y-64252438D02*
X146738095Y-64300057D01*
X146738095Y-64300057D02*
X146785714Y-64395295D01*
X146785714Y-64395295D02*
X146785714Y-64490533D01*
X146785714Y-64490533D02*
X146738095Y-64633390D01*
X146738095Y-64633390D02*
X146166667Y-65204819D01*
X146166667Y-65204819D02*
X146785714Y-65204819D01*
X197304819Y-108863904D02*
X198114342Y-108863904D01*
X198114342Y-108863904D02*
X198209580Y-108816285D01*
X198209580Y-108816285D02*
X198257200Y-108768666D01*
X198257200Y-108768666D02*
X198304819Y-108673428D01*
X198304819Y-108673428D02*
X198304819Y-108482952D01*
X198304819Y-108482952D02*
X198257200Y-108387714D01*
X198257200Y-108387714D02*
X198209580Y-108340095D01*
X198209580Y-108340095D02*
X198114342Y-108292476D01*
X198114342Y-108292476D02*
X197304819Y-108292476D01*
X198304819Y-107292476D02*
X198304819Y-107863904D01*
X198304819Y-107578190D02*
X197304819Y-107578190D01*
X197304819Y-107578190D02*
X197447676Y-107673428D01*
X197447676Y-107673428D02*
X197542914Y-107768666D01*
X197542914Y-107768666D02*
X197590533Y-107863904D01*
X160857142Y-57359580D02*
X160809523Y-57407200D01*
X160809523Y-57407200D02*
X160666666Y-57454819D01*
X160666666Y-57454819D02*
X160571428Y-57454819D01*
X160571428Y-57454819D02*
X160428571Y-57407200D01*
X160428571Y-57407200D02*
X160333333Y-57311961D01*
X160333333Y-57311961D02*
X160285714Y-57216723D01*
X160285714Y-57216723D02*
X160238095Y-57026247D01*
X160238095Y-57026247D02*
X160238095Y-56883390D01*
X160238095Y-56883390D02*
X160285714Y-56692914D01*
X160285714Y-56692914D02*
X160333333Y-56597676D01*
X160333333Y-56597676D02*
X160428571Y-56502438D01*
X160428571Y-56502438D02*
X160571428Y-56454819D01*
X160571428Y-56454819D02*
X160666666Y-56454819D01*
X160666666Y-56454819D02*
X160809523Y-56502438D01*
X160809523Y-56502438D02*
X160857142Y-56550057D01*
X161809523Y-57454819D02*
X161238095Y-57454819D01*
X161523809Y-57454819D02*
X161523809Y-56454819D01*
X161523809Y-56454819D02*
X161428571Y-56597676D01*
X161428571Y-56597676D02*
X161333333Y-56692914D01*
X161333333Y-56692914D02*
X161238095Y-56740533D01*
X162428571Y-56454819D02*
X162523809Y-56454819D01*
X162523809Y-56454819D02*
X162619047Y-56502438D01*
X162619047Y-56502438D02*
X162666666Y-56550057D01*
X162666666Y-56550057D02*
X162714285Y-56645295D01*
X162714285Y-56645295D02*
X162761904Y-56835771D01*
X162761904Y-56835771D02*
X162761904Y-57073866D01*
X162761904Y-57073866D02*
X162714285Y-57264342D01*
X162714285Y-57264342D02*
X162666666Y-57359580D01*
X162666666Y-57359580D02*
X162619047Y-57407200D01*
X162619047Y-57407200D02*
X162523809Y-57454819D01*
X162523809Y-57454819D02*
X162428571Y-57454819D01*
X162428571Y-57454819D02*
X162333333Y-57407200D01*
X162333333Y-57407200D02*
X162285714Y-57359580D01*
X162285714Y-57359580D02*
X162238095Y-57264342D01*
X162238095Y-57264342D02*
X162190476Y-57073866D01*
X162190476Y-57073866D02*
X162190476Y-56835771D01*
X162190476Y-56835771D02*
X162238095Y-56645295D01*
X162238095Y-56645295D02*
X162285714Y-56550057D01*
X162285714Y-56550057D02*
X162333333Y-56502438D01*
X162333333Y-56502438D02*
X162428571Y-56454819D01*
X99937142Y-67204819D02*
X99603809Y-66728628D01*
X99365714Y-67204819D02*
X99365714Y-66204819D01*
X99365714Y-66204819D02*
X99746666Y-66204819D01*
X99746666Y-66204819D02*
X99841904Y-66252438D01*
X99841904Y-66252438D02*
X99889523Y-66300057D01*
X99889523Y-66300057D02*
X99937142Y-66395295D01*
X99937142Y-66395295D02*
X99937142Y-66538152D01*
X99937142Y-66538152D02*
X99889523Y-66633390D01*
X99889523Y-66633390D02*
X99841904Y-66681009D01*
X99841904Y-66681009D02*
X99746666Y-66728628D01*
X99746666Y-66728628D02*
X99365714Y-66728628D01*
X100889523Y-67204819D02*
X100318095Y-67204819D01*
X100603809Y-67204819D02*
X100603809Y-66204819D01*
X100603809Y-66204819D02*
X100508571Y-66347676D01*
X100508571Y-66347676D02*
X100413333Y-66442914D01*
X100413333Y-66442914D02*
X100318095Y-66490533D01*
X101222857Y-66204819D02*
X101841904Y-66204819D01*
X101841904Y-66204819D02*
X101508571Y-66585771D01*
X101508571Y-66585771D02*
X101651428Y-66585771D01*
X101651428Y-66585771D02*
X101746666Y-66633390D01*
X101746666Y-66633390D02*
X101794285Y-66681009D01*
X101794285Y-66681009D02*
X101841904Y-66776247D01*
X101841904Y-66776247D02*
X101841904Y-67014342D01*
X101841904Y-67014342D02*
X101794285Y-67109580D01*
X101794285Y-67109580D02*
X101746666Y-67157200D01*
X101746666Y-67157200D02*
X101651428Y-67204819D01*
X101651428Y-67204819D02*
X101365714Y-67204819D01*
X101365714Y-67204819D02*
X101270476Y-67157200D01*
X101270476Y-67157200D02*
X101222857Y-67109580D01*
X186166666Y-63654819D02*
X186166666Y-64369104D01*
X186166666Y-64369104D02*
X186119047Y-64511961D01*
X186119047Y-64511961D02*
X186023809Y-64607200D01*
X186023809Y-64607200D02*
X185880952Y-64654819D01*
X185880952Y-64654819D02*
X185785714Y-64654819D01*
X187166666Y-64654819D02*
X186595238Y-64654819D01*
X186880952Y-64654819D02*
X186880952Y-63654819D01*
X186880952Y-63654819D02*
X186785714Y-63797676D01*
X186785714Y-63797676D02*
X186690476Y-63892914D01*
X186690476Y-63892914D02*
X186595238Y-63940533D01*
X142109580Y-131916666D02*
X142157200Y-131964285D01*
X142157200Y-131964285D02*
X142204819Y-132107142D01*
X142204819Y-132107142D02*
X142204819Y-132202380D01*
X142204819Y-132202380D02*
X142157200Y-132345237D01*
X142157200Y-132345237D02*
X142061961Y-132440475D01*
X142061961Y-132440475D02*
X141966723Y-132488094D01*
X141966723Y-132488094D02*
X141776247Y-132535713D01*
X141776247Y-132535713D02*
X141633390Y-132535713D01*
X141633390Y-132535713D02*
X141442914Y-132488094D01*
X141442914Y-132488094D02*
X141347676Y-132440475D01*
X141347676Y-132440475D02*
X141252438Y-132345237D01*
X141252438Y-132345237D02*
X141204819Y-132202380D01*
X141204819Y-132202380D02*
X141204819Y-132107142D01*
X141204819Y-132107142D02*
X141252438Y-131964285D01*
X141252438Y-131964285D02*
X141300057Y-131916666D01*
X141204819Y-131583332D02*
X141204819Y-130916666D01*
X141204819Y-130916666D02*
X142204819Y-131345237D01*
D13*
%TO.C,D1*%
X179380000Y-105820000D02*
X179380000Y-110060000D01*
X179380000Y-109220000D02*
X181620000Y-109220000D01*
X179380000Y-109340000D02*
X181620000Y-109340000D01*
X179380000Y-109460000D02*
X181620000Y-109460000D01*
X179380000Y-110060000D02*
X181620000Y-110060000D01*
X180500000Y-105170000D02*
X180500000Y-105820000D01*
X180500000Y-110710000D02*
X180500000Y-110060000D01*
X181620000Y-105820000D02*
X179380000Y-105820000D01*
X181620000Y-110060000D02*
X181620000Y-105820000D01*
%TO.C,R9*%
X136380000Y-130480000D02*
X136380000Y-137020000D01*
X136380000Y-137020000D02*
X139120000Y-137020000D01*
X137750000Y-129710000D02*
X137750000Y-130480000D01*
X137750000Y-137790000D02*
X137750000Y-137020000D01*
X139120000Y-130480000D02*
X136380000Y-130480000D01*
X139120000Y-137020000D02*
X139120000Y-130480000D01*
%TO.C,D3*%
X104295000Y-58710000D02*
X101205000Y-58710000D01*
X102750462Y-64260000D02*
G75*
G02*
X101205170Y-58710000I-462J2990000D01*
G01*
X104294830Y-58710000D02*
G75*
G02*
X102749538Y-64260000I-1544830J-2560000D01*
G01*
X105250000Y-61270000D02*
G75*
G02*
X100250000Y-61270000I-2500000J0D01*
G01*
X100250000Y-61270000D02*
G75*
G02*
X105250000Y-61270000I2500000J0D01*
G01*
%TO.C,R2*%
X184880000Y-96500000D02*
X185650000Y-96500000D01*
X185650000Y-95130000D02*
X185650000Y-97870000D01*
X185650000Y-97870000D02*
X192190000Y-97870000D01*
X192190000Y-95130000D02*
X185650000Y-95130000D01*
X192190000Y-97870000D02*
X192190000Y-95130000D01*
X192960000Y-96500000D02*
X192190000Y-96500000D01*
D14*
%TO.C,LS1*%
X168970000Y-100010000D02*
X168970000Y-100010000D01*
X168864834Y-102006308D02*
X168864834Y-102006308D01*
X168550500Y-103980517D02*
X168550500Y-103980517D01*
X168030478Y-105910773D02*
X168030478Y-105910773D01*
X167310525Y-107775706D02*
X167310525Y-107775706D01*
X166398610Y-109554671D02*
X166398610Y-109554671D01*
X165304829Y-111227977D02*
X165304829Y-111227977D01*
X164041289Y-112777098D02*
X164041289Y-112777098D01*
X162621979Y-114184886D02*
X162621979Y-114184886D01*
X161062611Y-115435756D02*
X161062611Y-115435756D01*
X159380446Y-116515862D02*
X159380446Y-116515862D01*
X157594106Y-117413246D02*
X157594106Y-117413246D01*
X155723366Y-118117975D02*
X155723366Y-118117975D01*
X153788937Y-118622246D02*
X153788937Y-118622246D01*
X151812231Y-118920478D02*
X151812231Y-118920478D01*
X149815131Y-119009368D02*
X149815131Y-119009368D01*
X147819746Y-118887934D02*
X147819746Y-118887934D01*
X145848165Y-118557519D02*
X145848165Y-118557519D01*
X143922212Y-118021781D02*
X143922212Y-118021781D01*
X142063210Y-117286651D02*
X142063210Y-117286651D01*
X140291736Y-116360266D02*
X140291736Y-116360266D01*
X138627401Y-115252882D02*
X138627401Y-115252882D01*
X137088631Y-113976758D02*
X137088631Y-113976758D01*
X135692458Y-112546020D02*
X135692458Y-112546020D01*
X134454340Y-110976508D02*
X134454340Y-110976508D01*
X133387981Y-109285594D02*
X133387981Y-109285594D01*
X132505187Y-107492000D02*
X132505187Y-107492000D01*
X131815730Y-105615578D02*
X131815730Y-105615578D01*
X131327243Y-103677102D02*
X131327243Y-103677102D01*
X131045134Y-101698031D02*
X131045134Y-101698031D01*
X130972524Y-99700274D02*
X130972524Y-99700274D01*
X131110219Y-97705945D02*
X131110219Y-97705945D01*
X131456693Y-95737122D02*
X131456693Y-95737122D01*
X132008112Y-93815600D02*
X132008112Y-93815600D01*
X132758370Y-91962651D02*
X132758370Y-91962651D01*
X133699163Y-90198787D02*
X133699163Y-90198787D01*
X134820076Y-88543534D02*
X134820076Y-88543534D01*
X136108700Y-87015216D02*
X136108700Y-87015216D01*
X137550771Y-85630752D02*
X137550771Y-85630752D01*
X139130323Y-84405468D02*
X139130323Y-84405468D01*
X140829872Y-83352927D02*
X140829872Y-83352927D01*
X142630603Y-82484782D02*
X142630603Y-82484782D01*
X144512582Y-81810643D02*
X144512582Y-81810643D01*
X146454975Y-81337972D02*
X146454975Y-81337972D01*
X148436279Y-81072003D02*
X148436279Y-81072003D01*
X150434563Y-81015680D02*
X150434563Y-81015680D01*
X152427703Y-81169625D02*
X152427703Y-81169625D01*
X154393636Y-81532136D02*
X154393636Y-81532136D01*
X156310600Y-82099199D02*
X156310600Y-82099199D01*
X158157372Y-82864535D02*
X158157372Y-82864535D01*
X159913509Y-83819675D02*
X159913509Y-83819675D01*
X161559570Y-84954042D02*
X161559570Y-84954042D01*
X163077334Y-86255081D02*
X163077334Y-86255081D01*
X164449998Y-87708388D02*
X164449998Y-87708388D01*
X165662367Y-89297875D02*
X165662367Y-89297875D01*
X166701019Y-91005947D02*
X166701019Y-91005947D01*
X167554458Y-92813694D02*
X167554458Y-92813694D01*
X168213235Y-94701105D02*
X168213235Y-94701105D01*
X168670057Y-96647286D02*
X168670057Y-96647286D01*
X168919868Y-98630693D02*
X168919868Y-98630693D01*
D13*
%TO.C,RV1*%
X139250000Y-68750000D02*
X139250000Y-74250000D01*
X140250000Y-75250000D02*
X146250000Y-75250000D01*
X144800000Y-71500000D02*
X145150000Y-71500000D01*
X145000000Y-72500000D02*
X145000000Y-70500000D01*
X146250000Y-67750000D02*
X140250000Y-67750000D01*
X148250000Y-69750000D02*
X148250000Y-73250000D01*
X145000000Y-72500000D02*
G75*
G02*
X145000000Y-70500000I0J1000000D01*
G01*
%TO.C,R8*%
X190630000Y-116900000D02*
X190630000Y-123440000D01*
X190630000Y-123440000D02*
X193370000Y-123440000D01*
X192000000Y-116130000D02*
X192000000Y-116900000D01*
X192000000Y-124210000D02*
X192000000Y-123440000D01*
X193370000Y-116900000D02*
X190630000Y-116900000D01*
X193370000Y-123440000D02*
X193370000Y-116900000D01*
%TO.C,R7*%
X187380000Y-116900000D02*
X187380000Y-123440000D01*
X187380000Y-123440000D02*
X190120000Y-123440000D01*
X188750000Y-116130000D02*
X188750000Y-116900000D01*
X188750000Y-124210000D02*
X188750000Y-123440000D01*
X190120000Y-116900000D02*
X187380000Y-116900000D01*
X190120000Y-123440000D02*
X190120000Y-116900000D01*
%TO.C,U3*%
X144440000Y-127790000D02*
X144440000Y-138190000D01*
X144440000Y-138190000D02*
X154940000Y-138190000D01*
X147440000Y-127850000D02*
X147440000Y-138130000D01*
X147440000Y-138130000D02*
X148690000Y-138130000D01*
X150690000Y-138130000D02*
X151940000Y-138130000D01*
X151940000Y-127850000D02*
X147440000Y-127850000D01*
X151940000Y-138130000D02*
X151940000Y-127850000D01*
X154940000Y-127790000D02*
X144440000Y-127790000D01*
X154940000Y-138190000D02*
X154940000Y-127790000D01*
X148690000Y-138130000D02*
G75*
G02*
X150690000Y-138130000I1000000J0D01*
G01*
%TO.C,J3*%
X167170000Y-84080000D02*
X167170000Y-82750000D01*
X168500000Y-84080000D02*
X167170000Y-84080000D01*
X169770000Y-81420000D02*
X172370000Y-81420000D01*
X169770000Y-84080000D02*
X169770000Y-81420000D01*
X169770000Y-84080000D02*
X172370000Y-84080000D01*
X172370000Y-84080000D02*
X172370000Y-81420000D01*
%TO.C,R10*%
X109880000Y-67500000D02*
X110650000Y-67500000D01*
X110650000Y-66130000D02*
X110650000Y-68870000D01*
X110650000Y-68870000D02*
X117190000Y-68870000D01*
X117190000Y-66130000D02*
X110650000Y-66130000D01*
X117190000Y-68870000D02*
X117190000Y-66130000D01*
X117960000Y-67500000D02*
X117190000Y-67500000D01*
%TO.C,C9*%
X201695225Y-110275000D02*
X202195225Y-110275000D01*
X201945225Y-110025000D02*
X201945225Y-110525000D01*
X204500000Y-109170000D02*
X204500000Y-114330000D01*
X204540000Y-109170000D02*
X204540000Y-114330000D01*
X204580000Y-109171000D02*
X204580000Y-114329000D01*
X204620000Y-109172000D02*
X204620000Y-114328000D01*
X204660000Y-109174000D02*
X204660000Y-114326000D01*
X204700000Y-109177000D02*
X204700000Y-114323000D01*
X204740000Y-109181000D02*
X204740000Y-110710000D01*
X204740000Y-112790000D02*
X204740000Y-114319000D01*
X204780000Y-109185000D02*
X204780000Y-110710000D01*
X204780000Y-112790000D02*
X204780000Y-114315000D01*
X204820000Y-109189000D02*
X204820000Y-110710000D01*
X204820000Y-112790000D02*
X204820000Y-114311000D01*
X204860000Y-109194000D02*
X204860000Y-110710000D01*
X204860000Y-112790000D02*
X204860000Y-114306000D01*
X204900000Y-109200000D02*
X204900000Y-110710000D01*
X204900000Y-112790000D02*
X204900000Y-114300000D01*
X204940000Y-109207000D02*
X204940000Y-110710000D01*
X204940000Y-112790000D02*
X204940000Y-114293000D01*
X204980000Y-109214000D02*
X204980000Y-110710000D01*
X204980000Y-112790000D02*
X204980000Y-114286000D01*
X205020000Y-109222000D02*
X205020000Y-110710000D01*
X205020000Y-112790000D02*
X205020000Y-114278000D01*
X205060000Y-109230000D02*
X205060000Y-110710000D01*
X205060000Y-112790000D02*
X205060000Y-114270000D01*
X205100000Y-109239000D02*
X205100000Y-110710000D01*
X205100000Y-112790000D02*
X205100000Y-114261000D01*
X205140000Y-109249000D02*
X205140000Y-110710000D01*
X205140000Y-112790000D02*
X205140000Y-114251000D01*
X205180000Y-109259000D02*
X205180000Y-110710000D01*
X205180000Y-112790000D02*
X205180000Y-114241000D01*
X205221000Y-109270000D02*
X205221000Y-110710000D01*
X205221000Y-112790000D02*
X205221000Y-114230000D01*
X205261000Y-109282000D02*
X205261000Y-110710000D01*
X205261000Y-112790000D02*
X205261000Y-114218000D01*
X205301000Y-109295000D02*
X205301000Y-110710000D01*
X205301000Y-112790000D02*
X205301000Y-114205000D01*
X205341000Y-109308000D02*
X205341000Y-110710000D01*
X205341000Y-112790000D02*
X205341000Y-114192000D01*
X205381000Y-109322000D02*
X205381000Y-110710000D01*
X205381000Y-112790000D02*
X205381000Y-114178000D01*
X205421000Y-109336000D02*
X205421000Y-110710000D01*
X205421000Y-112790000D02*
X205421000Y-114164000D01*
X205461000Y-109352000D02*
X205461000Y-110710000D01*
X205461000Y-112790000D02*
X205461000Y-114148000D01*
X205501000Y-109368000D02*
X205501000Y-110710000D01*
X205501000Y-112790000D02*
X205501000Y-114132000D01*
X205541000Y-109385000D02*
X205541000Y-110710000D01*
X205541000Y-112790000D02*
X205541000Y-114115000D01*
X205581000Y-109402000D02*
X205581000Y-110710000D01*
X205581000Y-112790000D02*
X205581000Y-114098000D01*
X205621000Y-109421000D02*
X205621000Y-110710000D01*
X205621000Y-112790000D02*
X205621000Y-114079000D01*
X205661000Y-109440000D02*
X205661000Y-110710000D01*
X205661000Y-112790000D02*
X205661000Y-114060000D01*
X205701000Y-109460000D02*
X205701000Y-110710000D01*
X205701000Y-112790000D02*
X205701000Y-114040000D01*
X205741000Y-109482000D02*
X205741000Y-110710000D01*
X205741000Y-112790000D02*
X205741000Y-114018000D01*
X205781000Y-109503000D02*
X205781000Y-110710000D01*
X205781000Y-112790000D02*
X205781000Y-113997000D01*
X205821000Y-109526000D02*
X205821000Y-110710000D01*
X205821000Y-112790000D02*
X205821000Y-113974000D01*
X205861000Y-109550000D02*
X205861000Y-110710000D01*
X205861000Y-112790000D02*
X205861000Y-113950000D01*
X205901000Y-109575000D02*
X205901000Y-110710000D01*
X205901000Y-112790000D02*
X205901000Y-113925000D01*
X205941000Y-109601000D02*
X205941000Y-110710000D01*
X205941000Y-112790000D02*
X205941000Y-113899000D01*
X205981000Y-109628000D02*
X205981000Y-110710000D01*
X205981000Y-112790000D02*
X205981000Y-113872000D01*
X206021000Y-109655000D02*
X206021000Y-110710000D01*
X206021000Y-112790000D02*
X206021000Y-113845000D01*
X206061000Y-109685000D02*
X206061000Y-110710000D01*
X206061000Y-112790000D02*
X206061000Y-113815000D01*
X206101000Y-109715000D02*
X206101000Y-110710000D01*
X206101000Y-112790000D02*
X206101000Y-113785000D01*
X206141000Y-109746000D02*
X206141000Y-110710000D01*
X206141000Y-112790000D02*
X206141000Y-113754000D01*
X206181000Y-109779000D02*
X206181000Y-110710000D01*
X206181000Y-112790000D02*
X206181000Y-113721000D01*
X206221000Y-109813000D02*
X206221000Y-110710000D01*
X206221000Y-112790000D02*
X206221000Y-113687000D01*
X206261000Y-109849000D02*
X206261000Y-110710000D01*
X206261000Y-112790000D02*
X206261000Y-113651000D01*
X206301000Y-109886000D02*
X206301000Y-110710000D01*
X206301000Y-112790000D02*
X206301000Y-113614000D01*
X206341000Y-109924000D02*
X206341000Y-110710000D01*
X206341000Y-112790000D02*
X206341000Y-113576000D01*
X206381000Y-109965000D02*
X206381000Y-110710000D01*
X206381000Y-112790000D02*
X206381000Y-113535000D01*
X206421000Y-110007000D02*
X206421000Y-110710000D01*
X206421000Y-112790000D02*
X206421000Y-113493000D01*
X206461000Y-110051000D02*
X206461000Y-110710000D01*
X206461000Y-112790000D02*
X206461000Y-113449000D01*
X206501000Y-110097000D02*
X206501000Y-110710000D01*
X206501000Y-112790000D02*
X206501000Y-113403000D01*
X206541000Y-110145000D02*
X206541000Y-110710000D01*
X206541000Y-112790000D02*
X206541000Y-113355000D01*
X206581000Y-110196000D02*
X206581000Y-110710000D01*
X206581000Y-112790000D02*
X206581000Y-113304000D01*
X206621000Y-110250000D02*
X206621000Y-110710000D01*
X206621000Y-112790000D02*
X206621000Y-113250000D01*
X206661000Y-110307000D02*
X206661000Y-110710000D01*
X206661000Y-112790000D02*
X206661000Y-113193000D01*
X206701000Y-110367000D02*
X206701000Y-110710000D01*
X206701000Y-112790000D02*
X206701000Y-113133000D01*
X206741000Y-110431000D02*
X206741000Y-110710000D01*
X206741000Y-112790000D02*
X206741000Y-113069000D01*
X206781000Y-110499000D02*
X206781000Y-110710000D01*
X206781000Y-112790000D02*
X206781000Y-113001000D01*
X206821000Y-110572000D02*
X206821000Y-112928000D01*
X206861000Y-110652000D02*
X206861000Y-112848000D01*
X206901000Y-110739000D02*
X206901000Y-112761000D01*
X206941000Y-110835000D02*
X206941000Y-112665000D01*
X206981000Y-110945000D02*
X206981000Y-112555000D01*
X207021000Y-111073000D02*
X207021000Y-112427000D01*
X207061000Y-111232000D02*
X207061000Y-112268000D01*
X207101000Y-111466000D02*
X207101000Y-112034000D01*
X207120000Y-111750000D02*
G75*
G02*
X201880000Y-111750000I-2620000J0D01*
G01*
X201880000Y-111750000D02*
G75*
G02*
X207120000Y-111750000I2620000J0D01*
G01*
%TO.C,R11*%
X127380000Y-80500000D02*
X128150000Y-80500000D01*
X128150000Y-79130000D02*
X128150000Y-81870000D01*
X128150000Y-81870000D02*
X134690000Y-81870000D01*
X134690000Y-79130000D02*
X128150000Y-79130000D01*
X134690000Y-81870000D02*
X134690000Y-79130000D01*
X135460000Y-80500000D02*
X134690000Y-80500000D01*
%TO.C,R5*%
X184130000Y-116900000D02*
X184130000Y-123440000D01*
X184130000Y-123440000D02*
X186870000Y-123440000D01*
X185500000Y-116130000D02*
X185500000Y-116900000D01*
X185500000Y-124210000D02*
X185500000Y-123440000D01*
X186870000Y-116900000D02*
X184130000Y-116900000D01*
X186870000Y-123440000D02*
X186870000Y-116900000D01*
%TO.C,R4*%
X150130000Y-65810000D02*
X150130000Y-72350000D01*
X150130000Y-72350000D02*
X152870000Y-72350000D01*
X151500000Y-65040000D02*
X151500000Y-65810000D01*
X151500000Y-73120000D02*
X151500000Y-72350000D01*
X152870000Y-65810000D02*
X150130000Y-65810000D01*
X152870000Y-72350000D02*
X152870000Y-65810000D01*
%TO.C,D4*%
X110540000Y-56000000D02*
X111190000Y-56000000D01*
X111190000Y-54880000D02*
X111190000Y-57120000D01*
X111190000Y-57120000D02*
X115430000Y-57120000D01*
X111790000Y-54880000D02*
X111790000Y-57120000D01*
X111910000Y-54880000D02*
X111910000Y-57120000D01*
X112030000Y-54880000D02*
X112030000Y-57120000D01*
X115430000Y-54880000D02*
X111190000Y-54880000D01*
X115430000Y-57120000D02*
X115430000Y-54880000D01*
X116080000Y-56000000D02*
X115430000Y-56000000D01*
%TO.C,C1*%
X180380000Y-98380000D02*
X180380000Y-102120000D01*
X180380000Y-98380000D02*
X187620000Y-98380000D01*
X180380000Y-102120000D02*
X187620000Y-102120000D01*
X187620000Y-98380000D02*
X187620000Y-102120000D01*
%TO.C,C3*%
X179880000Y-115380000D02*
X179880000Y-122620000D01*
X183620000Y-115380000D02*
X179880000Y-115380000D01*
X183620000Y-115380000D02*
X183620000Y-122620000D01*
X183620000Y-122620000D02*
X179880000Y-122620000D01*
%TO.C,U4*%
X119100000Y-63050000D02*
X119100000Y-59450000D01*
X114650000Y-61250000D02*
G75*
G02*
X116151193Y-58893600I2600000J0D01*
G01*
X116151193Y-63606400D02*
G75*
G02*
X114650000Y-61250000I1098807J2356400D01*
G01*
X118372795Y-58925816D02*
G75*
G02*
X119100000Y-59450000I-1122795J-2324184D01*
G01*
X119100000Y-63050000D02*
G75*
G02*
X118372795Y-63574184I-1850000J1800000D01*
G01*
%TO.C,R1*%
X190130000Y-100250000D02*
X190900000Y-100250000D01*
X190900000Y-98880000D02*
X190900000Y-101620000D01*
X190900000Y-101620000D02*
X197440000Y-101620000D01*
X197440000Y-98880000D02*
X190900000Y-98880000D01*
X197440000Y-101620000D02*
X197440000Y-98880000D01*
X198210000Y-100250000D02*
X197440000Y-100250000D01*
%TO.C,C6*%
X165649000Y-61034000D02*
X165649000Y-60466000D01*
X165689000Y-61268000D02*
X165689000Y-60232000D01*
X165729000Y-61427000D02*
X165729000Y-60073000D01*
X165769000Y-61555000D02*
X165769000Y-59945000D01*
X165809000Y-61665000D02*
X165809000Y-59835000D01*
X165849000Y-61761000D02*
X165849000Y-59739000D01*
X165889000Y-61848000D02*
X165889000Y-59652000D01*
X165929000Y-61928000D02*
X165929000Y-59572000D01*
X165969000Y-59710000D02*
X165969000Y-59499000D01*
X165969000Y-62001000D02*
X165969000Y-61790000D01*
X166009000Y-59710000D02*
X166009000Y-59431000D01*
X166009000Y-62069000D02*
X166009000Y-61790000D01*
X166049000Y-59710000D02*
X166049000Y-59367000D01*
X166049000Y-62133000D02*
X166049000Y-61790000D01*
X166089000Y-59710000D02*
X166089000Y-59307000D01*
X166089000Y-62193000D02*
X166089000Y-61790000D01*
X166129000Y-59710000D02*
X166129000Y-59250000D01*
X166129000Y-62250000D02*
X166129000Y-61790000D01*
X166169000Y-59710000D02*
X166169000Y-59196000D01*
X166169000Y-62304000D02*
X166169000Y-61790000D01*
X166209000Y-59710000D02*
X166209000Y-59145000D01*
X166209000Y-62355000D02*
X166209000Y-61790000D01*
X166249000Y-59710000D02*
X166249000Y-59097000D01*
X166249000Y-62403000D02*
X166249000Y-61790000D01*
X166289000Y-59710000D02*
X166289000Y-59051000D01*
X166289000Y-62449000D02*
X166289000Y-61790000D01*
X166329000Y-59710000D02*
X166329000Y-59007000D01*
X166329000Y-62493000D02*
X166329000Y-61790000D01*
X166369000Y-59710000D02*
X166369000Y-58965000D01*
X166369000Y-62535000D02*
X166369000Y-61790000D01*
X166409000Y-59710000D02*
X166409000Y-58924000D01*
X166409000Y-62576000D02*
X166409000Y-61790000D01*
X166449000Y-59710000D02*
X166449000Y-58886000D01*
X166449000Y-62614000D02*
X166449000Y-61790000D01*
X166489000Y-59710000D02*
X166489000Y-58849000D01*
X166489000Y-62651000D02*
X166489000Y-61790000D01*
X166529000Y-59710000D02*
X166529000Y-58813000D01*
X166529000Y-62687000D02*
X166529000Y-61790000D01*
X166569000Y-59710000D02*
X166569000Y-58779000D01*
X166569000Y-62721000D02*
X166569000Y-61790000D01*
X166609000Y-59710000D02*
X166609000Y-58746000D01*
X166609000Y-62754000D02*
X166609000Y-61790000D01*
X166649000Y-59710000D02*
X166649000Y-58715000D01*
X166649000Y-62785000D02*
X166649000Y-61790000D01*
X166689000Y-59710000D02*
X166689000Y-58685000D01*
X166689000Y-62815000D02*
X166689000Y-61790000D01*
X166729000Y-59710000D02*
X166729000Y-58655000D01*
X166729000Y-62845000D02*
X166729000Y-61790000D01*
X166769000Y-59710000D02*
X166769000Y-58628000D01*
X166769000Y-62872000D02*
X166769000Y-61790000D01*
X166809000Y-59710000D02*
X166809000Y-58601000D01*
X166809000Y-62899000D02*
X166809000Y-61790000D01*
X166849000Y-59710000D02*
X166849000Y-58575000D01*
X166849000Y-62925000D02*
X166849000Y-61790000D01*
X166889000Y-59710000D02*
X166889000Y-58550000D01*
X166889000Y-62950000D02*
X166889000Y-61790000D01*
X166929000Y-59710000D02*
X166929000Y-58526000D01*
X166929000Y-62974000D02*
X166929000Y-61790000D01*
X166969000Y-59710000D02*
X166969000Y-58503000D01*
X166969000Y-62997000D02*
X166969000Y-61790000D01*
X167009000Y-59710000D02*
X167009000Y-58482000D01*
X167009000Y-63018000D02*
X167009000Y-61790000D01*
X167049000Y-59710000D02*
X167049000Y-58460000D01*
X167049000Y-63040000D02*
X167049000Y-61790000D01*
X167089000Y-59710000D02*
X167089000Y-58440000D01*
X167089000Y-63060000D02*
X167089000Y-61790000D01*
X167129000Y-59710000D02*
X167129000Y-58421000D01*
X167129000Y-63079000D02*
X167129000Y-61790000D01*
X167169000Y-59710000D02*
X167169000Y-58402000D01*
X167169000Y-63098000D02*
X167169000Y-61790000D01*
X167209000Y-59710000D02*
X167209000Y-58385000D01*
X167209000Y-63115000D02*
X167209000Y-61790000D01*
X167249000Y-59710000D02*
X167249000Y-58368000D01*
X167249000Y-63132000D02*
X167249000Y-61790000D01*
X167289000Y-59710000D02*
X167289000Y-58352000D01*
X167289000Y-63148000D02*
X167289000Y-61790000D01*
X167329000Y-59710000D02*
X167329000Y-58336000D01*
X167329000Y-63164000D02*
X167329000Y-61790000D01*
X167369000Y-59710000D02*
X167369000Y-58322000D01*
X167369000Y-63178000D02*
X167369000Y-61790000D01*
X167409000Y-59710000D02*
X167409000Y-58308000D01*
X167409000Y-63192000D02*
X167409000Y-61790000D01*
X167449000Y-59710000D02*
X167449000Y-58295000D01*
X167449000Y-63205000D02*
X167449000Y-61790000D01*
X167489000Y-59710000D02*
X167489000Y-58282000D01*
X167489000Y-63218000D02*
X167489000Y-61790000D01*
X167529000Y-59710000D02*
X167529000Y-58270000D01*
X167529000Y-63230000D02*
X167529000Y-61790000D01*
X167570000Y-59710000D02*
X167570000Y-58259000D01*
X167570000Y-63241000D02*
X167570000Y-61790000D01*
X167610000Y-59710000D02*
X167610000Y-58249000D01*
X167610000Y-63251000D02*
X167610000Y-61790000D01*
X167650000Y-59710000D02*
X167650000Y-58239000D01*
X167650000Y-63261000D02*
X167650000Y-61790000D01*
X167690000Y-59710000D02*
X167690000Y-58230000D01*
X167690000Y-63270000D02*
X167690000Y-61790000D01*
X167730000Y-59710000D02*
X167730000Y-58222000D01*
X167730000Y-63278000D02*
X167730000Y-61790000D01*
X167770000Y-59710000D02*
X167770000Y-58214000D01*
X167770000Y-63286000D02*
X167770000Y-61790000D01*
X167810000Y-59710000D02*
X167810000Y-58207000D01*
X167810000Y-63293000D02*
X167810000Y-61790000D01*
X167850000Y-59710000D02*
X167850000Y-58200000D01*
X167850000Y-63300000D02*
X167850000Y-61790000D01*
X167890000Y-59710000D02*
X167890000Y-58194000D01*
X167890000Y-63306000D02*
X167890000Y-61790000D01*
X167930000Y-59710000D02*
X167930000Y-58189000D01*
X167930000Y-63311000D02*
X167930000Y-61790000D01*
X167970000Y-59710000D02*
X167970000Y-58185000D01*
X167970000Y-63315000D02*
X167970000Y-61790000D01*
X168010000Y-59710000D02*
X168010000Y-58181000D01*
X168010000Y-63319000D02*
X168010000Y-61790000D01*
X168050000Y-63323000D02*
X168050000Y-58177000D01*
X168090000Y-63326000D02*
X168090000Y-58174000D01*
X168130000Y-63328000D02*
X168130000Y-58172000D01*
X168170000Y-63329000D02*
X168170000Y-58171000D01*
X168210000Y-63330000D02*
X168210000Y-58170000D01*
X168250000Y-63330000D02*
X168250000Y-58170000D01*
X170804775Y-62475000D02*
X170804775Y-61975000D01*
X171054775Y-62225000D02*
X170554775Y-62225000D01*
X170870000Y-60750000D02*
G75*
G02*
X165630000Y-60750000I-2620000J0D01*
G01*
X165630000Y-60750000D02*
G75*
G02*
X170870000Y-60750000I2620000J0D01*
G01*
%TO.C,R3*%
X153630000Y-65810000D02*
X153630000Y-72350000D01*
X153630000Y-72350000D02*
X156370000Y-72350000D01*
X155000000Y-65040000D02*
X155000000Y-65810000D01*
X155000000Y-73120000D02*
X155000000Y-72350000D01*
X156370000Y-65810000D02*
X153630000Y-65810000D01*
X156370000Y-72350000D02*
X156370000Y-65810000D01*
%TO.C,D2*%
X174420000Y-96500000D02*
X175070000Y-96500000D01*
X175070000Y-95380000D02*
X175070000Y-97620000D01*
X175070000Y-97620000D02*
X179310000Y-97620000D01*
X178470000Y-97620000D02*
X178470000Y-95380000D01*
X178590000Y-97620000D02*
X178590000Y-95380000D01*
X178710000Y-97620000D02*
X178710000Y-95380000D01*
X179310000Y-95380000D02*
X175070000Y-95380000D01*
X179310000Y-97620000D02*
X179310000Y-95380000D01*
X179960000Y-96500000D02*
X179310000Y-96500000D01*
%TO.C,R12*%
X155880000Y-129400000D02*
X155880000Y-135940000D01*
X155880000Y-135940000D02*
X158620000Y-135940000D01*
X157250000Y-128630000D02*
X157250000Y-129400000D01*
X157250000Y-136710000D02*
X157250000Y-135940000D01*
X158620000Y-129400000D02*
X155880000Y-129400000D01*
X158620000Y-135940000D02*
X158620000Y-129400000D01*
%TO.C,U2*%
X139620000Y-51810000D02*
X139620000Y-62310000D01*
X139620000Y-62310000D02*
X157640000Y-62310000D01*
X139680000Y-54810000D02*
X139680000Y-59310000D01*
X139680000Y-59310000D02*
X157580000Y-59310000D01*
X157580000Y-54810000D02*
X139680000Y-54810000D01*
X157580000Y-56060000D02*
X157580000Y-54810000D01*
X157580000Y-59310000D02*
X157580000Y-58060000D01*
X157640000Y-51810000D02*
X139620000Y-51810000D01*
X157640000Y-62310000D02*
X157640000Y-51810000D01*
X157580000Y-58060000D02*
G75*
G02*
X157580000Y-56060000I0J1000000D01*
G01*
%TO.C,C8*%
X137920000Y-123710000D02*
X143080000Y-123710000D01*
X137920000Y-123750000D02*
X143080000Y-123750000D01*
X137921000Y-123670000D02*
X143079000Y-123670000D01*
X137922000Y-123630000D02*
X143078000Y-123630000D01*
X137924000Y-123590000D02*
X143076000Y-123590000D01*
X137927000Y-123550000D02*
X143073000Y-123550000D01*
X137931000Y-123510000D02*
X139460000Y-123510000D01*
X137935000Y-123470000D02*
X139460000Y-123470000D01*
X137939000Y-123430000D02*
X139460000Y-123430000D01*
X137944000Y-123390000D02*
X139460000Y-123390000D01*
X137950000Y-123350000D02*
X139460000Y-123350000D01*
X137957000Y-123310000D02*
X139460000Y-123310000D01*
X137964000Y-123270000D02*
X139460000Y-123270000D01*
X137972000Y-123230000D02*
X139460000Y-123230000D01*
X137980000Y-123190000D02*
X139460000Y-123190000D01*
X137989000Y-123150000D02*
X139460000Y-123150000D01*
X137999000Y-123110000D02*
X139460000Y-123110000D01*
X138009000Y-123070000D02*
X139460000Y-123070000D01*
X138020000Y-123029000D02*
X139460000Y-123029000D01*
X138032000Y-122989000D02*
X139460000Y-122989000D01*
X138045000Y-122949000D02*
X139460000Y-122949000D01*
X138058000Y-122909000D02*
X139460000Y-122909000D01*
X138072000Y-122869000D02*
X139460000Y-122869000D01*
X138086000Y-122829000D02*
X139460000Y-122829000D01*
X138102000Y-122789000D02*
X139460000Y-122789000D01*
X138118000Y-122749000D02*
X139460000Y-122749000D01*
X138135000Y-122709000D02*
X139460000Y-122709000D01*
X138152000Y-122669000D02*
X139460000Y-122669000D01*
X138171000Y-122629000D02*
X139460000Y-122629000D01*
X138190000Y-122589000D02*
X139460000Y-122589000D01*
X138210000Y-122549000D02*
X139460000Y-122549000D01*
X138232000Y-122509000D02*
X139460000Y-122509000D01*
X138253000Y-122469000D02*
X139460000Y-122469000D01*
X138276000Y-122429000D02*
X139460000Y-122429000D01*
X138300000Y-122389000D02*
X139460000Y-122389000D01*
X138325000Y-122349000D02*
X139460000Y-122349000D01*
X138351000Y-122309000D02*
X139460000Y-122309000D01*
X138378000Y-122269000D02*
X139460000Y-122269000D01*
X138405000Y-122229000D02*
X139460000Y-122229000D01*
X138435000Y-122189000D02*
X139460000Y-122189000D01*
X138465000Y-122149000D02*
X139460000Y-122149000D01*
X138496000Y-122109000D02*
X139460000Y-122109000D01*
X138529000Y-122069000D02*
X139460000Y-122069000D01*
X138563000Y-122029000D02*
X139460000Y-122029000D01*
X138599000Y-121989000D02*
X139460000Y-121989000D01*
X138636000Y-121949000D02*
X139460000Y-121949000D01*
X138674000Y-121909000D02*
X139460000Y-121909000D01*
X138715000Y-121869000D02*
X139460000Y-121869000D01*
X138757000Y-121829000D02*
X139460000Y-121829000D01*
X138775000Y-126304775D02*
X139275000Y-126304775D01*
X138801000Y-121789000D02*
X139460000Y-121789000D01*
X138847000Y-121749000D02*
X139460000Y-121749000D01*
X138895000Y-121709000D02*
X139460000Y-121709000D01*
X138946000Y-121669000D02*
X139460000Y-121669000D01*
X139000000Y-121629000D02*
X139460000Y-121629000D01*
X139025000Y-126554775D02*
X139025000Y-126054775D01*
X139057000Y-121589000D02*
X139460000Y-121589000D01*
X139117000Y-121549000D02*
X139460000Y-121549000D01*
X139181000Y-121509000D02*
X139460000Y-121509000D01*
X139249000Y-121469000D02*
X139460000Y-121469000D01*
X139322000Y-121429000D02*
X141678000Y-121429000D01*
X139402000Y-121389000D02*
X141598000Y-121389000D01*
X139489000Y-121349000D02*
X141511000Y-121349000D01*
X139585000Y-121309000D02*
X141415000Y-121309000D01*
X139695000Y-121269000D02*
X141305000Y-121269000D01*
X139823000Y-121229000D02*
X141177000Y-121229000D01*
X139982000Y-121189000D02*
X141018000Y-121189000D01*
X140216000Y-121149000D02*
X140784000Y-121149000D01*
X141540000Y-121469000D02*
X141751000Y-121469000D01*
X141540000Y-121509000D02*
X141819000Y-121509000D01*
X141540000Y-121549000D02*
X141883000Y-121549000D01*
X141540000Y-121589000D02*
X141943000Y-121589000D01*
X141540000Y-121629000D02*
X142000000Y-121629000D01*
X141540000Y-121669000D02*
X142054000Y-121669000D01*
X141540000Y-121709000D02*
X142105000Y-121709000D01*
X141540000Y-121749000D02*
X142153000Y-121749000D01*
X141540000Y-121789000D02*
X142199000Y-121789000D01*
X141540000Y-121829000D02*
X142243000Y-121829000D01*
X141540000Y-121869000D02*
X142285000Y-121869000D01*
X141540000Y-121909000D02*
X142326000Y-121909000D01*
X141540000Y-121949000D02*
X142364000Y-121949000D01*
X141540000Y-121989000D02*
X142401000Y-121989000D01*
X141540000Y-122029000D02*
X142437000Y-122029000D01*
X141540000Y-122069000D02*
X142471000Y-122069000D01*
X141540000Y-122109000D02*
X142504000Y-122109000D01*
X141540000Y-122149000D02*
X142535000Y-122149000D01*
X141540000Y-122189000D02*
X142565000Y-122189000D01*
X141540000Y-122229000D02*
X142595000Y-122229000D01*
X141540000Y-122269000D02*
X142622000Y-122269000D01*
X141540000Y-122309000D02*
X142649000Y-122309000D01*
X141540000Y-122349000D02*
X142675000Y-122349000D01*
X141540000Y-122389000D02*
X142700000Y-122389000D01*
X141540000Y-122429000D02*
X142724000Y-122429000D01*
X141540000Y-122469000D02*
X142747000Y-122469000D01*
X141540000Y-122509000D02*
X142768000Y-122509000D01*
X141540000Y-122549000D02*
X142790000Y-122549000D01*
X141540000Y-122589000D02*
X142810000Y-122589000D01*
X141540000Y-122629000D02*
X142829000Y-122629000D01*
X141540000Y-122669000D02*
X142848000Y-122669000D01*
X141540000Y-122709000D02*
X142865000Y-122709000D01*
X141540000Y-122749000D02*
X142882000Y-122749000D01*
X141540000Y-122789000D02*
X142898000Y-122789000D01*
X141540000Y-122829000D02*
X142914000Y-122829000D01*
X141540000Y-122869000D02*
X142928000Y-122869000D01*
X141540000Y-122909000D02*
X142942000Y-122909000D01*
X141540000Y-122949000D02*
X142955000Y-122949000D01*
X141540000Y-122989000D02*
X142968000Y-122989000D01*
X141540000Y-123029000D02*
X142980000Y-123029000D01*
X141540000Y-123070000D02*
X142991000Y-123070000D01*
X141540000Y-123110000D02*
X143001000Y-123110000D01*
X141540000Y-123150000D02*
X143011000Y-123150000D01*
X141540000Y-123190000D02*
X143020000Y-123190000D01*
X141540000Y-123230000D02*
X143028000Y-123230000D01*
X141540000Y-123270000D02*
X143036000Y-123270000D01*
X141540000Y-123310000D02*
X143043000Y-123310000D01*
X141540000Y-123350000D02*
X143050000Y-123350000D01*
X141540000Y-123390000D02*
X143056000Y-123390000D01*
X141540000Y-123430000D02*
X143061000Y-123430000D01*
X141540000Y-123470000D02*
X143065000Y-123470000D01*
X141540000Y-123510000D02*
X143069000Y-123510000D01*
X143120000Y-123750000D02*
G75*
G02*
X137880000Y-123750000I-2620000J0D01*
G01*
X137880000Y-123750000D02*
G75*
G02*
X143120000Y-123750000I2620000J0D01*
G01*
%TO.C,C5*%
X194880000Y-114130000D02*
X198620000Y-114130000D01*
X194880000Y-121370000D02*
X194880000Y-114130000D01*
X194880000Y-121370000D02*
X198620000Y-121370000D01*
X198620000Y-121370000D02*
X198620000Y-114130000D01*
%TO.C,SW1*%
X125500000Y-55950000D02*
X123200000Y-55950000D01*
X131800000Y-55950000D02*
X129600000Y-55950000D01*
X131800000Y-60550000D02*
X123200000Y-60550000D01*
%TO.C,C12*%
X145130000Y-126870000D02*
X145130000Y-123130000D01*
X152370000Y-123130000D02*
X145130000Y-123130000D01*
X152370000Y-126870000D02*
X145130000Y-126870000D01*
X152370000Y-126870000D02*
X152370000Y-123130000D01*
%TO.C,C11*%
X107149000Y-62284000D02*
X107149000Y-61716000D01*
X107189000Y-62518000D02*
X107189000Y-61482000D01*
X107229000Y-62677000D02*
X107229000Y-61323000D01*
X107269000Y-62805000D02*
X107269000Y-61195000D01*
X107309000Y-62915000D02*
X107309000Y-61085000D01*
X107349000Y-63011000D02*
X107349000Y-60989000D01*
X107389000Y-63098000D02*
X107389000Y-60902000D01*
X107429000Y-63178000D02*
X107429000Y-60822000D01*
X107469000Y-60960000D02*
X107469000Y-60749000D01*
X107469000Y-63251000D02*
X107469000Y-63040000D01*
X107509000Y-60960000D02*
X107509000Y-60681000D01*
X107509000Y-63319000D02*
X107509000Y-63040000D01*
X107549000Y-60960000D02*
X107549000Y-60617000D01*
X107549000Y-63383000D02*
X107549000Y-63040000D01*
X107589000Y-60960000D02*
X107589000Y-60557000D01*
X107589000Y-63443000D02*
X107589000Y-63040000D01*
X107629000Y-60960000D02*
X107629000Y-60500000D01*
X107629000Y-63500000D02*
X107629000Y-63040000D01*
X107669000Y-60960000D02*
X107669000Y-60446000D01*
X107669000Y-63554000D02*
X107669000Y-63040000D01*
X107709000Y-60960000D02*
X107709000Y-60395000D01*
X107709000Y-63605000D02*
X107709000Y-63040000D01*
X107749000Y-60960000D02*
X107749000Y-60347000D01*
X107749000Y-63653000D02*
X107749000Y-63040000D01*
X107789000Y-60960000D02*
X107789000Y-60301000D01*
X107789000Y-63699000D02*
X107789000Y-63040000D01*
X107829000Y-60960000D02*
X107829000Y-60257000D01*
X107829000Y-63743000D02*
X107829000Y-63040000D01*
X107869000Y-60960000D02*
X107869000Y-60215000D01*
X107869000Y-63785000D02*
X107869000Y-63040000D01*
X107909000Y-60960000D02*
X107909000Y-60174000D01*
X107909000Y-63826000D02*
X107909000Y-63040000D01*
X107949000Y-60960000D02*
X107949000Y-60136000D01*
X107949000Y-63864000D02*
X107949000Y-63040000D01*
X107989000Y-60960000D02*
X107989000Y-60099000D01*
X107989000Y-63901000D02*
X107989000Y-63040000D01*
X108029000Y-60960000D02*
X108029000Y-60063000D01*
X108029000Y-63937000D02*
X108029000Y-63040000D01*
X108069000Y-60960000D02*
X108069000Y-60029000D01*
X108069000Y-63971000D02*
X108069000Y-63040000D01*
X108109000Y-60960000D02*
X108109000Y-59996000D01*
X108109000Y-64004000D02*
X108109000Y-63040000D01*
X108149000Y-60960000D02*
X108149000Y-59965000D01*
X108149000Y-64035000D02*
X108149000Y-63040000D01*
X108189000Y-60960000D02*
X108189000Y-59935000D01*
X108189000Y-64065000D02*
X108189000Y-63040000D01*
X108229000Y-60960000D02*
X108229000Y-59905000D01*
X108229000Y-64095000D02*
X108229000Y-63040000D01*
X108269000Y-60960000D02*
X108269000Y-59878000D01*
X108269000Y-64122000D02*
X108269000Y-63040000D01*
X108309000Y-60960000D02*
X108309000Y-59851000D01*
X108309000Y-64149000D02*
X108309000Y-63040000D01*
X108349000Y-60960000D02*
X108349000Y-59825000D01*
X108349000Y-64175000D02*
X108349000Y-63040000D01*
X108389000Y-60960000D02*
X108389000Y-59800000D01*
X108389000Y-64200000D02*
X108389000Y-63040000D01*
X108429000Y-60960000D02*
X108429000Y-59776000D01*
X108429000Y-64224000D02*
X108429000Y-63040000D01*
X108469000Y-60960000D02*
X108469000Y-59753000D01*
X108469000Y-64247000D02*
X108469000Y-63040000D01*
X108509000Y-60960000D02*
X108509000Y-59732000D01*
X108509000Y-64268000D02*
X108509000Y-63040000D01*
X108549000Y-60960000D02*
X108549000Y-59710000D01*
X108549000Y-64290000D02*
X108549000Y-63040000D01*
X108589000Y-60960000D02*
X108589000Y-59690000D01*
X108589000Y-64310000D02*
X108589000Y-63040000D01*
X108629000Y-60960000D02*
X108629000Y-59671000D01*
X108629000Y-64329000D02*
X108629000Y-63040000D01*
X108669000Y-60960000D02*
X108669000Y-59652000D01*
X108669000Y-64348000D02*
X108669000Y-63040000D01*
X108709000Y-60960000D02*
X108709000Y-59635000D01*
X108709000Y-64365000D02*
X108709000Y-63040000D01*
X108749000Y-60960000D02*
X108749000Y-59618000D01*
X108749000Y-64382000D02*
X108749000Y-63040000D01*
X108789000Y-60960000D02*
X108789000Y-59602000D01*
X108789000Y-64398000D02*
X108789000Y-63040000D01*
X108829000Y-60960000D02*
X108829000Y-59586000D01*
X108829000Y-64414000D02*
X108829000Y-63040000D01*
X108869000Y-60960000D02*
X108869000Y-59572000D01*
X108869000Y-64428000D02*
X108869000Y-63040000D01*
X108909000Y-60960000D02*
X108909000Y-59558000D01*
X108909000Y-64442000D02*
X108909000Y-63040000D01*
X108949000Y-60960000D02*
X108949000Y-59545000D01*
X108949000Y-64455000D02*
X108949000Y-63040000D01*
X108989000Y-60960000D02*
X108989000Y-59532000D01*
X108989000Y-64468000D02*
X108989000Y-63040000D01*
X109029000Y-60960000D02*
X109029000Y-59520000D01*
X109029000Y-64480000D02*
X109029000Y-63040000D01*
X109070000Y-60960000D02*
X109070000Y-59509000D01*
X109070000Y-64491000D02*
X109070000Y-63040000D01*
X109110000Y-60960000D02*
X109110000Y-59499000D01*
X109110000Y-64501000D02*
X109110000Y-63040000D01*
X109150000Y-60960000D02*
X109150000Y-59489000D01*
X109150000Y-64511000D02*
X109150000Y-63040000D01*
X109190000Y-60960000D02*
X109190000Y-59480000D01*
X109190000Y-64520000D02*
X109190000Y-63040000D01*
X109230000Y-60960000D02*
X109230000Y-59472000D01*
X109230000Y-64528000D02*
X109230000Y-63040000D01*
X109270000Y-60960000D02*
X109270000Y-59464000D01*
X109270000Y-64536000D02*
X109270000Y-63040000D01*
X109310000Y-60960000D02*
X109310000Y-59457000D01*
X109310000Y-64543000D02*
X109310000Y-63040000D01*
X109350000Y-60960000D02*
X109350000Y-59450000D01*
X109350000Y-64550000D02*
X109350000Y-63040000D01*
X109390000Y-60960000D02*
X109390000Y-59444000D01*
X109390000Y-64556000D02*
X109390000Y-63040000D01*
X109430000Y-60960000D02*
X109430000Y-59439000D01*
X109430000Y-64561000D02*
X109430000Y-63040000D01*
X109470000Y-60960000D02*
X109470000Y-59435000D01*
X109470000Y-64565000D02*
X109470000Y-63040000D01*
X109510000Y-60960000D02*
X109510000Y-59431000D01*
X109510000Y-64569000D02*
X109510000Y-63040000D01*
X109550000Y-64573000D02*
X109550000Y-59427000D01*
X109590000Y-64576000D02*
X109590000Y-59424000D01*
X109630000Y-64578000D02*
X109630000Y-59422000D01*
X109670000Y-64579000D02*
X109670000Y-59421000D01*
X109710000Y-64580000D02*
X109710000Y-59420000D01*
X109750000Y-64580000D02*
X109750000Y-59420000D01*
X112304775Y-63725000D02*
X112304775Y-63225000D01*
X112554775Y-63475000D02*
X112054775Y-63475000D01*
X112370000Y-62000000D02*
G75*
G02*
X107130000Y-62000000I-2620000J0D01*
G01*
X107130000Y-62000000D02*
G75*
G02*
X112370000Y-62000000I2620000J0D01*
G01*
%TO.C,C4*%
X194880000Y-122130000D02*
X194880000Y-129370000D01*
X198620000Y-122130000D02*
X194880000Y-122130000D01*
X198620000Y-122130000D02*
X198620000Y-129370000D01*
X198620000Y-129370000D02*
X194880000Y-129370000D01*
%TO.C,RV3*%
X126620000Y-76345000D02*
X126620000Y-71625000D01*
X126630000Y-67815000D02*
X126630000Y-64755000D01*
X127810000Y-76345000D02*
X126630000Y-76345000D01*
X130710000Y-76345000D02*
X130180000Y-76345000D01*
X133160000Y-76345000D02*
X132330000Y-76345000D01*
X136370000Y-64755000D02*
X126630000Y-64755000D01*
X136370000Y-67815000D02*
X136370000Y-64755000D01*
X136370000Y-76345000D02*
X134880000Y-76345000D01*
X136370000Y-76345000D02*
X136370000Y-71625000D01*
%TO.C,R6*%
X183790000Y-128250000D02*
X184560000Y-128250000D01*
X184560000Y-126880000D02*
X184560000Y-129620000D01*
X184560000Y-129620000D02*
X191100000Y-129620000D01*
X191100000Y-126880000D02*
X184560000Y-126880000D01*
X191100000Y-129620000D02*
X191100000Y-126880000D01*
X191870000Y-128250000D02*
X191100000Y-128250000D01*
%TO.C,RV2*%
X163620000Y-76120000D02*
X163620000Y-71400000D01*
X163630000Y-67590000D02*
X163630000Y-64530000D01*
X164810000Y-76120000D02*
X163630000Y-76120000D01*
X167710000Y-76120000D02*
X167180000Y-76120000D01*
X170160000Y-76120000D02*
X169330000Y-76120000D01*
X173370000Y-64530000D02*
X163630000Y-64530000D01*
X173370000Y-67590000D02*
X173370000Y-64530000D01*
X173370000Y-76120000D02*
X171880000Y-76120000D01*
X173370000Y-76120000D02*
X173370000Y-71400000D01*
%TO.C,C2*%
X142380000Y-62880000D02*
X142380000Y-66620000D01*
X142380000Y-62880000D02*
X149620000Y-62880000D01*
X142380000Y-66620000D02*
X149620000Y-66620000D01*
X149620000Y-62880000D02*
X149620000Y-66620000D01*
%TO.C,U1*%
X182620000Y-102810000D02*
X182620000Y-113310000D01*
X182620000Y-113310000D02*
X200640000Y-113310000D01*
X182680000Y-105810000D02*
X182680000Y-110310000D01*
X182680000Y-110310000D02*
X200580000Y-110310000D01*
X200580000Y-105810000D02*
X182680000Y-105810000D01*
X200580000Y-107060000D02*
X200580000Y-105810000D01*
X200580000Y-110310000D02*
X200580000Y-109060000D01*
X200640000Y-102810000D02*
X182620000Y-102810000D01*
X200640000Y-113310000D02*
X200640000Y-102810000D01*
X200580000Y-109060000D02*
G75*
G02*
X200580000Y-107060000I0J1000000D01*
G01*
%TO.C,C10*%
X158695225Y-59275000D02*
X159195225Y-59275000D01*
X158945225Y-59025000D02*
X158945225Y-59525000D01*
X161500000Y-58170000D02*
X161500000Y-63330000D01*
X161540000Y-58170000D02*
X161540000Y-63330000D01*
X161580000Y-58171000D02*
X161580000Y-63329000D01*
X161620000Y-58172000D02*
X161620000Y-63328000D01*
X161660000Y-58174000D02*
X161660000Y-63326000D01*
X161700000Y-58177000D02*
X161700000Y-63323000D01*
X161740000Y-58181000D02*
X161740000Y-59710000D01*
X161740000Y-61790000D02*
X161740000Y-63319000D01*
X161780000Y-58185000D02*
X161780000Y-59710000D01*
X161780000Y-61790000D02*
X161780000Y-63315000D01*
X161820000Y-58189000D02*
X161820000Y-59710000D01*
X161820000Y-61790000D02*
X161820000Y-63311000D01*
X161860000Y-58194000D02*
X161860000Y-59710000D01*
X161860000Y-61790000D02*
X161860000Y-63306000D01*
X161900000Y-58200000D02*
X161900000Y-59710000D01*
X161900000Y-61790000D02*
X161900000Y-63300000D01*
X161940000Y-58207000D02*
X161940000Y-59710000D01*
X161940000Y-61790000D02*
X161940000Y-63293000D01*
X161980000Y-58214000D02*
X161980000Y-59710000D01*
X161980000Y-61790000D02*
X161980000Y-63286000D01*
X162020000Y-58222000D02*
X162020000Y-59710000D01*
X162020000Y-61790000D02*
X162020000Y-63278000D01*
X162060000Y-58230000D02*
X162060000Y-59710000D01*
X162060000Y-61790000D02*
X162060000Y-63270000D01*
X162100000Y-58239000D02*
X162100000Y-59710000D01*
X162100000Y-61790000D02*
X162100000Y-63261000D01*
X162140000Y-58249000D02*
X162140000Y-59710000D01*
X162140000Y-61790000D02*
X162140000Y-63251000D01*
X162180000Y-58259000D02*
X162180000Y-59710000D01*
X162180000Y-61790000D02*
X162180000Y-63241000D01*
X162221000Y-58270000D02*
X162221000Y-59710000D01*
X162221000Y-61790000D02*
X162221000Y-63230000D01*
X162261000Y-58282000D02*
X162261000Y-59710000D01*
X162261000Y-61790000D02*
X162261000Y-63218000D01*
X162301000Y-58295000D02*
X162301000Y-59710000D01*
X162301000Y-61790000D02*
X162301000Y-63205000D01*
X162341000Y-58308000D02*
X162341000Y-59710000D01*
X162341000Y-61790000D02*
X162341000Y-63192000D01*
X162381000Y-58322000D02*
X162381000Y-59710000D01*
X162381000Y-61790000D02*
X162381000Y-63178000D01*
X162421000Y-58336000D02*
X162421000Y-59710000D01*
X162421000Y-61790000D02*
X162421000Y-63164000D01*
X162461000Y-58352000D02*
X162461000Y-59710000D01*
X162461000Y-61790000D02*
X162461000Y-63148000D01*
X162501000Y-58368000D02*
X162501000Y-59710000D01*
X162501000Y-61790000D02*
X162501000Y-63132000D01*
X162541000Y-58385000D02*
X162541000Y-59710000D01*
X162541000Y-61790000D02*
X162541000Y-63115000D01*
X162581000Y-58402000D02*
X162581000Y-59710000D01*
X162581000Y-61790000D02*
X162581000Y-63098000D01*
X162621000Y-58421000D02*
X162621000Y-59710000D01*
X162621000Y-61790000D02*
X162621000Y-63079000D01*
X162661000Y-58440000D02*
X162661000Y-59710000D01*
X162661000Y-61790000D02*
X162661000Y-63060000D01*
X162701000Y-58460000D02*
X162701000Y-59710000D01*
X162701000Y-61790000D02*
X162701000Y-63040000D01*
X162741000Y-58482000D02*
X162741000Y-59710000D01*
X162741000Y-61790000D02*
X162741000Y-63018000D01*
X162781000Y-58503000D02*
X162781000Y-59710000D01*
X162781000Y-61790000D02*
X162781000Y-62997000D01*
X162821000Y-58526000D02*
X162821000Y-59710000D01*
X162821000Y-61790000D02*
X162821000Y-62974000D01*
X162861000Y-58550000D02*
X162861000Y-59710000D01*
X162861000Y-61790000D02*
X162861000Y-62950000D01*
X162901000Y-58575000D02*
X162901000Y-59710000D01*
X162901000Y-61790000D02*
X162901000Y-62925000D01*
X162941000Y-58601000D02*
X162941000Y-59710000D01*
X162941000Y-61790000D02*
X162941000Y-62899000D01*
X162981000Y-58628000D02*
X162981000Y-59710000D01*
X162981000Y-61790000D02*
X162981000Y-62872000D01*
X163021000Y-58655000D02*
X163021000Y-59710000D01*
X163021000Y-61790000D02*
X163021000Y-62845000D01*
X163061000Y-58685000D02*
X163061000Y-59710000D01*
X163061000Y-61790000D02*
X163061000Y-62815000D01*
X163101000Y-58715000D02*
X163101000Y-59710000D01*
X163101000Y-61790000D02*
X163101000Y-62785000D01*
X163141000Y-58746000D02*
X163141000Y-59710000D01*
X163141000Y-61790000D02*
X163141000Y-62754000D01*
X163181000Y-58779000D02*
X163181000Y-59710000D01*
X163181000Y-61790000D02*
X163181000Y-62721000D01*
X163221000Y-58813000D02*
X163221000Y-59710000D01*
X163221000Y-61790000D02*
X163221000Y-62687000D01*
X163261000Y-58849000D02*
X163261000Y-59710000D01*
X163261000Y-61790000D02*
X163261000Y-62651000D01*
X163301000Y-58886000D02*
X163301000Y-59710000D01*
X163301000Y-61790000D02*
X163301000Y-62614000D01*
X163341000Y-58924000D02*
X163341000Y-59710000D01*
X163341000Y-61790000D02*
X163341000Y-62576000D01*
X163381000Y-58965000D02*
X163381000Y-59710000D01*
X163381000Y-61790000D02*
X163381000Y-62535000D01*
X163421000Y-59007000D02*
X163421000Y-59710000D01*
X163421000Y-61790000D02*
X163421000Y-62493000D01*
X163461000Y-59051000D02*
X163461000Y-59710000D01*
X163461000Y-61790000D02*
X163461000Y-62449000D01*
X163501000Y-59097000D02*
X163501000Y-59710000D01*
X163501000Y-61790000D02*
X163501000Y-62403000D01*
X163541000Y-59145000D02*
X163541000Y-59710000D01*
X163541000Y-61790000D02*
X163541000Y-62355000D01*
X163581000Y-59196000D02*
X163581000Y-59710000D01*
X163581000Y-61790000D02*
X163581000Y-62304000D01*
X163621000Y-59250000D02*
X163621000Y-59710000D01*
X163621000Y-61790000D02*
X163621000Y-62250000D01*
X163661000Y-59307000D02*
X163661000Y-59710000D01*
X163661000Y-61790000D02*
X163661000Y-62193000D01*
X163701000Y-59367000D02*
X163701000Y-59710000D01*
X163701000Y-61790000D02*
X163701000Y-62133000D01*
X163741000Y-59431000D02*
X163741000Y-59710000D01*
X163741000Y-61790000D02*
X163741000Y-62069000D01*
X163781000Y-59499000D02*
X163781000Y-59710000D01*
X163781000Y-61790000D02*
X163781000Y-62001000D01*
X163821000Y-59572000D02*
X163821000Y-61928000D01*
X163861000Y-59652000D02*
X163861000Y-61848000D01*
X163901000Y-59739000D02*
X163901000Y-61761000D01*
X163941000Y-59835000D02*
X163941000Y-61665000D01*
X163981000Y-59945000D02*
X163981000Y-61555000D01*
X164021000Y-60073000D02*
X164021000Y-61427000D01*
X164061000Y-60232000D02*
X164061000Y-61268000D01*
X164101000Y-60466000D02*
X164101000Y-61034000D01*
X164120000Y-60750000D02*
G75*
G02*
X158880000Y-60750000I-2620000J0D01*
G01*
X158880000Y-60750000D02*
G75*
G02*
X164120000Y-60750000I2620000J0D01*
G01*
%TO.C,R13*%
X96540000Y-66750000D02*
X97310000Y-66750000D01*
X97310000Y-65380000D02*
X97310000Y-68120000D01*
X97310000Y-68120000D02*
X103850000Y-68120000D01*
X103850000Y-65380000D02*
X97310000Y-65380000D01*
X103850000Y-68120000D02*
X103850000Y-65380000D01*
X104620000Y-66750000D02*
X103850000Y-66750000D01*
D10*
%TO.C,J1*%
X184500000Y-65000000D02*
X187400000Y-65000000D01*
X184500000Y-75500000D02*
X184500000Y-65000000D01*
X184500000Y-75500000D02*
X187500000Y-75500000D01*
X190500000Y-75500000D02*
X193500000Y-75500000D01*
X190600000Y-65000000D02*
X193500000Y-65000000D01*
X193500000Y-75500000D02*
X193500000Y-65000000D01*
D13*
X187603000Y-73539999D02*
G75*
G02*
X190397000Y-73539999I1397000J2539999D01*
G01*
X190800000Y-71000000D02*
G75*
G02*
X187200000Y-71000000I-1800000J0D01*
G01*
X187200000Y-71000000D02*
G75*
G02*
X190800000Y-71000000I1800000J0D01*
G01*
%TO.C,C7*%
X139880000Y-128130000D02*
X143620000Y-128130000D01*
X139880000Y-135370000D02*
X139880000Y-128130000D01*
X139880000Y-135370000D02*
X143620000Y-135370000D01*
X143620000Y-135370000D02*
X143620000Y-128130000D01*
%TD*%
M02*
