G04 #@! TF.GenerationSoftware,KiCad,Pcbnew,8.0.3*
G04 #@! TF.CreationDate,2024-06-30T20:16:38+01:00*
G04 #@! TF.ProjectId,theremin,74686572-656d-4696-9e2e-6b696361645f,rev?*
G04 #@! TF.SameCoordinates,Original*
G04 #@! TF.FileFunction,Soldermask,Bot*
G04 #@! TF.FilePolarity,Negative*
%FSLAX46Y46*%
G04 Gerber Fmt 4.6, Leading zero omitted, Abs format (unit mm)*
G04 Created by KiCad (PCBNEW 8.0.3) date 2024-06-30 20:16:38*
%MOMM*%
%LPD*%
G01*
G04 APERTURE LIST*
G04 Aperture macros list*
%AMRoundRect*
0 Rectangle with rounded corners*
0 $1 Rounding radius*
0 $2 $3 $4 $5 $6 $7 $8 $9 X,Y pos of 4 corners*
0 Add a 4 corners polygon primitive as box body*
4,1,4,$2,$3,$4,$5,$6,$7,$8,$9,$2,$3,0*
0 Add four circle primitives for the rounded corners*
1,1,$1+$1,$2,$3*
1,1,$1+$1,$4,$5*
1,1,$1+$1,$6,$7*
1,1,$1+$1,$8,$9*
0 Add four rect primitives between the rounded corners*
20,1,$1+$1,$2,$3,$4,$5,0*
20,1,$1+$1,$4,$5,$6,$7,0*
20,1,$1+$1,$6,$7,$8,$9,0*
20,1,$1+$1,$8,$9,$2,$3,0*%
%AMOutline5P*
0 Free polygon, 5 corners , with rotation*
0 The origin of the aperture is its center*
0 number of corners: always 5*
0 $1 to $10 corner X, Y*
0 $11 Rotation angle, in degrees counterclockwise*
0 create outline with 5 corners*
4,1,5,$1,$2,$3,$4,$5,$6,$7,$8,$9,$10,$1,$2,$11*%
%AMOutline6P*
0 Free polygon, 6 corners , with rotation*
0 The origin of the aperture is its center*
0 number of corners: always 6*
0 $1 to $12 corner X, Y*
0 $13 Rotation angle, in degrees counterclockwise*
0 create outline with 6 corners*
4,1,6,$1,$2,$3,$4,$5,$6,$7,$8,$9,$10,$11,$12,$1,$2,$13*%
%AMOutline7P*
0 Free polygon, 7 corners , with rotation*
0 The origin of the aperture is its center*
0 number of corners: always 7*
0 $1 to $14 corner X, Y*
0 $15 Rotation angle, in degrees counterclockwise*
0 create outline with 7 corners*
4,1,7,$1,$2,$3,$4,$5,$6,$7,$8,$9,$10,$11,$12,$13,$14,$1,$2,$15*%
%AMOutline8P*
0 Free polygon, 8 corners , with rotation*
0 The origin of the aperture is its center*
0 number of corners: always 8*
0 $1 to $16 corner X, Y*
0 $17 Rotation angle, in degrees counterclockwise*
0 create outline with 8 corners*
4,1,8,$1,$2,$3,$4,$5,$6,$7,$8,$9,$10,$11,$12,$13,$14,$15,$16,$1,$2,$17*%
G04 Aperture macros list end*
%ADD10C,0.150000*%
%ADD11C,3.200000*%
%ADD12R,1.600000X1.600000*%
%ADD13O,1.600000X1.600000*%
%ADD14C,1.600000*%
%ADD15R,1.800000X1.800000*%
%ADD16C,1.800000*%
%ADD17Outline6P,-5.520000X2.540000X4.504000X2.540000X5.520000X1.524000X5.520000X-1.524000X4.504000X-2.540000X-5.520000X-2.540000X180.000000*%
%ADD18Outline6P,-5.520000X2.540000X4.504000X2.540000X5.520000X1.524000X5.520000X-1.524000X4.504000X-2.540000X-5.520000X-2.540000X0.000000*%
%ADD19O,5.393000X2.692000*%
%ADD20O,2.692000X5.393000*%
%ADD21C,2.000000*%
%ADD22R,2.400000X1.600000*%
%ADD23O,2.400000X1.600000*%
%ADD24C,6.000000*%
%ADD25C,17.500000*%
%ADD26R,1.700000X1.700000*%
%ADD27O,1.700000X1.700000*%
%ADD28R,1.500000X1.500000*%
%ADD29C,1.500000*%
%ADD30R,1.600000X2.400000*%
%ADD31O,1.600000X2.400000*%
%ADD32O,2.200000X3.500000*%
%ADD33R,1.500000X2.500000*%
%ADD34O,1.500000X2.500000*%
%ADD35O,2.720000X3.240000*%
%ADD36O,3.100000X2.300000*%
%ADD37RoundRect,0.650000X-0.650000X-0.650000X0.650000X-0.650000X0.650000X0.650000X-0.650000X0.650000X0*%
%ADD38C,2.600000*%
%ADD39R,3.000000X3.000000*%
%ADD40C,3.000000*%
G04 APERTURE END LIST*
D10*
G36*
X115702566Y-74896863D02*
G01*
X115803194Y-75379732D01*
X115847307Y-75406505D01*
X115895274Y-75425893D01*
X115943543Y-75437912D01*
X115993466Y-75443568D01*
X116024967Y-75444456D01*
X116076235Y-75439716D01*
X116122628Y-75423884D01*
X116143669Y-75410750D01*
X116175565Y-75373110D01*
X116182778Y-75323876D01*
X116180305Y-75307680D01*
X116088470Y-74865356D01*
X116245274Y-74865356D01*
X116262136Y-74815131D01*
X116267050Y-74761846D01*
X116261150Y-74710750D01*
X116247919Y-74663593D01*
X116226044Y-74616683D01*
X116222803Y-74611344D01*
X116193345Y-74571825D01*
X116165406Y-74545886D01*
X115470535Y-74545886D01*
X115457018Y-74594435D01*
X115453927Y-74620625D01*
X115453824Y-74669929D01*
X115459300Y-74708064D01*
X115473946Y-74758622D01*
X115496901Y-74802323D01*
X115518896Y-74827254D01*
X115562616Y-74854603D01*
X115613635Y-74865207D01*
X115620989Y-74865356D01*
X115817849Y-74865356D01*
X115821757Y-74875614D01*
X115811010Y-74891979D01*
X115760520Y-74896787D01*
X115748972Y-74896863D01*
X115702566Y-74896863D01*
G37*
G36*
X114794471Y-75092013D02*
G01*
X114801375Y-75141490D01*
X114800333Y-75171637D01*
X114776677Y-75215698D01*
X114772489Y-75219020D01*
X114774443Y-75232209D01*
X114776886Y-75244421D01*
X114791550Y-75294404D01*
X114816136Y-75342146D01*
X114849452Y-75381683D01*
X114861150Y-75391944D01*
X114903382Y-75419636D01*
X114949478Y-75437071D01*
X114999438Y-75444251D01*
X115009893Y-75444456D01*
X115062861Y-75438684D01*
X115109320Y-75419221D01*
X115136411Y-75395607D01*
X115161840Y-75350511D01*
X115169931Y-75297694D01*
X115166099Y-75247334D01*
X115162301Y-75226591D01*
X115151110Y-75178708D01*
X115140319Y-75141839D01*
X115125166Y-75094730D01*
X115123466Y-75089327D01*
X115113452Y-75059773D01*
X115103194Y-75019229D01*
X115102217Y-74980639D01*
X115119314Y-74968915D01*
X115142273Y-74974533D01*
X115156683Y-75086396D01*
X115173745Y-75135066D01*
X115188325Y-75185698D01*
X115199426Y-75233430D01*
X115206122Y-75285211D01*
X115203420Y-75338014D01*
X115194541Y-75375091D01*
X115237131Y-75405438D01*
X115284545Y-75427115D01*
X115336782Y-75440121D01*
X115386447Y-75444388D01*
X115393843Y-75444456D01*
X115444779Y-75438450D01*
X115490166Y-75418548D01*
X115503997Y-75408064D01*
X115534678Y-75366804D01*
X115541236Y-75315259D01*
X115538679Y-75298643D01*
X115372106Y-74497038D01*
X115325047Y-74476622D01*
X115288086Y-74465531D01*
X115237636Y-74455811D01*
X115193808Y-74453074D01*
X115144643Y-74456739D01*
X115096584Y-74470522D01*
X115072420Y-74484093D01*
X115041405Y-74521967D01*
X115034699Y-74571902D01*
X115037249Y-74588385D01*
X115050682Y-74653598D01*
X115102467Y-74661872D01*
X115151056Y-74679016D01*
X115169872Y-74688036D01*
X115211775Y-74715913D01*
X115226537Y-74738106D01*
X115224094Y-74751539D01*
X115213103Y-74758866D01*
X115172376Y-74727908D01*
X115128425Y-74705328D01*
X115121512Y-74702446D01*
X115073649Y-74687739D01*
X115025175Y-74680818D01*
X114994995Y-74679732D01*
X114944665Y-74682823D01*
X114896033Y-74693148D01*
X114872385Y-74701713D01*
X114828410Y-74726432D01*
X114792320Y-74762279D01*
X114777863Y-74785489D01*
X114761543Y-74831923D01*
X114756243Y-74885132D01*
X114760895Y-74938812D01*
X114764429Y-74957924D01*
X114794471Y-75092013D01*
G37*
G36*
X114297481Y-74664657D02*
G01*
X114348476Y-74667061D01*
X114398613Y-74672900D01*
X114447891Y-74682174D01*
X114480893Y-74690113D01*
X114531920Y-74704865D01*
X114579293Y-74722474D01*
X114592991Y-74748327D01*
X114606893Y-74795991D01*
X114613472Y-74837696D01*
X114614493Y-74888858D01*
X114603718Y-74940094D01*
X114572763Y-74925901D01*
X114523593Y-74910116D01*
X114471140Y-74900939D01*
X114421757Y-74898329D01*
X114396374Y-74898812D01*
X114345553Y-74904435D01*
X114320884Y-74928371D01*
X114325281Y-74940094D01*
X114350682Y-74934721D01*
X114375295Y-74931523D01*
X114424688Y-74929103D01*
X114479978Y-74932935D01*
X114531544Y-74944430D01*
X114579385Y-74963588D01*
X114623501Y-74990408D01*
X114645659Y-75008261D01*
X114679402Y-75043727D01*
X114706740Y-75084570D01*
X114727674Y-75130788D01*
X114742203Y-75182383D01*
X114748815Y-75226897D01*
X114748281Y-75280264D01*
X114734907Y-75332127D01*
X114708009Y-75375335D01*
X114674060Y-75405575D01*
X114626232Y-75429268D01*
X114575155Y-75441148D01*
X114523850Y-75444456D01*
X114482253Y-75442563D01*
X114432783Y-75433779D01*
X114385853Y-75414170D01*
X114400508Y-75370939D01*
X114372908Y-75348224D01*
X114361128Y-75382540D01*
X114327235Y-75419787D01*
X114289371Y-75437494D01*
X114239063Y-75444456D01*
X114193406Y-75439757D01*
X114146323Y-75423734D01*
X114102531Y-75396340D01*
X114086014Y-75382105D01*
X114051401Y-75340574D01*
X114028405Y-75295937D01*
X114013138Y-75244421D01*
X114010696Y-75232209D01*
X114008742Y-75219020D01*
X114012929Y-75215698D01*
X114036586Y-75171637D01*
X114037628Y-75141490D01*
X114035427Y-75125719D01*
X114337249Y-75125719D01*
X114356300Y-75165286D01*
X114392448Y-75176521D01*
X114419803Y-75151609D01*
X114386097Y-75125719D01*
X114337249Y-75125719D01*
X114035427Y-75125719D01*
X114030724Y-75092013D01*
X114002636Y-74957436D01*
X113999396Y-74940161D01*
X113994247Y-74883638D01*
X113998728Y-74833238D01*
X114015642Y-74783138D01*
X114045134Y-74741036D01*
X114087007Y-74707590D01*
X114133838Y-74686164D01*
X114181551Y-74673622D01*
X114236254Y-74666455D01*
X114287179Y-74664588D01*
X114297481Y-74664657D01*
G37*
G36*
X113628944Y-75049271D02*
G01*
X113636872Y-75098086D01*
X113637004Y-75103004D01*
X113619663Y-75124986D01*
X113613313Y-75124986D01*
X113606963Y-75123521D01*
X113598819Y-75074334D01*
X113597926Y-75070032D01*
X113586556Y-75020117D01*
X113574214Y-74969776D01*
X113570570Y-74955237D01*
X113558377Y-74904673D01*
X113545982Y-74850027D01*
X113533934Y-74794724D01*
X113522714Y-74741759D01*
X113518791Y-74722963D01*
X113475271Y-74700412D01*
X113425059Y-74684011D01*
X113372890Y-74676722D01*
X113356858Y-74676312D01*
X113307001Y-74680746D01*
X113258588Y-74698377D01*
X113251101Y-74703179D01*
X113217887Y-74740514D01*
X113206160Y-74779383D01*
X113217991Y-74827678D01*
X113230584Y-74874882D01*
X113246182Y-74926722D01*
X113261530Y-74974473D01*
X113279616Y-75026373D01*
X113297342Y-75072383D01*
X113317566Y-75118617D01*
X113326083Y-75135977D01*
X113311184Y-75140129D01*
X113296774Y-75134512D01*
X113271316Y-75092056D01*
X113250407Y-75040916D01*
X113231687Y-74988238D01*
X113225944Y-74971113D01*
X113210757Y-74921797D01*
X113195166Y-74869949D01*
X113180152Y-74818192D01*
X113166839Y-74769527D01*
X113164394Y-74760087D01*
X113154381Y-74720276D01*
X113108750Y-74697676D01*
X113079642Y-74688524D01*
X113031289Y-74678995D01*
X112988051Y-74676312D01*
X112938484Y-74681565D01*
X112891514Y-74701316D01*
X112868861Y-74720764D01*
X112843923Y-74765196D01*
X112840022Y-74816752D01*
X112843459Y-74839222D01*
X112857744Y-74890564D01*
X112875481Y-74939165D01*
X112896460Y-74989676D01*
X112918228Y-75038173D01*
X112942256Y-75088167D01*
X112965133Y-75133138D01*
X112989740Y-75179255D01*
X112997088Y-75192642D01*
X113021722Y-75236549D01*
X113046612Y-75279116D01*
X113072830Y-75320905D01*
X113087946Y-75342607D01*
X113121973Y-75381647D01*
X113160385Y-75412004D01*
X113181736Y-75423207D01*
X113228960Y-75436965D01*
X113280379Y-75443128D01*
X113324374Y-75444456D01*
X113375527Y-75440884D01*
X113396425Y-75438106D01*
X113444411Y-75428950D01*
X113455288Y-75425161D01*
X113469484Y-75377762D01*
X113474339Y-75356528D01*
X113483879Y-75307852D01*
X113487039Y-75286431D01*
X113517081Y-75309145D01*
X113514883Y-75339676D01*
X113509021Y-75373625D01*
X113523920Y-75395363D01*
X113547612Y-75425893D01*
X113595285Y-75437205D01*
X113644038Y-75442643D01*
X113694931Y-75444438D01*
X113700996Y-75444456D01*
X113753227Y-75442215D01*
X113804871Y-75434468D01*
X113853910Y-75419555D01*
X113861952Y-75416124D01*
X113881761Y-75371334D01*
X113898325Y-75321868D01*
X113910324Y-75273973D01*
X113917639Y-75235628D01*
X113924046Y-75186757D01*
X113928091Y-75132252D01*
X113929680Y-75081049D01*
X113929534Y-75025708D01*
X113928087Y-74976429D01*
X113927653Y-74966228D01*
X113944747Y-74918532D01*
X113948286Y-74868897D01*
X113942552Y-74824079D01*
X113928232Y-74774300D01*
X113906946Y-74728767D01*
X113878696Y-74687480D01*
X113872210Y-74679732D01*
X113709789Y-74679732D01*
X113656685Y-74684240D01*
X113610340Y-74701550D01*
X113586202Y-74725893D01*
X113574119Y-74776189D01*
X113578538Y-74826633D01*
X113581317Y-74841176D01*
X113628944Y-75049271D01*
G37*
G36*
X112116348Y-75092013D02*
G01*
X112123252Y-75141490D01*
X112122210Y-75171637D01*
X112098554Y-75215698D01*
X112094367Y-75219020D01*
X112096565Y-75232209D01*
X112099007Y-75244421D01*
X112113671Y-75294404D01*
X112138258Y-75342146D01*
X112171574Y-75381683D01*
X112183271Y-75391944D01*
X112225374Y-75419636D01*
X112271389Y-75437071D01*
X112321316Y-75444251D01*
X112331771Y-75444456D01*
X112384767Y-75438684D01*
X112431324Y-75419221D01*
X112458533Y-75395607D01*
X112483823Y-75350511D01*
X112491837Y-75297694D01*
X112487978Y-75247334D01*
X112484178Y-75226591D01*
X112473056Y-75178708D01*
X112462441Y-75141839D01*
X112447287Y-75094730D01*
X112445588Y-75089327D01*
X112435574Y-75059773D01*
X112425071Y-75019229D01*
X112424094Y-74980639D01*
X112441191Y-74968915D01*
X112464150Y-74974533D01*
X112478805Y-75086396D01*
X112495867Y-75135066D01*
X112510447Y-75185698D01*
X112521547Y-75233430D01*
X112528243Y-75285211D01*
X112525541Y-75338014D01*
X112516662Y-75375091D01*
X112559252Y-75405438D01*
X112606666Y-75427115D01*
X112658903Y-75440121D01*
X112708568Y-75444388D01*
X112715965Y-75444456D01*
X112766860Y-75438450D01*
X112812114Y-75418548D01*
X112825874Y-75408064D01*
X112856722Y-75366804D01*
X112863354Y-75315259D01*
X112860801Y-75298643D01*
X112791924Y-74966228D01*
X112806932Y-74915596D01*
X112808044Y-74865890D01*
X112802182Y-74825789D01*
X112787933Y-74775776D01*
X112766863Y-74730152D01*
X112738970Y-74688917D01*
X112732573Y-74681197D01*
X112612894Y-74681197D01*
X112563796Y-74694027D01*
X112539133Y-74717589D01*
X112573765Y-74753045D01*
X112578456Y-74764240D01*
X112559405Y-74785489D01*
X112525035Y-74748944D01*
X112483110Y-74717345D01*
X112450961Y-74699027D01*
X112403183Y-74679420D01*
X112353212Y-74667952D01*
X112305881Y-74664588D01*
X112251125Y-74668237D01*
X112203360Y-74679182D01*
X112157982Y-74700217D01*
X112128805Y-74722963D01*
X112097588Y-74764789D01*
X112079895Y-74816752D01*
X112075509Y-74870534D01*
X112079991Y-74922809D01*
X112085085Y-74951085D01*
X112116348Y-75092013D01*
G37*
G36*
X111607332Y-74662058D02*
G01*
X111665068Y-74669168D01*
X111720366Y-74683387D01*
X111773226Y-74704716D01*
X111823647Y-74733155D01*
X111863801Y-74762286D01*
X111880426Y-74776141D01*
X111918657Y-74813400D01*
X111952129Y-74854403D01*
X111980843Y-74899152D01*
X112004799Y-74947645D01*
X112023996Y-74999883D01*
X112038435Y-75055866D01*
X112046045Y-75100921D01*
X112049997Y-75153784D01*
X112047772Y-75202806D01*
X112036947Y-75256564D01*
X112017226Y-75304793D01*
X111988609Y-75347491D01*
X111965666Y-75372278D01*
X111925354Y-75403262D01*
X111877967Y-75426809D01*
X111823505Y-75442921D01*
X111772715Y-75450667D01*
X111717011Y-75453249D01*
X111676216Y-75452235D01*
X111624841Y-75447732D01*
X111571168Y-75438360D01*
X111521861Y-75424428D01*
X111488382Y-75411527D01*
X111443021Y-75387953D01*
X111400717Y-75359948D01*
X111396667Y-75350365D01*
X111382887Y-75303284D01*
X111379577Y-75282618D01*
X111378002Y-75232453D01*
X111378261Y-75227694D01*
X111392901Y-75179208D01*
X111397805Y-75182175D01*
X111442807Y-75204127D01*
X111490598Y-75220729D01*
X111516771Y-75227582D01*
X111567611Y-75235842D01*
X111617116Y-75238315D01*
X111633683Y-75238025D01*
X111683570Y-75233076D01*
X111733620Y-75219752D01*
X111742442Y-75216515D01*
X111778805Y-75181895D01*
X111770501Y-75166752D01*
X111763178Y-75171661D01*
X111717617Y-75193003D01*
X111668435Y-75204089D01*
X111617849Y-75207296D01*
X111602045Y-75207077D01*
X111549319Y-75202852D01*
X111500612Y-75193252D01*
X111449871Y-75175697D01*
X111404381Y-75151120D01*
X111398662Y-75147324D01*
X111357701Y-75112901D01*
X111325259Y-75071273D01*
X111301335Y-75022440D01*
X111287388Y-74973800D01*
X111285507Y-74962076D01*
X111590005Y-74962076D01*
X111629084Y-74988210D01*
X111669628Y-74976487D01*
X111663809Y-74963206D01*
X111620535Y-74937408D01*
X111590005Y-74962076D01*
X111285507Y-74962076D01*
X111282202Y-74941476D01*
X111281078Y-74888031D01*
X111290076Y-74838560D01*
X111309195Y-74793063D01*
X111338435Y-74751539D01*
X111370729Y-74720827D01*
X111415721Y-74693028D01*
X111468590Y-74673877D01*
X111520175Y-74664346D01*
X111577549Y-74661169D01*
X111607332Y-74662058D01*
G37*
G36*
X110927863Y-75085175D02*
G01*
X110931038Y-75100806D01*
X110933969Y-75116682D01*
X110919803Y-75120101D01*
X110893913Y-75089815D01*
X110882617Y-75038875D01*
X110869733Y-74986928D01*
X110855262Y-74933973D01*
X110841297Y-74886811D01*
X110839203Y-74880011D01*
X110822793Y-74828659D01*
X110805681Y-74778332D01*
X110788346Y-74731659D01*
X110780340Y-74711972D01*
X110733895Y-74689027D01*
X110685963Y-74676434D01*
X110632592Y-74671711D01*
X110626956Y-74671672D01*
X110575068Y-74675202D01*
X110525334Y-74688757D01*
X110494332Y-74707819D01*
X110465450Y-74747448D01*
X110462824Y-74794526D01*
X110478538Y-74843749D01*
X110496398Y-74893964D01*
X110514121Y-74942564D01*
X110524374Y-74970381D01*
X110543685Y-75019940D01*
X110563915Y-75070310D01*
X110585063Y-75121491D01*
X110607130Y-75173484D01*
X110630115Y-75226287D01*
X110654018Y-75279901D01*
X110663836Y-75301574D01*
X110686288Y-75346680D01*
X110710991Y-75391963D01*
X110715371Y-75399759D01*
X110741944Y-75444181D01*
X110770344Y-75485483D01*
X110785469Y-75504784D01*
X110819311Y-75542968D01*
X110861008Y-75582398D01*
X110903890Y-75614856D01*
X110947957Y-75640341D01*
X110993208Y-75658854D01*
X111016279Y-75665496D01*
X111066721Y-75675346D01*
X111116323Y-75679681D01*
X111130340Y-75679906D01*
X111180547Y-75676471D01*
X111228016Y-75664396D01*
X111273073Y-75637831D01*
X111285923Y-75624951D01*
X111312046Y-75580915D01*
X111318580Y-75528977D01*
X111314988Y-75502341D01*
X111299757Y-75453116D01*
X111274887Y-75405852D01*
X111243913Y-75364588D01*
X111206300Y-75361902D01*
X111157165Y-75366076D01*
X111140842Y-75368741D01*
X111088837Y-75379012D01*
X111039085Y-75388662D01*
X111031422Y-75389990D01*
X111021896Y-75391944D01*
X111006753Y-75392921D01*
X110989412Y-75387547D01*
X110978177Y-75365321D01*
X111130096Y-75334547D01*
X111171756Y-75302416D01*
X111199279Y-75258430D01*
X111210207Y-75230743D01*
X111223534Y-75177666D01*
X111230211Y-75124086D01*
X111232232Y-75072858D01*
X111230835Y-75016736D01*
X111227060Y-74966228D01*
X111244153Y-74918635D01*
X111247693Y-74869276D01*
X111241959Y-74824812D01*
X111227767Y-74775314D01*
X111206563Y-74730015D01*
X111178346Y-74688914D01*
X111171861Y-74681197D01*
X110999182Y-74681197D01*
X110950285Y-74686158D01*
X110902553Y-74707442D01*
X110879991Y-74732000D01*
X110863810Y-74778589D01*
X110861723Y-74829301D01*
X110862650Y-74842642D01*
X110879294Y-74895070D01*
X110894607Y-74947848D01*
X110908586Y-75000977D01*
X110921234Y-75054457D01*
X110927863Y-75085175D01*
G37*
G36*
X109882748Y-75443723D02*
G01*
X109931823Y-75442030D01*
X109981488Y-75435298D01*
X109989482Y-75433465D01*
X110035968Y-75417987D01*
X110069838Y-75392921D01*
X110081945Y-75340711D01*
X110092438Y-75286664D01*
X110101316Y-75230779D01*
X110108581Y-75173056D01*
X110113401Y-75123551D01*
X110115755Y-75093235D01*
X110118972Y-75036708D01*
X110120930Y-74979723D01*
X110121629Y-74922280D01*
X110121068Y-74864379D01*
X110119247Y-74806020D01*
X110116167Y-74747204D01*
X110111828Y-74687929D01*
X110106230Y-74628196D01*
X110068149Y-74592493D01*
X110026593Y-74566205D01*
X110009021Y-74557854D01*
X109961059Y-74541566D01*
X109910839Y-74533582D01*
X109886900Y-74532697D01*
X109836378Y-74535692D01*
X109785176Y-74547485D01*
X109742552Y-74570555D01*
X109712799Y-74609851D01*
X109706889Y-74661490D01*
X109709579Y-74678510D01*
X109723771Y-74728882D01*
X109736718Y-74778656D01*
X109749879Y-74831651D01*
X109761725Y-74880896D01*
X109773884Y-74933451D01*
X109784806Y-74982991D01*
X109791401Y-75014344D01*
X109794576Y-75049759D01*
X109778456Y-75062460D01*
X109765023Y-75060262D01*
X109761359Y-75039745D01*
X109756474Y-75015810D01*
X109745269Y-74964076D01*
X109734113Y-74915678D01*
X109721694Y-74864359D01*
X109708013Y-74810118D01*
X109701764Y-74785977D01*
X109687460Y-74732190D01*
X109674255Y-74684738D01*
X109658891Y-74633035D01*
X109645344Y-74591804D01*
X109600702Y-74571583D01*
X109553485Y-74558850D01*
X109503692Y-74553608D01*
X109493424Y-74553458D01*
X109440916Y-74556200D01*
X109390247Y-74566510D01*
X109365197Y-74576661D01*
X109328049Y-74609705D01*
X109318592Y-74657730D01*
X109319035Y-74661169D01*
X109332797Y-74711418D01*
X109348069Y-74761049D01*
X109359091Y-74793793D01*
X109375492Y-74840993D01*
X109392054Y-74888010D01*
X109410191Y-74938939D01*
X109412092Y-74944247D01*
X109429074Y-74991869D01*
X109445797Y-75039547D01*
X109451659Y-75056842D01*
X109437981Y-75059773D01*
X109420396Y-75052935D01*
X109401589Y-75019718D01*
X109382791Y-74971060D01*
X109364437Y-74921256D01*
X109346526Y-74870307D01*
X109329060Y-74818213D01*
X109319279Y-74787931D01*
X109302965Y-74736106D01*
X109288218Y-74687273D01*
X109273281Y-74635127D01*
X109260389Y-74586889D01*
X109257486Y-74575440D01*
X109209520Y-74552900D01*
X109160028Y-74539752D01*
X109111008Y-74533741D01*
X109077967Y-74532697D01*
X109027344Y-74537372D01*
X108978435Y-74555324D01*
X108947542Y-74580569D01*
X108922767Y-74624668D01*
X108917214Y-74674963D01*
X108921652Y-74708552D01*
X108937046Y-74759094D01*
X108954319Y-74805700D01*
X108973319Y-74853865D01*
X108996504Y-74910510D01*
X109018066Y-74961930D01*
X109029852Y-74989676D01*
X109051432Y-75040280D01*
X109072147Y-75087589D01*
X109094762Y-75137621D01*
X109116248Y-75183348D01*
X109121443Y-75194107D01*
X109145228Y-75242140D01*
X109168858Y-75286745D01*
X109184457Y-75313053D01*
X109215021Y-75352638D01*
X109253655Y-75387475D01*
X109297542Y-75413193D01*
X109347374Y-75430575D01*
X109398436Y-75440116D01*
X109449082Y-75443604D01*
X109460940Y-75443723D01*
X109512288Y-75439144D01*
X109546669Y-75432000D01*
X109594702Y-75417131D01*
X109617744Y-75405866D01*
X109631387Y-75356824D01*
X109634353Y-75341385D01*
X109641174Y-75291986D01*
X109641680Y-75276173D01*
X109673920Y-75304993D01*
X109673651Y-75355771D01*
X109669768Y-75386082D01*
X109714037Y-75411300D01*
X109764290Y-75429313D01*
X109813170Y-75439164D01*
X109866631Y-75443498D01*
X109882748Y-75443723D01*
G37*
G36*
X108551520Y-74658902D02*
G01*
X108602328Y-74663625D01*
X108651073Y-74673595D01*
X108697755Y-74688812D01*
X108742373Y-74709277D01*
X108784928Y-74734990D01*
X108825420Y-74765949D01*
X108840832Y-74779689D01*
X108876374Y-74816718D01*
X108907646Y-74857575D01*
X108934649Y-74902260D01*
X108957382Y-74950773D01*
X108975846Y-75003115D01*
X108990040Y-75059285D01*
X108997711Y-75104542D01*
X109001739Y-75157712D01*
X108999590Y-75207100D01*
X108988857Y-75261377D01*
X108969228Y-75310209D01*
X108940703Y-75353598D01*
X108935652Y-75359728D01*
X108895274Y-75397195D01*
X108846107Y-75425124D01*
X108796968Y-75441473D01*
X108741372Y-75450816D01*
X108690110Y-75453249D01*
X108637816Y-75450667D01*
X108587943Y-75442921D01*
X108540491Y-75430011D01*
X108486744Y-75407703D01*
X108436483Y-75377959D01*
X108397263Y-75347491D01*
X108382358Y-75333984D01*
X108347985Y-75297693D01*
X108317739Y-75257801D01*
X108291618Y-75214307D01*
X108269625Y-75167212D01*
X108251757Y-75116515D01*
X108238016Y-75062216D01*
X108232044Y-75029107D01*
X108226689Y-74976578D01*
X108227117Y-74954993D01*
X108576781Y-74954993D01*
X108580319Y-74993238D01*
X108589482Y-75042432D01*
X108609998Y-75140618D01*
X108620256Y-75166752D01*
X108637109Y-75174323D01*
X108651519Y-75169683D01*
X108626362Y-75049271D01*
X108624764Y-75041339D01*
X108616383Y-74990987D01*
X108609754Y-74940094D01*
X108591924Y-74933256D01*
X108576781Y-74954993D01*
X108227117Y-74954993D01*
X108227852Y-74917920D01*
X108237291Y-74864036D01*
X108255008Y-74814926D01*
X108281003Y-74770590D01*
X108296934Y-74750555D01*
X108333433Y-74716397D01*
X108376115Y-74690122D01*
X108424978Y-74671729D01*
X108480025Y-74661219D01*
X108530619Y-74658482D01*
X108551520Y-74658902D01*
G37*
G36*
X107507974Y-74857052D02*
G01*
X107522237Y-74904537D01*
X107524583Y-74911030D01*
X107543831Y-74957719D01*
X107549007Y-74967694D01*
X107585288Y-75004841D01*
X107623392Y-75039348D01*
X107663320Y-75071213D01*
X107705071Y-75100436D01*
X107729747Y-75115949D01*
X107779774Y-75119498D01*
X107828409Y-75126276D01*
X107859440Y-75134023D01*
X107902373Y-75157482D01*
X107905846Y-75164798D01*
X107901694Y-75181162D01*
X107854486Y-75164103D01*
X107818651Y-75156249D01*
X107768459Y-75149288D01*
X107721443Y-75146968D01*
X107591505Y-75146968D01*
X107580221Y-75195118D01*
X107578072Y-75216089D01*
X107578401Y-75266066D01*
X107581003Y-75283011D01*
X107596404Y-75332875D01*
X107622290Y-75376146D01*
X107647926Y-75400981D01*
X107692561Y-75424245D01*
X107742725Y-75431969D01*
X107746355Y-75432000D01*
X108225560Y-75432000D01*
X108247265Y-75385040D01*
X108254319Y-75330867D01*
X108251631Y-75280931D01*
X108243634Y-75232697D01*
X108229348Y-75182312D01*
X108211196Y-75136052D01*
X108201868Y-75115217D01*
X108160683Y-75079374D01*
X108118986Y-75046108D01*
X108079040Y-75016181D01*
X108035214Y-74984948D01*
X107995727Y-74957924D01*
X107955104Y-74929139D01*
X107937353Y-74916159D01*
X107952252Y-74900283D01*
X107962022Y-74901748D01*
X108005446Y-74927684D01*
X108047745Y-74959780D01*
X108056788Y-74966961D01*
X108140075Y-74966961D01*
X108153504Y-74915613D01*
X108155616Y-74866190D01*
X108150089Y-74824079D01*
X108135933Y-74776058D01*
X108117605Y-74738838D01*
X108088276Y-74698920D01*
X108069489Y-74681197D01*
X107515057Y-74681197D01*
X107500556Y-74731399D01*
X107498094Y-74780459D01*
X107503009Y-74830101D01*
X107507974Y-74857052D01*
G37*
G36*
X106764499Y-74545886D02*
G01*
X106376886Y-74545886D01*
X106364848Y-74593995D01*
X106362964Y-74617694D01*
X106364643Y-74667282D01*
X106367849Y-74687303D01*
X106381404Y-74734518D01*
X106406077Y-74780013D01*
X106416209Y-74791839D01*
X106458533Y-74820081D01*
X106497542Y-74826766D01*
X106768651Y-74826766D01*
X106797472Y-74846794D01*
X106798449Y-74852167D01*
X106798205Y-74857785D01*
X106477270Y-74857785D01*
X106467767Y-74907287D01*
X106467500Y-74911274D01*
X106470463Y-74961458D01*
X106472629Y-74973800D01*
X106485437Y-75021432D01*
X106506412Y-75069334D01*
X106528561Y-75101539D01*
X106674374Y-75101539D01*
X106726720Y-75102176D01*
X106776898Y-75104687D01*
X106814325Y-75109599D01*
X106861772Y-75122450D01*
X106862441Y-75122788D01*
X106874164Y-75138664D01*
X106868058Y-75153807D01*
X106820374Y-75141824D01*
X106791122Y-75137198D01*
X106741319Y-75133867D01*
X106691738Y-75132599D01*
X106680724Y-75132558D01*
X106491924Y-75132558D01*
X106476800Y-75180254D01*
X106474342Y-75229889D01*
X106480445Y-75274707D01*
X106493789Y-75323170D01*
X106510487Y-75364100D01*
X106535723Y-75406733D01*
X106559091Y-75432732D01*
X107062475Y-75432732D01*
X107114800Y-75427855D01*
X107163913Y-75409514D01*
X107187284Y-75391455D01*
X107214269Y-75348922D01*
X107220503Y-75297568D01*
X107215860Y-75262251D01*
X107080061Y-74609145D01*
X107044130Y-74574894D01*
X106996286Y-74561030D01*
X106946747Y-74553709D01*
X106892430Y-74549214D01*
X106836963Y-74546833D01*
X106783522Y-74545946D01*
X106764499Y-74545886D01*
G37*
G36*
X106275281Y-75441036D02*
G01*
X106325797Y-75437544D01*
X106373741Y-75424413D01*
X106396914Y-75411483D01*
X106428787Y-75373137D01*
X106431828Y-75323878D01*
X106431108Y-75320136D01*
X106357591Y-74966228D01*
X106372598Y-74915596D01*
X106373711Y-74865890D01*
X106367849Y-74825789D01*
X106353600Y-74775776D01*
X106332529Y-74730152D01*
X106304637Y-74688917D01*
X106298240Y-74681197D01*
X106195169Y-74681197D01*
X106143649Y-74688547D01*
X106101274Y-74718407D01*
X106092587Y-74733465D01*
X106125194Y-74771356D01*
X106132399Y-74782069D01*
X106153892Y-74824323D01*
X106151450Y-74843374D01*
X106134108Y-74849480D01*
X106110493Y-74804906D01*
X106079145Y-74762350D01*
X106042736Y-74727832D01*
X106015651Y-74709285D01*
X105970783Y-74687870D01*
X105921816Y-74675345D01*
X105873745Y-74671672D01*
X105821826Y-74675091D01*
X105773836Y-74686912D01*
X105729724Y-74712243D01*
X105726711Y-74714903D01*
X105723880Y-74767663D01*
X105729192Y-74820328D01*
X105734527Y-74849236D01*
X105747474Y-74897288D01*
X105767996Y-74946894D01*
X105795099Y-74993095D01*
X105842772Y-75009490D01*
X105862755Y-75014100D01*
X105912297Y-75021238D01*
X105945797Y-75022648D01*
X105995550Y-75020124D01*
X106018337Y-75016787D01*
X106063278Y-75006040D01*
X106071826Y-75021916D01*
X106062057Y-75037303D01*
X106020291Y-75048782D01*
X106091854Y-75393409D01*
X106140135Y-75416432D01*
X106191005Y-75431920D01*
X106244463Y-75439874D01*
X106275281Y-75441036D01*
G37*
G36*
X105324429Y-74662058D02*
G01*
X105382165Y-74669168D01*
X105437463Y-74683387D01*
X105490323Y-74704716D01*
X105540744Y-74733155D01*
X105580898Y-74762286D01*
X105597523Y-74776141D01*
X105635754Y-74813400D01*
X105669226Y-74854403D01*
X105697940Y-74899152D01*
X105721896Y-74947645D01*
X105741093Y-74999883D01*
X105755532Y-75055866D01*
X105763142Y-75100921D01*
X105767094Y-75153784D01*
X105764869Y-75202806D01*
X105754044Y-75256564D01*
X105734323Y-75304793D01*
X105705706Y-75347491D01*
X105682763Y-75372278D01*
X105642451Y-75403262D01*
X105595064Y-75426809D01*
X105540602Y-75442921D01*
X105489812Y-75450667D01*
X105434108Y-75453249D01*
X105393313Y-75452235D01*
X105341938Y-75447732D01*
X105288265Y-75438360D01*
X105238958Y-75424428D01*
X105205479Y-75411527D01*
X105160118Y-75387953D01*
X105117814Y-75359948D01*
X105113764Y-75350365D01*
X105099984Y-75303284D01*
X105096674Y-75282618D01*
X105095099Y-75232453D01*
X105095358Y-75227694D01*
X105109998Y-75179208D01*
X105114902Y-75182175D01*
X105159904Y-75204127D01*
X105207695Y-75220729D01*
X105233868Y-75227582D01*
X105284708Y-75235842D01*
X105334213Y-75238315D01*
X105350780Y-75238025D01*
X105400667Y-75233076D01*
X105450717Y-75219752D01*
X105459539Y-75216515D01*
X105495902Y-75181895D01*
X105487598Y-75166752D01*
X105480275Y-75171661D01*
X105434714Y-75193003D01*
X105385532Y-75204089D01*
X105334946Y-75207296D01*
X105319142Y-75207077D01*
X105266416Y-75202852D01*
X105217709Y-75193252D01*
X105166968Y-75175697D01*
X105121478Y-75151120D01*
X105115759Y-75147324D01*
X105074798Y-75112901D01*
X105042356Y-75071273D01*
X105018432Y-75022440D01*
X105004485Y-74973800D01*
X105002604Y-74962076D01*
X105307102Y-74962076D01*
X105346181Y-74988210D01*
X105386725Y-74976487D01*
X105380906Y-74963206D01*
X105337632Y-74937408D01*
X105307102Y-74962076D01*
X105002604Y-74962076D01*
X104999299Y-74941476D01*
X104998175Y-74888031D01*
X105007173Y-74838560D01*
X105026292Y-74793063D01*
X105055532Y-74751539D01*
X105087826Y-74720827D01*
X105132818Y-74693028D01*
X105185687Y-74673877D01*
X105237272Y-74664346D01*
X105294646Y-74661169D01*
X105324429Y-74662058D01*
G37*
D11*
G04 #@! TO.C,EF\u002A\u002A*
X90316000Y-65302000D03*
G04 #@! TD*
G04 #@! TO.C,EF\u002A\u002A*
X218016000Y-65302000D03*
G04 #@! TD*
G04 #@! TO.C,EF\u002A\u002A*
X181216000Y-126002000D03*
G04 #@! TD*
D12*
G04 #@! TO.C,D1*
X180816000Y-96312000D03*
D13*
X180816000Y-88692000D03*
G04 #@! TD*
D14*
G04 #@! TO.C,R9*
X142128000Y-127226000D03*
D13*
X142128000Y-117066000D03*
G04 #@! TD*
D15*
G04 #@! TO.C,D3*
X106616000Y-50342000D03*
D16*
X106616000Y-47802000D03*
G04 #@! TD*
D14*
G04 #@! TO.C,R2*
X184116000Y-84884000D03*
D13*
X194276000Y-84884000D03*
G04 #@! TD*
D17*
G04 #@! TO.C,LS1*
X140692000Y-102656600D03*
D18*
X167492000Y-102696600D03*
D19*
X135162000Y-88466600D03*
D20*
X154162000Y-69466600D03*
D19*
X173162000Y-88466600D03*
G04 #@! TD*
D21*
G04 #@! TO.C,RV1*
X147806000Y-57512000D03*
X150306000Y-60012000D03*
X147806000Y-62512000D03*
G04 #@! TD*
D14*
G04 #@! TO.C,R8*
X194082000Y-113978000D03*
D13*
X194082000Y-103818000D03*
G04 #@! TD*
D14*
G04 #@! TO.C,R7*
X191034000Y-103818000D03*
D13*
X191034000Y-113978000D03*
G04 #@! TD*
D22*
G04 #@! TO.C,U3*
X157866000Y-125184000D03*
D23*
X157866000Y-122644000D03*
X157866000Y-120104000D03*
X157866000Y-117564000D03*
X150246000Y-117564000D03*
X150246000Y-120104000D03*
X150246000Y-122644000D03*
X150246000Y-125184000D03*
G04 #@! TD*
D24*
G04 #@! TO.C,H1*
X90941248Y-82370649D03*
X90941248Y-88370649D03*
D25*
X90966000Y-85384000D03*
G04 #@! TD*
D26*
G04 #@! TO.C,J3*
X172941000Y-71602000D03*
D27*
X175481000Y-71602000D03*
G04 #@! TD*
D14*
G04 #@! TO.C,R10*
X123120000Y-56024000D03*
D13*
X112960000Y-56024000D03*
G04 #@! TD*
D12*
G04 #@! TO.C,C9*
X203272900Y-100368000D03*
D14*
X205772900Y-100368000D03*
G04 #@! TD*
G04 #@! TO.C,R11*
X141018000Y-69052000D03*
D13*
X130858000Y-69052000D03*
G04 #@! TD*
D14*
G04 #@! TO.C,R5*
X187986000Y-103818000D03*
D13*
X187986000Y-113978000D03*
G04 #@! TD*
D14*
G04 #@! TO.C,R4*
X155894000Y-62592000D03*
D13*
X155894000Y-52432000D03*
G04 #@! TD*
D12*
G04 #@! TO.C,D4*
X114072000Y-44484000D03*
D13*
X121692000Y-44484000D03*
G04 #@! TD*
D14*
G04 #@! TO.C,C1*
X184276000Y-88884000D03*
X189276000Y-88884000D03*
G04 #@! TD*
G04 #@! TO.C,C3*
X184176000Y-104326000D03*
X184176000Y-109326000D03*
G04 #@! TD*
D28*
G04 #@! TO.C,U4*
X121596000Y-47134000D03*
D29*
X121596000Y-49674000D03*
X121596000Y-52214000D03*
G04 #@! TD*
D14*
G04 #@! TO.C,R1*
X192316000Y-88884000D03*
D13*
X202476000Y-88884000D03*
G04 #@! TD*
D12*
G04 #@! TO.C,C6*
X173446000Y-49484000D03*
D14*
X170946000Y-49484000D03*
G04 #@! TD*
G04 #@! TO.C,R3*
X158942000Y-62592000D03*
D13*
X158942000Y-52432000D03*
G04 #@! TD*
D12*
G04 #@! TO.C,D2*
X180858000Y-98634000D03*
D13*
X180858000Y-106254000D03*
G04 #@! TD*
D14*
G04 #@! TO.C,R12*
X161484000Y-116386000D03*
D13*
X161484000Y-126546000D03*
G04 #@! TD*
D30*
G04 #@! TO.C,U2*
X160466000Y-41764000D03*
D31*
X157926000Y-41764000D03*
X155386000Y-41764000D03*
X152846000Y-41764000D03*
X150306000Y-41764000D03*
X147766000Y-41764000D03*
X145226000Y-41764000D03*
X145226000Y-49384000D03*
X147766000Y-49384000D03*
X150306000Y-49384000D03*
X152846000Y-49384000D03*
X155386000Y-49384000D03*
X157926000Y-49384000D03*
X160466000Y-49384000D03*
G04 #@! TD*
D12*
G04 #@! TO.C,C8*
X144046000Y-113389100D03*
D14*
X144046000Y-110889100D03*
G04 #@! TD*
G04 #@! TO.C,C5*
X197638000Y-109072000D03*
X197638000Y-104072000D03*
G04 #@! TD*
D24*
G04 #@! TO.C,H2*
X217441248Y-82330649D03*
X217441248Y-88330649D03*
D25*
X217466000Y-85344000D03*
G04 #@! TD*
D32*
G04 #@! TO.C,SW1*
X135816000Y-46202000D03*
X127616000Y-46202000D03*
D33*
X133716000Y-46202000D03*
D34*
X131716000Y-46202000D03*
X129716000Y-46202000D03*
G04 #@! TD*
D14*
G04 #@! TO.C,C12*
X155082000Y-113510000D03*
X150082000Y-113510000D03*
G04 #@! TD*
D12*
G04 #@! TO.C,C11*
X114992000Y-49480900D03*
D14*
X114992000Y-51980900D03*
G04 #@! TD*
G04 #@! TO.C,C4*
X197638000Y-112454000D03*
X197638000Y-117454000D03*
G04 #@! TD*
D35*
G04 #@! TO.C,RV3*
X130946000Y-58009000D03*
X140546000Y-58009000D03*
D15*
X133246000Y-65509000D03*
D16*
X135746000Y-65509000D03*
X138246000Y-65509000D03*
G04 #@! TD*
D14*
G04 #@! TO.C,R6*
X194336000Y-117534000D03*
D13*
X184176000Y-117534000D03*
G04 #@! TD*
D35*
G04 #@! TO.C,RV2*
X168146000Y-58109000D03*
X177746000Y-58109000D03*
D15*
X170446000Y-65609000D03*
D16*
X172946000Y-65609000D03*
X175446000Y-65609000D03*
G04 #@! TD*
D14*
G04 #@! TO.C,C2*
X147592000Y-53448000D03*
X152592000Y-53448000D03*
G04 #@! TD*
D30*
G04 #@! TO.C,U1*
X199416000Y-93150000D03*
D31*
X196876000Y-93150000D03*
X194336000Y-93150000D03*
X191796000Y-93150000D03*
X189256000Y-93150000D03*
X186716000Y-93150000D03*
X184176000Y-93150000D03*
X184176000Y-100770000D03*
X186716000Y-100770000D03*
X189256000Y-100770000D03*
X191796000Y-100770000D03*
X194336000Y-100770000D03*
X196876000Y-100770000D03*
X199416000Y-100770000D03*
G04 #@! TD*
D12*
G04 #@! TO.C,C10*
X164530000Y-49384000D03*
D14*
X167030000Y-49384000D03*
G04 #@! TD*
G04 #@! TO.C,R13*
X99736000Y-55202000D03*
D13*
X109896000Y-55202000D03*
G04 #@! TD*
D36*
G04 #@! TO.C,J1*
X193246000Y-65786500D03*
D37*
X193246000Y-54386500D03*
X193246000Y-62686500D03*
G04 #@! TD*
D14*
G04 #@! TO.C,C7*
X146192000Y-117066000D03*
X146192000Y-122066000D03*
G04 #@! TD*
D38*
G04 #@! TO.C,BT1*
X121596000Y-99634000D03*
X121596000Y-71634000D03*
D39*
X104146000Y-60734000D03*
D40*
X116846000Y-60734000D03*
G04 #@! TD*
M02*
