M48
; DRILL file {KiCad 8.0.5} date 2024-09-18T20:50:51+0100
; FORMAT={-:-/ absolute / inch / decimal}
; #@! TF.CreationDate,2024-09-18T20:50:51+01:00
; #@! TF.GenerationSoftware,Kicad,Pcbnew,8.0.5
; #@! TF.FileFunction,Plated,1,2,PTH
FMAT,2
INCH
; #@! TA.AperFunction,Plated,PTH,ComponentDrill
T1C0.0236
; #@! TA.AperFunction,Plated,PTH,ComponentDrill
T2C0.0315
; #@! TA.AperFunction,Plated,PTH,ComponentDrill
T3C0.0354
; #@! TA.AperFunction,Plated,PTH,ComponentDrill
T4C0.0394
; #@! TA.AperFunction,Plated,PTH,ComponentDrill
T5C0.0433
; #@! TA.AperFunction,Plated,PTH,ComponentDrill
T6C0.0591
; #@! TA.AperFunction,Plated,PTH,ComponentDrill
T7C0.1969
%
G90
G05
T2
X3.7598Y-2.628
X4.1598Y-2.628
X4.2717Y-2.4409
X4.285Y-2.6575
X4.311Y-2.2047
X4.3701Y-2.4409
X4.611Y-2.2047
X4.6161Y-2.3114
X4.6161Y-2.4114
X4.6161Y-2.5114
X4.685Y-2.6575
X4.95Y-3.1693
X5.35Y-3.1693
X5.4232Y-5.0657
X5.4232Y-5.4657
X5.5315Y-4.8228
X5.5315Y-4.9213
X5.5516Y-2.0965
X5.5516Y-2.3965
X5.5807Y-5.0886
X5.5807Y-5.2854
X5.6496Y-2.5492
X5.6516Y-2.0965
X5.6516Y-2.3965
X5.7433Y-5.0858
X5.7433Y-5.1858
X5.7433Y-5.2858
X5.7433Y-5.3858
X5.7516Y-2.0965
X5.7516Y-2.3965
X5.7579Y-4.9213
X5.8465Y-2.5492
X5.8516Y-2.0965
X5.8516Y-2.3965
X5.9516Y-2.0965
X5.9516Y-2.3965
X5.9547Y-4.9213
X5.9646Y-2.5197
X5.9646Y-2.9197
X6.0433Y-5.0858
X6.0433Y-5.1858
X6.0433Y-5.2858
X6.0433Y-5.3858
X6.0516Y-2.0965
X6.0516Y-2.3965
X6.1024Y-2.5197
X6.1024Y-2.9197
X6.1516Y-2.0965
X6.1516Y-2.3965
X6.1909Y-5.0232
X6.1909Y-5.4232
X6.3091Y-2.3917
X6.4075Y-2.3917
X6.5748Y-2.3917
X6.6732Y-2.3917
X6.826Y-3.7992
X7.1063Y-4.0996
X7.1063Y-4.3996
X7.126Y-3.7992
X7.1457Y-3.9469
X7.1555Y-4.5866
X7.1555Y-4.7835
X7.1949Y-5.0492
X7.2378Y-3.7992
X7.2445Y-4.1043
X7.2445Y-4.4043
X7.3031Y-4.5311
X7.3031Y-4.9311
X7.3425Y-3.9469
X7.3445Y-4.1043
X7.3445Y-4.4043
X7.4311Y-4.5311
X7.4311Y-4.9311
X7.4445Y-3.9469
X7.4445Y-4.1043
X7.4445Y-4.4043
X7.5445Y-4.1043
X7.5445Y-4.4043
X7.5591Y-4.5311
X7.5591Y-4.9311
X7.5949Y-5.0492
X7.6378Y-3.7992
X7.6445Y-4.1043
X7.6445Y-4.4043
X7.7445Y-4.1043
X7.7445Y-4.4043
X7.7461Y-4.5374
X7.7461Y-4.7343
X7.7461Y-4.8524
X7.7461Y-5.0492
X7.8445Y-3.9469
X7.8445Y-4.1043
X7.8445Y-4.4043
X8.002Y-4.3996
X8.1004Y-4.3996
T3
X4.0453Y-2.3622
X4.0453Y-2.4622
X4.9409Y-2.2933
X5.0197Y-2.2933
X5.0984Y-2.2933
T4
X5.0787Y-3.0404
X5.1772Y-3.0404
X5.2461Y-4.5177
X5.2756Y-3.0404
X5.39Y-2.39
X5.4882Y-3.1732
X6.3228Y-3.1732
X6.5354Y-3.0315
X6.565Y-4.5177
X6.6339Y-3.0315
X6.6339Y-3.2579
X6.7323Y-3.0315
X6.7339Y-3.2579
X6.96Y-4.5
T5
X5.6594Y-2.7165
X5.6594Y-2.9134
X5.7579Y-2.815
T6
X3.937Y-2.8543
X4.437Y-2.8543
X4.8583Y-2.2933
X5.1811Y-2.2933
T7
X3.4252Y-3.689
X3.4252Y-3.9488
X8.3858Y-3.689
X8.3858Y-3.9488
T1
G00X7.4213Y-2.6016
M15
G01X7.4606Y-2.6016
M16
G05
G00X7.4213Y-2.9283
M15
G01X7.4606Y-2.9283
M16
G05
G00X7.4213Y-3.0504
M15
G01X7.4606Y-3.0504
M16
G05
T5
G00X4.9882Y-2.7589
M15
G01X4.9882Y-2.7313
M16
G05
G00X5.3661Y-2.7589
M15
G01X5.3661Y-2.7313
M16
G05
G00X6.4449Y-2.75
M15
G01X6.4449Y-2.7224
M16
G05
G00X6.8228Y-2.75
M15
G01X6.8228Y-2.7224
M16
G05
M30
