%TF.GenerationSoftware,KiCad,Pcbnew,7.0.2-0*%
%TF.CreationDate,2024-05-25T18:05:37+01:00*%
%TF.ProjectId,theremin,74686572-656d-4696-9e2e-6b696361645f,rev?*%
%TF.SameCoordinates,Original*%
%TF.FileFunction,Soldermask,Top*%
%TF.FilePolarity,Negative*%
%FSLAX46Y46*%
G04 Gerber Fmt 4.6, Leading zero omitted, Abs format (unit mm)*
G04 Created by KiCad (PCBNEW 7.0.2-0) date 2024-05-25 18:05:37*
%MOMM*%
%LPD*%
G01*
G04 APERTURE LIST*
G04 Aperture macros list*
%AMRoundRect*
0 Rectangle with rounded corners*
0 $1 Rounding radius*
0 $2 $3 $4 $5 $6 $7 $8 $9 X,Y pos of 4 corners*
0 Add a 4 corners polygon primitive as box body*
4,1,4,$2,$3,$4,$5,$6,$7,$8,$9,$2,$3,0*
0 Add four circle primitives for the rounded corners*
1,1,$1+$1,$2,$3*
1,1,$1+$1,$4,$5*
1,1,$1+$1,$6,$7*
1,1,$1+$1,$8,$9*
0 Add four rect primitives between the rounded corners*
20,1,$1+$1,$2,$3,$4,$5,0*
20,1,$1+$1,$4,$5,$6,$7,0*
20,1,$1+$1,$6,$7,$8,$9,0*
20,1,$1+$1,$8,$9,$2,$3,0*%
G04 Aperture macros list end*
%ADD10C,0.053300*%
%ADD11C,1.600000*%
%ADD12R,1.500000X1.500000*%
%ADD13C,1.500000*%
%ADD14O,1.600000X1.600000*%
%ADD15R,1.600000X1.600000*%
%ADD16R,2.032000X2.032000*%
%ADD17C,2.032000*%
%ADD18C,1.800000*%
%ADD19R,1.800000X1.800000*%
%ADD20O,2.200000X2.900000*%
%ADD21C,2.000000*%
%ADD22O,1.700000X1.700000*%
%ADD23R,1.700000X1.700000*%
%ADD24RoundRect,0.650000X0.650000X-0.650000X0.650000X0.650000X-0.650000X0.650000X-0.650000X-0.650000X0*%
%ADD25O,2.300000X3.100000*%
%ADD26C,5.600000*%
G04 APERTURE END LIST*
%TO.C,REF\u002A\u002A*%
D10*
X72077656Y-30910943D02*
X72094565Y-30919969D01*
X72104702Y-30935743D01*
X72109216Y-31009016D01*
X72132891Y-31161175D01*
X72147551Y-31304317D01*
X72157688Y-31464381D01*
X72155432Y-31516219D01*
X72143033Y-31535384D01*
X72110351Y-31555670D01*
X72059622Y-31574835D01*
X71957053Y-31586117D01*
X71624542Y-31608660D01*
X71258225Y-31612029D01*
X71214260Y-31599632D01*
X71201863Y-31574835D01*
X71199621Y-31532007D01*
X71197364Y-31451983D01*
X71181576Y-31357303D01*
X71157913Y-31175833D01*
X71160170Y-31075507D01*
X71153399Y-30990969D01*
X71161282Y-30969563D01*
X71196221Y-30967307D01*
X71299924Y-30962795D01*
X71367552Y-30958281D01*
X71487026Y-30941373D01*
X71713581Y-30914333D01*
X71952535Y-30909821D01*
X72077656Y-30910943D01*
G36*
X72077656Y-30910943D02*
G01*
X72094565Y-30919969D01*
X72104702Y-30935743D01*
X72109216Y-31009016D01*
X72132891Y-31161175D01*
X72147551Y-31304317D01*
X72157688Y-31464381D01*
X72155432Y-31516219D01*
X72143033Y-31535384D01*
X72110351Y-31555670D01*
X72059622Y-31574835D01*
X71957053Y-31586117D01*
X71624542Y-31608660D01*
X71258225Y-31612029D01*
X71214260Y-31599632D01*
X71201863Y-31574835D01*
X71199621Y-31532007D01*
X71197364Y-31451983D01*
X71181576Y-31357303D01*
X71157913Y-31175833D01*
X71160170Y-31075507D01*
X71153399Y-30990969D01*
X71161282Y-30969563D01*
X71196221Y-30967307D01*
X71299924Y-30962795D01*
X71367552Y-30958281D01*
X71487026Y-30941373D01*
X71713581Y-30914333D01*
X71952535Y-30909821D01*
X72077656Y-30910943D01*
G37*
X71992000Y-30087000D02*
X72016798Y-30103908D01*
X72034828Y-30127571D01*
X72055116Y-30165901D01*
X72069771Y-30232392D01*
X72082166Y-30295522D01*
X72097956Y-30375546D01*
X72118240Y-30598724D01*
X72120497Y-30641552D01*
X72111473Y-30667472D01*
X72095695Y-30688894D01*
X72067511Y-30701291D01*
X71984107Y-30719319D01*
X71807147Y-30749749D01*
X71608768Y-30773426D01*
X71386723Y-30785822D01*
X71326984Y-30797090D01*
X71218772Y-30801602D01*
X71171432Y-30795974D01*
X71141003Y-30775689D01*
X71127479Y-30756525D01*
X71116197Y-30662980D01*
X71115069Y-30557024D01*
X71094769Y-30160263D01*
X71103794Y-30148997D01*
X71112818Y-30142226D01*
X71131969Y-30133215D01*
X71169167Y-30123075D01*
X71223271Y-30109538D01*
X71304434Y-30093760D01*
X71497166Y-30085879D01*
X71638063Y-30083621D01*
X71950278Y-30075723D01*
X71992000Y-30087000D01*
G36*
X71992000Y-30087000D02*
G01*
X72016798Y-30103908D01*
X72034828Y-30127571D01*
X72055116Y-30165901D01*
X72069771Y-30232392D01*
X72082166Y-30295522D01*
X72097956Y-30375546D01*
X72118240Y-30598724D01*
X72120497Y-30641552D01*
X72111473Y-30667472D01*
X72095695Y-30688894D01*
X72067511Y-30701291D01*
X71984107Y-30719319D01*
X71807147Y-30749749D01*
X71608768Y-30773426D01*
X71386723Y-30785822D01*
X71326984Y-30797090D01*
X71218772Y-30801602D01*
X71171432Y-30795974D01*
X71141003Y-30775689D01*
X71127479Y-30756525D01*
X71116197Y-30662980D01*
X71115069Y-30557024D01*
X71094769Y-30160263D01*
X71103794Y-30148997D01*
X71112818Y-30142226D01*
X71131969Y-30133215D01*
X71169167Y-30123075D01*
X71223271Y-30109538D01*
X71304434Y-30093760D01*
X71497166Y-30085879D01*
X71638063Y-30083621D01*
X71950278Y-30075723D01*
X71992000Y-30087000D01*
G37*
X72710167Y-28487252D02*
X72913178Y-28502690D01*
X73113236Y-28528111D01*
X73310092Y-28563266D01*
X73503494Y-28607903D01*
X73693190Y-28661771D01*
X73878931Y-28724619D01*
X74060463Y-28796195D01*
X74237537Y-28876249D01*
X74409901Y-28964529D01*
X74577305Y-29060784D01*
X74739495Y-29164762D01*
X74896223Y-29276214D01*
X75047236Y-29394887D01*
X75192283Y-29520530D01*
X75331114Y-29652893D01*
X75463476Y-29791724D01*
X75589119Y-29936771D01*
X75707792Y-30087784D01*
X75819243Y-30244512D01*
X75923222Y-30406703D01*
X76019477Y-30574107D01*
X76107756Y-30746471D01*
X76187810Y-30923545D01*
X76259386Y-31105078D01*
X76322233Y-31290818D01*
X76376101Y-31480515D01*
X76420738Y-31673917D01*
X76455892Y-31870773D01*
X76481314Y-32070831D01*
X76496751Y-32273842D01*
X76501952Y-32479553D01*
X76496751Y-32685263D01*
X76481314Y-32888274D01*
X76455892Y-33088332D01*
X76420738Y-33285188D01*
X76376101Y-33478590D01*
X76322233Y-33668287D01*
X76259386Y-33854027D01*
X76187810Y-34035560D01*
X76107756Y-34212634D01*
X76019477Y-34384998D01*
X75923222Y-34552401D01*
X75819243Y-34714592D01*
X75707792Y-34871320D01*
X75589119Y-35022333D01*
X75463476Y-35167381D01*
X75331113Y-35306211D01*
X75192283Y-35438574D01*
X75047235Y-35564217D01*
X74896222Y-35682890D01*
X74739494Y-35794341D01*
X74577303Y-35898320D01*
X74409900Y-35994575D01*
X74237536Y-36082855D01*
X74060462Y-36162908D01*
X73878929Y-36234485D01*
X73693188Y-36297332D01*
X73503491Y-36351200D01*
X73310089Y-36395837D01*
X73113233Y-36430992D01*
X72913174Y-36456414D01*
X72710164Y-36471851D01*
X72504452Y-36477053D01*
X72298742Y-36471851D01*
X72095731Y-36456414D01*
X71895673Y-36430992D01*
X71698817Y-36395838D01*
X71505415Y-36351201D01*
X71315718Y-36297333D01*
X71129978Y-36234485D01*
X70948445Y-36162909D01*
X70771371Y-36082856D01*
X70599007Y-35994576D01*
X70431603Y-35898321D01*
X70269412Y-35794342D01*
X70112684Y-35682891D01*
X69961671Y-35564218D01*
X69816624Y-35438575D01*
X69677793Y-35306212D01*
X69545430Y-35167381D01*
X69419787Y-35022334D01*
X69301114Y-34871321D01*
X69189663Y-34714593D01*
X69085684Y-34552402D01*
X68989429Y-34384998D01*
X68901149Y-34212634D01*
X68821096Y-34035560D01*
X68749520Y-33854027D01*
X68686672Y-33668287D01*
X68632804Y-33478590D01*
X68588167Y-33285188D01*
X68553013Y-33088332D01*
X68527591Y-32888274D01*
X68512154Y-32685263D01*
X68510240Y-32609558D01*
X70872750Y-32609558D01*
X70876135Y-32633218D01*
X70887401Y-32670416D01*
X70899800Y-32734666D01*
X70913323Y-32805683D01*
X70912197Y-32917271D01*
X70913323Y-33182143D01*
X70907697Y-33440262D01*
X70912209Y-33628486D01*
X70938129Y-33967764D01*
X70949409Y-34146979D01*
X70949409Y-34354367D01*
X70950537Y-34575290D01*
X70938141Y-34681248D01*
X70939267Y-34744363D01*
X70949407Y-34779305D01*
X70960689Y-34800725D01*
X70976467Y-34821010D01*
X70991121Y-34834535D01*
X71013663Y-34839047D01*
X71033949Y-34840175D01*
X71061003Y-34835664D01*
X71084664Y-34823265D01*
X71102709Y-34807479D01*
X71119605Y-34790579D01*
X71142145Y-34747737D01*
X71150042Y-34698144D01*
X71144402Y-34441157D01*
X71142145Y-34136833D01*
X71143274Y-33688221D01*
X71145531Y-33425604D01*
X71138760Y-33248644D01*
X71127494Y-33075060D01*
X71100442Y-32825963D01*
X71094801Y-32788767D01*
X71100442Y-32759460D01*
X71109453Y-32740294D01*
X71126361Y-32727898D01*
X71153415Y-32718887D01*
X71230060Y-32715501D01*
X71376591Y-32707604D01*
X71605401Y-32696336D01*
X72072032Y-32672661D01*
X72245614Y-32667033D01*
X72295212Y-32672661D01*
X72326772Y-32687315D01*
X72344803Y-32710992D01*
X72354945Y-32744796D01*
X72372975Y-32881183D01*
X72379742Y-33157333D01*
X72386513Y-33547330D01*
X72389884Y-33805449D01*
X72394393Y-34263069D01*
X72392137Y-34682360D01*
X72409049Y-34718436D01*
X72423700Y-34752240D01*
X72462019Y-34780415D01*
X72491326Y-34787183D01*
X72530779Y-34779302D01*
X72569097Y-34753385D01*
X72597270Y-34730842D01*
X72616435Y-34702654D01*
X72628833Y-34655316D01*
X72631090Y-34566268D01*
X72622063Y-34436648D01*
X72611925Y-34320560D01*
X72596151Y-34052297D01*
X72573611Y-33566501D01*
X72562326Y-33090836D01*
X72553315Y-32754946D01*
X72565714Y-32694085D01*
X72581488Y-32669288D01*
X72622063Y-32659148D01*
X72688566Y-32647868D01*
X72775360Y-32641111D01*
X72953439Y-32630974D01*
X73238612Y-32616318D01*
X73625232Y-32600530D01*
X73859672Y-32599404D01*
X73897990Y-32603915D01*
X73920531Y-32612927D01*
X73936321Y-32630970D01*
X73953217Y-32659144D01*
X73967872Y-32694083D01*
X73976896Y-32747055D01*
X73985907Y-32800027D01*
X73992678Y-32944301D01*
X73997192Y-33209189D01*
X74001705Y-33634126D01*
X74007333Y-33831372D01*
X74018614Y-34098499D01*
X74034383Y-34290113D01*
X74054671Y-34482863D01*
X74065951Y-34605715D01*
X74082848Y-34685741D01*
X74094128Y-34721817D01*
X74111036Y-34747735D01*
X74124561Y-34768022D01*
X74149359Y-34783810D01*
X74166267Y-34789436D01*
X74193321Y-34789436D01*
X74213609Y-34787179D01*
X74230517Y-34771405D01*
X74247426Y-34759009D01*
X74266579Y-34728579D01*
X74271093Y-34692504D01*
X74274460Y-34631645D01*
X74269962Y-34532454D01*
X74232766Y-34132315D01*
X74206834Y-33776140D01*
X74175282Y-33348949D01*
X74160627Y-33069420D01*
X74160627Y-32697458D01*
X74162884Y-32665909D01*
X74175278Y-32598267D01*
X74186547Y-32543040D01*
X74192171Y-32487814D01*
X74192171Y-32451738D01*
X74178650Y-32422443D01*
X74163994Y-32403278D01*
X74131308Y-32387500D01*
X74090732Y-32377362D01*
X73949858Y-32378479D01*
X73750357Y-32388618D01*
X73326542Y-32414550D01*
X72884708Y-32442723D01*
X72471050Y-32470897D01*
X71910850Y-32502461D01*
X71465627Y-32502461D01*
X71350663Y-32499090D01*
X71190613Y-32478790D01*
X71038450Y-32451738D01*
X71024913Y-32443855D01*
X70988854Y-32443855D01*
X70951656Y-32450626D01*
X70924603Y-32461906D01*
X70895294Y-32482192D01*
X70879521Y-32505854D01*
X70872750Y-32546442D01*
X70872750Y-32609558D01*
X68510240Y-32609558D01*
X68506952Y-32479553D01*
X68512154Y-32273842D01*
X68527591Y-32070831D01*
X68553013Y-31870773D01*
X68588167Y-31673917D01*
X68632804Y-31480515D01*
X68686672Y-31290818D01*
X68749520Y-31105078D01*
X68821096Y-30923545D01*
X68901150Y-30746471D01*
X68989430Y-30574106D01*
X69085685Y-30406703D01*
X69189663Y-30244512D01*
X69301115Y-30087784D01*
X69377013Y-29991202D01*
X70924589Y-29991202D01*
X70925716Y-30023886D01*
X70938112Y-30065580D01*
X70940369Y-30269594D01*
X70948266Y-30500661D01*
X70964044Y-30720462D01*
X70973070Y-30926731D01*
X70975312Y-31232176D01*
X70978696Y-31573712D01*
X70983209Y-31672890D01*
X70991090Y-31707829D01*
X71005748Y-31734883D01*
X71018144Y-31756305D01*
X71037295Y-31775468D01*
X71073371Y-31794619D01*
X71102678Y-31801390D01*
X71215388Y-31796876D01*
X71333731Y-31799135D01*
X71609878Y-31790122D01*
X71929995Y-31783353D01*
X72254491Y-31775848D01*
X72326223Y-31772662D01*
X72367665Y-31758316D01*
X72399538Y-31735999D01*
X72413884Y-31707306D01*
X72417068Y-31662685D01*
X72402722Y-31594134D01*
X72377213Y-31433145D01*
X72343742Y-31160567D01*
X72303894Y-30762056D01*
X72272009Y-30462381D01*
X72267227Y-30280659D01*
X72257667Y-30143572D01*
X72259261Y-30051119D01*
X72254596Y-30012846D01*
X72659356Y-30012846D01*
X72668933Y-30098923D01*
X72692836Y-30353961D01*
X72715152Y-30618566D01*
X72719947Y-30897518D01*
X72724729Y-31107933D01*
X72731101Y-31369346D01*
X72719947Y-31402829D01*
X72727917Y-31543098D01*
X72742263Y-31606856D01*
X72758192Y-31653090D01*
X72774136Y-31686559D01*
X72806022Y-31705698D01*
X72903251Y-31707276D01*
X73113666Y-31678585D01*
X73209297Y-31675411D01*
X73756050Y-31688157D01*
X73929802Y-31718446D01*
X73990380Y-31716852D01*
X74023851Y-31705698D01*
X74049348Y-31688157D01*
X74073271Y-31669034D01*
X74092400Y-31643524D01*
X74103566Y-31621205D01*
X74111532Y-31590928D01*
X74106738Y-31552666D01*
X74090810Y-31523973D01*
X74068493Y-31503255D01*
X74039800Y-31487312D01*
X74007915Y-31477750D01*
X73923430Y-31477750D01*
X73768807Y-31506441D01*
X73542459Y-31504861D01*
X73206121Y-31472976D01*
X73054690Y-31469790D01*
X73018023Y-31458633D01*
X72987736Y-31439511D01*
X72965415Y-31388501D01*
X72955855Y-31350240D01*
X72952667Y-31033025D01*
X72962243Y-30977239D01*
X72957461Y-30717412D01*
X72927174Y-30374700D01*
X72917597Y-30245586D01*
X72916003Y-30178632D01*
X72917597Y-30151537D01*
X72923970Y-30124442D01*
X72943106Y-30105319D01*
X72968607Y-30095757D01*
X73018019Y-30092571D01*
X73041934Y-30098959D01*
X73116846Y-30110116D01*
X73744900Y-30108520D01*
X73775187Y-30116488D01*
X73838945Y-30132434D01*
X73864446Y-30141995D01*
X73894733Y-30149949D01*
X73977616Y-30145167D01*
X73995158Y-30137198D01*
X74052540Y-30089383D01*
X74071669Y-30059094D01*
X74084413Y-30020830D01*
X74082835Y-29995331D01*
X74073259Y-29963446D01*
X74050942Y-29942726D01*
X74027027Y-29926797D01*
X73969641Y-29907658D01*
X73805458Y-29907658D01*
X73661997Y-29934755D01*
X72908025Y-29909257D01*
X72807603Y-29896508D01*
X72750209Y-29920380D01*
X72713562Y-29947489D01*
X72686451Y-29961836D01*
X72665733Y-29987335D01*
X72659356Y-30012846D01*
X72254596Y-30012846D01*
X72251294Y-29985763D01*
X72232170Y-29928377D01*
X72205063Y-29888534D01*
X72177968Y-29864619D01*
X72136527Y-29842302D01*
X72099863Y-29834334D01*
X72026533Y-29834334D01*
X71946830Y-29845496D01*
X71567455Y-29886938D01*
X71479794Y-29898104D01*
X71372982Y-29909261D01*
X71317196Y-29906073D01*
X71208801Y-29907669D01*
X71173731Y-29899700D01*
X71098823Y-29894918D01*
X71036645Y-29891732D01*
X70984053Y-29901292D01*
X70976437Y-29908907D01*
X70953894Y-29926952D01*
X70936986Y-29943848D01*
X70924589Y-29991202D01*
X69377013Y-29991202D01*
X69419788Y-29936771D01*
X69545432Y-29791723D01*
X69677794Y-29652892D01*
X69816625Y-29520530D01*
X69961673Y-29394886D01*
X70112686Y-29276213D01*
X70269414Y-29164761D01*
X70431605Y-29060783D01*
X70599009Y-28964528D01*
X70771373Y-28876248D01*
X70948448Y-28796194D01*
X71129981Y-28724618D01*
X71315721Y-28661770D01*
X71505418Y-28607903D01*
X71698820Y-28563266D01*
X71895676Y-28528111D01*
X72095735Y-28502689D01*
X72298745Y-28487252D01*
X72504456Y-28482051D01*
X72710167Y-28487252D01*
G36*
X72710167Y-28487252D02*
G01*
X72913178Y-28502690D01*
X73113236Y-28528111D01*
X73310092Y-28563266D01*
X73503494Y-28607903D01*
X73693190Y-28661771D01*
X73878931Y-28724619D01*
X74060463Y-28796195D01*
X74237537Y-28876249D01*
X74409901Y-28964529D01*
X74577305Y-29060784D01*
X74739495Y-29164762D01*
X74896223Y-29276214D01*
X75047236Y-29394887D01*
X75192283Y-29520530D01*
X75331114Y-29652893D01*
X75463476Y-29791724D01*
X75589119Y-29936771D01*
X75707792Y-30087784D01*
X75819243Y-30244512D01*
X75923222Y-30406703D01*
X76019477Y-30574107D01*
X76107756Y-30746471D01*
X76187810Y-30923545D01*
X76259386Y-31105078D01*
X76322233Y-31290818D01*
X76376101Y-31480515D01*
X76420738Y-31673917D01*
X76455892Y-31870773D01*
X76481314Y-32070831D01*
X76496751Y-32273842D01*
X76501952Y-32479553D01*
X76496751Y-32685263D01*
X76481314Y-32888274D01*
X76455892Y-33088332D01*
X76420738Y-33285188D01*
X76376101Y-33478590D01*
X76322233Y-33668287D01*
X76259386Y-33854027D01*
X76187810Y-34035560D01*
X76107756Y-34212634D01*
X76019477Y-34384998D01*
X75923222Y-34552401D01*
X75819243Y-34714592D01*
X75707792Y-34871320D01*
X75589119Y-35022333D01*
X75463476Y-35167381D01*
X75331113Y-35306211D01*
X75192283Y-35438574D01*
X75047235Y-35564217D01*
X74896222Y-35682890D01*
X74739494Y-35794341D01*
X74577303Y-35898320D01*
X74409900Y-35994575D01*
X74237536Y-36082855D01*
X74060462Y-36162908D01*
X73878929Y-36234485D01*
X73693188Y-36297332D01*
X73503491Y-36351200D01*
X73310089Y-36395837D01*
X73113233Y-36430992D01*
X72913174Y-36456414D01*
X72710164Y-36471851D01*
X72504452Y-36477053D01*
X72298742Y-36471851D01*
X72095731Y-36456414D01*
X71895673Y-36430992D01*
X71698817Y-36395838D01*
X71505415Y-36351201D01*
X71315718Y-36297333D01*
X71129978Y-36234485D01*
X70948445Y-36162909D01*
X70771371Y-36082856D01*
X70599007Y-35994576D01*
X70431603Y-35898321D01*
X70269412Y-35794342D01*
X70112684Y-35682891D01*
X69961671Y-35564218D01*
X69816624Y-35438575D01*
X69677793Y-35306212D01*
X69545430Y-35167381D01*
X69419787Y-35022334D01*
X69301114Y-34871321D01*
X69189663Y-34714593D01*
X69085684Y-34552402D01*
X68989429Y-34384998D01*
X68901149Y-34212634D01*
X68821096Y-34035560D01*
X68749520Y-33854027D01*
X68686672Y-33668287D01*
X68632804Y-33478590D01*
X68588167Y-33285188D01*
X68553013Y-33088332D01*
X68527591Y-32888274D01*
X68512154Y-32685263D01*
X68510240Y-32609558D01*
X70872750Y-32609558D01*
X70876135Y-32633218D01*
X70887401Y-32670416D01*
X70899800Y-32734666D01*
X70913323Y-32805683D01*
X70912197Y-32917271D01*
X70913323Y-33182143D01*
X70907697Y-33440262D01*
X70912209Y-33628486D01*
X70938129Y-33967764D01*
X70949409Y-34146979D01*
X70949409Y-34354367D01*
X70950537Y-34575290D01*
X70938141Y-34681248D01*
X70939267Y-34744363D01*
X70949407Y-34779305D01*
X70960689Y-34800725D01*
X70976467Y-34821010D01*
X70991121Y-34834535D01*
X71013663Y-34839047D01*
X71033949Y-34840175D01*
X71061003Y-34835664D01*
X71084664Y-34823265D01*
X71102709Y-34807479D01*
X71119605Y-34790579D01*
X71142145Y-34747737D01*
X71150042Y-34698144D01*
X71144402Y-34441157D01*
X71142145Y-34136833D01*
X71143274Y-33688221D01*
X71145531Y-33425604D01*
X71138760Y-33248644D01*
X71127494Y-33075060D01*
X71100442Y-32825963D01*
X71094801Y-32788767D01*
X71100442Y-32759460D01*
X71109453Y-32740294D01*
X71126361Y-32727898D01*
X71153415Y-32718887D01*
X71230060Y-32715501D01*
X71376591Y-32707604D01*
X71605401Y-32696336D01*
X72072032Y-32672661D01*
X72245614Y-32667033D01*
X72295212Y-32672661D01*
X72326772Y-32687315D01*
X72344803Y-32710992D01*
X72354945Y-32744796D01*
X72372975Y-32881183D01*
X72379742Y-33157333D01*
X72386513Y-33547330D01*
X72389884Y-33805449D01*
X72394393Y-34263069D01*
X72392137Y-34682360D01*
X72409049Y-34718436D01*
X72423700Y-34752240D01*
X72462019Y-34780415D01*
X72491326Y-34787183D01*
X72530779Y-34779302D01*
X72569097Y-34753385D01*
X72597270Y-34730842D01*
X72616435Y-34702654D01*
X72628833Y-34655316D01*
X72631090Y-34566268D01*
X72622063Y-34436648D01*
X72611925Y-34320560D01*
X72596151Y-34052297D01*
X72573611Y-33566501D01*
X72562326Y-33090836D01*
X72553315Y-32754946D01*
X72565714Y-32694085D01*
X72581488Y-32669288D01*
X72622063Y-32659148D01*
X72688566Y-32647868D01*
X72775360Y-32641111D01*
X72953439Y-32630974D01*
X73238612Y-32616318D01*
X73625232Y-32600530D01*
X73859672Y-32599404D01*
X73897990Y-32603915D01*
X73920531Y-32612927D01*
X73936321Y-32630970D01*
X73953217Y-32659144D01*
X73967872Y-32694083D01*
X73976896Y-32747055D01*
X73985907Y-32800027D01*
X73992678Y-32944301D01*
X73997192Y-33209189D01*
X74001705Y-33634126D01*
X74007333Y-33831372D01*
X74018614Y-34098499D01*
X74034383Y-34290113D01*
X74054671Y-34482863D01*
X74065951Y-34605715D01*
X74082848Y-34685741D01*
X74094128Y-34721817D01*
X74111036Y-34747735D01*
X74124561Y-34768022D01*
X74149359Y-34783810D01*
X74166267Y-34789436D01*
X74193321Y-34789436D01*
X74213609Y-34787179D01*
X74230517Y-34771405D01*
X74247426Y-34759009D01*
X74266579Y-34728579D01*
X74271093Y-34692504D01*
X74274460Y-34631645D01*
X74269962Y-34532454D01*
X74232766Y-34132315D01*
X74206834Y-33776140D01*
X74175282Y-33348949D01*
X74160627Y-33069420D01*
X74160627Y-32697458D01*
X74162884Y-32665909D01*
X74175278Y-32598267D01*
X74186547Y-32543040D01*
X74192171Y-32487814D01*
X74192171Y-32451738D01*
X74178650Y-32422443D01*
X74163994Y-32403278D01*
X74131308Y-32387500D01*
X74090732Y-32377362D01*
X73949858Y-32378479D01*
X73750357Y-32388618D01*
X73326542Y-32414550D01*
X72884708Y-32442723D01*
X72471050Y-32470897D01*
X71910850Y-32502461D01*
X71465627Y-32502461D01*
X71350663Y-32499090D01*
X71190613Y-32478790D01*
X71038450Y-32451738D01*
X71024913Y-32443855D01*
X70988854Y-32443855D01*
X70951656Y-32450626D01*
X70924603Y-32461906D01*
X70895294Y-32482192D01*
X70879521Y-32505854D01*
X70872750Y-32546442D01*
X70872750Y-32609558D01*
X68510240Y-32609558D01*
X68506952Y-32479553D01*
X68512154Y-32273842D01*
X68527591Y-32070831D01*
X68553013Y-31870773D01*
X68588167Y-31673917D01*
X68632804Y-31480515D01*
X68686672Y-31290818D01*
X68749520Y-31105078D01*
X68821096Y-30923545D01*
X68901150Y-30746471D01*
X68989430Y-30574106D01*
X69085685Y-30406703D01*
X69189663Y-30244512D01*
X69301115Y-30087784D01*
X69377013Y-29991202D01*
X70924589Y-29991202D01*
X70925716Y-30023886D01*
X70938112Y-30065580D01*
X70940369Y-30269594D01*
X70948266Y-30500661D01*
X70964044Y-30720462D01*
X70973070Y-30926731D01*
X70975312Y-31232176D01*
X70978696Y-31573712D01*
X70983209Y-31672890D01*
X70991090Y-31707829D01*
X71005748Y-31734883D01*
X71018144Y-31756305D01*
X71037295Y-31775468D01*
X71073371Y-31794619D01*
X71102678Y-31801390D01*
X71215388Y-31796876D01*
X71333731Y-31799135D01*
X71609878Y-31790122D01*
X71929995Y-31783353D01*
X72254491Y-31775848D01*
X72326223Y-31772662D01*
X72367665Y-31758316D01*
X72399538Y-31735999D01*
X72413884Y-31707306D01*
X72417068Y-31662685D01*
X72402722Y-31594134D01*
X72377213Y-31433145D01*
X72343742Y-31160567D01*
X72303894Y-30762056D01*
X72272009Y-30462381D01*
X72267227Y-30280659D01*
X72257667Y-30143572D01*
X72259261Y-30051119D01*
X72254596Y-30012846D01*
X72659356Y-30012846D01*
X72668933Y-30098923D01*
X72692836Y-30353961D01*
X72715152Y-30618566D01*
X72719947Y-30897518D01*
X72724729Y-31107933D01*
X72731101Y-31369346D01*
X72719947Y-31402829D01*
X72727917Y-31543098D01*
X72742263Y-31606856D01*
X72758192Y-31653090D01*
X72774136Y-31686559D01*
X72806022Y-31705698D01*
X72903251Y-31707276D01*
X73113666Y-31678585D01*
X73209297Y-31675411D01*
X73756050Y-31688157D01*
X73929802Y-31718446D01*
X73990380Y-31716852D01*
X74023851Y-31705698D01*
X74049348Y-31688157D01*
X74073271Y-31669034D01*
X74092400Y-31643524D01*
X74103566Y-31621205D01*
X74111532Y-31590928D01*
X74106738Y-31552666D01*
X74090810Y-31523973D01*
X74068493Y-31503255D01*
X74039800Y-31487312D01*
X74007915Y-31477750D01*
X73923430Y-31477750D01*
X73768807Y-31506441D01*
X73542459Y-31504861D01*
X73206121Y-31472976D01*
X73054690Y-31469790D01*
X73018023Y-31458633D01*
X72987736Y-31439511D01*
X72965415Y-31388501D01*
X72955855Y-31350240D01*
X72952667Y-31033025D01*
X72962243Y-30977239D01*
X72957461Y-30717412D01*
X72927174Y-30374700D01*
X72917597Y-30245586D01*
X72916003Y-30178632D01*
X72917597Y-30151537D01*
X72923970Y-30124442D01*
X72943106Y-30105319D01*
X72968607Y-30095757D01*
X73018019Y-30092571D01*
X73041934Y-30098959D01*
X73116846Y-30110116D01*
X73744900Y-30108520D01*
X73775187Y-30116488D01*
X73838945Y-30132434D01*
X73864446Y-30141995D01*
X73894733Y-30149949D01*
X73977616Y-30145167D01*
X73995158Y-30137198D01*
X74052540Y-30089383D01*
X74071669Y-30059094D01*
X74084413Y-30020830D01*
X74082835Y-29995331D01*
X74073259Y-29963446D01*
X74050942Y-29942726D01*
X74027027Y-29926797D01*
X73969641Y-29907658D01*
X73805458Y-29907658D01*
X73661997Y-29934755D01*
X72908025Y-29909257D01*
X72807603Y-29896508D01*
X72750209Y-29920380D01*
X72713562Y-29947489D01*
X72686451Y-29961836D01*
X72665733Y-29987335D01*
X72659356Y-30012846D01*
X72254596Y-30012846D01*
X72251294Y-29985763D01*
X72232170Y-29928377D01*
X72205063Y-29888534D01*
X72177968Y-29864619D01*
X72136527Y-29842302D01*
X72099863Y-29834334D01*
X72026533Y-29834334D01*
X71946830Y-29845496D01*
X71567455Y-29886938D01*
X71479794Y-29898104D01*
X71372982Y-29909261D01*
X71317196Y-29906073D01*
X71208801Y-29907669D01*
X71173731Y-29899700D01*
X71098823Y-29894918D01*
X71036645Y-29891732D01*
X70984053Y-29901292D01*
X70976437Y-29908907D01*
X70953894Y-29926952D01*
X70936986Y-29943848D01*
X70924589Y-29991202D01*
X69377013Y-29991202D01*
X69419788Y-29936771D01*
X69545432Y-29791723D01*
X69677794Y-29652892D01*
X69816625Y-29520530D01*
X69961673Y-29394886D01*
X70112686Y-29276213D01*
X70269414Y-29164761D01*
X70431605Y-29060783D01*
X70599009Y-28964528D01*
X70771373Y-28876248D01*
X70948448Y-28796194D01*
X71129981Y-28724618D01*
X71315721Y-28661770D01*
X71505418Y-28607903D01*
X71698820Y-28563266D01*
X71895676Y-28528111D01*
X72095735Y-28502689D01*
X72298745Y-28487252D01*
X72504456Y-28482051D01*
X72710167Y-28487252D01*
G37*
%TD*%
D11*
%TO.C,C12*%
X105410000Y-67554000D03*
X105410000Y-72554000D03*
%TD*%
D12*
%TO.C,U4*%
X68580000Y-66802000D03*
D13*
X68580000Y-69342000D03*
X68580000Y-71882000D03*
%TD*%
D14*
%TO.C,U3*%
X117084000Y-72390000D03*
X114544000Y-72390000D03*
X112004000Y-72390000D03*
X109464000Y-72390000D03*
X109464000Y-64770000D03*
X112004000Y-64770000D03*
X114544000Y-64770000D03*
D15*
X117084000Y-64770000D03*
%TD*%
D14*
%TO.C,U2*%
X57658000Y-39370000D03*
X57658000Y-41910000D03*
X57658000Y-44450000D03*
X57658000Y-46990000D03*
X57658000Y-49530000D03*
X57658000Y-52070000D03*
X57658000Y-54610000D03*
X50038000Y-54610000D03*
X50038000Y-52070000D03*
X50038000Y-49530000D03*
X50038000Y-46990000D03*
X50038000Y-44450000D03*
X50038000Y-41910000D03*
D15*
X50038000Y-39370000D03*
%TD*%
D14*
%TO.C,U1*%
X124714000Y-53340000D03*
X124714000Y-50800000D03*
X124714000Y-48260000D03*
X124714000Y-45720000D03*
X124714000Y-43180000D03*
X124714000Y-40640000D03*
X124714000Y-38100000D03*
X132334000Y-38100000D03*
X132334000Y-40640000D03*
X132334000Y-43180000D03*
X132334000Y-45720000D03*
X132334000Y-48260000D03*
X132334000Y-50800000D03*
D15*
X132334000Y-53340000D03*
%TD*%
D16*
%TO.C,SW1*%
X56754000Y-75692000D03*
D17*
X54214000Y-75692000D03*
X51674000Y-75692000D03*
%TD*%
D18*
%TO.C,RV3*%
X85558000Y-55252000D03*
X83058000Y-55252000D03*
D19*
X80558000Y-55252000D03*
D20*
X87858000Y-47752000D03*
X78258000Y-47752000D03*
%TD*%
%TO.C,RV2*%
X92600000Y-47752000D03*
X102200000Y-47752000D03*
D19*
X94900000Y-55252000D03*
D18*
X97400000Y-55252000D03*
X99900000Y-55252000D03*
%TD*%
D21*
%TO.C,RV1*%
X70786000Y-52030000D03*
X68286000Y-49530000D03*
X65786000Y-52030000D03*
%TD*%
D14*
%TO.C,R11*%
X77978000Y-58420000D03*
D11*
X88138000Y-58420000D03*
%TD*%
%TO.C,R10*%
X70104000Y-75692000D03*
D14*
X59944000Y-75692000D03*
%TD*%
%TO.C,R9*%
X119126000Y-80508000D03*
D11*
X108966000Y-80508000D03*
%TD*%
%TO.C,R8*%
X111506000Y-48006000D03*
D14*
X121666000Y-48006000D03*
%TD*%
D11*
%TO.C,R7*%
X121666000Y-44958000D03*
D14*
X111506000Y-44958000D03*
%TD*%
D11*
%TO.C,R6*%
X107950000Y-48260000D03*
D14*
X107950000Y-38100000D03*
%TD*%
%TO.C,R5*%
X111506000Y-41910000D03*
D11*
X121666000Y-41910000D03*
%TD*%
%TO.C,R4*%
X70866000Y-43942000D03*
D14*
X60706000Y-43942000D03*
%TD*%
%TO.C,R3*%
X60706000Y-40894000D03*
D11*
X70866000Y-40894000D03*
%TD*%
%TO.C,R2*%
X140600000Y-38040000D03*
D14*
X140600000Y-48200000D03*
%TD*%
D11*
%TO.C,R1*%
X136600000Y-46240000D03*
D14*
X136600000Y-56400000D03*
%TD*%
D22*
%TO.C,LS1*%
X130048000Y-73914000D03*
D23*
X130048000Y-76454000D03*
%TD*%
%TO.C,J2*%
X136901000Y-32004000D03*
D22*
X139441000Y-32004000D03*
%TD*%
D24*
%TO.C,J1*%
X140540000Y-63754000D03*
X132240000Y-63754000D03*
D25*
X143640000Y-63754000D03*
%TD*%
D26*
%TO.C,H2*%
X92710000Y-75184000D03*
%TD*%
%TO.C,H1*%
X82710000Y-75184000D03*
%TD*%
D15*
%TO.C,D3*%
X58674000Y-65786000D03*
D14*
X51054000Y-65786000D03*
%TD*%
%TO.C,D2*%
X74676000Y-45720000D03*
D15*
X74676000Y-38100000D03*
%TD*%
D14*
%TO.C,D1*%
X132334000Y-34798000D03*
D15*
X124714000Y-34798000D03*
%TD*%
%TO.C,C11*%
X61976000Y-69148888D03*
D11*
X61976000Y-71148888D03*
%TD*%
D15*
%TO.C,C10*%
X57658000Y-35306000D03*
D11*
X57658000Y-33306000D03*
%TD*%
D15*
%TO.C,C9*%
X124206000Y-58928000D03*
D11*
X124206000Y-60928000D03*
%TD*%
%TO.C,C8*%
X124174000Y-76444000D03*
D15*
X122174000Y-76444000D03*
%TD*%
D11*
%TO.C,C7*%
X113966000Y-76444000D03*
X108966000Y-76444000D03*
%TD*%
D15*
%TO.C,C6*%
X96266000Y-39116000D03*
D11*
X94266000Y-39116000D03*
%TD*%
%TO.C,C5*%
X121412000Y-51562000D03*
X116412000Y-51562000D03*
%TD*%
%TO.C,C4*%
X108030000Y-51562000D03*
X113030000Y-51562000D03*
%TD*%
%TO.C,C3*%
X116158000Y-38100000D03*
X121158000Y-38100000D03*
%TD*%
%TO.C,C2*%
X61722000Y-47244000D03*
X61722000Y-52244000D03*
%TD*%
%TO.C,C1*%
X136600000Y-38200000D03*
X136600000Y-43200000D03*
%TD*%
D23*
%TO.C,BT1*%
X52827000Y-69270000D03*
D22*
X55367000Y-69270000D03*
%TD*%
M02*
