M48
; DRILL file {KiCad 7.0.2-0} date 2024 May 25, Saturday 18:05:43
; FORMAT={-:-/ absolute / inch / decimal}
; #@! TF.CreationDate,2024-05-25T18:05:43+01:00
; #@! TF.GenerationSoftware,Kicad,Pcbnew,7.0.2-0
; #@! TF.FileFunction,MixedPlating,1,2
FMAT,2
INCH
; #@! TA.AperFunction,Plated,PTH,ViaDrill
T1C0.0120
; #@! TA.AperFunction,Plated,PTH,ComponentDrill
T2C0.0236
; #@! TA.AperFunction,Plated,PTH,ComponentDrill
T3C0.0315
; #@! TA.AperFunction,Plated,PTH,ComponentDrill
T4C0.0394
; #@! TA.AperFunction,Plated,PTH,ComponentDrill
T5C0.0433
; #@! TA.AperFunction,Plated,PTH,ComponentDrill
T6C0.0500
; #@! TA.AperFunction,Plated,PTH,ComponentDrill
T7C0.1260
%
G90
G05
T1
X2.5Y-1.4961
X3.3465Y-1.5157
X3.7992Y-2.4409
T3
X1.97Y-1.55
X1.97Y-1.65
X1.97Y-1.75
X1.97Y-1.85
X1.97Y-1.95
X1.97Y-2.05
X1.97Y-2.15
X2.01Y-2.59
X2.27Y-1.3113
X2.27Y-1.39
X2.27Y-1.55
X2.27Y-1.65
X2.27Y-1.75
X2.27Y-1.85
X2.27Y-1.95
X2.27Y-2.05
X2.27Y-2.15
X2.31Y-2.59
X2.36Y-2.98
X2.39Y-1.61
X2.39Y-1.73
X2.43Y-1.86
X2.43Y-2.0569
X2.44Y-2.7224
X2.44Y-2.8011
X2.7Y-2.63
X2.7Y-2.73
X2.7Y-2.83
X2.76Y-2.98
X2.79Y-1.61
X2.79Y-1.73
X2.94Y-1.5
X2.94Y-1.8
X3.07Y-2.3
X3.47Y-2.3
X3.7113Y-1.54
X3.79Y-1.54
X4.15Y-2.6596
X4.15Y-2.8565
X4.25Y-1.5
X4.25Y-1.9
X4.2531Y-2.03
X4.29Y-3.0096
X4.29Y-3.1696
X4.3096Y-2.55
X4.3096Y-2.85
X4.39Y-1.65
X4.39Y-1.77
X4.39Y-1.89
X4.4096Y-2.55
X4.4096Y-2.85
X4.45Y-2.03
X4.4869Y-3.0096
X4.5096Y-2.55
X4.5096Y-2.85
X4.5731Y-1.5
X4.5831Y-2.03
X4.6096Y-2.55
X4.6096Y-2.85
X4.69Y-3.1696
X4.77Y-1.5
X4.78Y-2.03
X4.79Y-1.65
X4.79Y-1.77
X4.79Y-1.89
X4.81Y-3.0096
X4.8887Y-3.0096
X4.89Y-2.32
X4.89Y-2.3987
X4.91Y-1.37
X4.91Y-1.5
X4.91Y-1.6
X4.91Y-1.7
X4.91Y-1.8
X4.91Y-1.9
X4.91Y-2.0
X4.91Y-2.1
X5.21Y-1.37
X5.21Y-1.5
X5.21Y-1.6
X5.21Y-1.7
X5.21Y-1.8
X5.21Y-1.9
X5.21Y-2.0
X5.21Y-2.1
X5.378Y-1.5039
X5.378Y-1.7008
X5.378Y-1.8205
X5.378Y-2.2205
X5.5354Y-1.4976
X5.5354Y-1.8976
T4
X2.0798Y-2.7272
X2.1798Y-2.7272
X3.1716Y-2.1753
X3.27Y-2.1753
X3.3684Y-2.1753
X3.7362Y-2.1753
X3.8346Y-2.1753
X3.9331Y-2.1753
X5.12Y-2.91
X5.12Y-3.01
X5.3898Y-1.26
X5.4898Y-1.26
T5
X2.59Y-2.0484
X2.6884Y-1.95
X2.7869Y-2.0484
T6
X2.0344Y-2.98
X2.1344Y-2.98
X2.2344Y-2.98
T7
X3.2563Y-2.96
X3.65Y-2.96
T2
G00X5.2063Y-2.5297
M15
G01X5.2063Y-2.4903
M16
G05
G00X5.5331Y-2.5297
M15
G01X5.5331Y-2.4903
M16
G05
G00X5.6551Y-2.5297
M15
G01X5.6551Y-2.4903
M16
G05
T5
G00X3.081Y-1.8938
M15
G01X3.081Y-1.8662
M16
G05
G00X3.459Y-1.8938
M15
G01X3.459Y-1.8662
M16
G05
G00X3.6457Y-1.8938
M15
G01X3.6457Y-1.8662
M16
G05
G00X4.0236Y-1.8938
M15
G01X4.0236Y-1.8662
M16
G05
T0
M30
